<?xml version="1.0" encoding="utf-8"?>
<!-- Generator: Adobe Illustrator 22.1.0, SVG Export Plug-In . SVG Version: 6.00 Build 0)  -->
<svg version="1.1" id="Layer_1" xmlns="http://www.w3.org/2000/svg" xmlns:xlink="http://www.w3.org/1999/xlink" x="0px" y="0px"
	 viewBox="0 0 1298.3 1401" style="enable-background:new 0 0 1298.3 1401;" xml:space="preserve">
<style type="text/css">
	.st0{fill:#D8D8D8;stroke:#9B2020;stroke-width:2;stroke-miterlimit:10;}
	.st1{fill:#01588C;}
	.st2{fill:#3E9AB2;stroke:#279FC9;stroke-width:2;stroke-miterlimit:10;}
	.st3{fill:#E2C938;stroke:#DEE33A;stroke-miterlimit:10;}
	.st4{fill:#CD632E;stroke:#CD632E;stroke-miterlimit:10;}
	.st5{fill:#279FC9;stroke:#279FC9;stroke-width:2;stroke-miterlimit:10;}
	.st6{fill:#E0A037;stroke:#E0A037;stroke-miterlimit:10;}
	.st7{fill:#25336D;stroke:#263675;stroke-width:6;stroke-miterlimit:10;}
	.st8{fill:#25336D;stroke:#263675;stroke-width:3;stroke-miterlimit:10;}
	.st9{fill:#DEE33A;stroke:#DEE33A;stroke-miterlimit:10;}
	.st10{opacity:0.58;stroke:#9B2020;stroke-width:2;stroke-miterlimit:10;enable-background:new    ;}
	.st11{opacity:0.85;fill:#FFFFFF;enable-background:new    ;}
	.st12{opacity:0.85;fill:#FFFFFF;stroke:#FFFFFF;stroke-width:9;stroke-miterlimit:10;enable-background:new    ;}
	.st13{opacity:0.85;fill:#FFFFFF;stroke:#FFFFFF;stroke-miterlimit:10;enable-background:new    ;}
	.st14{font-family:'ArialMT';}
	.st15{font-size:12px;}
</style>
<g id="Layer_5">
</g>
<g id="Layer_2_1_">
</g>
<g id="Layer_1_1_">
</g>
<g id="Layer_3">
</g>
<g id="Layer_4">
	<g id="XMLID_3385_">
		<rect id="XMLID_3359_" y="0" class="st0" width="1298.3" height="1401"/>
		
			<rect id="XMLID_3358_" x="426.4" y="453.7" transform="matrix(0.7071 -0.7071 0.7071 0.7071 -293.3742 669.3787)" class="st1" width="469.9" height="470.3"/>
		
			<rect id="XMLID_3357_" x="612.3" y="639.6" transform="matrix(0.7071 -0.7071 0.7071 0.7071 -293.3389 669.3934)" class="st2" width="98.2" height="98.3"/>
		
			<rect id="XMLID_3356_" x="638.6" y="667.5" transform="matrix(0.7071 -0.7071 0.7071 0.7071 -294.1121 669.7845)" class="st3" width="45.7" height="44.9"/>
		<g id="XMLID_2195_">
			<g id="XMLID_3352_">
				<path id="XMLID_3353_" class="st4" d="M661.6,533.8c-2.5,0-4.6-2-4.6-4.6s2-4.6,4.6-4.6s4.6,2,4.6,4.6S664.1,533.8,661.6,533.8z
					 M661.6,525.7c-2,0-3.6,1.6-3.6,3.6s1.6,3.6,3.6,3.6s3.6-1.6,3.6-3.6C665.2,527.3,663.6,525.7,661.6,525.7z"/>
			</g>
			<g id="XMLID_2198_">
				<g id="XMLID_2199_">
					<path id="XMLID_2200_" class="st4" d="M660.6,535.7L660.6,535.7L660.6,535.7c-0.3-0.1-0.5-0.3-0.4-0.6l0,0
						c0-0.3,0.3-0.5,0.6-0.4l0,0c0.3,0,0.5,0.3,0.4,0.6l0,0C661.1,535.5,660.9,535.7,660.6,535.7L660.6,535.7L660.6,535.7z
						 M662.2,535.3c-0.1-0.3,0.1-0.5,0.4-0.6l0,0c0.3-0.1,0.5,0.1,0.6,0.4l0,0c0,0.3-0.1,0.5-0.4,0.6l0,0h-0.1l0,0
						C662.4,535.7,662.2,535.5,662.2,535.3z M658.6,535c-0.2-0.1-0.3-0.4-0.2-0.7l0,0c0.1-0.2,0.4-0.3,0.7-0.2l0,0
						c0.2,0.1,0.3,0.4,0.2,0.7l0,0c-0.1,0.2-0.3,0.3-0.4,0.3l0,0C658.7,535.1,658.6,535,658.6,535z M664.1,534.8
						c-0.1-0.2,0-0.5,0.2-0.7l0,0c0.2-0.1,0.5,0,0.7,0.2l0,0c0.1,0.2,0,0.6-0.2,0.7l0,0c-0.1,0-0.2,0.1-0.2,0.1l0,0
						C664.3,535,664.2,534.9,664.1,534.8z M656.9,533.7c-0.2-0.2-0.2-0.5,0-0.7l0,0c0.2-0.2,0.5-0.2,0.7,0l0,0
						c0.2,0.2,0.2,0.5,0,0.7l0,0c-0.1,0.1-0.2,0.1-0.3,0.1l0,0C657.1,533.9,657,533.8,656.9,533.7z M665.7,533.7
						c-0.2-0.2-0.2-0.5,0-0.7l0,0c0.2-0.2,0.5-0.2,0.7,0l0,0c0.2,0.2,0.2,0.5,0,0.7l0,0c-0.1,0.1-0.2,0.2-0.4,0.2l0,0
						C665.9,533.8,665.8,533.8,665.7,533.7z M655.7,531.9c-0.1-0.2,0-0.5,0.3-0.7l0,0c0.2-0.1,0.5,0,0.7,0.2l0,0
						c0.1,0.3,0,0.5-0.2,0.7l0,0c-0.1,0-0.1,0-0.2,0l0,0C655.9,532.2,655.8,532.1,655.7,531.9z M666.9,532.1
						c-0.2-0.1-0.4-0.4-0.3-0.7l0,0c0.1-0.3,0.4-0.4,0.7-0.3l0,0c0.2,0.1,0.4,0.4,0.3,0.7l0,0l0,0l0,0c-0.1,0.2-0.3,0.3-0.5,0.3l0,0
						C667.1,532.2,667,532.1,666.9,532.1z M655.2,529.9c0-0.3,0.2-0.5,0.4-0.6l0,0c0.3,0,0.5,0.2,0.5,0.5l0,0c0,0.3-0.2,0.5-0.4,0.5
						l0,0c0,0,0,0-0.1,0l0,0C655.4,530.3,655.2,530.1,655.2,529.9z M667.6,530.2c-0.3,0-0.5-0.3-0.5-0.5l0,0c0-0.3,0.3-0.5,0.5-0.5
						l0,0c0.3,0,0.5,0.3,0.5,0.5l0,0C668.1,530,667.9,530.2,667.6,530.2L667.6,530.2L667.6,530.2z M655.7,528.3
						c-0.3-0.1-0.4-0.3-0.4-0.6l0,0l0,0l0,0c0.1-0.3,0.3-0.4,0.6-0.4l0,0c0.3,0.1,0.4,0.3,0.4,0.6l0,0
						C656.2,528.1,656,528.3,655.7,528.3L655.7,528.3L655.7,528.3z M667,527.9c-0.1-0.3,0.1-0.5,0.4-0.6l0,0
						c0.3-0.1,0.5,0.1,0.6,0.4l0,0c0.1,0.3-0.1,0.5-0.4,0.6l0,0h-0.1l0,0C667.2,528.3,667,528.1,667,527.9z M656.3,526.4
						c-0.2-0.1-0.3-0.5-0.2-0.7l0,0c0.2-0.2,0.5-0.3,0.7-0.1l0,0c0.2,0.1,0.3,0.4,0.2,0.7l0,0c-0.1,0.1-0.2,0.2-0.4,0.2l0,0
						C656.5,526.5,656.4,526.5,656.3,526.4z M666.2,526.2c-0.2-0.2-0.1-0.5,0.1-0.7l0,0c0.2-0.1,0.5-0.1,0.7,0.1l0,0
						c0.1,0.2,0.1,0.5-0.1,0.7l0,0c-0.1,0.1-0.2,0.1-0.3,0.1l0,0C666.5,526.5,666.3,526.4,666.2,526.2z M657.5,524.9
						c-0.2-0.2-0.1-0.5,0.1-0.7l0,0c0.2-0.2,0.5-0.1,0.7,0.1l0,0c0.2,0.2,0.1,0.5-0.1,0.7l0,0c-0.1,0.1-0.2,0.1-0.3,0.1l0,0
						C657.7,525.1,657.6,525,657.5,524.9z M665,524.9c-0.2-0.2-0.3-0.5-0.1-0.7l0,0c0.2-0.2,0.5-0.2,0.7-0.1l0,0
						c0.2,0.2,0.3,0.5,0.1,0.7l0,0c-0.1,0.1-0.2,0.2-0.4,0.2l0,0C665.2,525,665.1,525,665,524.9z M659.1,523.8
						c-0.1-0.3,0-0.5,0.3-0.6l0,0c0.3-0.1,0.5,0,0.6,0.3l0,0c0.1,0.3,0,0.5-0.3,0.6l0,0c-0.1,0-0.1,0-0.2,0l0,0
						C659.4,524.1,659.2,524,659.1,523.8z M663.4,524L663.4,524c-0.3-0.1-0.4-0.4-0.3-0.6l0,0c0.1-0.3,0.4-0.4,0.6-0.3l0,0
						c0.3,0.1,0.4,0.4,0.3,0.6l0,0C663.9,523.9,663.7,524,663.4,524L663.4,524C663.5,524.1,663.5,524.1,663.4,524z"/>
				</g>
			</g>
			<g id="XMLID_2196_">
				<rect id="XMLID_2197_" x="661.5" y="499.3" class="st4" width="0.2" height="25.9"/>
			</g>
		</g>
		<g id="XMLID_1950_">
			<g id="XMLID_2186_">
				<g id="XMLID_2193_">
					
						<rect id="XMLID_2194_" x="534.3" y="652.9" transform="matrix(0.7071 -0.7071 0.7071 0.7071 -278.7508 633.8125)" class="st4" width="182.8" height="1"/>
				</g>
				<g id="XMLID_2191_">
					
						<rect id="XMLID_2192_" x="606.3" y="724.9" transform="matrix(0.7071 -0.7071 0.7071 0.7071 -308.5534 705.8118)" class="st4" width="182.8" height="1"/>
				</g>
				<g id="XMLID_2189_">
					
						<rect id="XMLID_2190_" x="697.2" y="562" transform="matrix(0.7071 -0.7071 0.7071 0.7071 -257.6524 684.7135)" class="st4" width="1" height="182.8"/>
				</g>
				<g id="XMLID_2187_">
					
						<rect id="XMLID_2188_" x="625.2" y="633.9" transform="matrix(0.7071 -0.7071 0.7071 0.7071 -329.6224 654.8401)" class="st4" width="1" height="182.8"/>
				</g>
			</g>
			<g id="XMLID_2182_">
				<path id="XMLID_2183_" class="st4" d="M661.6,820L530.9,689.3l130.7-130.7l130.7,130.7L661.6,820z M533.8,689.3l127.9,127.9
					l127.9-127.9l-128-127.8L533.8,689.3z"/>
			</g>
			<g id="XMLID_2178_">
				<path id="XMLID_2179_" class="st4" d="M661.6,762.6l-73.3-73.3l73.3-73.3l73.3,73.3L661.6,762.6z M591.1,689.3l70.5,70.5
					l70.5-70.5l-70.5-70.5L591.1,689.3z"/>
			</g>
			<g id="XMLID_2165_">
				<g id="XMLID_2174_">
					<path id="XMLID_2175_" class="st4" d="M648.4,596.7c-2.5,0-4.6-2-4.6-4.6s2-4.6,4.6-4.6s4.6,2,4.6,4.6S650.9,596.7,648.4,596.7
						z M648.4,588.5c-2,0-3.6,1.6-3.6,3.6s1.6,3.6,3.6,3.6s3.6-1.6,3.6-3.6C651.9,590.1,650.3,588.5,648.4,588.5z"/>
				</g>
				<g id="XMLID_2170_">
					<path id="XMLID_2171_" class="st4" d="M661.6,582.3c-2.5,0-4.6-2-4.6-4.6s2-4.6,4.6-4.6s4.6,2,4.6,4.6S664.1,582.3,661.6,582.3
						z M661.6,574.2c-2,0-3.6,1.6-3.6,3.6s1.6,3.6,3.6,3.6s3.6-1.6,3.6-3.6C665.2,575.8,663.6,574.2,661.6,574.2z"/>
				</g>
				<g id="XMLID_2166_">
					<path id="XMLID_2167_" class="st4" d="M674.9,596.7c-2.5,0-4.6-2-4.6-4.6s2-4.6,4.6-4.6s4.6,2,4.6,4.6S677.4,596.7,674.9,596.7
						z M674.9,588.5c-2,0-3.6,1.6-3.6,3.6s1.6,3.6,3.6,3.6s3.6-1.6,3.6-3.6C678.4,590.1,676.8,588.5,674.9,588.5z"/>
				</g>
			</g>
			<g id="XMLID_2161_">
				<path id="XMLID_2162_" class="st4" d="M648.4,548.1c-2.5,0-4.6-2-4.6-4.6s2-4.6,4.6-4.6s4.6,2,4.6,4.6S650.9,548.1,648.4,548.1z
					 M648.4,540c-2,0-3.6,1.6-3.6,3.6s1.6,3.6,3.6,3.6s3.6-1.6,3.6-3.6C651.9,541.6,650.3,540,648.4,540z"/>
			</g>
			<g id="XMLID_2157_">
				<path id="XMLID_2158_" class="st4" d="M674.9,548.1c-2.5,0-4.6-2-4.6-4.6s2-4.6,4.6-4.6s4.6,2,4.6,4.6S677.4,548.1,674.9,548.1z
					 M674.9,540c-2,0-3.6,1.6-3.6,3.6s1.6,3.6,3.6,3.6s3.6-1.6,3.6-3.6C678.4,541.6,676.8,540,674.9,540z"/>
			</g>
			<g id="XMLID_2153_">
				<path id="XMLID_2154_" class="st4" d="M510.3,698.8c-2.5,0-4.6-2-4.6-4.6s2-4.6,4.6-4.6c2.5,0,4.6,2,4.6,4.6
					S512.8,698.8,510.3,698.8z M510.3,690.7c-2,0-3.6,1.6-3.6,3.6s1.6,3.6,3.6,3.6s3.6-1.6,3.6-3.6S512.2,690.7,510.3,690.7z"/>
			</g>
			<g id="XMLID_2149_">
				<path id="XMLID_2150_" class="st4" d="M762.3,694.8c-2.5,0-4.6-2-4.6-4.6s2-4.6,4.6-4.6s4.6,2,4.6,4.6S764.8,694.8,762.3,694.8z
					 M762.3,686.7c-2,0-3.6,1.6-3.6,3.6s1.6,3.6,3.6,3.6s3.6-1.6,3.6-3.6S764.3,686.7,762.3,686.7z"/>
			</g>
			<g id="XMLID_2145_">
				<path id="XMLID_2146_" class="st4" d="M813.2,689.8c-2.5,0-4.6-2-4.6-4.6s2-4.6,4.6-4.6s4.6,2,4.6,4.6S815.8,689.8,813.2,689.8z
					 M813.2,681.7c-2,0-3.6,1.6-3.6,3.6s1.6,3.6,3.6,3.6s3.6-1.6,3.6-3.6S815.2,681.7,813.2,681.7z"/>
			</g>
			<g id="XMLID_2141_">
				<path id="XMLID_2142_" class="st4" d="M561.1,693.9c-2.5,0-4.6-2-4.6-4.6s2-4.6,4.6-4.6s4.6,2,4.6,4.6S563.6,693.9,561.1,693.9z
					 M561.1,685.7c-2,0-3.6,1.6-3.6,3.6s1.6,3.6,3.6,3.6s3.6-1.6,3.6-3.6C564.6,687.3,563,685.7,561.1,685.7z"/>
			</g>
			<g id="XMLID_2137_">
				<path id="XMLID_2138_" class="st4" d="M661.2,795c-2.5,0-4.6-2-4.6-4.6s2-4.6,4.6-4.6s4.6,2,4.6,4.6S663.7,795,661.2,795z
					 M661.2,786.8c-2,0-3.6,1.6-3.6,3.6s1.6,3.6,3.6,3.6s3.6-1.6,3.6-3.6C664.8,788.4,663.2,786.8,661.2,786.8z"/>
			</g>
			<g id="XMLID_2133_">
				<path id="XMLID_2134_" class="st4" d="M667.2,847.6c-2.5,0-4.6-2-4.6-4.6s2-4.6,4.6-4.6s4.6,2,4.6,4.6S669.7,847.6,667.2,847.6z
					 M667.2,839.4c-2,0-3.6,1.6-3.6,3.6s1.6,3.6,3.6,3.6s3.6-1.6,3.6-3.6S669.2,839.4,667.2,839.4z"/>
			</g>
			<g id="XMLID_2106_">
				<g id="XMLID_2120_">
					<g id="XMLID_2129_">
						<path id="XMLID_2130_" class="st4" d="M731.6,713.8c-1.2,0-2.3-0.4-3.2-1.3l0,0l0,0l0,0c-0.9-0.9-1.3-2-1.3-3.2
							s0.5-2.4,1.3-3.2c1.8-1.8,4.7-1.8,6.5,0c0.9,0.9,1.3,2,1.3,3.2s-0.5,2.4-1.3,3.2C734,713.4,732.8,713.8,731.6,713.8z
							 M731.6,705.7c-0.9,0-1.8,0.3-2.5,1s-1,1.6-1,2.5c0,1,0.4,1.8,1,2.5l0,0c1.4,1.4,3.7,1.4,5,0c0.7-0.7,1-1.6,1-2.5
							c0-1-0.4-1.8-1-2.5S732.6,705.7,731.6,705.7z"/>
					</g>
					<g id="XMLID_2125_">
						<path id="XMLID_2126_" class="st4" d="M732.4,733.3c-1.2,0-2.3-0.4-3.2-1.3c-1.8-1.8-1.8-4.7,0-6.5s4.7-1.8,6.5,0
							s1.8,4.7,0,6.5C734.7,732.9,733.6,733.3,732.4,733.3z M732.4,725.2c-0.9,0-1.8,0.3-2.5,1c-1.4,1.4-1.4,3.7,0,5
							c1.4,1.4,3.7,1.4,5,0c1.4-1.4,1.4-3.7,0-5C734.2,725.5,733.3,725.2,732.4,725.2z"/>
					</g>
					<g id="XMLID_2121_">
						<path id="XMLID_2122_" class="st4" d="M712.9,732.6c-1.2,0-2.4-0.5-3.2-1.3c-1.8-1.8-1.8-4.7,0-6.5c0.9-0.9,2-1.3,3.2-1.3
							s2.4,0.5,3.2,1.3c1.8,1.8,1.8,4.7,0,6.5C715.3,732.1,714.1,732.6,712.9,732.6z M712.9,724.4c-1,0-1.8,0.4-2.5,1
							c-1.4,1.4-1.4,3.7,0,5l0,0c1.3,1.3,3.7,1.3,5,0c1.4-1.4,1.4-3.7,0-5C714.7,724.8,713.8,724.4,712.9,724.4z"/>
					</g>
				</g>
				<g id="XMLID_2107_">
					<g id="XMLID_2116_">
						<path id="XMLID_2117_" class="st4" d="M700.5,744.9c-1.2,0-2.3-0.4-3.2-1.3c-1.8-1.8-1.8-4.7,0-6.5s4.7-1.8,6.5,0
							s1.8,4.7,0,6.5C702.9,744.5,701.7,744.9,700.5,744.9z M700.5,736.8c-0.9,0-1.8,0.3-2.5,1c-1.4,1.4-1.4,3.7,0,5
							c1.4,1.4,3.7,1.4,5,0c1.4-1.4,1.4-3.7,0-5C702.4,737.1,701.4,736.8,700.5,736.8z"/>
					</g>
					<g id="XMLID_2112_">
						<path id="XMLID_2113_" class="st4" d="M701.3,764.4c-1.2,0-2.3-0.4-3.2-1.3c-1.8-1.8-1.8-4.7,0-6.5s4.7-1.8,6.5,0
							s1.8,4.7,0,6.5C703.6,764,702.5,764.4,701.3,764.4z M701.3,756.3c-0.9,0-1.8,0.3-2.5,1c-1.4,1.4-1.4,3.7,0,5
							c1.4,1.4,3.7,1.4,5,0c1.4-1.4,1.4-3.7,0-5C703.1,756.6,702.2,756.3,701.3,756.3z"/>
					</g>
					<g id="XMLID_2108_">
						<path id="XMLID_2109_" class="st4" d="M681.8,763.7c-1.2,0-2.3-0.4-3.2-1.3c-1.8-1.8-1.8-4.7,0-6.5s4.7-1.8,6.5,0
							s1.8,4.7,0,6.5C684.1,763.2,683,763.7,681.8,763.7z M681.8,755.5c-0.9,0-1.8,0.3-2.5,1c-1.4,1.4-1.4,3.7,0,5
							c1.4,1.4,3.7,1.4,5,0c1.4-1.4,1.4-3.7,0-5C683.6,755.9,682.7,755.5,681.8,755.5z"/>
					</g>
				</g>
			</g>
			<g id="XMLID_2079_">
				<g id="XMLID_2093_">
					<g id="XMLID_2102_">
						<path id="XMLID_2103_" class="st4" d="M681.8,622.5c-1.2,0-2.3-0.4-3.2-1.3c-1.8-1.8-1.8-4.7,0-6.5s4.7-1.8,6.5,0
							s1.8,4.7,0,6.5C684.1,622.1,683,622.5,681.8,622.5z M681.8,614.4c-0.9,0-1.8,0.3-2.5,1c-1.4,1.4-1.4,3.7,0,5
							c1.4,1.4,3.7,1.4,5,0c1.4-1.4,1.4-3.7,0-5C683.6,614.7,682.7,614.4,681.8,614.4z"/>
					</g>
					<g id="XMLID_2098_">
						<path id="XMLID_2099_" class="st4" d="M701.3,621.8c-1.2,0-2.3-0.4-3.2-1.3c-1.8-1.8-1.8-4.7,0-6.5s4.7-1.8,6.5,0
							s1.8,4.7,0,6.5C703.6,621.3,702.5,621.8,701.3,621.8z M701.3,613.6c-0.9,0-1.8,0.3-2.5,1c-1.4,1.4-1.4,3.7,0,5
							c1.4,1.4,3.7,1.4,5,0c1.4-1.4,1.4-3.7,0-5C703.1,614,702.2,613.6,701.3,613.6z"/>
					</g>
					<g id="XMLID_2094_">
						<path id="XMLID_2095_" class="st4" d="M700.5,641.3c-1.2,0-2.3-0.4-3.2-1.3c-1.8-1.8-1.8-4.7,0-6.5s4.7-1.8,6.5,0
							s1.8,4.7,0,6.5C702.9,640.8,701.7,641.3,700.5,641.3z M700.5,633.1c-0.9,0-1.8,0.3-2.5,1c-1.4,1.4-1.4,3.7,0,5
							c1.4,1.4,3.7,1.4,5,0c1.4-1.4,1.4-3.7,0-5C702.4,633.5,701.4,633.1,700.5,633.1z"/>
					</g>
				</g>
				<g id="XMLID_2080_">
					<g id="XMLID_2089_">
						<path id="XMLID_2090_" class="st4" d="M712.9,653.6c-1.2,0-2.4-0.5-3.2-1.3c-1.8-1.8-1.8-4.7,0-6.5c0.9-0.9,2-1.3,3.2-1.3
							s2.4,0.5,3.2,1.3c1.8,1.8,1.8,4.7,0,6.5C715.3,653.2,714.1,653.6,712.9,653.6z M712.9,645.5c-1,0-1.8,0.4-2.5,1
							c-1.4,1.4-1.4,3.7,0,5c1.3,1.3,3.7,1.3,5,0c1.4-1.4,1.4-3.7,0-5C714.7,645.9,713.8,645.5,712.9,645.5z"/>
					</g>
					<g id="XMLID_2085_">
						<path id="XMLID_2086_" class="st4" d="M732.4,652.9c-1.2,0-2.3-0.4-3.2-1.3c-1.8-1.8-1.8-4.7,0-6.5s4.7-1.8,6.5,0
							s1.8,4.7,0,6.5C734.7,652.4,733.6,652.9,732.4,652.9z M732.4,644.8c-0.9,0-1.8,0.3-2.5,1c-1.4,1.4-1.4,3.7,0,5
							c1.4,1.4,3.7,1.4,5,0c1.4-1.4,1.4-3.7,0-5C734.2,645.1,733.3,644.8,732.4,644.8z"/>
					</g>
					<g id="XMLID_2081_">
						<path id="XMLID_2082_" class="st4" d="M731.6,672.4c-1.2,0-2.3-0.4-3.2-1.3c-1.8-1.8-1.8-4.7,0-6.5s4.7-1.8,6.5,0
							s1.8,4.7,0,6.5C734,671.9,732.8,672.4,731.6,672.4z M731.6,664.3c-0.9,0-1.8,0.3-2.5,1c-1.4,1.4-1.4,3.7,0,5
							c1.4,1.4,3.7,1.4,5,0c1.4-1.4,1.4-3.7,0-5C733.5,664.6,732.6,664.3,731.6,664.3z"/>
					</g>
				</g>
			</g>
			<g id="XMLID_2052_">
				<g id="XMLID_2066_">
					<g id="XMLID_2075_">
						<path id="XMLID_2076_" class="st4" d="M640.3,763.7c-1.2,0-2.3-0.4-3.2-1.3c-1.8-1.8-1.8-4.7,0-6.5l0,0c1.8-1.8,4.7-1.8,6.5,0
							s1.8,4.7,0,6.5C642.7,763.2,641.5,763.7,640.3,763.7z M637.8,756.6c-1.4,1.4-1.4,3.7,0,5c1.4,1.4,3.7,1.4,5,0s1.4-3.7,0-5
							C641.5,755.2,639.2,755.2,637.8,756.6L637.8,756.6z"/>
					</g>
					<g id="XMLID_2071_">
						<path id="XMLID_2072_" class="st4" d="M620.8,764.4c-1.2,0-2.3-0.4-3.2-1.3c-1.8-1.8-1.8-4.7,0-6.5s4.7-1.8,6.5,0
							s1.8,4.7,0,6.5C623.2,764,622,764.4,620.8,764.4z M620.8,756.3c-0.9,0-1.8,0.3-2.5,1c-1.4,1.4-1.4,3.7,0,5
							c1.4,1.4,3.7,1.4,5,0c1.4-1.4,1.4-3.7,0-5C622.7,756.6,621.8,756.3,620.8,756.3z"/>
					</g>
					<g id="XMLID_2067_">
						<path id="XMLID_2068_" class="st4" d="M621.6,744.9c-1.2,0-2.3-0.4-3.2-1.3c-1.8-1.8-1.8-4.7,0-6.5s4.7-1.8,6.5,0
							s1.8,4.7,0,6.5C623.9,744.5,622.8,744.9,621.6,744.9z M621.6,736.8c-0.9,0-1.8,0.3-2.5,1c-1.4,1.4-1.4,3.7,0,5
							c1.4,1.4,3.7,1.4,5,0c1.4-1.4,1.4-3.7,0-5C623.4,737.1,622.5,736.8,621.6,736.8z"/>
					</g>
				</g>
				<g id="XMLID_2053_">
					<g id="XMLID_2062_">
						<path id="XMLID_2063_" class="st4" d="M609.2,732.6c-1.2,0-2.3-0.4-3.2-1.3c-1.8-1.8-1.8-4.7,0-6.5s4.7-1.8,6.5,0
							s1.8,4.7,0,6.5C611.6,732.1,610.4,732.6,609.2,732.6z M609.2,724.4c-0.9,0-1.8,0.3-2.5,1c-1.4,1.4-1.4,3.7,0,5
							c1.4,1.4,3.7,1.4,5,0c1.4-1.4,1.4-3.7,0-5C611.1,724.8,610.2,724.4,609.2,724.4z"/>
					</g>
					<g id="XMLID_2058_">
						<path id="XMLID_2059_" class="st4" d="M589.7,733.3c-1.2,0-2.4-0.5-3.2-1.3c-1.8-1.8-1.8-4.7,0-6.5c0.9-0.9,2-1.3,3.2-1.3
							s2.4,0.5,3.2,1.3c1.8,1.8,1.8,4.7,0,6.5C592.1,732.8,591,733.3,589.7,733.3z M589.7,725.2c-1,0-1.8,0.4-2.5,1
							c-1.4,1.4-1.4,3.7,0,5c1.3,1.3,3.7,1.3,5,0c1.4-1.4,1.4-3.7,0-5C591.6,725.6,590.7,725.2,589.7,725.2z"/>
					</g>
					<g id="XMLID_2054_">
						<path id="XMLID_2055_" class="st4" d="M590.5,713.8c-1.2,0-2.4-0.5-3.2-1.3c-0.9-0.9-1.3-2-1.3-3.2s0.5-2.4,1.3-3.2
							s2-1.3,3.2-1.3s2.4,0.5,3.2,1.3s1.3,2,1.3,3.2s-0.5,2.4-1.3,3.2S591.7,713.8,590.5,713.8z M590.5,705.7c-1,0-1.8,0.4-2.5,1
							s-1,1.6-1,2.5c0,1,0.4,1.8,1,2.5c1.3,1.3,3.7,1.3,5,0c0.7-0.7,1-1.6,1-2.5c0-1-0.4-1.8-1-2.5S591.4,705.7,590.5,705.7z"/>
					</g>
				</g>
			</g>
			<g id="XMLID_2050_">
				<rect id="XMLID_2051_" x="661.5" y="581.8" class="st4" width="0.2" height="35.9"/>
			</g>
			<g id="XMLID_2048_">
				<rect id="XMLID_2049_" x="661.5" y="761.2" class="st4" width="0.2" height="25.1"/>
			</g>
			<g id="XMLID_2046_">
				<rect id="XMLID_2047_" x="564.7" y="689.1" class="st4" width="25.1" height="0.2"/>
			</g>
			<g id="XMLID_2044_">
				<rect id="XMLID_2045_" x="733.5" y="689.1" class="st4" width="25.1" height="0.2"/>
			</g>
			<g id="XMLID_2042_">
				<polygon id="XMLID_2043_" class="st4" points="810.4,682.3 794.2,663.8 794.4,663.7 810.6,682.2 				"/>
			</g>
			<g id="XMLID_2029_">
				<g id="XMLID_2040_">
					<polygon id="XMLID_2041_" class="st4" points="681.5,637.2 681.3,637 698.5,619.8 698.7,620 					"/>
				</g>
				<g id="XMLID_2038_">
					<polygon id="XMLID_2039_" class="st4" points="671.9,628.3 671.7,628.1 678.9,620.9 679.1,621.1 					"/>
				</g>
				<g id="XMLID_2036_">
					<polygon id="XMLID_2037_" class="st4" points="690.6,647 690.4,646.8 697.6,639.6 697.8,639.8 					"/>
				</g>
				<g id="XMLID_2034_">
					<polygon id="XMLID_2035_" class="st4" points="703.2,659.5 703,659.4 710.2,652.2 710.3,652.4 					"/>
				</g>
				<g id="XMLID_2032_">
					<polygon id="XMLID_2033_" class="st4" points="722,678.3 721.8,678.2 729,671 729.1,671.2 					"/>
				</g>
				<g id="XMLID_2030_">
					<polygon id="XMLID_2031_" class="st4" points="713,668.7 712.8,668.5 730,651.3 730.1,651.5 					"/>
				</g>
			</g>
			<g id="XMLID_2016_">
				<g id="XMLID_2027_">
					<polygon id="XMLID_2028_" class="st4" points="623.9,757.9 623.7,757.7 640.9,740.5 641.1,740.7 					"/>
				</g>
				<g id="XMLID_2025_">
					<polygon id="XMLID_2026_" class="st4" points="643.5,756.8 643.3,756.6 650.5,749.4 650.7,749.6 					"/>
				</g>
				<g id="XMLID_2023_">
					<polygon id="XMLID_2024_" class="st4" points="624.8,738.1 624.6,737.9 631.8,730.7 632,730.9 					"/>
				</g>
				<g id="XMLID_2021_">
					<polygon id="XMLID_2022_" class="st4" points="612.2,725.5 612.1,725.3 619.2,718.2 619.4,718.4 					"/>
				</g>
				<g id="XMLID_2019_">
					<polygon id="XMLID_2020_" class="st4" points="593.4,706.7 593.3,706.6 600.4,699.4 600.6,699.6 					"/>
				</g>
				<g id="XMLID_2017_">
					<polygon id="XMLID_2018_" class="st4" points="592.4,726.4 592.3,726.2 609.4,709 609.6,709.2 					"/>
				</g>
			</g>
			<g id="XMLID_2003_">
				<g id="XMLID_2014_">
					<polygon id="XMLID_2015_" class="st4" points="730,726.3 712.9,709.1 713,709 730.2,726.1 					"/>
				</g>
				<g id="XMLID_2012_">
					<polygon id="XMLID_2013_" class="st4" points="729,706.7 721.8,699.6 722,699.4 729.1,706.6 					"/>
				</g>
				<g id="XMLID_2010_">
					<polygon id="XMLID_2011_" class="st4" points="710.3,725.4 703.1,718.3 703.3,718.1 710.4,725.3 					"/>
				</g>
				<g id="XMLID_2008_">
					<polygon id="XMLID_2009_" class="st4" points="697.7,738 690.5,730.8 690.7,730.6 697.9,737.8 					"/>
				</g>
				<g id="XMLID_2006_">
					<polygon id="XMLID_2007_" class="st4" points="678.9,756.8 671.7,749.6 671.9,749.4 679.1,756.6 					"/>
				</g>
				<g id="XMLID_2004_">
					<polygon id="XMLID_2005_" class="st4" points="698.5,757.8 681.4,740.6 681.6,740.5 698.7,757.6 					"/>
				</g>
			</g>
			<g id="XMLID_1963_">
				<g id="XMLID_1976_">
					<g id="XMLID_1990_">
						<g id="XMLID_1999_">
							<path id="XMLID_2000_" class="st4" d="M590.5,672.4c-1.2,0-2.4-0.5-3.2-1.3c-1.8-1.8-1.8-4.7,0-6.5c0.9-0.9,2-1.3,3.2-1.3
								s2.4,0.5,3.2,1.3c1.8,1.8,1.8,4.7,0,6.5C592.9,671.9,591.7,672.4,590.5,672.4z M590.5,664.2c-1,0-1.8,0.4-2.5,1
								c-1.4,1.4-1.4,3.7,0,5c1.3,1.3,3.7,1.3,5,0c1.4-1.4,1.4-3.7,0-5l0,0C592.3,664.6,591.4,664.2,590.5,664.2z"/>
						</g>
						<g id="XMLID_1995_">
							<path id="XMLID_1996_" class="st4" d="M589.7,652.9c-1.2,0-2.3-0.4-3.2-1.3c-1.8-1.8-1.8-4.7,0-6.5s4.7-1.8,6.5,0
								s1.8,4.7,0,6.5C592.1,652.4,590.9,652.9,589.7,652.9z M589.7,644.8c-0.9,0-1.8,0.3-2.5,1c-1.4,1.4-1.4,3.7,0,5
								c1.4,1.4,3.7,1.4,5,0c1.4-1.4,1.4-3.7,0-5C591.6,645.1,590.6,644.8,589.7,644.8z"/>
						</g>
						<g id="XMLID_1991_">
							<path id="XMLID_1992_" class="st4" d="M609.2,653.6c-1.2,0-2.3-0.4-3.2-1.3c-1.8-1.8-1.8-4.7,0-6.5s4.7-1.8,6.5,0
								s1.8,4.7,0,6.5C611.6,653.2,610.4,653.6,609.2,653.6z M609.2,645.5c-0.9,0-1.8,0.3-2.5,1c-1.4,1.4-1.4,3.7,0,5
								c1.4,1.4,3.7,1.4,5,0c1.4-1.4,1.4-3.7,0-5C611.1,645.8,610.2,645.5,609.2,645.5z"/>
						</g>
					</g>
					<g id="XMLID_1977_">
						<g id="XMLID_1986_">
							<path id="XMLID_1987_" class="st4" d="M621.6,641.3c-1.2,0-2.3-0.4-3.2-1.3c-1.8-1.8-1.8-4.7,0-6.5s4.7-1.8,6.5,0
								s1.8,4.7,0,6.5C623.9,640.8,622.8,641.3,621.6,641.3z M621.6,633.1c-0.9,0-1.8,0.3-2.5,1c-1.4,1.4-1.4,3.7,0,5
								c1.4,1.4,3.7,1.4,5,0c1.4-1.4,1.4-3.7,0-5C623.4,633.5,622.5,633.1,621.6,633.1z"/>
						</g>
						<g id="XMLID_1982_">
							<path id="XMLID_1983_" class="st4" d="M620.8,621.8c-1.2,0-2.3-0.4-3.2-1.3c-1.8-1.8-1.8-4.7,0-6.5s4.7-1.8,6.5,0
								s1.8,4.7,0,6.5C623.2,621.3,622,621.8,620.8,621.8z M620.8,613.6c-0.9,0-1.8,0.3-2.5,1c-1.4,1.4-1.4,3.7,0,5
								c1.4,1.4,3.7,1.4,5,0c1.4-1.4,1.4-3.7,0-5C622.7,614,621.8,613.6,620.8,613.6z"/>
						</g>
						<g id="XMLID_1978_">
							<path id="XMLID_1979_" class="st4" d="M640.3,622.5c-1.2,0-2.3-0.4-3.2-1.3c-1.8-1.8-1.8-4.7,0-6.5s4.7-1.8,6.5,0l0,0
								c1.8,1.8,1.8,4.7,0,6.5C642.7,622.1,641.5,622.5,640.3,622.5z M640.3,614.4c-0.9,0-1.8,0.3-2.5,1c-1.4,1.4-1.4,3.7,0,5
								c1.4,1.4,3.7,1.4,5,0c1.4-1.4,1.4-3.7,0-5C642.2,614.7,641.3,614.4,640.3,614.4z"/>
						</g>
					</g>
				</g>
				<g id="XMLID_1974_">
					<polygon id="XMLID_1975_" class="st4" points="609.4,668.8 592.2,651.6 592.4,651.4 609.5,668.6 					"/>
				</g>
				<g id="XMLID_1972_">
					<polygon id="XMLID_1973_" class="st4" points="600.4,678.3 593.3,671.2 593.4,671 600.6,678.2 					"/>
				</g>
				<g id="XMLID_1970_">
					<polygon id="XMLID_1971_" class="st4" points="619.1,659.6 612,652.5 612.1,652.3 619.3,659.4 					"/>
				</g>
				<g id="XMLID_1968_">
					<polygon id="XMLID_1969_" class="st4" points="631.7,647.1 624.5,639.9 624.7,639.7 631.9,646.9 					"/>
				</g>
				<g id="XMLID_1966_">
					<polygon id="XMLID_1967_" class="st4" points="650.5,628.3 643.3,621.1 643.5,620.9 650.7,628.1 					"/>
				</g>
				<g id="XMLID_1964_">
					<polygon id="XMLID_1965_" class="st4" points="640.8,637.3 623.7,620.1 623.9,619.9 641,637.1 					"/>
				</g>
			</g>
			<g id="XMLID_1961_">
				<polygon id="XMLID_1962_" class="st4" points="530.4,713.4 513.5,696.7 513.6,696.6 530.5,713.2 				"/>
			</g>
			<g id="XMLID_1959_">
				<polygon id="XMLID_1960_" class="st4" points="661.5,617.8 650.5,596.2 650.7,596.1 661.7,617.7 				"/>
			</g>
			<g id="XMLID_1957_">
				<polygon id="XMLID_1958_" class="st4" points="661.7,617.8 661.5,617.7 673.2,595.8 673.5,595.9 				"/>
			</g>
			<g id="XMLID_1955_">
				<polygon id="XMLID_1956_" class="st4" points="661.7,617.8 661.5,617.8 674.2,547.6 674.5,547.7 				"/>
			</g>
			<g id="XMLID_1953_">
				<polygon id="XMLID_1954_" class="st4" points="661.5,617.8 648.2,547.7 648.5,547.6 661.7,617.8 				"/>
			</g>
			<g id="XMLID_1951_">
				
					<rect id="XMLID_1952_" x="667.2" y="832" transform="matrix(0.7487 -0.6629 0.6629 0.7487 -380.7951 659.6871)" class="st4" width="25" height="0.3"/>
			</g>
		</g>
		<g id="XMLID_1247_">
			<g id="XMLID_1946_">
				<path id="XMLID_1947_" class="st5" d="M661.6,948.9L402,689.3l259.6-259.6l259.6,259.6L661.6,948.9z M404.8,689.3l256.8,256.8
					l256.8-256.8L661.6,432.5L404.8,689.3z"/>
			</g>
			<g id="XMLID_1944_">
				<polygon id="XMLID_1945_" class="st5" points="673.8,443.3 673.6,443.1 680.8,436 681,436.1 				"/>
			</g>
			<g id="XMLID_1940_">
				<path id="XMLID_1941_" class="st5" d="M688.7,436.5h-8.3v-8.3h8.3V436.5z M681.4,435.5h6.3v-6.3h-6.3V435.5z"/>
			</g>
			<g id="XMLID_1938_">
				<rect id="XMLID_1939_" x="661.2" y="357.1" class="st5" width="0.2" height="42"/>
			</g>
			<g id="XMLID_1934_">
				<path id="XMLID_1935_" class="st5" d="M661.3,410.1l-5.9-5.9l5.9-5.9l5.9,5.9L661.3,410.1z M656.9,404.2l4.4,4.4l4.4-4.4
					l-4.4-4.4L656.9,404.2z"/>
			</g>
			<g id="XMLID_1932_">
				<polygon id="XMLID_1933_" class="st5" points="692.5,462 692.3,461.8 699.5,454.6 699.7,454.8 				"/>
			</g>
			<g id="XMLID_1928_">
				<path id="XMLID_1929_" class="st5" d="M707.4,455.2h-8.3v-8.3h8.3V455.2z M700.1,454.2h6.3v-6.3h-6.3V454.2z"/>
			</g>
			<g id="XMLID_1926_">
				<polygon id="XMLID_1927_" class="st5" points="683.5,452.5 683.3,452.3 700.2,435.4 700.4,435.6 				"/>
			</g>
			<g id="XMLID_1922_">
				<path id="XMLID_1923_" class="st5" d="M708.1,436h-8.3v-8.3h8.3V436z M700.8,435h6.3v-6.3h-6.3V435z"/>
			</g>
			<g id="XMLID_1903_">
				<g id="XMLID_1920_">
					<polygon id="XMLID_1921_" class="st5" points="704.4,473.9 704.3,473.8 711.4,466.6 711.6,466.8 					"/>
				</g>
				<g id="XMLID_1916_">
					<path id="XMLID_1917_" class="st5" d="M719.3,467.2H711v-8.3h8.3V467.2z M712,466.2h6.3v-6.3H712V466.2z"/>
				</g>
				<g id="XMLID_1914_">
					<polygon id="XMLID_1915_" class="st5" points="723.1,492.6 723,492.5 730.1,485.3 730.3,485.5 					"/>
				</g>
				<g id="XMLID_1910_">
					<path id="XMLID_1911_" class="st5" d="M738,485.9h-8.3v-8.3h8.3V485.9z M730.7,484.9h6.3v-6.3h-6.3V484.9z"/>
				</g>
				<g id="XMLID_1908_">
					<polygon id="XMLID_1909_" class="st5" points="714.1,483.1 714,482.9 730.8,466.1 731,466.2 					"/>
				</g>
				<g id="XMLID_1904_">
					<path id="XMLID_1905_" class="st5" d="M738.7,466.7h-8.3v-8.3h8.3V466.7z M731.4,465.7h6.3v-6.3h-6.3V465.7z"/>
				</g>
			</g>
			<g id="XMLID_1884_">
				<g id="XMLID_1901_">
					<polygon id="XMLID_1902_" class="st5" points="735.1,504.6 734.9,504.4 742.1,497.2 742.3,497.4 					"/>
				</g>
				<g id="XMLID_1897_">
					<path id="XMLID_1898_" class="st5" d="M750,497.8h-8.3v-8.3h8.3V497.8z M742.7,496.8h6.3v-6.3h-6.3V496.8z"/>
				</g>
				<g id="XMLID_1895_">
					<polygon id="XMLID_1896_" class="st5" points="753.8,523.3 753.6,523.1 760.8,515.9 761,516.1 					"/>
				</g>
				<g id="XMLID_1891_">
					<path id="XMLID_1892_" class="st5" d="M768.7,516.5h-8.3v-8.3h8.3V516.5z M761.4,515.5h6.3v-6.3h-6.3V515.5z"/>
				</g>
				<g id="XMLID_1889_">
					<polygon id="XMLID_1890_" class="st5" points="744.8,513.8 744.6,513.6 761.5,496.7 761.6,496.9 					"/>
				</g>
				<g id="XMLID_1885_">
					<path id="XMLID_1886_" class="st5" d="M769.3,497.3H761V489h8.3V497.3z M762.1,496.3h6.3V490h-6.3V496.3z"/>
				</g>
			</g>
			<g id="XMLID_1865_">
				<g id="XMLID_1882_">
					<polygon id="XMLID_1883_" class="st5" points="765.7,535.2 765.6,535.1 772.7,527.9 772.9,528.1 					"/>
				</g>
				<g id="XMLID_1878_">
					<path id="XMLID_1879_" class="st5" d="M780.6,528.5h-8.3v-8.3h8.3V528.5z M773.3,527.5h6.3v-6.3h-6.3V527.5z"/>
				</g>
				<g id="XMLID_1876_">
					<polygon id="XMLID_1877_" class="st5" points="784.4,553.9 784.3,553.7 791.4,546.6 791.6,546.8 					"/>
				</g>
				<g id="XMLID_1872_">
					<path id="XMLID_1873_" class="st5" d="M799.3,547.2H791v-8.3h8.3V547.2z M792,546.2h6.3v-6.3H792V546.2z"/>
				</g>
				<g id="XMLID_1870_">
					<polygon id="XMLID_1871_" class="st5" points="775.4,544.4 775.2,544.2 792.1,527.4 792.3,527.5 					"/>
				</g>
				<g id="XMLID_1866_">
					<path id="XMLID_1867_" class="st5" d="M800,527.9h-8.3v-8.3h8.3V527.9z M792.7,526.9h6.3v-6.3h-6.3V526.9z"/>
				</g>
			</g>
			<g id="XMLID_1846_">
				<g id="XMLID_1863_">
					<polygon id="XMLID_1864_" class="st5" points="796.4,565.9 796.2,565.7 803.4,558.5 803.5,558.7 					"/>
				</g>
				<g id="XMLID_1859_">
					<path id="XMLID_1860_" class="st5" d="M811.2,559.1H803v-8.3h8.3L811.2,559.1L811.2,559.1z M804,558.1h6.3v-6.3H804V558.1z"/>
				</g>
				<g id="XMLID_1857_">
					<polygon id="XMLID_1858_" class="st5" points="815.1,584.6 814.9,584.4 822.1,577.2 822.2,577.4 					"/>
				</g>
				<g id="XMLID_1853_">
					<path id="XMLID_1854_" class="st5" d="M829.9,577.8h-8.3v-8.3h8.3V577.8z M822.7,576.8h6.3v-6.3h-6.3V576.8z"/>
				</g>
				<g id="XMLID_1851_">
					<polygon id="XMLID_1852_" class="st5" points="806.1,575 805.9,574.9 822.8,558 822.9,558.2 					"/>
				</g>
				<g id="XMLID_1847_">
					<path id="XMLID_1848_" class="st5" d="M830.6,558.6h-8.3v-8.3h8.3V558.6z M823.3,557.6h6.3v-6.3h-6.3V557.6z"/>
				</g>
			</g>
			<g id="XMLID_1827_">
				<g id="XMLID_1844_">
					<polygon id="XMLID_1845_" class="st5" points="827,596.5 826.8,596.3 834,589.2 834.2,589.4 					"/>
				</g>
				<g id="XMLID_1840_">
					<path id="XMLID_1841_" class="st5" d="M841.9,589.8h-8.3v-8.3h8.3V589.8z M834.6,588.8h6.3v-6.3h-6.3V588.8z"/>
				</g>
				<g id="XMLID_1838_">
					<polygon id="XMLID_1839_" class="st5" points="845.7,615.2 845.5,615 852.7,607.9 852.9,608 					"/>
				</g>
				<g id="XMLID_1834_">
					<path id="XMLID_1835_" class="st5" d="M860.6,608.5h-8.3v-8.3h8.3V608.5z M853.3,607.5h6.3v-6.3h-6.3V607.5z"/>
				</g>
				<g id="XMLID_1832_">
					<polygon id="XMLID_1833_" class="st5" points="836.7,605.7 836.5,605.5 853.4,588.6 853.6,588.8 					"/>
				</g>
				<g id="XMLID_1828_">
					<path id="XMLID_1829_" class="st5" d="M861.3,589.2H853v-8.3h8.3V589.2z M854,588.2h6.3v-6.3H854V588.2z"/>
				</g>
			</g>
			<g id="XMLID_1808_">
				<g id="XMLID_1825_">
					<polygon id="XMLID_1826_" class="st5" points="857.7,627.2 857.5,627 864.7,619.8 864.8,620 					"/>
				</g>
				<g id="XMLID_1821_">
					<path id="XMLID_1822_" class="st5" d="M872.5,620.4h-8.3v-8.3h8.3V620.4z M865.2,619.4h6.3v-6.3h-6.3V619.4z"/>
				</g>
				<g id="XMLID_1819_">
					<polygon id="XMLID_1820_" class="st5" points="876.4,645.9 876.2,645.7 883.4,638.5 883.5,638.7 					"/>
				</g>
				<g id="XMLID_1815_">
					<path id="XMLID_1816_" class="st5" d="M891.2,639.1h-8.3v-8.3h8.3V639.1z M883.9,638.1h6.3v-6.3h-6.3V638.1z"/>
				</g>
				<g id="XMLID_1813_">
					<polygon id="XMLID_1814_" class="st5" points="867.4,636.3 867.2,636.2 884,619.3 884.2,619.5 					"/>
				</g>
				<g id="XMLID_1809_">
					<path id="XMLID_1810_" class="st5" d="M891.9,619.9h-8.3v-8.3h8.3V619.9z M884.6,618.9h6.3v-6.3h-6.3V618.9z"/>
				</g>
			</g>
			<g id="XMLID_1789_">
				<g id="XMLID_1806_">
					<polygon id="XMLID_1807_" class="st5" points="888.3,657.8 888.1,657.6 895.3,650.5 895.5,650.6 					"/>
				</g>
				<g id="XMLID_1802_">
					<path id="XMLID_1803_" class="st5" d="M903.2,651.1h-8.3v-8.3h8.3V651.1z M895.9,650.1h6.3v-6.3h-6.3V650.1z"/>
				</g>
				<g id="XMLID_1800_">
					<polygon id="XMLID_1801_" class="st5" points="907,676.5 906.8,676.3 914,669.2 914.2,669.3 					"/>
				</g>
				<g id="XMLID_1796_">
					<path id="XMLID_1797_" class="st5" d="M921.9,669.7h-8.3v-8.3h8.3V669.7z M914.6,668.7h6.3v-6.3h-6.3V668.7z"/>
				</g>
				<g id="XMLID_1794_">
					<polygon id="XMLID_1795_" class="st5" points="898,667 897.8,666.8 914.7,649.9 914.9,650.1 					"/>
				</g>
				<g id="XMLID_1790_">
					<path id="XMLID_1791_" class="st5" d="M922.6,650.5h-8.3v-8.3h8.3V650.5z M915.3,649.5h6.3v-6.3h-6.3V649.5z"/>
				</g>
			</g>
			<g id="XMLID_1636_">
				<g id="XMLID_1770_">
					<g id="XMLID_1787_">
						<polygon id="XMLID_1788_" class="st5" points="415.7,676.6 408.5,669.4 408.7,669.2 415.9,676.4 						"/>
					</g>
					<g id="XMLID_1783_">
						<path id="XMLID_1784_" class="st5" d="M409.1,669.8h-8.3v-8.3h8.3V669.8z M401.8,668.8h6.3v-6.3h-6.3V668.8z"/>
					</g>
					<g id="XMLID_1781_">
						<polygon id="XMLID_1782_" class="st5" points="434.4,657.9 427.2,650.7 427.4,650.5 434.6,657.7 						"/>
					</g>
					<g id="XMLID_1777_">
						<path id="XMLID_1778_" class="st5" d="M427.8,651.1h-8.3v-8.3h8.3V651.1z M420.5,650.1h6.3v-6.3h-6.3V650.1z"/>
					</g>
					<g id="XMLID_1775_">
						<polygon id="XMLID_1776_" class="st5" points="424.9,666.9 408,650 408.2,649.9 425,666.7 						"/>
					</g>
					<g id="XMLID_1771_">
						<path id="XMLID_1772_" class="st5" d="M408.6,650.4h-8.3v-8.3h8.3V650.4z M401.3,649.4h6.3v-6.3h-6.3V649.4z"/>
					</g>
				</g>
				<g id="XMLID_1751_">
					<g id="XMLID_1768_">
						<polygon id="XMLID_1769_" class="st5" points="446.3,645.9 439.2,638.8 439.4,638.6 446.5,645.8 						"/>
					</g>
					<g id="XMLID_1764_">
						<path id="XMLID_1765_" class="st5" d="M439.8,639.2h-8.3v-8.3h8.3V639.2z M432.5,638.2h6.3v-6.3h-6.3V638.2z"/>
					</g>
					<g id="XMLID_1762_">
						<polygon id="XMLID_1763_" class="st5" points="465,627.2 457.9,620.1 458.1,619.9 465.2,627.1 						"/>
					</g>
					<g id="XMLID_1758_">
						<path id="XMLID_1759_" class="st5" d="M458.5,620.5h-8.3v-8.3h8.3V620.5z M451.2,619.5h6.3v-6.3h-6.3V619.5z"/>
					</g>
					<g id="XMLID_1756_">
						<polygon id="XMLID_1757_" class="st5" points="455.5,636.3 438.7,619.4 438.8,619.2 455.7,636.1 						"/>
					</g>
					<g id="XMLID_1752_">
						<path id="XMLID_1753_" class="st5" d="M439.2,619.8H431v-8.3h8.3L439.2,619.8L439.2,619.8z M432,618.8h6.3v-6.3H432V618.8z"/>
					</g>
				</g>
				<g id="XMLID_1732_">
					<g id="XMLID_1749_">
						<polygon id="XMLID_1750_" class="st5" points="477,615.3 469.8,608.1 470,608 477.2,615.1 						"/>
					</g>
					<g id="XMLID_1745_">
						<path id="XMLID_1746_" class="st5" d="M470.4,608.5h-8.3v-8.3h8.3V608.5z M463.1,607.5h6.3v-6.3h-6.3V607.5z"/>
					</g>
					<g id="XMLID_1743_">
						<polygon id="XMLID_1744_" class="st5" points="495.7,596.6 488.5,589.4 488.7,589.3 495.9,596.4 						"/>
					</g>
					<g id="XMLID_1739_">
						<path id="XMLID_1740_" class="st5" d="M489.1,589.8h-8.3v-8.3h8.3V589.8z M481.8,588.8h6.3v-6.3h-6.3V588.8z"/>
					</g>
					<g id="XMLID_1737_">
						<polygon id="XMLID_1738_" class="st5" points="486.2,605.6 469.3,588.7 469.5,588.6 486.3,605.4 						"/>
					</g>
					<g id="XMLID_1733_">
						<path id="XMLID_1734_" class="st5" d="M469.9,589.2h-8.3v-8.3h8.3V589.2z M462.6,588.2h6.3v-6.3h-6.3V588.2z"/>
					</g>
				</g>
				<g id="XMLID_1713_">
					<g id="XMLID_1730_">
						<polygon id="XMLID_1731_" class="st5" points="507.6,584.7 500.5,577.5 500.6,577.3 507.8,584.5 						"/>
					</g>
					<g id="XMLID_1726_">
						<path id="XMLID_1727_" class="st5" d="M501.1,577.9h-8.3v-8.3h8.3V577.9z M493.8,576.9h6.3v-6.3h-6.3V576.9z"/>
					</g>
					<g id="XMLID_1724_">
						<polygon id="XMLID_1725_" class="st5" points="526.3,566 519.2,558.8 519.3,558.6 526.5,565.8 						"/>
					</g>
					<g id="XMLID_1720_">
						<path id="XMLID_1721_" class="st5" d="M519.8,559.2h-8.3v-8.3h8.3V559.2z M512.5,558.2h6.3v-6.3h-6.3V558.2z"/>
					</g>
					<g id="XMLID_1718_">
						<polygon id="XMLID_1719_" class="st5" points="516.8,575 499.9,558.1 500.1,557.9 517,574.8 						"/>
					</g>
					<g id="XMLID_1714_">
						<path id="XMLID_1715_" class="st5" d="M500.5,558.5h-8.3v-8.3h8.3V558.5z M493.2,557.5h6.3v-6.3h-6.3V557.5z"/>
					</g>
				</g>
				<g id="XMLID_1694_">
					<g id="XMLID_1711_">
						<polygon id="XMLID_1712_" class="st5" points="538.3,554 531.1,546.8 531.3,546.7 538.5,553.8 						"/>
					</g>
					<g id="XMLID_1707_">
						<path id="XMLID_1708_" class="st5" d="M531.7,547.3h-8.3V539h8.3V547.3z M524.4,546.3h6.3V540h-6.3V546.3z"/>
					</g>
					<g id="XMLID_1705_">
						<polygon id="XMLID_1706_" class="st5" points="557,535.3 549.8,528.1 550,528 557.2,535.1 						"/>
					</g>
					<g id="XMLID_1701_">
						<path id="XMLID_1702_" class="st5" d="M550.4,528.6h-8.3v-8.3h8.3V528.6z M543.1,527.6h6.3v-6.3h-6.3V527.6z"/>
					</g>
					<g id="XMLID_1699_">
						<polygon id="XMLID_1700_" class="st5" points="547.5,544.3 530.6,527.5 530.8,527.3 547.6,544.1 						"/>
					</g>
					<g id="XMLID_1695_">
						<path id="XMLID_1696_" class="st5" d="M531.2,527.9h-8.3v-8.3h8.3V527.9z M523.9,526.9h6.3v-6.3h-6.3V526.9z"/>
					</g>
				</g>
				<g id="XMLID_1675_">
					<g id="XMLID_1692_">
						<polygon id="XMLID_1693_" class="st5" points="568.9,523.4 561.8,516.2 561.9,516 569.1,523.2 						"/>
					</g>
					<g id="XMLID_1688_">
						<path id="XMLID_1689_" class="st5" d="M562.3,516.6H554v-8.3h8.3V516.6z M555.1,515.6h6.3v-6.3h-6.3V515.6z"/>
					</g>
					<g id="XMLID_1686_">
						<polygon id="XMLID_1687_" class="st5" points="587.6,504.7 580.5,497.5 580.6,497.3 587.8,504.5 						"/>
					</g>
					<g id="XMLID_1682_">
						<path id="XMLID_1683_" class="st5" d="M581,497.9h-8.3v-8.3h8.3V497.9z M573.8,496.9h6.3v-6.3h-6.3V496.9z"/>
					</g>
					<g id="XMLID_1680_">
						<polygon id="XMLID_1681_" class="st5" points="578.1,513.7 561.2,496.8 561.4,496.6 578.3,513.5 						"/>
					</g>
					<g id="XMLID_1676_">
						<path id="XMLID_1677_" class="st5" d="M561.8,497.2h-8.3v-8.3h8.3V497.2z M554.5,496.2h6.3v-6.3h-6.3V496.2z"/>
					</g>
				</g>
				<g id="XMLID_1656_">
					<g id="XMLID_1673_">
						<polygon id="XMLID_1674_" class="st5" points="599.6,492.7 592.4,485.6 592.6,485.4 599.7,492.5 						"/>
					</g>
					<g id="XMLID_1669_">
						<path id="XMLID_1670_" class="st5" d="M593,486h-8.3v-8.3h8.3V486z M585.7,485h6.3v-6.3h-6.3V485z"/>
					</g>
					<g id="XMLID_1667_">
						<polygon id="XMLID_1668_" class="st5" points="618.3,474 611.1,466.9 611.3,466.7 618.4,473.8 						"/>
					</g>
					<g id="XMLID_1663_">
						<path id="XMLID_1664_" class="st5" d="M611.7,467.3h-8.3V459h8.3V467.3z M604.4,466.3h6.3V460h-6.3V466.3z"/>
					</g>
					<g id="XMLID_1661_">
						<polygon id="XMLID_1662_" class="st5" points="608.7,483 591.9,466.2 592.1,466 608.9,482.9 						"/>
					</g>
					<g id="XMLID_1657_">
						<path id="XMLID_1658_" class="st5" d="M592.5,466.6h-8.3v-8.3h8.3V466.6z M585.2,465.6h6.3v-6.3h-6.3V465.6z"/>
					</g>
				</g>
				<g id="XMLID_1637_">
					<g id="XMLID_1654_">
						<polygon id="XMLID_1655_" class="st5" points="630.2,462.1 623,454.9 623.2,454.7 630.4,461.9 						"/>
					</g>
					<g id="XMLID_1650_">
						<path id="XMLID_1651_" class="st5" d="M623.6,455.3h-8.3V447h8.3V455.3z M616.3,454.3h6.3V448h-6.3V454.3z"/>
					</g>
					<g id="XMLID_1648_">
						<polygon id="XMLID_1649_" class="st5" points="648.9,443.4 641.7,436.2 641.9,436 649.1,443.2 						"/>
					</g>
					<g id="XMLID_1644_">
						<path id="XMLID_1645_" class="st5" d="M642.3,436.6H634v-8.3h8.3V436.6z M635,435.6h6.3v-6.3H635V435.6z"/>
					</g>
					<g id="XMLID_1642_">
						<polygon id="XMLID_1643_" class="st5" points="639.4,452.4 622.5,435.5 622.7,435.3 639.6,452.2 						"/>
					</g>
					<g id="XMLID_1638_">
						<path id="XMLID_1639_" class="st5" d="M623.1,435.9h-8.3v-8.3h8.3V435.9z M615.8,434.9h6.3v-6.3h-6.3V434.9z"/>
					</g>
				</g>
			</g>
			<g id="XMLID_1413_">
				<g id="XMLID_1617_">
					<g id="XMLID_1634_">
						<polygon id="XMLID_1635_" class="st5" points="642.1,943 641.9,942.8 649.1,935.6 649.3,935.8 						"/>
					</g>
					<g id="XMLID_1630_">
						<path id="XMLID_1631_" class="st5" d="M642.5,950.7h-8.3v-8.3h8.3V950.7z M635.2,949.7h6.3v-6.3h-6.3V949.7z"/>
					</g>
					<g id="XMLID_1628_">
						<polygon id="XMLID_1629_" class="st5" points="623.4,924.3 623.2,924.1 630.4,916.9 630.6,917.1 						"/>
					</g>
					<g id="XMLID_1624_">
						<path id="XMLID_1625_" class="st5" d="M623.8,932h-8.3v-8.3h8.3V932z M616.5,931h6.3v-6.3h-6.3V931z"/>
					</g>
					<g id="XMLID_1622_">
						<polygon id="XMLID_1623_" class="st5" points="622.7,943.5 622.5,943.3 639.4,926.5 639.6,926.6 						"/>
					</g>
					<g id="XMLID_1618_">
						<path id="XMLID_1619_" class="st5" d="M623.1,951.2h-8.3v-8.3h8.3V951.2z M615.8,950.2h6.3v-6.3h-6.3V950.2z"/>
					</g>
				</g>
				<g id="XMLID_1598_">
					<g id="XMLID_1615_">
						<polygon id="XMLID_1616_" class="st5" points="611.4,912.3 611.3,912.2 618.4,905 618.6,905.2 						"/>
					</g>
					<g id="XMLID_1611_">
						<path id="XMLID_1612_" class="st5" d="M611.9,920h-8.3v-8.3h8.3V920z M604.6,919h6.3v-6.3h-6.3V919z"/>
					</g>
					<g id="XMLID_1609_">
						<polygon id="XMLID_1610_" class="st5" points="592.7,893.6 592.6,893.5 599.7,886.3 599.9,886.5 						"/>
					</g>
					<g id="XMLID_1605_">
						<path id="XMLID_1606_" class="st5" d="M593.2,901.3h-8.3V893h8.3V901.3z M585.9,900.3h6.3V894h-6.3V900.3z"/>
					</g>
					<g id="XMLID_1603_">
						<polygon id="XMLID_1604_" class="st5" points="592.1,912.9 591.9,912.7 608.7,895.8 608.9,896 						"/>
					</g>
					<g id="XMLID_1599_">
						<path id="XMLID_1600_" class="st5" d="M592.5,920.6h-8.3v-8.3h8.3V920.6z M585.2,919.6h6.3v-6.3h-6.3V919.6z"/>
					</g>
				</g>
				<g id="XMLID_1579_">
					<g id="XMLID_1596_">
						<polygon id="XMLID_1597_" class="st5" points="580.8,881.7 580.6,881.5 587.8,874.3 588,874.5 						"/>
					</g>
					<g id="XMLID_1592_">
						<path id="XMLID_1593_" class="st5" d="M581.2,889.4h-8.3v-8.3h8.3V889.4z M573.9,888.4h6.3v-6.3h-6.3V888.4z"/>
					</g>
					<g id="XMLID_1590_">
						<polygon id="XMLID_1591_" class="st5" points="562.1,863 561.9,862.8 569.1,855.6 569.3,855.8 						"/>
					</g>
					<g id="XMLID_1586_">
						<path id="XMLID_1587_" class="st5" d="M562.5,870.7h-8.3v-8.3h8.3V870.7z M555.2,869.7h6.3v-6.3h-6.3V869.7z"/>
					</g>
					<g id="XMLID_1584_">
						<polygon id="XMLID_1585_" class="st5" points="561.4,882.2 561.2,882 578.1,865.2 578.3,865.4 						"/>
					</g>
					<g id="XMLID_1580_">
						<path id="XMLID_1581_" class="st5" d="M561.8,889.9h-8.3v-8.3h8.3V889.9z M554.5,888.9h6.3v-6.3h-6.3V888.9z"/>
					</g>
				</g>
				<g id="XMLID_1560_">
					<g id="XMLID_1577_">
						<polygon id="XMLID_1578_" class="st5" points="550.2,851 550,850.9 557.1,843.7 557.3,843.9 						"/>
					</g>
					<g id="XMLID_1573_">
						<path id="XMLID_1574_" class="st5" d="M550.6,858.7h-8.3v-8.3h8.3V858.7z M543.3,857.7h6.3v-6.3h-6.3V857.7z"/>
					</g>
					<g id="XMLID_1571_">
						<polygon id="XMLID_1572_" class="st5" points="531.5,832.3 531.3,832.2 538.4,825 538.6,825.2 						"/>
					</g>
					<g id="XMLID_1567_">
						<path id="XMLID_1568_" class="st5" d="M531.9,840h-8.3v-8.3h8.3V840z M524.6,839h6.3v-6.3h-6.3V839z"/>
					</g>
					<g id="XMLID_1565_">
						<polygon id="XMLID_1566_" class="st5" points="530.8,851.6 530.6,851.4 547.5,834.5 547.6,834.7 						"/>
					</g>
					<g id="XMLID_1561_">
						<path id="XMLID_1562_" class="st5" d="M531.2,859.3h-8.3V851h8.3V859.3z M523.9,858.3h6.3V852h-6.3V858.3z"/>
					</g>
				</g>
				<g id="XMLID_1541_">
					<g id="XMLID_1558_">
						<polygon id="XMLID_1559_" class="st5" points="519.5,820.4 519.3,820.2 526.5,813.1 526.7,813.2 						"/>
					</g>
					<g id="XMLID_1554_">
						<path id="XMLID_1555_" class="st5" d="M519.9,828.1h-8.3v-8.3h8.3V828.1z M512.6,827.1h6.3v-6.3h-6.3V827.1z"/>
					</g>
					<g id="XMLID_1552_">
						<polygon id="XMLID_1553_" class="st5" points="500.8,801.7 500.6,801.5 507.8,794.4 508,794.5 						"/>
					</g>
					<g id="XMLID_1548_">
						<path id="XMLID_1549_" class="st5" d="M501.2,809.4h-8.3v-8.3h8.3V809.4z M493.9,808.4h6.3v-6.3h-6.3V808.4z"/>
					</g>
					<g id="XMLID_1546_">
						<polygon id="XMLID_1547_" class="st5" points="500.1,820.9 499.9,820.8 516.8,803.9 517,804.1 						"/>
					</g>
					<g id="XMLID_1542_">
						<path id="XMLID_1543_" class="st5" d="M500.5,828.6h-8.3v-8.3h8.3V828.6z M493.2,827.6h6.3v-6.3h-6.3V827.6z"/>
					</g>
				</g>
				<g id="XMLID_1463_">
					<g id="XMLID_1539_">
						<polygon id="XMLID_1540_" class="st5" points="488.9,789.8 488.7,789.6 495.9,782.4 496,782.6 						"/>
					</g>
					<g id="XMLID_1535_">
						<path id="XMLID_1536_" class="st5" d="M489.3,797.5H481v-8.3h8.3V797.5z M482,796.5h6.3v-6.3H482V796.5z"/>
					</g>
					<g id="XMLID_1533_">
						<polygon id="XMLID_1534_" class="st5" points="470.2,771.1 470,770.9 477.2,763.7 477.3,763.9 						"/>
					</g>
					<g id="XMLID_1529_">
						<path id="XMLID_1530_" class="st5" d="M470.6,778.8h-8.3v-8.3h8.3V778.8z M463.3,777.8h6.3v-6.3h-6.3V777.8z"/>
					</g>
					<g id="XMLID_1527_">
						<polygon id="XMLID_1528_" class="st5" points="469.5,790.3 469.3,790.1 486.2,773.2 486.3,773.4 						"/>
					</g>
					<g id="XMLID_1464_">
						<path id="XMLID_1465_" class="st5" d="M469.9,798h-8.3v-8.3h8.3V798z M462.6,797h6.3v-6.3h-6.3V797z"/>
					</g>
				</g>
				<g id="XMLID_1433_">
					<g id="XMLID_1461_">
						<polygon id="XMLID_1462_" class="st5" points="458.2,759.1 458,758.9 465.2,751.8 465.4,751.9 						"/>
					</g>
					<g id="XMLID_1452_">
						<path id="XMLID_1458_" class="st5" d="M458.6,766.8h-8.3v-8.3h8.3V766.8z M451.3,765.8h6.3v-6.3h-6.3V765.8z"/>
					</g>
					<g id="XMLID_1444_">
						<polygon id="XMLID_1445_" class="st5" points="439.5,740.4 439.3,740.2 446.5,733.1 446.7,733.2 						"/>
					</g>
					<g id="XMLID_1440_">
						<path id="XMLID_1441_" class="st5" d="M439.9,748.1h-8.3v-8.3h8.3V748.1z M432.6,747.1h6.3v-6.3h-6.3V747.1z"/>
					</g>
					<g id="XMLID_1438_">
						<polygon id="XMLID_1439_" class="st5" points="438.8,759.6 438.7,759.5 455.5,742.6 455.7,742.8 						"/>
					</g>
					<g id="XMLID_1434_">
						<path id="XMLID_1435_" class="st5" d="M439.2,767.3H431V759h8.3L439.2,767.3L439.2,767.3z M432,766.3h6.3V760H432V766.3z"/>
					</g>
				</g>
				<g id="XMLID_1414_">
					<g id="XMLID_1431_">
						<polygon id="XMLID_1432_" class="st5" points="427.6,728.5 427.4,728.3 434.6,721.1 434.7,721.3 						"/>
					</g>
					<g id="XMLID_1427_">
						<path id="XMLID_1428_" class="st5" d="M428,736.2h-8.3v-8.3h8.3V736.2z M420.7,735.2h6.3v-6.3h-6.3V735.2z"/>
					</g>
					<g id="XMLID_1425_">
						<polygon id="XMLID_1426_" class="st5" points="408.9,709.8 408.7,709.6 415.9,702.4 416,702.6 						"/>
					</g>
					<g id="XMLID_1421_">
						<path id="XMLID_1422_" class="st5" d="M409.3,717.5H401v-8.3h8.3V717.5z M402,716.5h6.3v-6.3H402V716.5z"/>
					</g>
					<g id="XMLID_1419_">
						<polygon id="XMLID_1420_" class="st5" points="408.2,729 408,728.8 424.9,712 425,712.1 						"/>
					</g>
					<g id="XMLID_1415_">
						<path id="XMLID_1416_" class="st5" d="M408.6,736.7h-8.3v-8.3h8.3V736.7z M401.3,735.7h6.3v-6.3h-6.3V735.7z"/>
					</g>
				</g>
			</g>
			<g id="XMLID_1260_">
				<g id="XMLID_1394_">
					<g id="XMLID_1411_">
						<polygon id="XMLID_1412_" class="st5" points="914.2,709.7 907,702.5 907.2,702.3 914.3,709.5 						"/>
					</g>
					<g id="XMLID_1407_">
						<path id="XMLID_1408_" class="st5" d="M922,717.4h-8.3v-8.3h8.3V717.4z M914.8,716.4h6.3v-6.3h-6.3V716.4z"/>
					</g>
					<g id="XMLID_1405_">
						<polygon id="XMLID_1406_" class="st5" points="895.5,728.4 888.3,721.2 888.5,721 895.6,728.2 						"/>
					</g>
					<g id="XMLID_1401_">
						<path id="XMLID_1402_" class="st5" d="M903.3,736.1H895v-8.3h8.3V736.1z M896.1,735.1h6.3v-6.3h-6.3V735.1z"/>
					</g>
					<g id="XMLID_1399_">
						<polygon id="XMLID_1400_" class="st5" points="914.7,729.1 897.8,712.2 898,712 914.9,728.9 						"/>
					</g>
					<g id="XMLID_1395_">
						<path id="XMLID_1396_" class="st5" d="M922.6,736.8h-8.3v-8.3h8.3V736.8z M915.3,735.8h6.3v-6.3h-6.3V735.8z"/>
					</g>
				</g>
				<g id="XMLID_1375_">
					<g id="XMLID_1392_">
						<polygon id="XMLID_1393_" class="st5" points="883.5,740.3 876.4,733.2 876.5,733 883.7,740.2 						"/>
					</g>
					<g id="XMLID_1388_">
						<path id="XMLID_1389_" class="st5" d="M891.4,748h-8.3v-8.3h8.3V748z M884.1,747h6.3v-6.3h-6.3V747z"/>
					</g>
					<g id="XMLID_1386_">
						<polygon id="XMLID_1387_" class="st5" points="864.8,759 857.7,751.9 857.8,751.7 865,758.8 						"/>
					</g>
					<g id="XMLID_1382_">
						<path id="XMLID_1383_" class="st5" d="M872.7,766.7h-8.3v-8.3h8.3V766.7z M865.4,765.7h6.3v-6.3h-6.3V765.7z"/>
					</g>
					<g id="XMLID_1380_">
						<polygon id="XMLID_1381_" class="st5" points="884,759.7 867.2,742.9 867.4,742.7 884.2,759.5 						"/>
					</g>
					<g id="XMLID_1376_">
						<path id="XMLID_1377_" class="st5" d="M891.9,767.4h-8.3v-8.3h8.3V767.4z M884.6,766.4h6.3v-6.3h-6.3V766.4z"/>
					</g>
				</g>
				<g id="XMLID_1356_">
					<g id="XMLID_1373_">
						<polygon id="XMLID_1374_" class="st5" points="852.9,771 845.7,763.8 845.9,763.6 853.1,770.8 						"/>
					</g>
					<g id="XMLID_1369_">
						<path id="XMLID_1370_" class="st5" d="M860.8,778.7h-8.3v-8.3h8.3V778.7z M853.5,777.7h6.3v-6.3h-6.3V777.7z"/>
					</g>
					<g id="XMLID_1367_">
						<polygon id="XMLID_1368_" class="st5" points="834.2,789.7 827,782.5 827.2,782.3 834.4,789.5 						"/>
					</g>
					<g id="XMLID_1363_">
						<path id="XMLID_1364_" class="st5" d="M842.1,797.4h-8.3v-8.3h8.3V797.4z M834.8,796.4h6.3v-6.3h-6.3V796.4z"/>
					</g>
					<g id="XMLID_1361_">
						<polygon id="XMLID_1362_" class="st5" points="853.4,790.4 836.5,773.5 836.7,773.3 853.6,790.2 						"/>
					</g>
					<g id="XMLID_1357_">
						<path id="XMLID_1358_" class="st5" d="M861.3,798.1H853v-8.3h8.3V798.1z M854,797.1h6.3v-6.3H854V797.1z"/>
					</g>
				</g>
				<g id="XMLID_1337_">
					<g id="XMLID_1354_">
						<polygon id="XMLID_1355_" class="st5" points="822.2,801.6 815.1,794.5 815.2,794.3 822.4,801.4 						"/>
					</g>
					<g id="XMLID_1350_">
						<path id="XMLID_1351_" class="st5" d="M830.1,809.3h-8.3V801h8.3V809.3z M822.8,808.3h6.3V802h-6.3V808.3z"/>
					</g>
					<g id="XMLID_1348_">
						<polygon id="XMLID_1349_" class="st5" points="803.5,820.3 796.4,813.1 796.5,813 803.7,820.1 						"/>
					</g>
					<g id="XMLID_1344_">
						<path id="XMLID_1345_" class="st5" d="M811.4,828h-8.3v-8.3h8.3V828z M804.1,827h6.3v-6.3h-6.3V827z"/>
					</g>
					<g id="XMLID_1342_">
						<polygon id="XMLID_1343_" class="st5" points="822.8,821 805.9,804.1 806.1,804 822.9,820.8 						"/>
					</g>
					<g id="XMLID_1338_">
						<path id="XMLID_1339_" class="st5" d="M830.6,828.7h-8.3v-8.3h8.3V828.7z M823.3,827.7h6.3v-6.3h-6.3V827.7z"/>
					</g>
				</g>
				<g id="XMLID_1318_">
					<g id="XMLID_1335_">
						<polygon id="XMLID_1336_" class="st5" points="791.6,832.3 784.4,825.1 784.6,824.9 791.8,832.1 						"/>
					</g>
					<g id="XMLID_1331_">
						<path id="XMLID_1332_" class="st5" d="M799.5,840h-8.3v-8.3h8.3V840z M792.2,839h6.3v-6.3h-6.3V839z"/>
					</g>
					<g id="XMLID_1329_">
						<polygon id="XMLID_1330_" class="st5" points="772.9,851 765.7,843.8 765.9,843.6 773.1,850.8 						"/>
					</g>
					<g id="XMLID_1325_">
						<path id="XMLID_1326_" class="st5" d="M780.8,858.7h-8.3v-8.3h8.3V858.7z M773.5,857.7h6.3v-6.3h-6.3V857.7z"/>
					</g>
					<g id="XMLID_1323_">
						<polygon id="XMLID_1324_" class="st5" points="792.1,851.7 775.2,834.8 775.4,834.6 792.3,851.5 						"/>
					</g>
					<g id="XMLID_1319_">
						<path id="XMLID_1320_" class="st5" d="M800,859.4h-8.3v-8.3h8.3V859.4z M792.7,858.4h6.3v-6.3h-6.3V858.4z"/>
					</g>
				</g>
				<g id="XMLID_1299_">
					<g id="XMLID_1316_">
						<polygon id="XMLID_1317_" class="st5" points="760.9,862.9 753.8,855.7 754,855.6 761.1,862.7 						"/>
					</g>
					<g id="XMLID_1312_">
						<path id="XMLID_1313_" class="st5" d="M768.8,870.6h-8.3v-8.3h8.3V870.6z M761.5,869.6h6.3v-6.3h-6.3V869.6z"/>
					</g>
					<g id="XMLID_1310_">
						<polygon id="XMLID_1311_" class="st5" points="742.2,881.6 735.1,874.4 735.3,874.3 742.4,881.4 						"/>
					</g>
					<g id="XMLID_1306_">
						<path id="XMLID_1307_" class="st5" d="M750.1,889.3h-8.3V881h8.3V889.3z M742.8,888.3h6.3V882h-6.3V888.3z"/>
					</g>
					<g id="XMLID_1304_">
						<polygon id="XMLID_1305_" class="st5" points="761.5,882.3 744.6,865.4 744.8,865.3 761.6,882.1 						"/>
					</g>
					<g id="XMLID_1300_">
						<path id="XMLID_1301_" class="st5" d="M769.3,890H761v-8.3h8.3V890z M762.1,889h6.3v-6.3h-6.3V889z"/>
					</g>
				</g>
				<g id="XMLID_1280_">
					<g id="XMLID_1297_">
						<polygon id="XMLID_1298_" class="st5" points="730.3,893.6 723.1,886.4 723.3,886.2 730.5,893.4 						"/>
					</g>
					<g id="XMLID_1293_">
						<path id="XMLID_1294_" class="st5" d="M738.2,901.3h-8.3V893h8.3V901.3z M730.9,900.3h6.3V894h-6.3V900.3z"/>
					</g>
					<g id="XMLID_1291_">
						<polygon id="XMLID_1292_" class="st5" points="711.6,912.2 704.4,905.1 704.6,904.9 711.8,912.1 						"/>
					</g>
					<g id="XMLID_1287_">
						<path id="XMLID_1288_" class="st5" d="M719.5,920h-8.3v-8.3h8.3V920z M712.2,919h6.3v-6.3h-6.3V919z"/>
					</g>
					<g id="XMLID_1285_">
						<polygon id="XMLID_1286_" class="st5" points="730.8,912.9 714,896.1 714.1,895.9 731,912.8 						"/>
					</g>
					<g id="XMLID_1281_">
						<path id="XMLID_1282_" class="st5" d="M738.7,920.6h-8.3v-8.3h8.3V920.6z M731.4,919.6h6.3v-6.3h-6.3V919.6z"/>
					</g>
				</g>
				<g id="XMLID_1261_">
					<g id="XMLID_1278_">
						<polygon id="XMLID_1279_" class="st5" points="699.7,924.2 692.5,917 692.7,916.9 699.8,924 						"/>
					</g>
					<g id="XMLID_1274_">
						<path id="XMLID_1275_" class="st5" d="M707.5,931.9h-8.3v-8.3h8.3V931.9z M700.2,930.9h6.3v-6.3h-6.3V930.9z"/>
					</g>
					<g id="XMLID_1272_">
						<polygon id="XMLID_1273_" class="st5" points="681,942.9 673.8,935.7 674,935.5 681.1,942.7 						"/>
					</g>
					<g id="XMLID_1268_">
						<path id="XMLID_1269_" class="st5" d="M688.8,950.6h-8.3v-8.3h8.3V950.6z M681.5,949.6h6.3v-6.3h-6.3V949.6z"/>
					</g>
					<g id="XMLID_1266_">
						<polygon id="XMLID_1267_" class="st5" points="700.2,943.6 683.3,926.7 683.5,926.5 700.4,943.4 						"/>
					</g>
					<g id="XMLID_1262_">
						<path id="XMLID_1263_" class="st5" d="M708.1,951.3h-8.3V943h8.3V951.3z M700.8,950.3h6.3V944h-6.3V950.3z"/>
					</g>
				</g>
			</g>
			<g id="XMLID_1258_">
				<rect id="XMLID_1259_" x="380.4" y="689.4" class="st5" width="23.9" height="0.2"/>
			</g>
			<g id="XMLID_1256_">
				
					<rect id="XMLID_1257_" x="371.6" y="685.9" transform="matrix(0.7071 -0.7071 0.7071 0.7071 -377.6591 467.3306)" class="st5" width="7.3" height="7.3"/>
			</g>
			<g id="XMLID_1254_">
				<rect id="XMLID_1255_" x="919.8" y="689.4" class="st5" width="23.9" height="0.2"/>
			</g>
			<g id="XMLID_1252_">
				
					<rect id="XMLID_1253_" x="945.2" y="685.9" transform="matrix(0.7071 -0.7071 0.7071 0.7071 -209.6674 872.8884)" class="st5" width="7.3" height="7.3"/>
			</g>
			<g id="XMLID_1250_">
				<rect id="XMLID_1251_" x="661.5" y="947.1" class="st5" width="0.2" height="23.9"/>
			</g>
			<g id="XMLID_1248_">
				
					<rect id="XMLID_1249_" x="658" y="972.4" transform="matrix(0.7071 -0.7071 0.7071 0.7071 -496.4203 753.7338)" class="st5" width="7.3" height="7.3"/>
			</g>
		</g>
		<g id="XMLID_1174_">
			<g id="XMLID_1243_">
				<path id="XMLID_1244_" class="st6" d="M672.7,571.8l-11.1-11.1l-11.1,11.1l-31.3-31.3l42.3-42.3l42.3,42.3L672.7,571.8z
					 M620.7,540.5l29.9,29.9l11.1-11.1l11.1,11.1l29.9-29.9l-40.9-40.9L620.7,540.5z"/>
			</g>
			<g id="XMLID_1239_">
				<path id="XMLID_1240_" class="st6" d="M661.6,880.5l-42.3-42.3l31.3-31.3l11.1,11.1l11.1-11.1l31.3,31.3L661.6,880.5z
					 M620.7,838.1l40.9,40.9l40.9-40.9l-29.9-29.9l-11.1,11.1l-11.1-11.1L620.7,838.1z"/>
			</g>
			<g id="XMLID_1235_">
				<path id="XMLID_1236_" class="st6" d="M810.4,731.7l-31.3-31.3l11.1-11.1l-11.1-11.1l31.3-31.3l42.3,42.3L810.4,731.7z
					 M780.5,700.4l29.9,29.9l40.9-40.9l-40.9-40.9l-29.9,29.9l11.1,11.1L780.5,700.4z"/>
			</g>
			<g id="XMLID_1231_">
				<path id="XMLID_1232_" class="st6" d="M512.8,731.7l-42.3-42.3l42.3-42.3l31.3,31.3L533,689.5l11.1,11.1L512.8,731.7z
					 M471.9,689.3l40.9,40.9l29.9-29.9l-11.1-11.1l11.1-11.1l-29.9-29.9L471.9,689.3z"/>
			</g>
			<g id="XMLID_1227_">
				<path id="XMLID_1228_" class="st6" d="M661.6,881.2L469.8,689.3l191.9-191.8l191.8,191.8L661.6,881.2z M472.6,689.3l189,189
					l189-189l-189-189L472.6,689.3z"/>
			</g>
			<g id="XMLID_1220_">
				<g id="XMLID_1225_">
					<path id="XMLID_1226_" class="st6" d="M551.5,641.3c-4.2,4.2-10.5,5-15.5,2.3c0.6,1.1,1.4,2.2,2.3,3.2c5.2,5.2,13.5,5.2,18.7,0
						s5.2-13.5,0-18.7c-1-1-2-1.7-3.2-2.3C556.4,630.8,555.7,637.1,551.5,641.3z"/>
				</g>
				<g id="XMLID_1223_">
					<path id="XMLID_1224_" class="st6" d="M581.4,611.4c-4.2,4.2-10.5,5-15.5,2.3c0.6,1.1,1.4,2.2,2.3,3.2c5.2,5.2,13.5,5.2,18.7,0
						s5.2-13.5,0-18.7c-1-1-2-1.7-3.2-2.3C586.4,600.9,585.6,607.2,581.4,611.4z"/>
				</g>
				<g id="XMLID_1221_">
					<path id="XMLID_1222_" class="st6" d="M610.2,582.6c-4.2,4.2-10.5,5-15.5,2.3c0.6,1.1,1.4,2.2,2.3,3.2c5.2,5.2,13.5,5.2,18.7,0
						s5.2-13.5,0-18.7c-1-1-2-1.7-3.2-2.3C615.2,572,614.4,578.4,610.2,582.6z"/>
				</g>
			</g>
			<g id="XMLID_1213_">
				<g id="XMLID_1218_">
					<path id="XMLID_1219_" class="st6" d="M767.6,740c4.2-4.2,10.5-5,15.5-2.3c-0.6-1.1-1.4-2.2-2.3-3.2c-5.2-5.2-13.5-5.2-18.7,0
						s-5.2,13.5,0,18.7c1,1,2,1.7,3.2,2.3C762.6,750.5,763.4,744.2,767.6,740z"/>
				</g>
				<g id="XMLID_1216_">
					<path id="XMLID_1217_" class="st6" d="M737.7,769.9c4.2-4.2,10.5-5,15.5-2.3c-0.6-1.1-1.4-2.2-2.3-3.2
						c-5.2-5.2-13.5-5.2-18.7,0s-5.2,13.5,0,18.7c1,1,2,1.7,3.2,2.3C732.7,780.4,733.5,774.1,737.7,769.9z"/>
				</g>
				<g id="XMLID_1214_">
					<path id="XMLID_1215_" class="st6" d="M708.9,798.7c4.2-4.2,10.5-5,15.5-2.3c-0.6-1.1-1.4-2.2-2.3-3.2
						c-5.2-5.2-13.5-5.2-18.7,0s-5.2,13.5,0,18.7c1,1,2,1.7,3.2,2.3C703.9,809.3,704.6,802.9,708.9,798.7z"/>
				</g>
			</g>
			<g id="XMLID_1206_">
				<g id="XMLID_1211_">
					<path id="XMLID_1212_" class="st6" d="M612.2,797.7c4.2,4.2,5,10.5,2.3,15.5c1.1-0.6,2.2-1.4,3.2-2.3c5.2-5.2,5.2-13.5,0-18.7
						s-13.5-5.2-18.7,0c-1,1-1.7,2-2.3,3.2C601.7,792.7,608,793.5,612.2,797.7z"/>
				</g>
				<g id="XMLID_1209_">
					<path id="XMLID_1210_" class="st6" d="M582.3,767.8c4.2,4.2,5,10.5,2.3,15.5c1.1-0.6,2.2-1.4,3.2-2.3c5.2-5.2,5.2-13.5,0-18.7
						s-13.5-5.2-18.7,0c-1,1-1.7,2-2.3,3.2C571.8,762.8,578.1,763.6,582.3,767.8z"/>
				</g>
				<g id="XMLID_1207_">
					<path id="XMLID_1208_" class="st6" d="M553.5,739c4.2,4.2,5,10.5,2.3,15.5c1.1-0.6,2.2-1.4,3.2-2.3c5.2-5.2,5.2-13.5,0-18.7
						s-13.5-5.2-18.7,0c-1,1-1.7,2-2.3,3.2C542.9,734,549.3,734.8,553.5,739z"/>
				</g>
			</g>
			<g id="XMLID_1199_">
				<g id="XMLID_1204_">
					<path id="XMLID_1205_" class="st6" d="M710.9,581.6c-4.2-4.2-5-10.5-2.3-15.5c-1.1,0.6-2.2,1.4-3.2,2.3
						c-5.2,5.2-5.2,13.5,0,18.7s13.5,5.2,18.7,0c1-1,1.7-2,2.3-3.2C721.4,586.6,715.1,585.8,710.9,581.6z"/>
				</g>
				<g id="XMLID_1202_">
					<path id="XMLID_1203_" class="st6" d="M740.8,611.5c-4.2-4.2-5-10.5-2.3-15.5c-1.1,0.6-2.2,1.4-3.2,2.3
						c-5.2,5.2-5.2,13.5,0,18.7s13.5,5.2,18.7,0c1-1,1.7-2,2.3-3.2C751.3,616.5,745,615.7,740.8,611.5z"/>
				</g>
				<g id="XMLID_1200_">
					<path id="XMLID_1201_" class="st6" d="M769.6,640.3c-4.2-4.2-5-10.5-2.3-15.5c-1.1,0.6-2.2,1.4-3.2,2.3
						c-5.2,5.2-5.2,13.5,0,18.7s13.5,5.2,18.7,0c1-1,1.7-2,2.3-3.2C780.2,645.3,773.8,644.5,769.6,640.3z"/>
				</g>
			</g>
			<g id="XMLID_1197_">
				<polygon id="XMLID_1198_" class="st6" points="623.7,596.6 614.6,587.4 614.7,587.3 623.9,596.4 				"/>
			</g>
			<g id="XMLID_1195_">
				<polygon id="XMLID_1196_" class="st6" points="595.1,625.3 585.9,616.1 586.1,615.9 595.2,625.1 				"/>
			</g>
			<g id="XMLID_1193_">
				<polygon id="XMLID_1194_" class="st6" points="564.3,656 555.1,646.9 555.3,646.7 564.5,655.8 				"/>
			</g>
			<g id="XMLID_1191_">
				<polygon id="XMLID_1192_" class="st6" points="755.3,654.3 755.2,654.1 764.3,645 764.5,645.1 				"/>
			</g>
			<g id="XMLID_1189_">
				<polygon id="XMLID_1190_" class="st6" points="726.7,625.7 726.5,625.5 735.7,616.3 735.8,616.5 				"/>
			</g>
			<g id="XMLID_1187_">
				<polygon id="XMLID_1188_" class="st6" points="696.9,595.9 696.7,595.7 705.9,586.5 706.1,586.7 				"/>
			</g>
			<g id="XMLID_1185_">
				<polygon id="XMLID_1186_" class="st6" points="703.4,794.6 694.2,785.4 694.4,785.3 703.5,794.4 				"/>
			</g>
			<g id="XMLID_1183_">
				<polygon id="XMLID_1184_" class="st6" points="732.5,765.4 723.4,756.3 723.5,756.1 732.7,765.3 				"/>
			</g>
			<g id="XMLID_1181_">
				<polygon id="XMLID_1182_" class="st6" points="763.8,734.1 754.7,725 754.8,724.8 764,734 				"/>
			</g>
			<g id="XMLID_1179_">
				<polygon id="XMLID_1180_" class="st6" points="617.5,792.2 617.3,792 626.5,782.8 626.7,783 				"/>
			</g>
			<g id="XMLID_1177_">
				<polygon id="XMLID_1178_" class="st6" points="588.8,763.5 588.6,763.3 597.8,754.2 598,754.3 				"/>
			</g>
			<g id="XMLID_1175_">
				<polygon id="XMLID_1176_" class="st6" points="558.1,732.7 557.9,732.6 567.1,723.4 567.2,723.6 				"/>
			</g>
		</g>
		<g id="XMLID_206_">
			<g id="XMLID_1170_">
				<path id="XMLID_1171_" class="st7" d="M661.6,1024.2L326.8,689.3l334.9-334.9l334.9,334.9L661.6,1024.2z M329.6,689.3l332,332
					l332-332l-332-332L329.6,689.3z"/>
			</g>
			<g id="XMLID_1137_">
				<g id="XMLID_1168_">
					<rect id="XMLID_1169_" x="661.2" y="227.2" class="st8" width="0.8" height="129.9"/>
				</g>
				<g id="XMLID_1166_">
					<polygon id="XMLID_1167_" class="st8" points="661.6,229.2 651.6,216.2 671.7,216.2 					"/>
				</g>
				<g id="XMLID_1159_">
					<g id="XMLID_1164_">
						
							<rect id="XMLID_1165_" x="709" y="377" transform="matrix(0.7078 -0.7065 0.7065 0.7078 -40.6301 656.5411)" class="st8" width="128.5" height="0.8"/>
					</g>
					<g id="XMLID_1160_">
						<path id="XMLID_1161_" class="st8" d="M817.5,333l2.3-18l15.7,15.7L817.5,333z M820.6,317.1l-1.9,14.7l14.7-1.9L820.6,317.1z"
							/>
					</g>
				</g>
				<g id="XMLID_1152_">
					<g id="XMLID_1157_">
						
							<rect id="XMLID_1158_" x="774.2" y="442.1" transform="matrix(0.7078 -0.7065 0.7065 0.7078 -67.6078 721.6603)" class="st8" width="128.5" height="0.8"/>
					</g>
					<g id="XMLID_1153_">
						<path id="XMLID_1154_" class="st8" d="M882.7,398.1l2.3-18l15.7,15.7L882.7,398.1z M885.8,382.3l-1.9,14.7l14.7-1.9
							L885.8,382.3z"/>
					</g>
				</g>
				<g id="XMLID_1145_">
					<g id="XMLID_1150_">
						
							<rect id="XMLID_1151_" x="839.3" y="507.2" transform="matrix(0.7078 -0.7065 0.7065 0.7078 -94.5561 786.709)" class="st8" width="128.5" height="0.8"/>
					</g>
					<g id="XMLID_1146_">
						<path id="XMLID_1147_" class="st8" d="M947.9,463.3l2.3-18l15.7,15.7L947.9,463.3z M950.9,447.5l-1.9,14.7l14.7-1.9
							L950.9,447.5z"/>
					</g>
				</g>
				<g id="XMLID_1138_">
					<g id="XMLID_1143_">
						
							<rect id="XMLID_1144_" x="904.5" y="572.5" transform="matrix(0.7078 -0.7065 0.7065 0.7078 -121.6044 851.7989)" class="st8" width="128.5" height="0.8"/>
					</g>
					<g id="XMLID_1139_">
						<path id="XMLID_1140_" class="st8" d="M1013,528.5l2.3-18l15.7,15.7L1013,528.5z M1016.1,512.6l-1.9,14.7l14.7-1.9
							L1016.1,512.6z"/>
					</g>
				</g>
			</g>
			<g id="XMLID_1135_">
				<rect id="XMLID_1136_" x="661.8" y="1022.3" class="st8" width="0.8" height="127.9"/>
			</g>
			<g id="XMLID_1131_">
				<path id="XMLID_1132_" class="st8" d="M673.3,1163.6h-22.2l11.1-14.4L673.3,1163.6z M653.2,1162.6h18.1l-9-11.7L653.2,1162.6z"
					/>
			</g>
			<g id="XMLID_1124_">
				<g id="XMLID_1129_">
					
						<rect id="XMLID_1130_" x="486.6" y="1001.6" transform="matrix(0.7078 -0.7065 0.7065 0.7078 -546.8687 681.9481)" class="st8" width="128.5" height="0.8"/>
				</g>
				<g id="XMLID_1125_">
					<path id="XMLID_1126_" class="st8" d="M504,1064.4l-15.7-15.7l18-2.3L504,1064.4z M490.4,1049.4l12.8,12.8l1.9-14.7
						L490.4,1049.4z"/>
				</g>
			</g>
			<g id="XMLID_1117_">
				<g id="XMLID_1122_">
					
						<rect id="XMLID_1123_" x="421.3" y="936.4" transform="matrix(0.7078 -0.7065 0.7065 0.7078 -519.8912 616.8287)" class="st8" width="128.5" height="0.8"/>
				</g>
				<g id="XMLID_1118_">
					<path id="XMLID_1119_" class="st8" d="M438.8,999.2l-15.7-15.7l18-2.3L438.8,999.2z M425.3,984.2l12.8,12.8l1.9-14.7
						L425.3,984.2z"/>
				</g>
			</g>
			<g id="XMLID_1110_">
				<g id="XMLID_1115_">
					
						<rect id="XMLID_1116_" x="356.2" y="871.3" transform="matrix(0.7078 -0.7065 0.7065 0.7078 -492.9428 551.7802)" class="st8" width="128.5" height="0.8"/>
				</g>
				<g id="XMLID_1111_">
					<path id="XMLID_1112_" class="st8" d="M373.6,934L358,918.4l18-2.3L373.6,934z M360.1,919.1l12.8,12.8l1.9-14.7L360.1,919.1z"
						/>
				</g>
			</g>
			<g id="XMLID_1103_">
				<g id="XMLID_1108_">
					
						<rect id="XMLID_1109_" x="291.1" y="806.1" transform="matrix(0.7078 -0.7065 0.7065 0.7078 -465.8945 486.6903)" class="st8" width="128.5" height="0.8"/>
				</g>
				<g id="XMLID_1104_">
					<path id="XMLID_1105_" class="st8" d="M308.5,868.8l-15.7-15.7l18-2.3L308.5,868.8z M294.9,853.9l12.8,12.8l1.9-14.7
						L294.9,853.9z"/>
				</g>
			</g>
			<g id="XMLID_1101_">
				<rect id="XMLID_1102_" x="994.5" y="689" class="st8" width="128.9" height="0.8"/>
			</g>
			<g id="XMLID_1097_">
				<path id="XMLID_1098_" class="st8" d="M1135.9,700.5l-14.4-11.1l14.4-11.1V700.5z M1123.2,689.4l11.7,9v-18.1L1123.2,689.4z"/>
			</g>
			<g id="XMLID_1090_">
				<g id="XMLID_1095_">
					
						<rect id="XMLID_1096_" x="973.9" y="736.6" transform="matrix(0.7071 -0.7071 0.7071 0.7071 -280.9573 923.4998)" class="st8" width="0.8" height="128.5"/>
				</g>
				<g id="XMLID_1091_">
					<path id="XMLID_1092_" class="st8" d="M1020.9,863.3l-2.3-18l18,2.3L1020.9,863.3z M1019.8,846.5l1.9,14.7l12.8-12.8
						L1019.8,846.5z"/>
				</g>
			</g>
			<g id="XMLID_1083_">
				<g id="XMLID_1088_">
					
						<rect id="XMLID_1089_" x="908.7" y="801.9" transform="matrix(0.7071 -0.7071 0.7071 0.7071 -346.1566 896.5198)" class="st8" width="0.8" height="128.5"/>
				</g>
				<g id="XMLID_1084_">
					<path id="XMLID_1085_" class="st8" d="M955.8,928.5l-2.3-18l18,2.3L955.8,928.5z M954.6,911.6l1.9,14.7l12.8-12.8L954.6,911.6z
						"/>
				</g>
			</g>
			<g id="XMLID_1036_">
				<g id="XMLID_1081_">
					
						<rect id="XMLID_1082_" x="843.5" y="867" transform="matrix(0.7071 -0.7071 0.7071 0.7071 -411.3268 869.4693)" class="st8" width="0.8" height="128.5"/>
				</g>
				<g id="XMLID_1037_">
					<path id="XMLID_1038_" class="st8" d="M890.6,993.6l-2.3-18l18,2.3L890.6,993.6z M889.4,976.8l1.9,14.7l12.8-12.8L889.4,976.8z
						"/>
				</g>
			</g>
			<g id="XMLID_1025_">
				<g id="XMLID_1031_">
					
						<rect id="XMLID_1032_" x="778.3" y="932.2" transform="matrix(0.7071 -0.7071 0.7071 0.7071 -476.5262 842.4895)" class="st8" width="0.8" height="128.5"/>
				</g>
				<g id="XMLID_1026_">
					<path id="XMLID_1027_" class="st8" d="M825.4,1058.8l-2.3-18l18,2.3L825.4,1058.8z M824.3,1042l1.9,14.7l12.8-12.8L824.3,1042z
						"/>
				</g>
			</g>
			<g id="XMLID_1023_">
				<rect id="XMLID_1024_" x="201.4" y="689.6" class="st8" width="127.9" height="0.8"/>
			</g>
			<g id="XMLID_978_">
				<path id="XMLID_979_" class="st8" d="M187.9,701.1v-22.2l14.4,11.1L187.9,701.1z M188.9,680.9V699l11.7-9L188.9,680.9z"/>
			</g>
			<g id="XMLID_971_">
				<g id="XMLID_976_">
					
						<rect id="XMLID_977_" x="349.2" y="514.2" transform="matrix(0.7071 -0.7071 0.7071 0.7071 -306.6375 416.6331)" class="st8" width="0.8" height="128.5"/>
				</g>
				<g id="XMLID_972_">
					<path id="XMLID_973_" class="st8" d="M305.2,534.1l-18-2.3l15.7-15.7L305.2,534.1z M289.4,531l14.7,1.9l-1.9-14.7L289.4,531z"
						/>
				</g>
			</g>
			<g id="XMLID_955_">
				<g id="XMLID_969_">
					
						<rect id="XMLID_970_" x="414.4" y="449.1" transform="matrix(0.7071 -0.7071 0.7071 0.7071 -241.4674 443.6835)" class="st8" width="0.8" height="128.5"/>
				</g>
				<g id="XMLID_956_">
					<path id="XMLID_957_" class="st8" d="M370.4,468.9l-18-2.3l15.7-15.7L370.4,468.9z M354.5,465.8l14.7,1.9l-1.9-14.7
						L354.5,465.8z"/>
				</g>
			</g>
			<g id="XMLID_215_">
				<g id="XMLID_391_">
					
						<rect id="XMLID_954_" x="479.6" y="383.9" transform="matrix(0.7071 -0.7071 0.7071 0.7071 -176.2681 470.6631)" class="st8" width="0.8" height="128.5"/>
				</g>
				<g id="XMLID_216_">
					<path id="XMLID_217_" class="st8" d="M435.6,403.7l-18-2.3l15.7-15.7L435.6,403.7z M419.7,400.7l14.7,1.9l-1.9-14.7
						L419.7,400.7z"/>
				</g>
			</g>
			<g id="XMLID_207_">
				<g id="XMLID_212_">
					
						<rect id="XMLID_214_" x="544.7" y="318.7" transform="matrix(0.7071 -0.7071 0.7071 0.7071 -111.1381 497.6127)" class="st8" width="0.8" height="128.5"/>
				</g>
				<g id="XMLID_208_">
					<path id="XMLID_209_" class="st8" d="M500.7,338.6l-18-2.3l15.7-15.7L500.7,338.6z M484.9,335.5l14.7,1.9l-1.9-14.7
						L484.9,335.5z"/>
				</g>
			</g>
		</g>
		<g id="XMLID_183_">
			<g id="XMLID_202_">
				<path id="XMLID_203_" class="st9" d="M661.6,885.1L465.8,689.3l195.8-195.8l195.8,195.8L661.6,885.1z M467.2,689.3l194.4,194.4
					L856,689.3L661.6,494.9L467.2,689.3z"/>
			</g>
			<g id="XMLID_200_">
				<rect id="XMLID_201_" x="661.5" y="431.7" class="st9" width="0.2" height="31.9"/>
			</g>
			<g id="XMLID_198_">
				<rect id="XMLID_199_" x="661.5" y="914.9" class="st9" width="0.2" height="31.9"/>
			</g>
			<g id="XMLID_196_">
				<rect id="XMLID_197_" x="404.3" y="689.4" class="st9" width="31.9" height="0.2"/>
			</g>
			<g id="XMLID_194_">
				<rect id="XMLID_195_" x="887.4" y="689.4" class="st9" width="31.9" height="0.2"/>
			</g>
			<g id="XMLID_192_">
				<polygon id="XMLID_193_" class="st9" points="861.4,705.4 877.6,689.2 861.4,673 868.5,673 876.2,673 892.6,689.5 876.2,705.4 
									"/>
			</g>
			<g id="XMLID_190_">
				<polygon id="XMLID_191_" class="st9" points="463.3,673 447.1,689.2 463.3,705.4 456.2,705.4 448.5,705.4 432.1,689 448.5,673 
									"/>
			</g>
			<g id="XMLID_188_">
				<polygon id="XMLID_189_" class="st9" points="645.4,888.2 661.6,904.4 677.8,888.2 677.8,895.3 677.8,903 661.4,919.4 
					645.4,903 				"/>
			</g>
			<g id="XMLID_184_">
				<path id="XMLID_185_" class="st9" d="M678.1,495.5l-16.7-16.7l-16.7,16.7v-16.2l17-16.9l16.4,16.9V495.5z M661.4,477.4
					l15.7,15.7v-13.4l-15.4-15.9l-16,15.9v13.4L661.4,477.4z"/>
			</g>
		</g>
	</g>
	<rect id="XMLID_3386_" y="0" class="st10" width="1298.3" height="1401"/>
	<polygon id="XMLID_944_" class="st11" points="1143.5,717.6 1108.4,689.4 1143.5,661.3 	"/>
	<rect id="XMLID_948_" x="709.3" y="456.7" class="st11" width="12.4" height="12.4"/>
	<polygon id="XMLID_996_" class="st12" points="677.8,904.3 661.2,920.9 644.6,904.3 644.6,886.3 661.4,904.3 677.8,888.2 	"/>
	<path id="XMLID_3_" class="st13" d="M582.5,586.2c0.2,1.1,0.3,2.2,0.3,3.4c0,11.2-9.1,20.2-20.2,20.2c-2.8,0-5.4-0.6-7.8-1.6
		c2.2,8.3,9.7,14.4,18.7,14.4c10.7,0,19.3-8.7,19.3-19.3C592.8,595.9,588.6,589.4,582.5,586.2z"/>
	<circle id="XMLID_1_" class="st13" cx="675.1" cy="592.3" r="6.6"/>
	<text id="XMLID_18_" transform="matrix(1 0 0 1 773.4772 1366.7251)" class="st14 st15">20.maijs.2018</text>
	<text id="XMLID_17_" transform="matrix(1 0 0 1 776.6215 1336.8757)" class="st14 st15">30 diena . 5 mnesis. 3 gads. 4 etrgade . 5periods</text>
</g>
</svg>
