<?xml version="1.0" encoding="utf-8"?>
<!-- Generator: Adobe Illustrator 22.1.0, SVG Export Plug-In . SVG Version: 6.00 Build 0)  -->
<svg version="1.1" xmlns="http://www.w3.org/2000/svg" xmlns:xlink="http://www.w3.org/1999/xlink" x="0px" y="0px"
	 viewBox="0 0 1298.3 1401" style="enable-background:new 0 0 1298.3 1401;" xml:space="preserve">
<style type="text/css">
	.st0{fill:#18194A;stroke:#9B2020;stroke-width:2;stroke-miterlimit:10;}
	.st1{fill:#223065;stroke:#263675;stroke-width:3;stroke-miterlimit:10;}
	.st2{opacity:0.59;fill:#3E9AB2;stroke:#279FC9;stroke-width:2;stroke-miterlimit:10;}
	.st3{fill:#E2C938;stroke:#E28239;stroke-width:3;stroke-miterlimit:10;}
	.st4{fill:none;stroke:#000000;stroke-miterlimit:10;}
	.st5{fill:none;stroke:#000000;stroke-width:2;stroke-miterlimit:10;}
	.st6{fill:none;stroke:#000000;stroke-width:4;stroke-miterlimit:10;}
	.st7{fill:none;stroke:#000000;stroke-width:3;stroke-miterlimit:10;}
	.st8{fill:none;stroke:#000000;stroke-width:0.25;stroke-miterlimit:10;}
	.st9{fill:none;stroke:#000000;stroke-width:0.75;stroke-miterlimit:10;}
	.st10{fill:#C6422F;}
	.st11{fill:none;stroke:#E9AE21;stroke-width:2;stroke-miterlimit:10;}
	.st12{fill:none;stroke:#5DA0D7;stroke-miterlimit:10;}
	.st13{fill:none;stroke:#5DA0D7;stroke-width:2;stroke-miterlimit:10;}
	.st14{fill:#9E8F4D;}
	.st15{fill:#FFFFFF;stroke:#000000;stroke-miterlimit:10;}
	.st16{fill:#FFFFFF;stroke:#000000;stroke-width:2;stroke-miterlimit:10;}
	.st17{font-family:'MyriadPro-Regular';}
	.st18{font-size:12px;}
	.st19{fill:#CD632E;stroke:#CD632E;stroke-miterlimit:10;}
	.st20{fill:#279FC9;stroke:#279FC9;stroke-width:2;stroke-miterlimit:10;}
	.st21{fill:#E0A037;stroke:#E0A037;stroke-miterlimit:10;}
	.st22{fill:#25336D;stroke:#263675;stroke-width:6;stroke-miterlimit:10;}
	.st23{fill:#25336D;stroke:#263675;stroke-width:3;stroke-miterlimit:10;}
	.st24{fill:#DEE33A;stroke:#DEE33A;stroke-miterlimit:10;}
	.st25{fill:#D8D8D8;stroke:#9B2020;stroke-width:2;stroke-miterlimit:10;}
	.st26{fill:#01588C;}
	.st27{fill:#3E9AB2;stroke:#279FC9;stroke-width:2;stroke-miterlimit:10;}
	.st28{fill:#E2C938;stroke:#DEE33A;stroke-miterlimit:10;}
	.st29{fill:none;stroke:#65C191;stroke-width:2;stroke-miterlimit:10;}
	.st30{opacity:0.58;stroke:#9B2020;stroke-width:2;stroke-miterlimit:10;}
	.st31{opacity:0.85;fill:#FFFFFF;}
	.st32{opacity:0.85;fill:#FFFFFF;stroke:#FFFFFF;stroke-width:9;stroke-miterlimit:10;}
	.st33{opacity:0.85;fill:#FFFFFF;stroke:#FFFFFF;stroke-miterlimit:10;}
</style>
<g id="Layer_5">
</g>
<g id="Layer_2">
</g>
<g id="Layer_1">
	
		<rect id="XMLID_3657_" x="523.7" y="551.4" transform="matrix(0.7071 0.7071 -0.7071 0.7071 681.2007 -265.944)" class="st6" width="275.9" height="275.9"/>
	
		<rect id="XMLID_3656_" x="479" y="506.7" transform="matrix(0.7071 0.7071 -0.7071 0.7071 681.2007 -265.944)" class="st4" width="365.2" height="365.2"/>
	
		<rect id="XMLID_3655_" x="570.2" y="597.9" transform="matrix(0.7071 0.7071 -0.7071 0.7071 681.2007 -265.944)" class="st4" width="182.8" height="182.8"/>
	
		<rect id="XMLID_3654_" x="389.7" y="417.3" transform="matrix(0.7071 0.7071 -0.7071 0.7071 681.2007 -265.944)" class="st4" width="543.9" height="543.9"/>
</g>
<g id="Layer_3">
	<line id="XMLID_3532_" class="st8" x1="661.6" y1="446.9" x2="661.6" y2="431.7"/>
	<line id="XMLID_3531_" class="st8" x1="661.6" y1="946.8" x2="661.6" y2="934.9"/>
	<line id="XMLID_3530_" class="st8" x1="404.3" y1="689.5" x2="414.2" y2="689.5"/>
	<line id="XMLID_3529_" class="st8" x1="904.4" y1="689.5" x2="919.3" y2="689.5"/>
	<line id="XMLID_3528_" class="st8" x1="577.6" y1="777.6" x2="567.1" y2="788.1"/>
	<line id="XMLID_3527_" class="st9" x1="661.6" y1="277.2" x2="661.6" y2="304.7"/>
	<g id="XMLID_3525_">
		<line id="XMLID_3526_" class="st9" x1="772.3" y1="378.2" x2="754.4" y2="396.1"/>
	</g>
	<g id="XMLID_3523_">
		<line id="XMLID_3524_" class="st9" x1="837.5" y1="443.4" x2="819.6" y2="461.3"/>
	</g>
	<g id="XMLID_3521_">
		<line id="XMLID_3522_" class="st9" x1="902.7" y1="508.5" x2="884.7" y2="526.4"/>
	</g>
	<g id="XMLID_3518_">
		<line id="XMLID_3520_" class="st9" x1="967.8" y1="573.7" x2="949.9" y2="591.6"/>
	</g>
	<g id="XMLID_3487_">
		<line id="XMLID_3489_" class="st9" x1="553.3" y1="999.4" x2="569" y2="983.6"/>
	</g>
	<g id="XMLID_3485_">
		<line id="XMLID_3486_" class="st9" x1="488.1" y1="934.2" x2="503.9" y2="918.5"/>
	</g>
	<g id="XMLID_3483_">
		<line id="XMLID_3484_" class="st9" x1="422.9" y1="869.1" x2="438.7" y2="853.3"/>
	</g>
	<g id="XMLID_3481_">
		<line id="XMLID_3482_" class="st9" x1="357.8" y1="803.9" x2="373.5" y2="788.1"/>
	</g>
	<g id="XMLID_3478_">
		<line id="XMLID_3479_" class="st9" x1="974.3" y1="801" x2="953.9" y2="780.6"/>
	</g>
	<g id="XMLID_3476_">
		<line id="XMLID_3477_" class="st9" x1="909.2" y1="866.2" x2="888.7" y2="845.7"/>
	</g>
	<g id="XMLID_3474_">
		<line id="XMLID_3475_" class="st9" x1="844" y1="931.4" x2="823.5" y2="910.9"/>
	</g>
	<g id="XMLID_3472_">
		<line id="XMLID_3473_" class="st9" x1="778.8" y1="996.5" x2="758.4" y2="976.1"/>
	</g>
	<g id="XMLID_3470_">
		<line id="XMLID_3471_" class="st9" x1="346.4" y1="575.2" x2="368.6" y2="597.4"/>
	</g>
	<g id="XMLID_3468_">
		<line id="XMLID_3469_" class="st9" x1="411.5" y1="510" x2="433.8" y2="532.3"/>
	</g>
	<g id="XMLID_3466_">
		<line id="XMLID_3467_" class="st9" x1="476.7" y1="444.9" x2="499" y2="467.1"/>
	</g>
	<g id="XMLID_3464_">
		<line id="XMLID_3465_" class="st9" x1="541.9" y1="379.7" x2="564.1" y2="401.9"/>
	</g>
	<text id="XMLID_3463_" transform="matrix(1 0 0 1 1075.9546 690.7487)" class="st17 st18">2000</text>
	<text id="XMLID_3462_" transform="matrix(1 0 0 1 654.4302 478.1755)" class="st17 st18">+0</text>
	<text id="XMLID_3461_" transform="matrix(1 0 0 1 872.1998 693.3336)" class="st17 st18">+1</text>
	<text id="XMLID_3460_" transform="matrix(1 0 0 1 654.8069 910.7256)" class="st17 st18">+2</text>
	<text id="XMLID_3459_" transform="matrix(1 0 0 1 436.6016 692.5201)" class="st17 st18">+3</text>
	<text id="XMLID_3458_" transform="matrix(0.7071 -0.7071 0.7071 0.7071 531.8062 654.9536)" class="st17 st18">Apr.</text>
	<text id="XMLID_3457_" transform="matrix(0.7071 -0.7071 0.7071 0.7071 547.7488 664.8964)" class="st17 st18">30</text>
	<text id="XMLID_3456_" transform="matrix(1 0 0 1 1056.9902 1158.2274)" class="st17 st18">20.maijs.2018</text>
	<text id="XMLID_732_" transform="matrix(1 0 0 1 784.2325 368.2261)" class="st17 st18">400</text>
	<text id="XMLID_3752_" transform="matrix(1 0 0 1 657.4302 252.9105)" class="st17 st18">+</text>
	<text id="XMLID_731_" transform="matrix(1 0 0 1 855.8619 434.7393)" class="st17 st18">800</text>
	<text id="XMLID_729_" transform="matrix(1 0 0 1 917.2589 503.8111)" class="st17 st18">1200</text>
	<text id="XMLID_728_" transform="matrix(1 0 0 1 988.8882 563.9288)" class="st17 st18">1600</text>
	<text id="XMLID_727_" transform="matrix(1 0 0 1 1013.9085 826.8759)" class="st17 st18">2400</text>
	<text id="XMLID_726_" transform="matrix(1 0 0 1 956.3489 899.7845)" class="st17 st18">2800</text>
	<text id="XMLID_725_" transform="matrix(1 0 0 1 880.8821 958.6229)" class="st17 st18">3200</text>
	<text id="XMLID_724_" transform="matrix(1 0 0 1 816.9271 1028.9735)" class="st17 st18">3600</text>
	<text id="XMLID_722_" transform="matrix(1 0 0 1 647.9659 1110.7566)" class="st17 st18">4000</text>
	<text id="XMLID_721_" transform="matrix(1 0 0 1 504.762 1036.5432)" class="st17 st18">4400</text>
	<text id="XMLID_720_" transform="matrix(1 0 0 1 430.574 968.7507)" class="st17 st18">4800</text>
	<text id="XMLID_719_" transform="matrix(1 0 0 1 374.2938 900.9587)" class="st17 st18">5200</text>
	<text id="XMLID_717_" transform="matrix(1 0 0 1 307.7806 829.3289)" class="st17 st18">5600</text>
	<text id="XMLID_716_" transform="matrix(1 0 0 1 228.763 694.729)" class="st17 st18">6000</text>
	<text id="XMLID_715_" transform="matrix(1 0 0 1 300.9852 565.4743)" class="st17 st18">6400</text>
	<text id="XMLID_714_" transform="matrix(1 0 0 1 371.3358 490.0075)" class="st17 st18">6800</text>
	<text id="XMLID_713_" transform="matrix(1 0 0 1 440.3607 436.006)" class="st17 st18">7200</text>
	<text id="XMLID_712_" transform="matrix(1 0 0 1 509.8738 364.0974)" class="st17 st18">7600</text>
	<text id="XMLID_711_" transform="matrix(1 0 0 1 971.3882 693.3334)" class="st17 st18">100</text>
	<text id="XMLID_710_" transform="matrix(1 0 0 1 652.1202 1006.4597)" class="st17 st18">200</text>
	<text id="XMLID_709_" transform="matrix(1 0 0 1 335.6539 694.6876)" class="st17 st18">300</text>
	<text id="XMLID_708_" transform="matrix(1 0 0 1 657.5831 399.1493)" class="st17 st18">0</text>
	<text id="XMLID_707_" transform="matrix(0.7071 -0.7071 0.7071 0.7071 701.1938 419.2048)"><tspan x="0" y="0" class="st17 st18">4</tspan><tspan x="0" y="14" class="st17 st18">8</tspan><tspan x="0" y="28" class="st17 st18">12</tspan><tspan x="0" y="42" class="st17 st18">16</tspan><tspan x="0" y="56" class="st17 st18">20</tspan><tspan x="0" y="70" class="st17 st18">24</tspan><tspan x="0" y="84" class="st17 st18">28</tspan><tspan x="0" y="98" class="st17 st18">32</tspan><tspan x="0" y="112" class="st17 st18">36</tspan><tspan x="0" y="126" class="st17 st18">40</tspan><tspan x="0" y="140" class="st17 st18">44</tspan><tspan x="0" y="154" class="st17 st18">48</tspan><tspan x="0" y="168" class="st17 st18">52</tspan><tspan x="0" y="182" class="st17 st18">56</tspan><tspan x="0" y="196" class="st17 st18">60</tspan><tspan x="0" y="210" class="st17 st18">64</tspan><tspan x="0" y="224" class="st17 st18">68</tspan><tspan x="0" y="238" class="st17 st18">72</tspan><tspan x="0" y="252" class="st17 st18">76</tspan><tspan x="0" y="266" class="st17 st18">80</tspan><tspan x="0" y="280" class="st17 st18">84</tspan><tspan x="0" y="294" class="st17 st18">88</tspan><tspan x="0" y="308" class="st17 st18">92</tspan><tspan x="0" y="322" class="st17 st18">96</tspan></text>
	<text id="XMLID_706_" transform="matrix(0.7071 0.7071 -0.7071 0.7071 926.9827 731.722)"><tspan x="0" y="0" class="st17 st18">104</tspan><tspan x="0" y="14" class="st17 st18">108</tspan><tspan x="0" y="28" class="st17 st18">112</tspan><tspan x="0" y="42" class="st17 st18">116</tspan><tspan x="0" y="56" class="st17 st18">120</tspan><tspan x="0" y="70" class="st17 st18">124</tspan><tspan x="0" y="84" class="st17 st18">128</tspan><tspan x="0" y="98" class="st17 st18">132</tspan><tspan x="0" y="112" class="st17 st18">136</tspan><tspan x="0" y="126" class="st17 st18">140</tspan><tspan x="0" y="140" class="st17 st18">144</tspan><tspan x="0" y="154" class="st17 st18">148</tspan><tspan x="0" y="168" class="st17 st18">152</tspan><tspan x="0" y="182" class="st17 st18">156</tspan><tspan x="0" y="196" class="st17 st18">160</tspan><tspan x="0" y="210" class="st17 st18">164</tspan><tspan x="0" y="224" class="st17 st18">168</tspan><tspan x="0" y="238" class="st17 st18">172</tspan><tspan x="0" y="252" class="st17 st18">176</tspan><tspan x="0" y="266" class="st17 st18">180</tspan><tspan x="0" y="280" class="st17 st18">184</tspan><tspan x="0" y="294" class="st17 st18">188</tspan><tspan x="0" y="308" class="st17 st18">192</tspan><tspan x="0" y="322" class="st17 st18">196</tspan></text>
	<text id="XMLID_705_" transform="matrix(0.7071 -0.7071 0.7071 0.7071 380.4719 744.7278)"><tspan x="0" y="0" class="st17 st18">296</tspan><tspan x="0" y="14" class="st17 st18">292</tspan><tspan x="0" y="28" class="st17 st18">288</tspan><tspan x="0" y="42" class="st17 st18">284</tspan><tspan x="0" y="56" class="st17 st18">280</tspan><tspan x="0" y="70" class="st17 st18">276</tspan><tspan x="0" y="84" class="st17 st18">272</tspan><tspan x="0" y="98" class="st17 st18">268</tspan><tspan x="0" y="112" class="st17 st18">264</tspan><tspan x="0" y="126" class="st17 st18">256</tspan><tspan x="0" y="140" class="st17 st18">252</tspan><tspan x="0" y="154" class="st17 st18">248</tspan><tspan x="0" y="168" class="st17 st18">244</tspan><tspan x="0" y="182" class="st17 st18">240</tspan><tspan x="0" y="196" class="st17 st18">236</tspan><tspan x="0" y="210" class="st17 st18">232</tspan><tspan x="0" y="224" class="st17 st18">228</tspan><tspan x="0" y="238" class="st17 st18">224</tspan><tspan x="0" y="252" class="st17 st18">220</tspan><tspan x="0" y="266" class="st17 st18">216</tspan><tspan x="0" y="280" class="st17 st18">212</tspan><tspan x="0" y="294" class="st17 st18">208</tspan><tspan x="0" y="308" class="st17 st18">204</tspan></text>
	<text id="XMLID_2_" transform="matrix(0.7071 0.7071 -0.7071 0.7071 598.2376 419.2049)"><tspan x="0" y="0" class="st17 st18">396</tspan><tspan x="0" y="14" class="st17 st18">392</tspan><tspan x="0" y="28" class="st17 st18">388</tspan><tspan x="0" y="42" class="st17 st18">384</tspan><tspan x="0" y="56" class="st17 st18">380</tspan><tspan x="0" y="70" class="st17 st18">376</tspan><tspan x="0" y="84" class="st17 st18">372</tspan><tspan x="0" y="98" class="st17 st18">368</tspan><tspan x="0" y="112" class="st17 st18">364</tspan><tspan x="0" y="126" class="st17 st18">356</tspan><tspan x="0" y="140" class="st17 st18">352</tspan><tspan x="0" y="154" class="st17 st18">348</tspan><tspan x="0" y="168" class="st17 st18">344</tspan><tspan x="0" y="182" class="st17 st18">340</tspan><tspan x="0" y="196" class="st17 st18">336</tspan><tspan x="0" y="210" class="st17 st18">332</tspan><tspan x="0" y="224" class="st17 st18">328</tspan><tspan x="0" y="238" class="st17 st18">324</tspan><tspan x="0" y="252" class="st17 st18">320</tspan><tspan x="0" y="266" class="st17 st18">316</tspan><tspan x="0" y="280" class="st17 st18">312</tspan><tspan x="0" y="294" class="st17 st18">308</tspan><tspan x="0" y="308" class="st17 st18">304</tspan></text>
	<polygon id="XMLID_703_" points="1124.9,665 1130.1,675.6 1141.7,677.2 1133.3,685.4 1135.2,697 1124.9,691.5 1114.5,697 
		1116.5,685.4 1108.1,677.2 1119.7,675.6 	"/>
	<polygon id="XMLID_702_" points="681.7,885.6 685.5,893.4 694.2,894.7 687.9,900.8 689.4,909.5 681.7,905.4 673.9,909.5 
		675.4,900.8 669.1,894.7 677.8,893.4 	"/>
	<polygon id="XMLID_701_" points="598.2,590.9 600.7,595.9 606.2,596.7 602.2,600.6 603.2,606.1 598.2,603.5 593.3,606.1 
		594.2,600.6 590.2,596.7 595.8,595.9 	"/>
	<polygon id="XMLID_700_" points="711.7,715.8 713.6,719.7 718,720.3 714.8,723.4 715.6,727.7 711.7,725.7 707.8,727.7 708.5,723.4 
		705.4,720.3 709.7,719.7 	"/>
	<polygon id="XMLID_699_" points="605.9,633.3 607.1,635.7 609.7,636 607.8,637.9 608.2,640.5 605.9,639.2 603.6,640.5 604,637.9 
		602.1,636 604.7,635.7 	"/>
	<polygon id="XMLID_698_" points="750.3,422 752.8,427 758.2,427.8 754.3,431.6 755.2,437 750.3,434.5 745.4,437 746.4,431.6 
		742.4,427.8 747.9,427 	"/>
	<line id="XMLID_697_" class="st4" x1="535.8" y1="658.1" x2="549.2" y2="644.6"/>
	<text id="XMLID_696_" transform="matrix(0.7071 -0.7071 0.7071 0.7071 574.3447 612.415)" class="st17 st18">May</text>
	<text id="XMLID_695_" transform="matrix(0.7071 -0.7071 0.7071 0.7071 590.2874 622.3578)" class="st17 st18">31</text>
	<line id="XMLID_694_" class="st4" x1="578.3" y1="615.5" x2="591.7" y2="602.1"/>
	<text id="XMLID_693_" transform="matrix(0.7071 -0.7071 0.7071 0.7071 612.8862 573.8735)" class="st17 st18">Jun.</text>
	<text id="XMLID_692_" transform="matrix(0.7071 -0.7071 0.7071 0.7071 628.8289 583.8163)" class="st17 st18">30</text>
	<line id="XMLID_691_" class="st4" x1="616.8" y1="577" x2="630.3" y2="563.5"/>
	<text id="XMLID_690_" transform="matrix(0.7071 -0.7071 0.7071 0.7071 689.47 812.6171)" class="st17 st18">Dec.</text>
	<text id="XMLID_689_" transform="matrix(0.7071 -0.7071 0.7071 0.7071 705.4127 822.56)" class="st17 st18">31</text>
	<line id="XMLID_688_" class="st4" x1="693.4" y1="815.7" x2="706.9" y2="802.3"/>
	<text id="XMLID_687_" transform="matrix(0.7071 -0.7071 0.7071 0.7071 724.9505 777.1367)" class="st17 st18">Nov.</text>
	<text id="XMLID_685_" transform="matrix(0.7071 -0.7071 0.7071 0.7071 740.8931 787.0795)" class="st17 st18">30</text>
	<line id="XMLID_684_" class="st4" x1="728.9" y1="780.2" x2="742.3" y2="766.8"/>
	<text id="XMLID_682_" transform="matrix(0.7071 -0.7071 0.7071 0.7071 757.9141 744.1733)" class="st17 st18">Okt.</text>
	<text id="XMLID_679_" transform="matrix(0.7071 -0.7071 0.7071 0.7071 773.8568 754.1161)" class="st17 st18">31</text>
	<line id="XMLID_678_" class="st4" x1="761.9" y1="747.3" x2="775.3" y2="733.8"/>
	<text id="XMLID_677_" transform="matrix(0.7071 0.7071 -0.7071 0.7071 711.6808 572.0621)" class="st17 st18">Jul.</text>
	<text id="XMLID_676_" transform="matrix(0.7071 0.7071 -0.7071 0.7071 701.7374 588.0047)" class="st17 st18">31</text>
	<line id="XMLID_675_" class="st4" x1="708.6" y1="576" x2="722" y2="589.4"/>
	<text id="XMLID_674_" transform="matrix(0.7071 0.7071 -0.7071 0.7071 747.1613 607.5425)" class="st17 st18">Aug.</text>
	<text id="XMLID_673_" transform="matrix(0.7071 0.7071 -0.7071 0.7071 737.2179 623.4852)" class="st17 st18">31</text>
	<line id="XMLID_672_" class="st4" x1="744.1" y1="611.5" x2="757.5" y2="624.9"/>
	<text id="XMLID_671_" transform="matrix(0.7071 0.7071 -0.7071 0.7071 780.1241 640.5062)" class="st17 st18">Sep.</text>
	<text id="XMLID_670_" transform="matrix(0.7071 0.7071 -0.7071 0.7071 770.1808 656.4488)" class="st17 st18">30</text>
	<line id="XMLID_669_" class="st4" x1="777" y1="644.5" x2="790.5" y2="657.9"/>
	<text id="XMLID_668_" transform="matrix(0.7071 0.7071 -0.7071 0.7071 538.1632 717.7979)" class="st17 st18">Mar</text>
	<text id="XMLID_667_" transform="matrix(0.7071 0.7071 -0.7071 0.7071 528.2198 733.7405)" class="st17 st18">31</text>
	<line id="XMLID_666_" class="st4" x1="535.1" y1="721.8" x2="548.5" y2="735.2"/>
	<text id="XMLID_665_" transform="matrix(0.7071 0.7071 -0.7071 0.7071 581.8185 761.4534)" class="st17 st18">Feb.</text>
	<text id="XMLID_664_" transform="matrix(0.7071 0.7071 -0.7071 0.7071 560.9054 766.4261)" class="st17 st18">28      +1</text>
	<line id="XMLID_663_" class="st4" x1="571.2" y1="757.9" x2="599.7" y2="786.3"/>
	<text id="XMLID_662_" transform="matrix(0.7071 0.7071 -0.7071 0.7071 620.4972 800.1329)" class="st17 st18">Jan.</text>
	<text id="XMLID_661_" transform="matrix(0.7071 0.7071 -0.7071 0.7071 610.5548 816.0755)" class="st17 st18">31</text>
	<line id="XMLID_660_" class="st4" x1="617.4" y1="804.1" x2="630.8" y2="817.5"/>
	<text id="XMLID_657_" transform="matrix(1 0 0 1 593.0152 684.379)"><tspan x="0" y="0" class="st17 st18">1     2      3      4      5       6       7</tspan><tspan x="-1.4" y="18" class="st17 st18">8      9     10     11    12   13   14</tspan><tspan x="-2.5" y="36" class="st17 st18">15    16    17   18   19    20    21</tspan><tspan x="-3.7" y="54" class="st17 st18">22     23    24    25    26   27   28</tspan><tspan x="41.2" y="72" class="st17 st18">29    30   31</tspan></text>
	<text id="XMLID_655_" transform="matrix(1 0 0 1 595.065 651.3371)" class="st17 st18">Sun   Mo Tu  We  Th  Fr  Sat</text>
</g>
<g id="Layer_4">
	<line id="XMLID_654_" class="st8" x1="661.3" y1="304.7" x2="661.3" y2="379.1"/>
	<line id="XMLID_653_" class="st8" x1="404.3" y1="689.5" x2="380.4" y2="689.5"/>
	
		<rect id="XMLID_652_" x="371.6" y="685.9" transform="matrix(-0.7071 -0.7071 0.7071 -0.7071 153.0467 1442.4602)" width="7.3" height="7.3"/>
	<line id="XMLID_651_" class="st8" x1="919.8" y1="689.5" x2="943.7" y2="689.5"/>
	
		<rect id="XMLID_423_" x="945.2" y="685.9" transform="matrix(0.7071 0.7071 -0.7071 0.7071 765.4847 -468.9775)" width="7.3" height="7.3"/>
	
		<rect id="XMLID_422_" x="900.7" y="685.9" transform="matrix(0.7071 0.7071 -0.7071 0.7071 752.4621 -437.5381)" width="7.3" height="7.3"/>
	
		<rect id="XMLID_421_" x="658" y="270.4" transform="matrix(0.7071 0.7071 -0.7071 0.7071 387.5945 -387.5608)" width="7.3" height="7.3"/>
	
		<rect id="XMLID_420_" x="573.9" y="774" transform="matrix(-1 8.933597e-11 -8.933597e-11 -1 1155.1678 1555.1918)" class="st4" width="7.3" height="7.3"/>
	<polygon id="XMLID_419_" points="573.9,774 581.2,774 573.9,781.2 	"/>
	
		<rect id="XMLID_418_" x="657.4" y="928.2" transform="matrix(0.7071 0.7071 -0.7071 0.7071 852.5559 -194.476)" width="7.3" height="7.3"/>
	
		<rect id="XMLID_417_" x="415" y="685.9" transform="matrix(0.7071 0.7071 -0.7071 0.7071 610.2062 -94.0915)" width="7.3" height="7.3"/>
	
		<rect id="XMLID_416_" x="658" y="448.4" transform="matrix(0.7071 0.7071 -0.7071 0.7071 513.4561 -335.4261)" class="st4" width="7.3" height="7.3"/>
	<line id="XMLID_415_" class="st8" x1="661.6" y1="947.1" x2="661.6" y2="970.9"/>
	
		<rect id="XMLID_414_" x="658" y="972.4" transform="matrix(-0.7071 0.7071 -0.7071 -0.7071 1819.6445 1198.4114)" width="7.3" height="7.3"/>
</g>
</svg>
