<?xml version="1.0" encoding="utf-8"?>
<!-- Generator: Adobe Illustrator 22.1.0, SVG Export Plug-In . SVG Version: 6.00 Build 0)  -->
<svg version="1.1" xmlns="http://www.w3.org/2000/svg" xmlns:xlink="http://www.w3.org/1999/xlink" x="0px" y="0px"
	 viewBox="0 0 1298.3 1401" style="enable-background:new 0 0 1298.3 1401;" xml:space="preserve">
<style type="text/css">
	.st0{fill:#18194A;stroke:#9B2020;stroke-width:2;stroke-miterlimit:10;}
	.st1{fill:#223065;stroke:#263675;stroke-width:3;stroke-miterlimit:10;}
	.st2{opacity:0.59;fill:#3E9AB2;stroke:#279FC9;stroke-width:2;stroke-miterlimit:10;}
	.st3{fill:#E2C938;stroke:#E28239;stroke-width:3;stroke-miterlimit:10;}
	.st4{fill:none;stroke:#000000;stroke-miterlimit:10;}
	.st5{fill:none;stroke:#000000;stroke-width:2;stroke-miterlimit:10;}
	.st6{fill:none;stroke:#000000;stroke-width:4;stroke-miterlimit:10;}
	.st7{fill:none;stroke:#000000;stroke-width:3;stroke-miterlimit:10;}
	.st8{fill:none;stroke:#000000;stroke-width:0.25;stroke-miterlimit:10;}
	.st9{fill:none;stroke:#000000;stroke-width:0.75;stroke-miterlimit:10;}
	.st10{fill:#C6422F;}
	.st11{fill:none;stroke:#E9AE21;stroke-width:2;stroke-miterlimit:10;}
	.st12{fill:none;stroke:#5DA0D7;stroke-miterlimit:10;}
	.st13{fill:none;stroke:#5DA0D7;stroke-width:2;stroke-miterlimit:10;}
	.st14{fill:#9E8F4D;}
	.st15{fill:#FFFFFF;stroke:#000000;stroke-miterlimit:10;}
	.st16{fill:#FFFFFF;stroke:#000000;stroke-width:2;stroke-miterlimit:10;}
	.st17{font-family:'MyriadPro-Regular';}
	.st18{font-size:12px;}
	.st19{fill:#CD632E;stroke:#CD632E;stroke-miterlimit:10;}
	.st20{fill:#279FC9;stroke:#279FC9;stroke-width:2;stroke-miterlimit:10;}
	.st21{fill:#E0A037;stroke:#E0A037;stroke-miterlimit:10;}
	.st22{fill:#25336D;stroke:#263675;stroke-width:6;stroke-miterlimit:10;}
	.st23{fill:#25336D;stroke:#263675;stroke-width:3;stroke-miterlimit:10;}
	.st24{fill:#DEE33A;stroke:#DEE33A;stroke-miterlimit:10;}
	.st25{fill:#D8D8D8;stroke:#9B2020;stroke-width:2;stroke-miterlimit:10;}
	.st26{fill:#01588C;}
	.st27{fill:#3E9AB2;stroke:#279FC9;stroke-width:2;stroke-miterlimit:10;}
	.st28{fill:#E2C938;stroke:#DEE33A;stroke-miterlimit:10;}
	.st29{fill:none;stroke:#65C191;stroke-width:2;stroke-miterlimit:10;}
	.st30{opacity:0.58;stroke:#9B2020;stroke-width:2;stroke-miterlimit:10;}
	.st31{opacity:0.85;fill:#FFFFFF;}
	.st32{opacity:0.85;fill:#FFFFFF;stroke:#FFFFFF;stroke-width:9;stroke-miterlimit:10;}
	.st33{opacity:0.85;fill:#FFFFFF;stroke:#FFFFFF;stroke-miterlimit:10;}
</style>
<g id="Layer_5">
</g>
<g id="Layer_2">
</g>
<g id="Layer_1">
	
		<rect id="XMLID_3751_" x="493.5" y="502" transform="matrix(0.7071 0.7071 -0.7071 0.7071 637.4615 -259.0293)" class="st6" width="275.9" height="275.9"/>
	
		<rect id="XMLID_3750_" x="448.8" y="457.4" transform="matrix(0.7071 0.7071 -0.7071 0.7071 637.4615 -259.0293)" class="st4" width="365.2" height="365.2"/>
	
		<rect id="XMLID_3749_" x="540" y="548.6" transform="matrix(0.7071 0.7071 -0.7071 0.7071 637.4615 -259.0293)" class="st4" width="182.8" height="182.8"/>
	
		<rect id="XMLID_3748_" x="580.6" y="589.1" transform="matrix(0.7071 0.7071 -0.7071 0.7071 637.4615 -259.0293)" class="st7" width="101.7" height="101.7"/>
	
		<rect id="XMLID_3747_" x="359.4" y="368" transform="matrix(0.7071 0.7071 -0.7071 0.7071 637.4615 -259.0293)" class="st4" width="543.9" height="543.9"/>
</g>
<g id="Layer_3">
	<line id="XMLID_3746_" class="st8" x1="631.4" y1="414.3" x2="631.4" y2="382.4"/>
	<line id="XMLID_1047_" class="st8" x1="631.4" y1="462.4" x2="631.4" y2="443.3"/>
	<line id="XMLID_3745_" class="st8" x1="631.4" y1="897.5" x2="631.4" y2="885.6"/>
	<line id="XMLID_3744_" class="st8" x1="374.1" y1="640.2" x2="384" y2="640.2"/>
	<line id="XMLID_3743_" class="st8" x1="874.2" y1="640.2" x2="889" y2="640.2"/>
	<line id="XMLID_3741_" class="st9" x1="631.4" y1="227.8" x2="631.4" y2="255.4"/>
	<g id="XMLID_3739_">
		<line id="XMLID_3740_" class="st9" x1="742.1" y1="328.8" x2="724.2" y2="346.8"/>
	</g>
	<g id="XMLID_3737_">
		<line id="XMLID_3738_" class="st9" x1="807.3" y1="394" x2="789.4" y2="411.9"/>
	</g>
	<g id="XMLID_3735_">
		<line id="XMLID_3736_" class="st9" x1="872.5" y1="459.2" x2="854.5" y2="477.1"/>
	</g>
	<g id="XMLID_3733_">
		<line id="XMLID_3734_" class="st9" x1="937.6" y1="524.4" x2="919.7" y2="542.3"/>
	</g>
	<g id="XMLID_3731_">
		<line id="XMLID_3732_" class="st9" x1="523" y1="950.1" x2="538.8" y2="934.3"/>
	</g>
	<g id="XMLID_3729_">
		<line id="XMLID_3730_" class="st9" x1="457.9" y1="884.9" x2="473.6" y2="869.1"/>
	</g>
	<g id="XMLID_3727_">
		<line id="XMLID_3728_" class="st9" x1="392.7" y1="819.7" x2="408.5" y2="803.9"/>
	</g>
	<g id="XMLID_3725_">
		<line id="XMLID_3726_" class="st9" x1="327.5" y1="754.6" x2="343.3" y2="738.8"/>
	</g>
	<g id="XMLID_3722_">
		<line id="XMLID_3723_" class="st9" x1="944.1" y1="751.7" x2="923.7" y2="731.2"/>
	</g>
	<g id="XMLID_3720_">
		<line id="XMLID_3721_" class="st9" x1="878.9" y1="816.8" x2="858.5" y2="796.4"/>
	</g>
	<g id="XMLID_3718_">
		<line id="XMLID_3719_" class="st9" x1="813.8" y1="882" x2="793.3" y2="861.6"/>
	</g>
	<g id="XMLID_3716_">
		<line id="XMLID_3717_" class="st9" x1="748.6" y1="947.2" x2="728.2" y2="926.7"/>
	</g>
	<g id="XMLID_3714_">
		<line id="XMLID_3715_" class="st9" x1="316.2" y1="525.9" x2="338.4" y2="548.1"/>
	</g>
	<g id="XMLID_3712_">
		<line id="XMLID_3713_" class="st9" x1="381.3" y1="460.7" x2="403.6" y2="482.9"/>
	</g>
	<g id="XMLID_3710_">
		<line id="XMLID_3711_" class="st9" x1="446.5" y1="395.5" x2="468.7" y2="417.8"/>
	</g>
	<g id="XMLID_3708_">
		<line id="XMLID_3709_" class="st9" x1="511.7" y1="330.4" x2="533.9" y2="352.6"/>
	</g>
	<text id="XMLID_3707_" transform="matrix(1 0 0 1 1045.7377 641.4081)" class="st17 st18">2000</text>
	<text id="XMLID_3706_" transform="matrix(1 0 0 1 624.2143 428.8348)" class="st17 st18">+0</text>
	<text id="XMLID_3705_" transform="matrix(1 0 0 1 841.9828 643.993)" class="st17 st18">+1</text>
	<text id="XMLID_3704_" transform="matrix(1 0 0 1 624.591 861.3849)" class="st17 st18">+2</text>
	<text id="XMLID_3703_" transform="matrix(1 0 0 1 406.3857 643.1794)" class="st17 st18">+3</text>
	<text id="XMLID_3702_" transform="matrix(0.7071 -0.7071 0.7071 0.7071 501.5897 605.6132)" class="st17 st18">Apr.</text>
	<text id="XMLID_3700_" transform="matrix(1 0 0 1 1016.0195 1084.1693)" class="st17 st18">20.maijs.2018</text>
	<text id="XMLID_3699_" transform="matrix(1 0 0 1 754.0165 318.8855)" class="st17 st18">400</text>
	<text id="XMLID_3698_" transform="matrix(1 0 0 1 825.6459 385.3987)" class="st17 st18">800</text>
	<text id="XMLID_3697_" transform="matrix(1 0 0 1 887.0428 454.4704)" class="st17 st18">1200</text>
	<text id="XMLID_3696_" transform="matrix(1 0 0 1 958.6722 514.5881)" class="st17 st18">1600</text>
	<text id="XMLID_3695_" transform="matrix(1 0 0 1 983.6926 777.5353)" class="st17 st18">2400</text>
	<text id="XMLID_3694_" transform="matrix(1 0 0 1 926.1331 850.444)" class="st17 st18">2800</text>
	<text id="XMLID_3693_" transform="matrix(1 0 0 1 850.6663 909.2823)" class="st17 st18">3200</text>
	<text id="XMLID_3692_" transform="matrix(1 0 0 1 786.7112 979.6329)" class="st17 st18">3600</text>
	<text id="XMLID_3691_" transform="matrix(1 0 0 1 617.7499 1061.4159)" class="st17 st18">4000</text>
	<text id="XMLID_3690_" transform="matrix(1 0 0 1 474.546 987.2025)" class="st17 st18">4400</text>
	<text id="XMLID_3689_" transform="matrix(1 0 0 1 400.358 919.41)" class="st17 st18">4800</text>
	<text id="XMLID_3688_" transform="matrix(1 0 0 1 344.0777 851.618)" class="st17 st18">5200</text>
	<text id="XMLID_3687_" transform="matrix(1 0 0 1 277.5645 779.9882)" class="st17 st18">5600</text>
	<text id="XMLID_3686_" transform="matrix(1 0 0 1 198.547 645.3884)" class="st17 st18">6000</text>
	<text id="XMLID_3685_" transform="matrix(1 0 0 1 270.7691 516.1337)" class="st17 st18">6400</text>
	<text id="XMLID_3684_" transform="matrix(1 0 0 1 341.1197 440.6668)" class="st17 st18">6800</text>
	<text id="XMLID_3683_" transform="matrix(1 0 0 1 410.1446 386.6654)" class="st17 st18">7200</text>
	<text id="XMLID_3682_" transform="matrix(1 0 0 1 479.6578 314.7567)" class="st17 st18">7600</text>
	<text id="XMLID_3681_" transform="matrix(1 0 0 1 941.1722 643.9928)" class="st17 st18">100</text>
	<text id="XMLID_3680_" transform="matrix(1 0 0 1 621.9042 957.1191)" class="st17 st18">200</text>
	<text id="XMLID_3679_" transform="matrix(1 0 0 1 305.4378 645.347)" class="st17 st18">300</text>
	<text id="XMLID_3678_" transform="matrix(1 0 0 1 627.3671 349.8086)" class="st17 st18">0</text>
	<text id="XMLID_3677_" transform="matrix(0.7071 -0.7071 0.7071 0.7071 670.9774 369.865)"><tspan x="0" y="0" class="st17 st18">4</tspan><tspan x="0" y="14" class="st17 st18">8</tspan><tspan x="0" y="28" class="st17 st18">12</tspan><tspan x="0" y="42" class="st17 st18">16</tspan><tspan x="0" y="56" class="st17 st18">20</tspan><tspan x="0" y="70" class="st17 st18">24</tspan><tspan x="0" y="84" class="st17 st18">28</tspan><tspan x="0" y="98" class="st17 st18">32</tspan><tspan x="0" y="112" class="st17 st18">36</tspan><tspan x="0" y="126" class="st17 st18">40</tspan><tspan x="0" y="140" class="st17 st18">44</tspan><tspan x="0" y="154" class="st17 st18">48</tspan><tspan x="0" y="168" class="st17 st18">52</tspan><tspan x="0" y="182" class="st17 st18">56</tspan><tspan x="0" y="196" class="st17 st18">60</tspan><tspan x="0" y="210" class="st17 st18">64</tspan><tspan x="0" y="224" class="st17 st18">68</tspan><tspan x="0" y="238" class="st17 st18">72</tspan><tspan x="0" y="252" class="st17 st18">76</tspan><tspan x="0" y="266" class="st17 st18">80</tspan><tspan x="0" y="280" class="st17 st18">84</tspan><tspan x="0" y="294" class="st17 st18">88</tspan><tspan x="0" y="308" class="st17 st18">92</tspan><tspan x="0" y="322" class="st17 st18">96</tspan></text>
	<text id="XMLID_3676_" transform="matrix(0.7071 0.7071 -0.7071 0.7071 896.7672 682.3816)"><tspan x="0" y="0" class="st17 st18">104</tspan><tspan x="0" y="14" class="st17 st18">108</tspan><tspan x="0" y="28" class="st17 st18">112</tspan><tspan x="0" y="42" class="st17 st18">116</tspan><tspan x="0" y="56" class="st17 st18">120</tspan><tspan x="0" y="70" class="st17 st18">124</tspan><tspan x="0" y="84" class="st17 st18">128</tspan><tspan x="0" y="98" class="st17 st18">132</tspan><tspan x="0" y="112" class="st17 st18">136</tspan><tspan x="0" y="126" class="st17 st18">140</tspan><tspan x="0" y="140" class="st17 st18">144</tspan><tspan x="0" y="154" class="st17 st18">148</tspan><tspan x="0" y="168" class="st17 st18">152</tspan><tspan x="0" y="182" class="st17 st18">156</tspan><tspan x="0" y="196" class="st17 st18">160</tspan><tspan x="0" y="210" class="st17 st18">164</tspan><tspan x="0" y="224" class="st17 st18">168</tspan><tspan x="0" y="238" class="st17 st18">172</tspan><tspan x="0" y="252" class="st17 st18">176</tspan><tspan x="0" y="266" class="st17 st18">180</tspan><tspan x="0" y="280" class="st17 st18">184</tspan><tspan x="0" y="294" class="st17 st18">188</tspan><tspan x="0" y="308" class="st17 st18">192</tspan><tspan x="0" y="322" class="st17 st18">196</tspan></text>
	<text id="XMLID_3675_" transform="matrix(0.7071 -0.7071 0.7071 0.7071 350.2558 695.3875)"><tspan x="0" y="0" class="st17 st18">296</tspan><tspan x="0" y="14" class="st17 st18">292</tspan><tspan x="0" y="28" class="st17 st18">288</tspan><tspan x="0" y="42" class="st17 st18">284</tspan><tspan x="0" y="56" class="st17 st18">280</tspan><tspan x="0" y="70" class="st17 st18">276</tspan><tspan x="0" y="84" class="st17 st18">272</tspan><tspan x="0" y="98" class="st17 st18">268</tspan><tspan x="0" y="112" class="st17 st18">264</tspan><tspan x="0" y="126" class="st17 st18">256</tspan><tspan x="0" y="140" class="st17 st18">252</tspan><tspan x="0" y="154" class="st17 st18">248</tspan><tspan x="0" y="168" class="st17 st18">244</tspan><tspan x="0" y="182" class="st17 st18">240</tspan><tspan x="0" y="196" class="st17 st18">236</tspan><tspan x="0" y="210" class="st17 st18">232</tspan><tspan x="0" y="224" class="st17 st18">228</tspan><tspan x="0" y="238" class="st17 st18">224</tspan><tspan x="0" y="252" class="st17 st18">220</tspan><tspan x="0" y="266" class="st17 st18">216</tspan><tspan x="0" y="280" class="st17 st18">212</tspan><tspan x="0" y="294" class="st17 st18">208</tspan><tspan x="0" y="308" class="st17 st18">204</tspan></text>
	<polygon id="XMLID_3674_" points="1094.7,615.7 1099.8,626.2 1111.4,627.9 1103,636.1 1105,647.6 1094.7,642.2 1084.3,647.6 
		1086.3,636.1 1077.9,627.9 1089.5,626.2 	"/>
	<polygon id="XMLID_3673_" points="651.4,836.2 655.3,844.1 664,845.4 657.7,851.5 659.2,860.2 651.4,856.1 643.7,860.2 
		645.1,851.5 638.8,845.4 647.5,844.1 	"/>
	<polygon id="XMLID_3666_" points="568,541.5 570.5,546.5 576,547.3 572,551.2 573,556.7 568,554.1 563.1,556.7 564,551.2 
		560,547.3 565.6,546.5 	"/>
	<polygon id="XMLID_3660_" points="655.2,538.7 656.4,541.1 659,541.4 657.1,543.3 657.5,545.9 655.2,544.6 652.9,545.9 
		653.3,543.3 651.4,541.4 654,541.1 	"/>
	<polygon id="XMLID_3658_" points="720.1,372.7 722.6,377.6 728,378.4 724.1,382.3 725,387.7 720.1,385.1 715.2,387.7 716.2,382.3 
		712.2,378.4 717.7,377.6 	"/>
	<line id="XMLID_3606_" class="st4" x1="505.5" y1="608.7" x2="519" y2="595.3"/>
	<text id="XMLID_3578_" transform="matrix(0.7071 -0.7071 0.7071 0.7071 544.1283 563.0751)" class="st17 st18">May</text>
	<line id="XMLID_3516_" class="st4" x1="548.1" y1="566.2" x2="561.5" y2="552.7"/>
	<text id="XMLID_3515_" transform="matrix(0.7071 -0.7071 0.7071 0.7071 582.6698 524.5331)" class="st17 st18">Jun.</text>
	<line id="XMLID_3513_" class="st4" x1="586.6" y1="527.6" x2="600.1" y2="514.2"/>
	<text id="XMLID_3512_" transform="matrix(0.7071 -0.7071 0.7071 0.7071 659.2535 763.2772)" class="st17 st18">Dec.</text>
	<line id="XMLID_3510_" class="st4" x1="663.2" y1="766.4" x2="676.6" y2="752.9"/>
	<text id="XMLID_3509_" transform="matrix(0.7071 -0.7071 0.7071 0.7071 694.734 727.7968)" class="st17 st18">Nov.</text>
	<line id="XMLID_3507_" class="st4" x1="698.7" y1="730.9" x2="712.1" y2="717.5"/>
	<text id="XMLID_3506_" transform="matrix(0.7071 -0.7071 0.7071 0.7071 727.6976 694.8329)" class="st17 st18">Okt.</text>
	<line id="XMLID_3504_" class="st4" x1="731.7" y1="697.9" x2="745.1" y2="684.5"/>
	<text id="XMLID_3503_" transform="matrix(0.7071 0.7071 -0.7071 0.7071 681.4653 522.7217)" class="st17 st18">Jul.</text>
	<line id="XMLID_3501_" class="st4" x1="678.4" y1="526.7" x2="691.8" y2="540.1"/>
	<text id="XMLID_3500_" transform="matrix(0.7071 0.7071 -0.7071 0.7071 716.9457 558.2021)" class="st17 st18">Aug.</text>
	<line id="XMLID_3498_" class="st4" x1="713.8" y1="562.2" x2="727.3" y2="575.6"/>
	<text id="XMLID_3497_" transform="matrix(0.7071 0.7071 -0.7071 0.7071 749.9086 591.1657)" class="st17 st18">Sep.</text>
	<line id="XMLID_3495_" class="st4" x1="746.8" y1="595.1" x2="760.2" y2="608.6"/>
	<text id="XMLID_3494_" transform="matrix(0.7071 0.7071 -0.7071 0.7071 507.9477 668.4575)" class="st17 st18">Mar</text>
	<line id="XMLID_3455_" class="st4" x1="504.8" y1="672.4" x2="518.3" y2="685.8"/>
	<text id="XMLID_3454_" transform="matrix(0.7071 0.7071 -0.7071 0.7071 551.603 712.113)" class="st17 st18">Feb.</text>
	<line id="XMLID_1055_" class="st4" x1="541" y1="708.6" x2="569.4" y2="737"/>
	<text id="XMLID_1054_" transform="matrix(0.7071 0.7071 -0.7071 0.7071 590.2817 750.7924)" class="st17 st18">Jan.</text>
	<line id="XMLID_1052_" class="st4" x1="587.2" y1="754.7" x2="600.6" y2="768.2"/>
	<text id="XMLID_1051_" transform="matrix(0.7071 -0.7071 0.7071 0.7071 664.0193 575.5886)"><tspan x="0" y="0" class="st17 st18">1</tspan><tspan x="0" y="14" class="st17 st18">2</tspan><tspan x="0" y="28" class="st17 st18">3</tspan><tspan x="0" y="42" class="st17 st18">4</tspan><tspan x="0" y="56" class="st17 st18">5</tspan><tspan x="0" y="70" class="st17 st18">6</tspan></text>
	<text id="XMLID_1050_" transform="matrix(0.7071 0.7071 -0.7071 0.7071 702.4063 661.3661)"><tspan x="0" y="0" class="st17 st18">8</tspan><tspan x="0" y="14" class="st17 st18">9</tspan><tspan x="0" y="28" class="st17 st18">10</tspan><tspan x="0" y="42" class="st17 st18">11</tspan><tspan x="0" y="56" class="st17 st18">12</tspan><tspan x="0" y="70" class="st17 st18">13</tspan></text>
	<text id="XMLID_1049_" transform="matrix(0.7071 -0.7071 0.7071 0.7071 554.8001 670.9841)"><tspan x="0" y="0" class="st17 st18">20</tspan><tspan x="0" y="14" class="st17 st18">19</tspan><tspan x="0" y="28" class="st17 st18">18</tspan><tspan x="0" y="42" class="st17 st18">17</tspan><tspan x="0" y="56" class="st17 st18">16</tspan><tspan x="0" y="70" class="st17 st18">15</tspan></text>
	<text id="XMLID_1048_" transform="matrix(0.7071 0.7071 -0.7071 0.7071 593.3419 569.6074)"><tspan x="0" y="0" class="st17 st18">27</tspan><tspan x="0" y="14" class="st17 st18">26</tspan><tspan x="0" y="28" class="st17 st18">25</tspan><tspan x="0" y="42" class="st17 st18">24</tspan><tspan x="0" y="56" class="st17 st18">23</tspan><tspan x="0" y="70" class="st17 st18">22</tspan></text>
	<text id="XMLID_1046_" transform="matrix(0.7071 0.7071 -0.7071 0.7071 576.0177 369.8645)"><tspan x="0" y="0" class="st17 st18">396</tspan><tspan x="0" y="14" class="st17 st18">392</tspan><tspan x="0" y="28" class="st17 st18">388</tspan><tspan x="0" y="42" class="st17 st18">384</tspan><tspan x="0" y="56" class="st17 st18">380</tspan><tspan x="0" y="70" class="st17 st18">376</tspan><tspan x="0" y="84" class="st17 st18">372</tspan><tspan x="0" y="98" class="st17 st18">368</tspan><tspan x="0" y="112" class="st17 st18">364</tspan><tspan x="0" y="126" class="st17 st18">356</tspan><tspan x="0" y="140" class="st17 st18">352</tspan><tspan x="0" y="154" class="st17 st18">348</tspan><tspan x="0" y="168" class="st17 st18">344</tspan><tspan x="0" y="182" class="st17 st18">340</tspan><tspan x="0" y="196" class="st17 st18">336</tspan><tspan x="0" y="210" class="st17 st18">332</tspan><tspan x="0" y="224" class="st17 st18">328</tspan><tspan x="0" y="238" class="st17 st18">324</tspan><tspan x="0" y="252" class="st17 st18">320</tspan><tspan x="0" y="266" class="st17 st18">316</tspan><tspan x="0" y="280" class="st17 st18">312</tspan><tspan x="0" y="294" class="st17 st18">308</tspan><tspan x="0" y="308" class="st17 st18">304</tspan></text>
	<text transform="matrix(1 0 0 1 724.8719 640.9463)" class="st17 st18">7</text>
	<text transform="matrix(1 0 0 1 628.7089 736.166)" class="st17 st18">8</text>
	<text transform="matrix(1 0 0 1 531.6034 642.0605)" class="st17 st18">9</text>
	<text transform="matrix(1 0 0 1 615.5101 556.7236)" class="st17 st18">28</text>
	<text transform="matrix(1 0 0 1 627.3671 536.9888)" class="st17 st18">29</text>
	<text transform="matrix(1 0 0 1 640.2469 556.1074)" class="st17 st18">30</text>
	<text transform="matrix(1 0 0 1 779.7469 641.1074)" class="st17 st18">31</text>
	<text transform="matrix(1 0 0 1 626.7469 796.6074)" class="st17 st18">31</text>
	<text transform="matrix(1 0 0 1 473.7469 641.6074)" class="st17 st18">31</text>
	<text transform="matrix(1 0 0 1 612.2469 499.6074)" class="st17 st18">31</text>
	<text transform="matrix(1 0 0 1 641.2469 499.1074)" class="st17 st18">32</text>
	<text transform="matrix(1 0 0 1 625.7469 474.1074)" class="st17 st18">33</text>
</g>
<g id="Layer_4">
	<g id="XMLID_3822_">
		<path id="XMLID_3823_" d="M642.1,522.1l-11.4-11.4l-11.4,11.4L587,489.8l43.7-43.7l43.7,43.7L642.1,522.1z M588.4,489.8l30.8,30.8
			l11.4-11.4l11.4,11.4l30.8-30.8l-42.2-42.2L588.4,489.8z"/>
	</g>
	<g id="XMLID_3818_">
		<path id="XMLID_3819_" d="M631,831.7l-42.3-42.3l31.3-31.3l11.1,11.1l11.1-11.1l31.3,31.3L631,831.7z M590.1,789.4l40.9,40.9
			l40.9-40.9l-29.9-29.9L631,770.6L620,759.5L590.1,789.4z"/>
	</g>
	<g id="XMLID_3814_">
		<path id="XMLID_3815_" d="M780.8,681.9l-31.3-31.3l11.1-11.1l-11.1-11.1l31.3-31.3l42.3,42.3L780.8,681.9z M751,650.7l29.9,29.9
			l40.9-40.9l-40.9-40.9L751,628.5l11.1,11.1L751,650.7z"/>
	</g>
	<g id="XMLID_3810_">
		<path id="XMLID_3811_" d="M482.2,682.9l-42.3-42.3l42.3-42.3l31.3,31.3l-11.1,11.1l11.1,11.1L482.2,682.9z M441.3,640.6l40.9,40.9
			l29.9-29.9l-11.1-11.1l11.1-11.1l-29.9-29.9L441.3,640.6z"/>
	</g>
	<line id="XMLID_1045_" class="st8" x1="631.1" y1="255.4" x2="631.1" y2="329.7"/>
	<line id="XMLID_1044_" class="st8" x1="374.1" y1="640.2" x2="350.2" y2="640.2"/>
	
		<rect id="XMLID_1043_" x="341.4" y="636.5" transform="matrix(-0.7071 -0.7071 0.7071 -0.7071 136.3532 1336.8643)" width="7.3" height="7.3"/>
	<line id="XMLID_1042_" class="st8" x1="889.6" y1="640.2" x2="913.5" y2="640.2"/>
	
		<rect id="XMLID_1041_" x="915" y="636.5" transform="matrix(0.7071 0.7071 -0.7071 0.7071 721.7455 -462.0629)" width="7.3" height="7.3"/>
	
		<rect id="XMLID_1022_" x="870.5" y="636.5" transform="matrix(0.7071 0.7071 -0.7071 0.7071 708.7228 -430.6234)" width="7.3" height="7.3"/>
	
		<rect id="XMLID_704_" x="627.8" y="221.1" transform="matrix(0.7071 0.7071 -0.7071 0.7071 343.8552 -380.6461)" width="7.3" height="7.3"/>
	
		<rect id="XMLID_656_" x="627.2" y="878.9" transform="matrix(0.7071 0.7071 -0.7071 0.7071 808.8167 -187.5614)" width="7.3" height="7.3"/>
	
		<rect id="XMLID_560_" x="384.8" y="636.6" transform="matrix(0.7071 0.7071 -0.7071 0.7071 566.4669 -87.1768)" width="7.3" height="7.3"/>
	<line id="XMLID_559_" class="st8" x1="631.4" y1="897.7" x2="631.4" y2="921.6"/>
	
		<rect id="XMLID_558_" x="627.8" y="923.1" transform="matrix(-0.7071 0.7071 -0.7071 -0.7071 1733.173 1135.5477)" width="7.3" height="7.3"/>
</g>
</svg>
