<?xml version="1.0" encoding="UTF-8" standalone="no"?>
<svg id="svg2" xmlns:rdf="http://www.w3.org/1999/02/22-rdf-syntax-ns#" xmlns="http://www.w3.org/2000/svg" height="1327.3" width="1327.3" version="1.1" xmlns:cc="http://creativecommons.org/ns#" xmlns:dc="http://purl.org/dc/elements/1.1/" viewBox="0 0 1327.3 1327.3">
 <g fill="#fff">
  <path id="path10" d="m681.72 524.23c-5.4105 0-9.8118 4.4026-9.8118 9.8131s4.4012 9.8131 9.8118 9.8131c5.4119 0 9.8131-4.4026 9.8131-9.8131s-4.4012-9.8131-9.8131-9.8131"/>
  <path id="path14" d="m691.23 559.87c-5.4105 0-9.8118 4.4026-9.8118 9.8131s4.4012 9.8131 9.8118 9.8131c5.4119 0 9.8131-4.4026 9.8131-9.8131s-4.4012-9.8131-9.8131-9.8131"/>
  <path id="path18" d="m718.1 558.84c-5.4105 0-9.8118 4.4026-9.8118 9.8131s4.4012 9.8131 9.8118 9.8131c5.4119 0 9.8131-4.4026 9.8131-9.8131s-4.4012-9.8131-9.8131-9.8131"/>
  <path id="path22" d="m717.07 585.71c-5.4105 0-9.8118 4.4026-9.8118 9.8131s4.4012 9.8131 9.8118 9.8131c5.4119 0 9.8131-4.4026 9.8131-9.8131s-4.4012-9.8131-9.8131-9.8131"/>
  <path id="path26" d="m734.14 602.78c-5.4105 0-9.8118 4.4026-9.8118 9.8131s4.4012 9.8131 9.8118 9.8131c5.4119 0 9.8131-4.4026 9.8131-9.8131s-4.4012-9.8131-9.8131-9.8131"/>
  <path id="path30" d="m761.01 601.75c-5.4105 0-9.8118 4.4026-9.8118 9.8131s4.4012 9.8131 9.8118 9.8131c5.4119 0 9.8131-4.4026 9.8131-9.8131s-4.4012-9.8131-9.8131-9.8131"/>
  <path id="path34" d="m759.98 628.62c-5.4105 0-9.8118 4.4026-9.8118 9.8131s4.4012 9.8131 9.8118 9.8131c5.4119 0 9.8131-4.4026 9.8131-9.8131s-4.4012-9.8131-9.8131-9.8131"/>
  <path id="path38" d="m769.79 695.88c0-5.4105-4.4026-9.8118-9.8131-9.8118s-9.8131 4.4012-9.8131 9.8118c0 5.4119 4.4026 9.8131 9.8131 9.8131s9.8131-4.4012 9.8131-9.8131"/>
  <path id="path42" d="m770.83 722.75c0-5.4105-4.4026-9.8118-9.8131-9.8118s-9.8131 4.4012-9.8131 9.8118c0 5.4119 4.4026 9.8131 9.8131 9.8131s9.8131-4.4012 9.8131-9.8131"/>
  <path id="path46" d="m743.95 721.72c0-5.4105-4.4026-9.8118-9.8131-9.8118s-9.8131 4.4012-9.8131 9.8118c0 5.4119 4.4026 9.8131 9.8131 9.8131s9.8131-4.4012 9.8131-9.8131"/>
  <path id="path50" d="m726.88 738.79c0-5.4105-4.4026-9.8118-9.8131-9.8118s-9.8131 4.4012-9.8131 9.8118c0 5.4119 4.4026 9.8131 9.8131 9.8131s9.8131-4.4012 9.8131-9.8131"/>
  <path id="path54" d="m727.92 765.66c0-5.4105-4.4026-9.8118-9.8131-9.8118s-9.8131 4.4012-9.8131 9.8118c0 5.4119 4.4026 9.8131 9.8131 9.8131s9.8131-4.4012 9.8131-9.8131"/>
  <path id="path58" d="m701.05 764.63c0-5.4105-4.4026-9.8118-9.8131-9.8118s-9.8131 4.4012-9.8131 9.8118c0 5.4119 4.4026 9.8131 9.8131 9.8131s9.8131-4.4012 9.8131-9.8131"/>
  <path id="path62" d="m633.79 774.44c5.4105 0 9.8118-4.4026 9.8118-9.8131s-4.4012-9.8131-9.8118-9.8131c-5.4119 0-9.8131 4.4026-9.8131 9.8131s4.4012 9.8131 9.8131 9.8131"/>
  <path id="path66" d="m606.92 775.47c5.4105 0 9.8118-4.4026 9.8118-9.8131s-4.4012-9.8131-9.8118-9.8131c-5.4119 0-9.8131 4.4026-9.8131 9.8131s4.4012 9.8131 9.8131 9.8131"/>
  <path id="path70" d="m607.95 748.6c5.4105 0 9.8118-4.4026 9.8118-9.8131s-4.4012-9.8131-9.8118-9.8131c-5.4119 0-9.8131 4.4026-9.8131 9.8131s4.4012 9.8131 9.8131 9.8131"/>
  <path id="path74" d="m590.88 731.53c5.4105 0 9.8118-4.4026 9.8118-9.8131s-4.4012-9.8131-9.8118-9.8131c-5.4119 0-9.8131 4.4026-9.8131 9.8131s4.4012 9.8131 9.8131 9.8131"/>
  <path id="path78" d="m564.01 732.57c5.4105 0 9.8118-4.4026 9.8118-9.8131s-4.4012-9.8131-9.8118-9.8131c-5.4119 0-9.8131 4.4026-9.8131 9.8131s4.4012 9.8131 9.8131 9.8131"/>
  <path id="path82" d="m565.05 705.69c5.4105 0 9.8118-4.4026 9.8118-9.8131s-4.4012-9.8131-9.8118-9.8131c-5.4119 0-9.8131 4.4026-9.8131 9.8131s4.4012 9.8131 9.8131 9.8131"/>
  <path id="path86" d="m555.23 638.28c0 5.4105 4.4026 9.8118 9.8131 9.8118s9.8131-4.4012 9.8131-9.8118c0-5.4119-4.4026-9.8131-9.8131-9.8131s-9.8131 4.4012-9.8131 9.8131"/>
  <path id="path90" d="m514.72 668.05c0 5.4105 4.4026 9.8118 9.8131 9.8118s9.8131-4.4012 9.8131-9.8118c0-5.4119-4.4026-9.8131-9.8131-9.8131s-9.8131 4.4012-9.8131 9.8131"/>
  <path id="path94" d="m792.38 668.87c0 5.4105 4.4026 9.8118 9.8131 9.8118s9.8131-4.4012 9.8131-9.8118c0-5.4119-4.4026-9.8131-9.8131-9.8131s-9.8131 4.4012-9.8131 9.8131"/>
  <path id="path98" d="m653.05 807.33c0 5.4105 4.4026 9.8118 9.8131 9.8118s9.8131-4.4012 9.8131-9.8118c0-5.4119-4.4026-9.8131-9.8131-9.8131s-9.8131 4.4012-9.8131 9.8131"/>
  <path id="path102" d="m661.32 879.82c0 5.4105 4.4026 9.8118 9.8131 9.8118s9.8131-4.4012 9.8131-9.8118c0-5.4119-4.4026-9.8131-9.8131-9.8131s-9.8131 4.4012-9.8131 9.8131"/>
  <path id="path106" d="m862.58 661.98c0 5.4105 4.4026 9.8118 9.8131 9.8118s9.8131-4.4012 9.8131-9.8118c0-5.4119-4.4026-9.8131-9.8131-9.8131s-9.8131 4.4012-9.8131 9.8131"/>
  <path id="path110" d="m445.04 674.84c0 5.4105 4.4026 9.8118 9.8131 9.8118s9.8131-4.4012 9.8131-9.8118c0-5.4119-4.4026-9.8131-9.8131-9.8131s-9.8131 4.4012-9.8131 9.8131"/>
  <path id="path114" d="m554.2 611.41c0 5.4105 4.4026 9.8118 9.8131 9.8118s9.8131-4.4012 9.8131-9.8118c0-5.4119-4.4026-9.8131-9.8131-9.8131s-9.8131 4.4012-9.8131 9.8131"/>
  <path id="path118" d="m581.07 612.44c0 5.4105 4.4026 9.8118 9.8131 9.8118s9.8131-4.4012 9.8131-9.8118c0-5.4119-4.4026-9.8131-9.8131-9.8131s-9.8131 4.4012-9.8131 9.8131"/>
  <path id="path122" d="m598.14 595.37c0 5.4105 4.4026 9.8118 9.8131 9.8118s9.8131-4.4012 9.8131-9.8118c0-5.4119-4.4026-9.8131-9.8131-9.8131s-9.8131 4.4012-9.8131 9.8131"/>
  <path id="path126" d="m597.11 568.5c0 5.4105 4.4026 9.8118 9.8131 9.8118s9.8131-4.4012 9.8131-9.8118c0-5.4119-4.4026-9.8131-9.8131-9.8131s-9.8131 4.4012-9.8131 9.8131"/>
  <path id="path130" d="m623.98 569.53c0 5.4105 4.4026 9.8118 9.8131 9.8118s9.8131-4.4012 9.8131-9.8118c0-5.4119-4.4026-9.8131-9.8131-9.8131s-9.8131 4.4012-9.8131 9.8131"/>
  <path id="path134" d="m663.24 504.5c-5.4105 0-9.8118 4.4026-9.8118 9.8131s4.4012 9.8131 9.8118 9.8131c5.4119 0 9.8131-4.4026 9.8131-9.8131s-4.4012-9.8131-9.8131-9.8131"/>
  <path id="path138" d="m645.18 457.37c-5.4105 0-9.8118 4.4026-9.8118 9.8131s4.4012 9.8131 9.8118 9.8131c5.4119 0 9.8131-4.4026 9.8131-9.8131s-4.4012-9.8131-9.8131-9.8131"/>
  <path id="path142" d="m681.72 457.37c-5.4105 0-9.8118 4.4026-9.8118 9.8131s4.4012 9.8131 9.8118 9.8131c5.4119 0 9.8131-4.4026 9.8131-9.8131s-4.4012-9.8131-9.8131-9.8131"/>
  <path id="path146" d="m663.45 437.64c-5.4105 0-9.8118 4.4026-9.8118 9.8131s4.4012 9.8131 9.8118 9.8131c5.4119 0 9.8131-4.4026 9.8131-9.8131s-4.4012-9.8131-9.8131-9.8131"/>
  <path id="path150" d="m645.18 524.23c-5.4105 0-9.8118 4.4026-9.8118 9.8131s4.4012 9.8131 9.8118 9.8131c5.4119 0 9.8131-4.4026 9.8131-9.8131s-4.4012-9.8131-9.8131-9.8131"/>
 </g>
</svg>
