<svg width="1327.3" height="1327.3" version="1.1" viewBox="0 0 1327.3 1327.3" xmlns="http://www.w3.org/2000/svg">
 <g transform="translate(19.846 18.948)">
  <g transform="translate(.28402 4.1867)">
   <g transform="matrix(1.3333 0 0 -1.3333 661.59 501.1)">
    <path d="m0 0c-4.058 0-7.359-3.302-7.359-7.36s3.301-7.36 7.359-7.36c4.059 0 7.36 3.302 7.36 7.36s-3.301 7.36-7.36 7.36" fill="#fff"/>
   </g>
   <g transform="matrix(1.3333 0 0 -1.3333 671.1 536.74)">
    <path d="m0 0c-4.058 0-7.359-3.302-7.359-7.36s3.301-7.36 7.359-7.36c4.059 0 7.36 3.302 7.36 7.36s-3.301 7.36-7.36 7.36" fill="#fff"/>
   </g>
   <g transform="matrix(1.3333 0 0 -1.3333 697.97 535.71)">
    <path d="m0 0c-4.058 0-7.359-3.302-7.359-7.36s3.301-7.36 7.359-7.36c4.059 0 7.36 3.302 7.36 7.36s-3.301 7.36-7.36 7.36" fill="#fff"/>
   </g>
   <g transform="matrix(1.3333 0 0 -1.3333 696.94 562.58)">
    <path d="m0 0c-4.058 0-7.359-3.302-7.359-7.36s3.301-7.36 7.359-7.36c4.059 0 7.36 3.302 7.36 7.36s-3.301 7.36-7.36 7.36" fill="#fff"/>
   </g>
   <g transform="matrix(1.3333 0 0 -1.3333 714.01 579.65)">
    <path d="m0 0c-4.058 0-7.359-3.302-7.359-7.36s3.301-7.36 7.359-7.36c4.059 0 7.36 3.302 7.36 7.36s-3.301 7.36-7.36 7.36" fill="#fff"/>
   </g>
   <g transform="matrix(1.3333 0 0 -1.3333 740.88 578.62)">
    <path d="m0 0c-4.058 0-7.359-3.302-7.359-7.36s3.301-7.36 7.359-7.36c4.059 0 7.36 3.302 7.36 7.36s-3.301 7.36-7.36 7.36" fill="#fff"/>
   </g>
   <g transform="matrix(1.3333 0 0 -1.3333 739.85 605.49)">
    <path d="m0 0c-4.058 0-7.359-3.302-7.359-7.36s3.301-7.36 7.359-7.36c4.059 0 7.36 3.302 7.36 7.36s-3.301 7.36-7.36 7.36" fill="#fff"/>
   </g>
   <g transform="matrix(1.3333 0 0 -1.3333 749.66 672.75)">
    <path d="m0 0c0 4.058-3.302 7.359-7.36 7.359s-7.36-3.301-7.36-7.359c0-4.059 3.302-7.36 7.36-7.36s7.36 3.301 7.36 7.36" fill="#fff"/>
   </g>
   <g transform="matrix(1.3333 0 0 -1.3333 750.7 699.62)">
    <path d="m0 0c0 4.058-3.302 7.359-7.36 7.359s-7.36-3.301-7.36-7.359c0-4.059 3.302-7.36 7.36-7.36s7.36 3.301 7.36 7.36" fill="#fff"/>
   </g>
   <g transform="matrix(1.3333 0 0 -1.3333 723.82 698.59)">
    <path d="m0 0c0 4.058-3.302 7.359-7.36 7.359s-7.36-3.301-7.36-7.359c0-4.059 3.302-7.36 7.36-7.36s7.36 3.301 7.36 7.36" fill="#fff"/>
   </g>
   <g transform="matrix(1.3333 0 0 -1.3333 706.75 715.66)">
    <path d="m0 0c0 4.058-3.302 7.359-7.36 7.359s-7.36-3.301-7.36-7.359c0-4.059 3.302-7.36 7.36-7.36s7.36 3.301 7.36 7.36" fill="#fff"/>
   </g>
   <g transform="matrix(1.3333 0 0 -1.3333 707.79 742.53)">
    <path d="m0 0c0 4.058-3.302 7.359-7.36 7.359s-7.36-3.301-7.36-7.359c0-4.059 3.302-7.36 7.36-7.36s7.36 3.301 7.36 7.36" fill="#fff"/>
   </g>
   <g transform="matrix(1.3333 0 0 -1.3333 680.92 741.5)">
    <path d="m0 0c0 4.058-3.302 7.359-7.36 7.359s-7.36-3.301-7.36-7.359c0-4.059 3.302-7.36 7.36-7.36s7.36 3.301 7.36 7.36" fill="#fff"/>
   </g>
   <g transform="matrix(1.3333 0 0 -1.3333 613.66 751.31)">
    <path d="m0 0c4.058 0 7.359 3.302 7.359 7.36s-3.301 7.36-7.359 7.36c-4.059 0-7.36-3.302-7.36-7.36s3.301-7.36 7.36-7.36" fill="#fff"/>
   </g>
   <g transform="matrix(1.3333 0 0 -1.3333 586.79 752.34)">
    <path d="m0 0c4.058 0 7.359 3.302 7.359 7.36s-3.301 7.36-7.359 7.36c-4.059 0-7.36-3.302-7.36-7.36s3.301-7.36 7.36-7.36" fill="#fff"/>
   </g>
   <g transform="matrix(1.3333 0 0 -1.3333 587.82 725.47)">
    <path d="m0 0c4.058 0 7.359 3.302 7.359 7.36s-3.301 7.36-7.359 7.36c-4.059 0-7.36-3.302-7.36-7.36s3.301-7.36 7.36-7.36" fill="#fff"/>
   </g>
   <g transform="matrix(1.3333 0 0 -1.3333 570.75 708.4)">
    <path d="m0 0c4.058 0 7.359 3.302 7.359 7.36s-3.301 7.36-7.359 7.36c-4.059 0-7.36-3.302-7.36-7.36s3.301-7.36 7.36-7.36" fill="#fff"/>
   </g>
   <g transform="matrix(1.3333 0 0 -1.3333 543.88 709.44)">
    <path d="m0 0c4.058 0 7.359 3.302 7.359 7.36s-3.301 7.36-7.359 7.36c-4.059 0-7.36-3.302-7.36-7.36s3.301-7.36 7.36-7.36" fill="#fff"/>
   </g>
   <g transform="matrix(1.3333 0 0 -1.3333 544.92 682.56)">
    <path d="m0 0c4.058 0 7.359 3.302 7.359 7.36s-3.301 7.36-7.359 7.36c-4.059 0-7.36-3.302-7.36-7.36s3.301-7.36 7.36-7.36" fill="#fff"/>
   </g>
   <g transform="matrix(1.3333 0 0 -1.3333 535.1 615.15)">
    <path d="m0 0c0-4.058 3.302-7.359 7.36-7.359s7.36 3.301 7.36 7.359c0 4.059-3.302 7.36-7.36 7.36s-7.36-3.301-7.36-7.36" fill="#fff"/>
   </g>
   <g transform="matrix(1.3333 0 0 -1.3333 494.59 644.92)">
    <path d="m0 0c0-4.058 3.302-7.359 7.36-7.359s7.36 3.301 7.36 7.359c0 4.059-3.302 7.36-7.36 7.36s-7.36-3.301-7.36-7.36" fill="#fff"/>
   </g>
   <g transform="matrix(1.3333 0 0 -1.3333 772.25 645.74)">
    <path d="m0 0c0-4.058 3.302-7.359 7.36-7.359s7.36 3.301 7.36 7.359c0 4.059-3.302 7.36-7.36 7.36s-7.36-3.301-7.36-7.36" fill="#fff"/>
   </g>
   <g transform="matrix(1.3333 0 0 -1.3333 632.92 784.2)">
    <path d="m0 0c0-4.058 3.302-7.359 7.36-7.359s7.36 3.301 7.36 7.359c0 4.059-3.302 7.36-7.36 7.36s-7.36-3.301-7.36-7.36" fill="#fff"/>
   </g>
   <g transform="matrix(1.3333 0 0 -1.3333 641.19 856.69)">
    <path d="m0 0c0-4.058 3.302-7.359 7.36-7.359s7.36 3.301 7.36 7.359c0 4.059-3.302 7.36-7.36 7.36s-7.36-3.301-7.36-7.36" fill="#fff"/>
   </g>
   <g transform="matrix(1.3333 0 0 -1.3333 842.45 638.85)">
    <path d="m0 0c0-4.058 3.302-7.359 7.36-7.359s7.36 3.301 7.36 7.359c0 4.059-3.302 7.36-7.36 7.36s-7.36-3.301-7.36-7.36" fill="#fff"/>
   </g>
   <g transform="matrix(1.3333 0 0 -1.3333 424.91 651.71)">
    <path d="m0 0c0-4.058 3.302-7.359 7.36-7.359s7.36 3.301 7.36 7.359c0 4.059-3.302 7.36-7.36 7.36s-7.36-3.301-7.36-7.36" fill="#fff"/>
   </g>
   <g transform="matrix(1.3333 0 0 -1.3333 534.07 588.28)">
    <path d="m0 0c0-4.058 3.302-7.359 7.36-7.359s7.36 3.301 7.36 7.359c0 4.059-3.302 7.36-7.36 7.36s-7.36-3.301-7.36-7.36" fill="#fff"/>
   </g>
   <g transform="matrix(1.3333 0 0 -1.3333 560.94 589.31)">
    <path d="m0 0c0-4.058 3.302-7.359 7.36-7.359s7.36 3.301 7.36 7.359c0 4.059-3.302 7.36-7.36 7.36s-7.36-3.301-7.36-7.36" fill="#fff"/>
   </g>
   <g transform="matrix(1.3333 0 0 -1.3333 578.01 572.24)">
    <path d="m0 0c0-4.058 3.302-7.359 7.36-7.359s7.36 3.301 7.36 7.359c0 4.059-3.302 7.36-7.36 7.36s-7.36-3.301-7.36-7.36" fill="#fff"/>
   </g>
   <g transform="matrix(1.3333 0 0 -1.3333 576.98 545.37)">
    <path d="m0 0c0-4.058 3.302-7.359 7.36-7.359s7.36 3.301 7.36 7.359c0 4.059-3.302 7.36-7.36 7.36s-7.36-3.301-7.36-7.36" fill="#fff"/>
   </g>
   <g transform="matrix(1.3333 0 0 -1.3333 603.85 546.4)">
    <path d="m0 0c0-4.058 3.302-7.359 7.36-7.359s7.36 3.301 7.36 7.359c0 4.059-3.302 7.36-7.36 7.36s-7.36-3.301-7.36-7.36" fill="#fff"/>
   </g>
   <g transform="matrix(1.3333 0 0 -1.3333 643.11 481.37)">
    <path d="m0 0c-4.058 0-7.359-3.302-7.359-7.36s3.301-7.36 7.359-7.36c4.059 0 7.36 3.302 7.36 7.36s-3.301 7.36-7.36 7.36" fill="#fff"/>
   </g>
   <g transform="matrix(1.3333 0 0 -1.3333 625.05 434.24)">
    <path d="m0 0c-4.058 0-7.359-3.302-7.359-7.36s3.301-7.36 7.359-7.36c4.059 0 7.36 3.302 7.36 7.36s-3.301 7.36-7.36 7.36" fill="#fff"/>
   </g>
   <g transform="matrix(1.3333 0 0 -1.3333 661.59 434.24)">
    <path d="m0 0c-4.058 0-7.359-3.302-7.359-7.36s3.301-7.36 7.359-7.36c4.059 0 7.36 3.302 7.36 7.36s-3.301 7.36-7.36 7.36" fill="#fff"/>
   </g>
   <g transform="matrix(1.3333 0 0 -1.3333 643.32 414.51)">
    <path d="m0 0c-4.058 0-7.359-3.302-7.359-7.36s3.301-7.36 7.359-7.36c4.059 0 7.36 3.302 7.36 7.36s-3.301 7.36-7.36 7.36" fill="#fff"/>
   </g>
   <g transform="matrix(1.3333 0 0 -1.3333 625.05 501.1)">
    <path d="m0 0c-4.058 0-7.359-3.302-7.359-7.36s3.301-7.36 7.359-7.36c4.059 0 7.36 3.302 7.36 7.36s-3.301 7.36-7.36 7.36" fill="#fff"/>
   </g>
  </g>
 </g>
</svg>