
Open SVG

        Paste markup
        Demo
        Contribute
        About
        Updated!
        Ctrl/cmd-o now opens file picker (thanks Patrick Kettner)
        Powered by the incredible SVGO


        155.63k → 49.65k 31.9%
        <?xml version="1.0" encoding="UTF-8"?>
<svg width="1327.3" height="1327.3" version="1.1" viewBox="0 0 1327.3 1327.3" xmlns="http://www.w3.org/2000/svg">
 <g>
  <g transform="translate(-1222.4 -470.76)">
   <g>
    <path d="m1885.5 1591-458.27-458.27 457.88-457.88 458.27 458.27z" fill="#304c64"/>
    <path d="m1885.2 1035.2-97.673 97.673 97.755 97.752 97.671-97.672z" fill="#618e98"/>
    <path d="m1885 1178.5-43.723-43.723 44.5-44.5 43.723 43.723z" fill="#c9c472"/>
   </g>
   <path d="m1885 1178.5-43.723-43.723 44.5-44.5 43.723 43.723z" fill="none" stroke="#e2d871" stroke-miterlimit="10" stroke-width="1.3333"/>
   <g fill="#cd5326">
    <path d="m1885.6 908.79c2.3293 0 4.2253 1.8947 4.2253 4.224s-1.896 4.2267-4.2253 4.2267-4.224-1.8973-4.224-4.2267 1.8947-4.224 4.224-4.224m0.8613-2.6693v-35.041h-1.7226v35.041c-3.44 0.43066-6.1187 3.34-6.1187 6.8933 0 3.8507 3.1307 6.9827 6.98 6.9827 3.8507 0 6.9813-3.132 6.9813-6.9827 0-3.5533-2.68-6.4627-6.12-6.8933"/>
    <path d="m1880.5 907.22c0.152 0 0.3027-0.0413 0.4413-0.152 0.2894-0.23333 0.344-0.66133 0.1094-0.964-0.248-0.30267-0.6747-0.344-0.9774-0.10933-0.2893 0.23333-0.3453 0.67466-0.1106 0.964 0.1373 0.17866 0.344 0.26133 0.5373 0.26133"/>
    <path d="m1882.9 905.9c0.083 0 0.152-0.0133 0.2347-0.0413 0.3586-0.124 0.5373-0.50934 0.412-0.868-0.1227-0.35867-0.5227-0.552-0.8814-0.42667-0.3586 0.124-0.5373 0.52267-0.4133 0.88133 0.097 0.276 0.372 0.45467 0.648 0.45467"/>
    <path d="m1877.5 914.45c0.372-0.0413 0.6613-0.372 0.62-0.75733-0.028-0.372-0.372-0.648-0.744-0.62134-0.3867 0.0427-0.6613 0.37334-0.62 0.75867 0.028 0.34533 0.3173 0.62 0.6747 0.62z"/>
    <path d="m1878.3 909.13c0.124 0.0693 0.248 0.11067 0.372 0.11067 0.2347 0 0.4547-0.11067 0.5787-0.31734 0.2066-0.33066 0.124-0.75733-0.2067-0.95066-0.3173-0.20667-0.744-0.11067-0.9507 0.20666-0.2066 0.31734-0.1106 0.744 0.2067 0.95067"/>
    <path d="m1877.4 911.72c0.055 0.0147 0.1107 0.0147 0.1653 0.0147 0.3027 0 0.592-0.20667 0.6614-0.524 0.096-0.372-0.1374-0.744-0.5094-0.82667-0.3586-0.0973-0.7306 0.13733-0.828 0.496-0.083 0.372 0.1387 0.744 0.5107 0.84"/>
    <path d="m1888.1 905.83c0.069 0.028 0.152 0.0413 0.2213 0.0413 0.2894 0 0.5507-0.18 0.6467-0.468 0.124-0.35866-0.069-0.74533-0.4267-0.868-0.3586-0.12533-0.744 0.068-0.868 0.42667-0.124 0.35733 0.069 0.744 0.4267 0.868"/>
    <path d="m1893 911.13c0.083 0.30267 0.3573 0.50933 0.6613 0.50933 0.055 0 0.1107 0 0.1787-0.0133 0.3587-0.096 0.5787-0.468 0.496-0.84-0.096-0.372-0.468-0.59333-0.84-0.49733-0.372 0.0973-0.5933 0.46933-0.496 0.84133"/>
    <path d="m1892.6 909.16c0.124 0 0.248-0.0413 0.372-0.11067 0.3173-0.22 0.4-0.64666 0.1933-0.964-0.208-0.31733-0.6346-0.4-0.952-0.19333-0.316 0.20667-0.3986 0.63467-0.192 0.95067 0.124 0.20666 0.344 0.31733 0.5787 0.31733"/>
    <path d="m1890.7 907.16c0.2067 0 0.3987-0.096 0.5373-0.26133 0.2334-0.30267 0.1787-0.744-0.124-0.97867-0.2893-0.22-0.7306-0.17867-0.9653 0.124-0.2333 0.30267-0.1787 0.73067 0.1253 0.964 0.1227 0.0973 0.2747 0.152 0.4267 0.152"/>
    <path d="m1877.8 915.76c-0.3587 0.16533-0.5107 0.56533-0.3587 0.90933 0.124 0.26267 0.372 0.41334 0.6334 0.41334 0.097 0 0.1933-0.0133 0.2893-0.0547 0.3453-0.16533 0.4973-0.56533 0.3453-0.924-0.1653-0.344-0.5653-0.496-0.9093-0.344"/>
    <path d="m1893.5 915.68c-0.344-0.152-0.7573 0-0.9093 0.35867-0.1507 0.344 0.013 0.744 0.3586 0.90933 0.096 0.0267 0.1787 0.0547 0.276 0.0547 0.2614 0 0.5227-0.16534 0.6334-0.42667v0.0133c0.152-0.35866-0.015-0.75733-0.3587-0.90933"/>
    <path d="m1891.2 918.12c-0.2613 0.28933-0.2347 0.716 0.041 0.97867 0.1374 0.124 0.3027 0.17866 0.4694 0.17866 0.1786 0 0.3706-0.068 0.5093-0.22 0.248-0.276 0.2333-0.716-0.041-0.97866-0.2894-0.248-0.7307-0.23467-0.9787 0.0413"/>
    <path d="m1879.1 918.16c-0.2747 0.26133-0.2893 0.68933-0.028 0.964 0.1387 0.152 0.3173 0.22133 0.4973 0.22133 0.1787 0 0.344-0.056 0.4814-0.18 0.276-0.26133 0.2906-0.70266 0.028-0.97866-0.2627-0.27467-0.7027-0.28934-0.9787-0.0267"/>
    <path d="m1889.3 919.66c-0.344 0.19333-0.4547 0.60667-0.276 0.936 0.124 0.236 0.3587 0.35867 0.6067 0.35867 0.1106 0 0.22-0.0267 0.3306-0.0827 0.3307-0.17867 0.4547-0.60533 0.2747-0.93733-0.192-0.32934-0.6053-0.45334-0.936-0.27467"/>
    <path d="m1893.9 912.98c-0.3867-0.028-0.716 0.26133-0.744 0.63333-0.028 0.38667 0.248 0.71734 0.6333 0.74534h0.056c0.3574 0 0.6614-0.276 0.688-0.63467 0.028-0.38533-0.2613-0.716-0.6333-0.744"/>
    <path d="m1882.1 919.7c-0.344-0.17867-0.7587-0.0413-0.9373 0.28933-0.1787 0.33067-0.055 0.744 0.276 0.924 0.1093 0.0547 0.22 0.0813 0.3306 0.0813 0.248 0 0.4827-0.12267 0.6054-0.35734 0.18-0.33066 0.056-0.75733-0.2747-0.93733"/>
    <path d="m1884.4 920.5c-0.372-0.0547-0.7307 0.19333-0.7853 0.56533-0.069 0.38534 0.192 0.72934 0.564 0.79867h0.1106c0.3307 0 0.62-0.23467 0.6747-0.57867 0.069-0.372-0.192-0.73066-0.564-0.78533"/>
    <path d="m1886.9 920.49c-0.372 0.0693-0.6347 0.41333-0.5653 0.79867 0.055 0.33066 0.344 0.56533 0.6746 0.56533 0.043 0 0.083 0 0.1254-0.0133 0.372-0.056 0.6186-0.41334 0.564-0.78667-0.068-0.372-0.4267-0.63333-0.7987-0.564"/>
    <path d="m1677 1136.2c2.3293 0 4.224 1.8947 4.224 4.224s-1.8947 4.2253-4.224 4.2253-4.224-1.896-4.224-4.2253 1.8947-4.224 4.224-4.224m6.98 4.224c0-3.848-3.1307-6.98-6.98-6.98s-6.98 3.132-6.98 6.98c0 3.8493 3.1307 6.9813 6.98 6.9813 1.936 0 3.688-0.7946 4.9547-2.072l22.768 22.449 1.2106-1.2267-22.937-22.616c0.6093-1.0373 0.984-2.228 0.984-3.516"/>
    <path d="m2090.4 1128c0-2.3293 1.896-4.224 4.2253-4.224 2.3294 0 4.2254 1.8947 4.2254 4.224s-1.896 4.224-4.2254 4.224c-2.3293 0-4.2253-1.8947-4.2253-4.224m4.2253-6.98c-1.4733 0-2.8373 0.464-3.964 1.2467l-21.896-25-1.3026 1.128 21.928 25.036c-1.0734 1.228-1.7467 2.8146-1.7467 4.5693 0 3.8493 3.132 6.98 6.9813 6.98 3.8494 0 6.9814-3.1307 6.9814-6.98s-3.132-6.98-6.9814-6.98"/>
    <path d="m1867.4 936.97c-2.3293 0-4.2253-1.8947-4.2253-4.224s1.896-4.2267 4.2253-4.2267 4.224 1.8973 4.224 4.2267-1.8947 4.224-4.224 4.224m36.541-8.4507c2.3294 0 4.224 1.8973 4.224 4.2267s-1.8946 4.224-4.224 4.224c-2.3293 0-4.224-1.8947-4.224-4.224s1.8947-4.2267 4.224-4.2267m-17.409 96.919v-38.668c3.44-0.42933 6.12-3.3387 6.12-6.8933 0-3.8493-3.132-6.9813-6.9813-6.9813-3.8494 0-6.9814 3.132-6.9814 6.9813 0 3.5547 2.68 6.464 6.12 6.8933v39.047l-10.587-56.009 11.448-11.448 11.027 11.028zm4.02 2.2734 11.456-21.428c0.6187 0.18 1.2587 0.3066 1.9333 0.3066 3.8494 0 6.98-3.1306 6.98-6.98 0-3.8507-3.1306-6.9813-6.98-6.9813-3.8493 0-6.98 3.1307-6.98 6.9813 0 2.5587 1.3987 4.776 3.4574 5.992l-12.923 24.171 10.684-58.904 24.607 24.608zm131.42 66.949-36.592 36.592-14.2-14.199 7.2254-7.224c1.1093 0.7094 2.396 1.1 3.748 1.1 1.868 0 3.6213-0.7253 4.936-2.0413 2.7226-2.7227 2.7226-7.1507 0-9.8733-1.316-1.3174-3.0694-2.0427-4.936-2.0427-1.8667 0-3.62 0.7253-4.936 2.0427-2.6707 2.6706-2.7054 6.9706-0.1387 9.704l-7.116 7.1173-11.624-11.624 21.2-21.201c1.088 0.6693 2.3347 1.0466 3.648 1.0466 1.868 0 3.6213-0.7253 4.936-2.0413 2.7227-2.7227 2.7227-7.1507 0-9.8733-1.316-1.3174-3.0693-2.0427-4.936-2.0427s-3.62 0.7253-4.936 2.0427c-2.696 2.6973-2.7133 7.06-0.069 9.788l-21.061 21.063-11.841-11.841 7.2053-7.2053c1.1294 0.7453 2.448 1.148 3.8307 1.148 1.864 0 3.6173-0.7267 4.936-2.0454 2.7227-2.7226 2.7227-7.1506 0-9.872-1.3187-1.32-3.072-2.0466-4.936-2.0466s-3.6173 0.7266-4.936 2.0466c-2.6493 2.648-2.6987 6.8974-0.1947 9.6334l-7.124 7.1226-16.089-16.089 7.172-7.1707c1.1947 0.8894 2.6253 1.392 4.1467 1.392 1.8666 0 3.62-0.7253 4.936-2.0413 2.7213-2.7227 2.7213-7.1507 0-9.872-1.3174-1.3187-3.0707-2.044-4.9374-2.044-1.8666 0-3.6186 0.7253-4.9346 2.044-1.3174 1.316-2.0427 3.0693-2.0427 4.936 0 1.6267 0.5787 3.148 1.592 4.388l-7.1507 7.1493-11.811-11.811 21.113-21.113c1.2187 0.9494 2.6933 1.492 4.268 1.492 1.8667 0 3.62-0.7253 4.936-2.0413 2.7213-2.7227 2.7213-7.1507 0-9.8733-1.3173-1.3174-3.0707-2.0427-4.9373-2.0427-1.8667 0-3.6187 0.7253-4.9347 2.0427-1.3173 1.3173-2.0427 3.0706-2.0427 4.9373 0 1.572 0.5414 3.048 1.492 4.2653l-21.113 21.115-11.524-11.524 7.1773-7.1787c1.1787 0.8547 2.5854 1.3334 4.0747 1.3334 1.8667 0 3.62-0.7254 4.936-2.0414 2.7213-2.7226 2.7213-7.1506 0-9.872-1.3173-1.3186-3.0707-2.044-4.9373-2.044-1.8667 0-3.6187 0.7254-4.9347 2.044-1.3173 1.316-2.0427 3.0694-2.0427 4.936 0 1.6574 0.6 3.208 1.6507 4.46l-7.144 7.144-12.836-12.837 36.592-36.592zm1.8707 75.949-36.263-36.261h29.901c-0.013 0.1827-0.055 0.3573-0.055 0.5427 0 3.8493 3.132 6.98 6.9813 6.98 3.848 0 6.98-3.1307 6.98-6.98 0-3.8494-3.132-6.98-6.98-6.98-3.052 0-5.6253 1.9813-6.572 4.7146h-29.932l36.016-36.016 36.961 36.961zm-135.78 62.595 13.539-13.539 6.1214 6.1214c-0.808 1.1586-1.2534 2.5306-1.2534 3.976 0 1.8666 0.7254 3.62 2.0427 4.936 1.3147 1.316 3.068 2.0413 4.936 2.0413 1.8667 0 3.62-0.7253 4.936-2.0413 2.7213-2.7227 2.7213-7.1494 0-9.872-1.3173-1.3174-3.0707-2.0427-4.9373-2.0427-1.7014 0-3.2894 0.628-4.5574 1.732l-6.0693-6.0707 11.623-11.623 20.083 20.081c-0.7693 1.1413-1.184 2.484-1.184 3.892 0 1.8667 0.7254 3.62 2.0427 4.9373 1.3147 1.316 3.068 2.0414 4.936 2.0414 1.8667 0 3.62-0.7254 4.936-2.0414 2.7213-2.7226 2.7213-7.1506 0-9.8733-1.3173-1.3173-3.0707-2.0427-4.9373-2.0427-1.7374 0-3.3614 0.652-4.6414 1.8014l-20.016-20.015 11.84-11.84 6.116 6.116c-0.8413 1.1733-1.3093 2.568-1.3093 4.044 0 1.8667 0.7253 3.62 2.0427 4.936 1.3146 1.3173 3.068 2.0427 4.936 2.0427 1.8666 0 3.62-0.7254 4.936-2.0427 2.7213-2.7213 2.7213-7.1493 0-9.872-1.3174-1.3173-3.0707-2.0427-4.9374-2.0427-1.6706 0-3.232 0.6094-4.4893 1.676l-6.076-6.076 16.089-16.089 6.0907 6.0893c-2.2027 2.74-2.0653 6.7494 0.476 9.2894 1.3187 1.32 3.072 2.0466 4.936 2.0466s3.6173-0.7266 4.936-2.0466c2.7227-2.7214 2.7227-7.1494 0-9.872-1.3187-1.3187-3.072-2.0454-4.936-2.0454-1.5333 0-2.976 0.5147-4.18 1.424l-6.104-6.104 11.811-11.811 20.032 20.031c-2.3067 2.7414-2.2014 6.832 0.3773 9.412 1.3147 1.316 3.068 2.0414 4.936 2.0414s3.6213-0.7254 4.936-2.0414c2.7227-2.7226 2.7227-7.1506 0-9.8733-1.316-1.3173-3.0693-2.0427-4.936-2.0427-1.4813 0-2.8813 0.4734-4.0587 1.3214l-20.067-20.068 11.525-11.524 6.0933 6.0933c-0.96 1.2227-1.5066 2.704-1.5066 4.2827 0 1.8653 0.7253 3.6186 2.044 4.936 1.3146 1.3173 3.068 2.0426 4.936 2.0426 1.8666 0 3.62-0.7253 4.936-2.0426 1.3173-1.316 2.044-3.0694 2.044-4.936 0-1.8654-0.7254-3.6187-2.044-4.936-1.316-1.3174-3.0694-2.0427-4.936-2.0427-1.5667 0-3.036 0.5373-4.252 1.48l-6.0974-6.096 13.497-13.497 36.592 36.592-97.236 97.237zm-3.2574 2.5173v30.217c-3.7186 0.1506-6.7026 3.1986-6.7026 6.9533 0 3.8493 3.132 6.98 6.9826 6.98 3.848 0 6.98-3.1307 6.98-6.98 0-3.3547-2.38-6.1613-5.5373-6.828v-30.499l36.177 36.179-37.039 37.04-36.961-36.961zm-101.22-103.1h-29.619c-0.4667-3.3986-3.3587-6.0346-6.884-6.0346-3.8493 0-6.9813 3.1306-6.9813 6.98 0 3.8506 3.132 6.9813 6.9813 6.9813 3.5827 0 6.508-2.7227 6.9013-6.204h29.925l-36.34 36.34-37.117-37.117 37.04-37.04zm99.684-98.687-13.497 13.497-7.936-7.9387c2.1147-2.736 1.9467-6.676-0.5613-9.184-1.3173-1.3186-3.0707-2.044-4.9373-2.044-1.868 0-3.62 0.7254-4.936 2.044-2.7214 2.7214-2.7214 7.1494 0 9.872 1.316 1.316 3.0693 2.0414 4.936 2.0414 1.5813 0 3.064-0.5467 4.284-1.504l7.932 7.932-11.624 11.623-21.897-21.897c2.0454-2.732 1.852-6.6187-0.6306-9.1013-1.316-1.3174-3.0694-2.0427-4.936-2.0427-1.8667 0-3.62 0.7253-4.936 2.0427-2.7227 2.7226-2.7227 7.1506 0 9.8733 1.316 1.316 3.0693 2.0413 4.936 2.0413 1.6173 0 3.1306-0.5733 4.368-1.5746l21.879 21.877-11.84 11.84-7.932-7.9307c2.1734-2.7373 2.0254-6.724-0.504-9.2533-1.316-1.3187-3.0706-2.044-4.9373-2.044s-3.62 0.7253-4.936 2.044c-2.7227 2.7213-2.7227 7.1493 0 9.872 1.316 1.316 3.0693 2.0413 4.936 2.0413 1.5507 0 3.0067-0.5253 4.216-1.4493l7.9373 7.94-16.089 16.089-7.9013-7.904c2.4426-2.7373 2.376-6.9373-0.2507-9.564-1.316-1.3186-3.0707-2.044-4.936-2.044-1.8667 0-3.6213 0.7254-4.9373 2.044-2.7227 2.7214-2.7227 7.1494 0 9.872 1.3146 1.316 3.0693 2.0414 4.9373 2.0414 1.4147 0 2.7613-0.42 3.904-1.1934l7.9667 7.9654-11.812 11.812-21.844-21.844c1.2106-1.2947 1.8906-2.9654 1.8906-4.7507 0-1.8667-0.7253-3.6213-2.0426-4.9373-1.3174-1.3174-3.0694-2.0427-4.936-2.0427-1.8667 0-3.62 0.7253-4.9374 2.0427-2.7213 2.7226-2.7213 7.1506 0 9.8733 1.316 1.316 3.0694 2.0413 4.936 2.0413 1.36 0 2.6534-0.3946 3.7667-1.1106l21.948 21.947-11.525 11.525-7.908-7.9094c1.104-1.268 1.732-2.8573 1.732-4.5573 0-1.8667-0.7254-3.62-2.0427-4.9373-1.3173-1.3187-3.072-2.0454-4.936-2.0454-1.8627 0-3.6173 0.7267-4.9373 2.0454-2.7214 2.7226-2.7214 7.1506 0 9.8733 1.32 1.3187 3.0746 2.0453 4.9373 2.0453 1.444 0 2.816-0.4466 3.976-1.256l7.96 7.9587-13.539 13.539-36.592-36.592 97.237-97.236zm0.4346-4.6627-12.255-24.007c1.764-1.268 2.9253-3.3266 2.9253-5.66 0-3.8507-3.1307-6.9813-6.98-6.9813-3.8507 0-6.9813 3.1307-6.9813 6.9813 0 3.8494 3.1306 6.98 6.9813 6.98 0.8987 0 1.752-0.1853 2.5413-0.4946l11.067 21.68-32.377-32.377 24.117-24.116zm20.232-25.443c-2.3293 0-4.224-1.8946-4.224-4.224 0-2.3293 1.8947-4.2253 4.224-4.2253 2.3294 0 4.224 1.896 4.224 4.2253 0 2.3294-1.8946 4.224-4.224 4.224m6.5227 28.428c0.7973-0.796 1.8573-1.2346 2.988-1.2346s2.1907 0.4386 2.988 1.2346c1.6453 1.648 1.6453 4.328 0 5.976-1.648 1.6467-4.328 1.6467-5.976 0-1.6467-1.648-1.6467-4.328 0-5.976m26.872 4.9414c-1.6467-1.6467-1.6467-4.328 0-5.9747 0.7973-0.7973 1.8573-1.236 2.988-1.236s2.1907 0.4387 2.988 1.236c1.6453 1.6467 1.6453 4.328 0 5.9747-1.648 1.648-4.328 1.648-5.976 0m-1.0333 20.897c0.7973-0.796 1.8573-1.2347 2.988-1.2347 1.1306 0 2.1906 0.4387 2.988 1.2347 1.6453 1.6467 1.6453 4.328 0 5.9747-1.648 1.648-4.328 1.648-5.976 0-1.6467-1.6467-1.6467-4.328 0-5.9747m17.025 23c-1.6453-1.6467-1.6453-4.328 0-5.9747 0.7987-0.7986 1.8587-1.2386 2.988-1.2386s2.1893 0.44 2.988 1.2386c1.6453 1.6467 1.6453 4.328 0 5.9747-1.5133 1.5133-4.4627 1.5133-5.976 0m29.86-8.244c1.1307 0 2.1907 0.4387 2.988 1.236 1.6453 1.6467 1.6453 4.328 0 5.9747-1.648 1.648-4.328 1.648-5.976 0-1.6453-1.6467-1.6453-4.328 0-5.9747 0.7973-0.7973 1.8573-1.236 2.988-1.236m-1.0333 26.872c1.1306 0 2.1906 0.4387 2.988 1.236 1.6453 1.6467 1.6453 4.328 0 5.9747-1.648 1.648-4.328 1.648-5.976 0-1.6454-1.6467-1.6454-4.328 0-5.9747 0.7973-0.7973 1.8573-1.236 2.988-1.236m42.255 39.387c-2.3306 0-4.2253-1.8947-4.2253-4.224 0-2.3294 1.8947-4.224 4.2253-4.224 2.3294 0 4.224 1.8946 4.224 4.224 0 2.3293-1.8946 4.224-4.224 4.224m-45.243 18.957c0.7973-0.7973 1.8573-1.236 2.988-1.236 1.1306 0 2.1906 0.4387 2.988 1.236 0.7973 0.7973 1.236 1.8587 1.236 2.9867 0 1.1293-0.4387 2.1893-1.236 2.988-1.648 1.6466-4.328 1.6466-5.976 0-0.7974-0.7987-1.236-1.8587-1.236-2.988 0-1.128 0.4386-2.1894 1.236-2.9867m0.788 27.465 1.2146-1.2226-0.048-0.047c0.6254-0.3533 1.3267-0.5587 2.0667-0.5587 1.1307 0 2.1907 0.4387 2.988 1.236 1.6453 1.6467 1.6453 4.328 0 5.9747-1.648 1.648-4.328 1.648-5.976 0-1.5013-1.504-1.616-3.86-0.376-5.5133zm-26.627 4.3494c-1.6453-1.6467-1.6453-4.328 0-5.9747 0.7987-0.7987 1.8587-1.2387 2.988-1.2387s2.1893 0.44 2.988 1.2387c1.6453 1.6467 1.6453 4.328 0 5.9747-1.5133 1.512-4.4627 1.512-5.976 0m-17.025 11.051c0.7973-0.7973 1.8573-1.236 2.988-1.236 1.1306 0 2.1906 0.4387 2.988 1.236 1.6453 1.6467 1.6453 4.3267 0 5.9747-1.648 1.6467-4.328 1.6467-5.976 0-1.6467-1.648-1.6467-4.328 0-5.9747m0.252 27.993 1.2187-1.2187-0.144-0.1453c0.7573-0.632 1.692-0.9934 2.6933-0.9934 1.1307 0 2.1907 0.4387 2.988 1.236 1.6453 1.6467 1.6453 4.328 0 5.9747-1.648 1.6467-4.328 1.6467-5.976 0-1.312-1.3133-1.56-3.2747-0.7813-4.8533m-26.091-2.156c0.7973-0.796 1.8573-1.2347 2.988-1.2347s2.1907 0.4387 2.988 1.2347c1.6453 1.648 1.6453 4.328 0 5.976-1.648 1.6466-4.328 1.6466-5.976 0-1.6467-1.648-1.6467-4.328 0-5.976m-124.35-90.731 12.836 12.836-6.8507 6.852c-1.2546-1.0533-2.8053-1.6547-4.4613-1.6547-1.8627 0-3.6173 0.7267-4.9373 2.0454-1.3187 1.32-2.044 3.072-2.044 4.936 0 1.8653 0.7253 3.6186 2.044 4.936 1.32 1.32 3.0746 2.0466 4.9373 2.0466 1.864 0 3.6187-0.7266 4.936-2.0466 1.3187-1.316 2.0453-3.0694 2.0453-4.936 0-1.4867-0.48-2.892-1.336-4.0734l6.8854-6.8866 11.624 11.624-20.812 20.813c-1.24-1.008-2.7574-1.5853-4.3774-1.5853-1.8626 0-3.616 0.7266-4.936 2.0453-2.7213 2.7227-2.7213 7.1507 0 9.8733 1.32 1.3187 3.0734 2.0454 4.936 2.0454 1.8654 0 3.6187-0.7267 4.9374-2.0454 1.3173-1.3173 2.0426-3.0706 2.0426-4.9373 0-1.5253-0.508-2.96-1.404-4.1587l20.832-20.832 11.84 11.841-6.8453 6.8453c-1.2627-1.088-2.84-1.708-4.528-1.708-1.8667 0-3.6213 0.7253-4.9373 2.0427-2.7227 2.7226-2.7227 7.1506 0 9.872 1.3146 1.3173 3.0693 2.0426 4.9373 2.0426 1.8667 0 3.6213-0.7253 4.936-2.0426 2.432-2.432 2.6747-6.216 0.7613-8.9387l6.8947-6.8947 16.089 16.089-6.8173 6.8173c-1.3067-1.2613-3.016-1.9627-4.84-1.9627-1.8667 0-3.62 0.7254-4.936 2.0427-2.7227 2.7227-2.7227 7.1507 0 9.872 1.316 1.3173 3.0693 2.0427 4.936 2.0427s3.6213-0.7254 4.9373-2.0427c2.332-2.332 2.6494-5.908 0.9867-8.5987l6.952-6.952 11.812 11.811-20.765 20.765c-0.01-0.01-0.012-0.017-0.02-0.025-1.316-1.3173-3.0694-2.0427-4.936-2.0427-1.8667 0-3.62 0.7254-4.936 2.0427-2.7227 2.7227-2.7227 7.1507 0 9.8733 1.316 1.316 3.0693 2.0414 4.936 2.0414 1.8666 0 3.62-0.7254 4.936-2.0414 2.292-2.292 2.6293-5.7813 1.064-8.4546l20.939-20.94 11.525 11.525-6.824 6.824c-1.2974-1.22-2.9734-1.904-4.7667-1.904-1.8667 0-3.62 0.7253-4.936 2.0427-2.7214 2.7226-2.7214 7.1493 0 9.872 1.316 1.316 3.0693 2.0413 4.936 2.0413 1.868 0 3.6213-0.7253 4.9373-2.0413 2.356-2.356 2.664-5.984 0.9413-8.684l6.932-6.932 14.199 14.199-36.592 36.592-97.237-97.237zm-43.253-2.4733c0-2.3294 1.8946-4.224 4.2253-4.224 2.3293 0 4.224 1.8946 4.224 4.224 0 2.3293-1.8947 4.2253-4.224 4.2253-2.3307 0-4.2253-1.896-4.2253-4.2253m41.789-26.632c-1.6467-1.6467-1.6467-4.328 0-5.9747 0.7973-0.7987 1.86-1.2387 2.988-1.2387s2.1893 0.44 2.9867 1.2387c0.7973 0.7973 1.236 1.8573 1.236 2.988s-0.4387 2.1907-1.236 2.9867c-0.756 0.7586-1.844 1.192-2.984 1.1933-1.1413 0-2.2307-0.4347-2.988-1.1933m4.9413-26.872c-1.6466 1.648-4.328 1.648-5.9746 0-1.6467-1.6467-1.6467-4.328 0-5.9747 0.796-0.7973 1.8573-1.236 2.9866-1.236 1.1307 0 2.192 0.4387 2.988 1.236 0.7974 0.796 1.236 1.8573 1.236 2.988 0 1.1293-0.4386 2.1907-1.236 2.9867m23.887-6.1774c1.1293 0 2.1907 0.44 2.9867 1.236 1.6466 1.6467 1.6466 4.328 0 5.9747-1.6467 1.648-4.328 1.648-5.9747 0-1.6467-1.6467-1.6467-4.328 0-5.9747 0.796-0.796 1.8573-1.236 2.988-1.236m17.024-17.024c1.1307 0 2.192 0.4387 2.988 1.2347 1.648 1.6467 1.648 4.328 0 5.9747-1.6467 1.648-4.328 1.648-5.9747 0-1.648-1.6467-1.648-4.328 0-5.9747 0.796-0.796 1.8574-1.2347 2.9867-1.2347m-1.0333-26.873c1.1306 0 2.1906 0.4387 2.988 1.236 1.6466 1.6467 1.6466 4.328 0 5.9747-1.6467 1.648-4.328 1.648-5.9747 0-1.648-1.6467-1.648-4.328 0-5.9747 0.796-0.7973 1.856-1.236 2.9867-1.236m26.872 1.0347c1.1306 0 2.192 0.4386 2.988 1.2346 1.648 1.648 1.648 4.328 0 5.976-0.7947 0.796-1.8547 1.2347-2.984 1.236-1.1293 0-2.1907-0.44-2.988-1.236-1.6467-1.648-1.6467-4.328 0-5.976 0.796-0.796 1.8573-1.2346 2.9867-1.2346m2.988 195.75c1.648 1.648 1.648 4.328 0 5.976-1.5907 1.5933-4.3814 1.5933-5.9747 0-1.6467-1.648-1.6467-4.328 0-5.976 1.6467-1.6467 4.328-1.6467 5.9747 0m-29.86-0.2014c1.1306 0 2.1906 0.4387 2.988 1.236 1.6466 1.6467 1.6466 4.328 0 5.9747-1.6467 1.6467-4.328 1.6467-5.9747 0-1.648-1.6467-1.648-4.328 0-5.9747 0.796-0.7973 1.856-1.236 2.9867-1.236m1.0333-26.872c1.1307 0 2.192 0.4387 2.988 1.236 1.648 1.6467 1.648 4.3267 0 5.9747-1.6467 1.6467-4.328 1.6467-5.9747 0-1.648-1.648-1.648-4.328 0-5.9747 0.796-0.7973 1.8574-1.236 2.9867-1.236m-17.024-17.025c1.1293 0 2.1907 0.4387 2.9867 1.236 1.6466 1.6467 1.6466 4.328 0 5.9747-1.6467 1.6466-4.328 1.6466-5.9747 0-1.6467-1.6467-1.6467-4.328 0-5.9747 0.796-0.7973 1.8573-1.236 2.988-1.236m-26.872 9.436c-1.1427 0-2.2307-0.4347-2.988-1.192-1.6467-1.6467-1.6467-4.328 0-5.9747 0.7973-0.7986 1.86-1.2386 2.9866-1.2386 1.1294 0 2.1907 0.44 2.988 1.2386 0.7974 0.796 1.236 1.8574 1.236 2.9867 0 1.1307-0.4386 2.192-1.236 2.988-0.756 0.7573-1.844 1.1907-2.9853 1.192m1.032-26.875c-1.1413 0-2.232-0.4333-2.988-1.1906-0.7987-0.7987-1.2373-1.8587-1.2373-2.988 0-1.128 0.4386-2.1894 1.2373-2.9867 0.7973-0.7987 1.86-1.2387 2.988-1.2387s2.1893 0.44 2.9867 1.2387c0.7986 0.7973 1.2386 1.8587 1.2386 2.9867 0 1.1293-0.44 2.1893-1.2386 2.988-0.756 0.7573-1.8454 1.1906-2.9867 1.1906m98.031-127.85 96.183 96.181-12.971 12.971-0.063-0.064-1.212 1.2254 0.057 0.056-24.556 24.556-0.061-0.061-1.2147 1.2214 0.057 0.059-16.089 16.089-0.061-0.061-1.2147 1.2214 0.057 0.059-24.681 24.681-0.06-0.06-1.22 1.22 0.06 0.059-13.011 13.012-96.183-96.183zm-0.5814 239.73c-2.3306 0-4.2266-1.8947-4.2266-4.224s1.896-4.2253 4.2266-4.2253c2.3294 0 4.224 1.896 4.224 4.2253s-1.8946 4.224-4.224 4.224m0.5814-293.01c-2.3307 0-4.2254-1.896-4.2254-4.2253 0-2.3293 1.8947-4.2253 4.2254-4.2253 2.3293 0 4.2253 1.896 4.2253 4.2253 0 2.3293-1.896 4.2253-4.2253 4.2253m-22.496 15.508c0-2.3293 1.896-4.2253 4.2253-4.2253s4.224 1.896 4.224 4.2253c0 2.3294-1.8947 4.224-4.224 4.224s-4.2253-1.8946-4.2253-4.224m40.656-59.895c0.037 0 0.073 0.0107 0.1106 0.0107 3.8494 0 6.98-3.132 6.98-6.98 0-3.8507-3.1306-6.9827-6.98-6.9827-3.8493 0-6.98 3.132-6.98 6.9827 0 3.2173 2.1987 5.9053 5.1654 6.7107l-4.532 24.983-11.924-11.925-12.377 12.376-4.7773-25.277c3.3173-0.53867 5.864-3.4 5.864-6.8667 0-3.8507-3.1307-6.9827-6.98-6.9827-3.8507 0-6.9813 3.132-6.9813 6.9827 0 3.6333 2.8013 6.5933 6.3533 6.916l5.0467 26.703-167.21 167.21 181.06 181.06 181.06-181.06-167.65-167.65z"/>
    <path d="m1893.3 1349.6c-2.3293 0-4.2253-1.8947-4.2253-4.224s1.896-4.2267 4.2253-4.2267 4.224 1.8974 4.224 4.2267-1.8947 4.224-4.224 4.224m29.952-31.78-25.275 22.409c-1.24-1.1293-2.872-1.836-4.6773-1.836-3.8507 0-6.9813 3.132-6.9813 6.9827 0 3.848 3.1306 6.98 6.9813 6.98 3.8493 0 6.98-3.132 6.98-6.98 0-1.424-0.432-2.7467-1.1653-3.8507l25.279-22.415z"/>
   </g>
   <path d="m2235.8 1163.6h5.912v5.9106h-5.912zm0.728 26.721h5.912v5.9107h-5.912zm-26.493-0.956h5.9107v5.9107h-5.9107zm-16.464 16.464h5.9107v5.9107h-5.9107zm0.7267 26.72h5.912v5.912h-5.912zm-26.492-0.9547h5.9107v5.912h-5.9107zm-16.464 16.465h5.9107v5.9106h-5.9107zm0.728 26.72h5.9107v5.912h-5.9107zm-26.495-0.956h5.9107v5.912h-5.9107zm-16.464 16.465h5.9107v5.9107h-5.9107zm0.728 26.721h5.912v5.9107h-5.912zm-26.493-0.956h5.9107v5.9107h-5.9107zm-16.465 16.464h5.9106v5.912h-5.9106zm0.7293 26.721h5.912v5.9106h-5.912zm-26.495-0.956h5.9107v5.9106h-5.9107zm-16.464 16.465h5.9107v5.9107h-5.9107zm0.7294 26.721h5.9106v5.9107h-5.9106zm-26.496-0.956h5.912v5.9107h-5.912zm-16.464 16.464h5.9106v5.9107h-5.9106zm0.7293 26.721h5.9107v5.9106h-5.9107zm-26.495-0.9547h5.912v5.9106h-5.912zm-16.464 16.464h5.9107v5.9106h-5.9107zm0.7294 26.72h5.9106v5.912h-5.9106zm-26.495-0.956h5.9107v5.912h-5.9107zm-57.944 6.0253h-5.9107v-5.9107h5.9107zm-26.72 0.728h-5.912v-5.9107h5.912zm0.956-26.495h-5.912v-5.9106h5.912zm-16.465-16.464h-5.9107v-5.9106h5.9107zm-26.721 0.7294h-5.912v-5.912h5.912zm0.956-26.493h-5.9106v-5.912h5.9106zm-16.465-16.465h-5.9107v-5.9106h5.9107zm-26.72 0.7294h-5.9107v-5.912h5.9107zm0.956-26.495h-5.9107v-5.9107h5.9107zm-16.464-16.465h-5.912v-5.9107h5.912zm-26.721 0.7293h-5.912v-5.9107h5.912zm0.956-26.493h-5.912v-5.9107h5.912zm-16.465-16.464h-5.9106v-5.912h5.9106zm-26.72 0.728h-5.912v-5.9107h5.912zm0.9547-26.495h-5.9107v-5.9107h5.9107zm-16.465-16.464h-5.9107v-5.9107h5.9107zm-26.72 0.728h-5.9107v-5.9107h5.9107zm0.956-26.493h-5.9107v-5.9107h5.9107zm-16.464-16.464h-5.912v-5.9107h5.912zm-26.721 0.728h-5.9106v-5.9107h5.9106zm0.9547-26.493h-5.9107v-5.912h5.9107zm-16.464-16.465h-5.9107v-5.9107h5.9107zm-26.721 0.7293h-5.9107v-5.912h5.9107zm0.956-26.493h-5.9107v-5.912h5.9107zm-0.2267-65.649h-5.912v-5.9107h5.912zm-0.7293-26.721h-5.9107v-5.9106h5.9107zm26.495 0.9547h-5.912v-5.9107h5.912zm16.464-16.464h-5.9106v-5.9107h5.9106zm-0.728-26.721h-5.9106v-5.9107h5.9106zm26.492 0.9573h-5.9106v-5.912h5.9106zm16.465-16.465h-5.9107v-5.9107h5.9107zm-0.728-26.72h-5.9107v-5.912h5.9107zm26.493 0.95467h-5.9107v-5.912h5.9107zm16.465-16.465h-5.912v-5.9107h5.912zm-0.728-26.72h-5.912v-5.9107h5.912zm26.492 0.956h-5.9106v-5.9107h5.9106zm16.464-16.464h-5.9106v-5.912h5.9106zm-0.7266-26.721h-5.912v-5.9107h5.912zm26.493 0.95467h-5.9107v-5.9107h5.9107zm16.464-16.464h-5.9107v-5.912h5.9107zm-0.728-26.721h-5.9107v-5.9107h5.9107zm26.493 0.956h-5.9106v-5.9107h5.9106zm16.464-16.464h-5.9106v-5.9107h5.9106zm-0.728-26.721h-5.912v-5.9107h5.912zm26.495 0.95466h-5.9107v-5.9107h5.9107zm16.464-16.464h-5.9107v-5.9107h5.9107zm-0.728-26.72h-5.912v-5.912h5.912zm26.493 0.956h-5.9106v-5.912h5.9106zm57.944-6.0253h5.9107v5.9107h-5.9107zm26.721-0.728h5.9106v5.9107h-5.9106zm-0.956 26.492h5.9106v5.912h-5.9106zm16.464 16.467h5.9106v5.9107h-5.9106zm26.721-0.73067h5.9107v5.912h-5.9107zm-0.9547 26.495h5.9107v5.912h-5.9107zm16.464 16.465h5.9107v5.9107h-5.9107zm26.721-0.72934h5.9106v5.912h-5.9106zm-0.956 26.495h5.9106v5.9107h-5.9106zm16.464 16.464h5.9106v5.912h-5.9106zm26.721-0.728h5.912v5.9107h-5.912zm-0.956 26.493h5.912v5.9107h-5.912zm16.465 16.464h5.9107v5.912h-5.9107zm26.72-0.728h5.912v5.9107h-5.912zm-0.956 26.495h5.9107v5.9107h-5.9107zm16.465 16.464h5.9106v5.9107h-5.9106zm26.721-0.728h5.9107v5.9107h-5.9107zm-0.956 26.493h5.9107v5.9106h-5.9107zm16.464 16.464h5.912v5.9106h-5.912zm26.72-0.728h5.912v5.9106h-5.912zm-0.956 26.493h5.912v5.912h-5.912zm16.465 16.465h5.9107v5.9107h-5.9107zm26.721-0.7293h5.912v5.912h-5.912zm-0.956 26.493h5.9106v5.912h-5.9106zm1.9693 35.624-351.95 351.95-351.94-351.95 351.94-351.94zm5.936 1.8587h30.431l7.5013 7.5013 9.052-9.052-9.052-9.052-7.5013 7.5014h-29.815l-17.399-17.399 6.936-6.936h11.985v-14.18h-14.179v11.987l-6.936 6.936-10.576-10.576 20.661-20.661h11.987v-14.18h-14.18v11.988l-20.661 20.661-10.803-10.804 6.9373-6.9374h11.985v-14.179h-14.179v11.985l-6.9373 6.9387-14.272-14.272 6.9373-6.9374h11.987v-14.18h-14.18v11.988l-6.936 6.936-10.577-10.576 20.663-20.661h11.987v-14.179h-14.181v11.987l-20.66 20.66-10.804-10.803 6.9374-6.9373h11.988v-14.179h-14.181v11.985l-6.936 6.9373-14.272-14.272 6.9374-6.936h11.985v-14.179h-14.179v11.985l-6.936 6.9373-10.577-10.576 20.663-20.663h11.985v-14.179h-14.179v11.985l-20.663 20.663-10.803-10.803 6.9373-6.9387h11.987v-14.179h-14.179v11.985l-6.9386 6.9387-14.272-14.272 6.9386-6.9373h11.985v-14.179h-14.179v11.985l-6.9373 6.9387-10.576-10.576 20.663-20.663h11.987v-14.18h-14.181v11.985l-20.661 20.663-10.804-10.803 6.9374-6.936h11.988v-14.181h-14.18v11.987l-6.9374 6.9373-14.272-14.271 6.9374-6.9373h11.988v-14.18h-14.181v11.987l-6.9373 6.9373-10.575-10.575 20.661-20.664h11.987v-14.179h-14.18v11.985l-20.661 20.663-10.804-10.801 6.9373-6.9387h11.987v-14.18h-14.179v11.987l-6.9386 6.9373-14.271-14.272 6.9373-6.9373h11.987v-14.179h-14.179v11.985l-6.9386 6.9387-10.576-10.576 20.663-20.661h11.987v-14.181h-14.18v11.987l-20.663 20.663-10.803-10.803 6.9373-6.9373h11.985v-14.18h-14.179v11.987l-6.9374 6.9373-14.272-14.272 6.9374-6.936h11.987v-14.181h-14.179v11.987l-6.9387 6.9373-10.575-10.575 20.661-20.663h11.987v-14.18h-14.179v11.987l-20.663 20.663-10.804-10.804 6.9373-6.9373h11.987v-14.179h-14.179v11.987l-6.9386 6.9373-14.271-14.272 6.9373-6.9373h11.987v-14.18h-14.179v11.987l-6.9386 6.9373-10.576-10.576 20.661-20.661h11.988v-14.18h-14.18v11.987l-20.663 20.663-10.803-10.804 6.9373-6.9373h11.985v-14.18h-14.179v11.987l-6.9374 6.9373-17.531-17.531-17.957 17.957-7.2493-7.2493v-11.988h-14.179v14.18h11.985l7.2506 7.2493-10.577 10.576-20.973-20.973v-11.987h-14.181v14.18h11.987l20.975 20.975-10.803 10.803-7.2493-7.2507v-11.985h-14.18v14.179h11.987l7.2494 7.2493-14.271 14.272-7.2493-7.2507v-11.985h-14.18v14.179h11.987l7.2494 7.2507-10.576 10.576-20.975-20.976v-11.985h-14.18v14.179h11.987l20.975 20.976-10.803 10.803-7.2507-7.2507v-11.985h-14.179v14.179h11.987l7.2493 7.2507-14.271 14.271-7.2507-7.2493v-11.987h-14.179v14.179h11.987l7.2493 7.2507-10.576 10.576-20.975-20.975v-11.985h-14.18v14.179h11.985l20.976 20.975-10.804 10.803-7.2493-7.2493v-11.987h-14.18v14.18h11.987l7.2507 7.2493-14.272 14.272-7.2493-7.2493v-11.987h-14.18v14.179h11.987l7.2494 7.2507-10.576 10.575-20.973-20.973v-11.987h-14.18v14.179h11.987l20.975 20.975-10.804 10.804-7.2507-7.2507v-11.987h-14.179v14.18h11.987l7.2493 7.2493-14.271 14.272-7.2507-7.2507v-11.985h-14.179v14.179h11.987l7.2493 7.2507-10.576 10.576-20.973-20.973v-11.987h-14.181v14.179h11.987l20.975 20.975-10.803 10.803-7.2493-7.2507v-11.985h-14.181v14.179h11.988l7.2493 7.2493-14.272 14.273-7.2507-7.2506v-11.987h-14.179v14.18h11.987l7.2507 7.2493-10.577 10.577-20.973-20.975v-11.988h-14.179v14.18h11.985l20.975 20.975-10.804 10.803-7.2494-7.2493v-11.987h-14.179v14.18h11.985l7.2507 7.2494-14.272 14.272-7.2507-7.2507v-11.987h-14.179v14.181h11.987l7.2493 7.248-10.576 10.577-20.975-20.975v-11.987h-14.179v14.179h11.987l20.975 20.975-10.804 10.804-7.2493-7.2507v-11.985h-14.18v14.179h11.987l7.2493 7.2493-14.271 14.272-7.2506-7.2507v-11.985h-14.18v14.179h11.988l7.2493 7.2493-10.576 10.577-20.975-20.975v-11.987h-14.179v14.179h11.987l20.973 20.976-10.803 10.803-7.2493-7.2493v-11.987h-14.18v14.18h11.987l7.2494 7.2494-16.973 16.972h-28.619l-7.5014-7.5014-9.0506 9.052 9.0506 9.052 7.5014-7.5013h29.236l16.74 16.74-7.4067 7.4053h-11.987v14.18h14.18v-11.987l7.4067-7.4054 10.576 10.576-21.131 21.131h-11.987v14.18h14.179v-11.988l21.131-21.131 10.804 10.804-7.4067 7.4054h-11.985v14.18h14.179v-11.987l7.4053-7.4067 14.272 14.272-7.4053 7.4067h-11.987v14.18h14.179v-11.988l7.4066-7.4053 10.576 10.576-21.131 21.131h-11.987v14.179h14.179v-11.987l21.131-21.129 10.804 10.803-7.4066 7.4066h-11.987v14.179h14.181v-11.987l7.4054-7.4053 14.271 14.271-7.4066 7.4066h-11.985v14.179h14.18v-11.987l7.4054-7.4053 10.576 10.577-21.131 21.131h-11.985v14.179h14.179v-11.987l21.131-21.131 10.803 10.804-7.4067 7.4067h-11.985v14.179h14.179v-11.987l7.4067-7.4067 14.271 14.272-7.4054 7.4067h-11.985v14.179h14.179v-11.987l7.4053-7.4053 10.576 10.576-21.131 21.131h-11.987v14.179h14.181v-11.987l21.129-21.129 10.803 10.803-7.4053 7.4053h-11.987v14.18h14.18v-11.987l7.4053-7.4066 14.272 14.273-7.4066 7.4053h-11.987v14.179h14.181v-11.987l7.4054-7.4053 10.575 10.576-21.129 21.132h-11.987v14.179h14.18v-11.987l21.129-21.131 10.804 10.804-7.4067 7.4054h-11.987v14.179h14.18v-11.985l7.4054-7.4067 14.272 14.272-7.4067 7.4067h-11.985v14.179h14.179v-11.985l7.4067-7.4066 10.576 10.576-21.132 21.129h-11.985v14.18h14.18v-11.987l21.131-21.131 10.803 10.804-7.4067 7.4053h-11.987v14.179h14.18v-11.985l7.4066-7.4066 14.271 14.272-7.4053 7.4053h-11.987v14.18h14.18v-11.987l7.4053-7.4053 10.576 10.576-21.131 21.131h-11.987v14.18h14.18v-11.987l21.131-21.131 10.803 10.803-7.4053 7.4067h-11.987v14.179h14.179v-11.985l7.4067-7.4067 14.272 14.272-7.4067 7.4053h-11.987v14.179h14.18v-11.985l7.4054-7.4067 10.576 10.576-21.131 21.131h-11.987v14.179h14.181v-11.985l21.129-21.129 10.804 10.803-7.4067 7.4054h-11.987v14.179h14.18v-11.985l7.4066-7.4053 16.023 16.023v29.477l-7.5013 7.5013 9.052 9.052 9.0506-9.052-7.5013-7.5013v-29.477l15.94-15.939 7.2067 7.2066v11.988h14.179v-14.181h-11.985l-7.208-7.2067 10.576-10.576 20.932 20.932v11.987h14.18v-14.18h-11.988l-20.931-20.931 10.803-10.804 7.2067 7.2067v11.987h14.179v-14.179h-11.985l-7.2067-7.208 14.272-14.271 7.2054 7.2066v11.987h14.181v-14.179h-11.988l-7.2067-7.208 10.577-10.576 20.932 20.933v11.985h14.179v-14.18h-11.987l-20.931-20.932 10.803-10.803 7.2066 7.2067v11.987h14.179v-14.18h-11.987l-7.2066-7.2067 14.272-14.271 7.2066 7.2067v11.987h14.18v-14.18h-11.987l-7.2067-7.2067 10.575-10.576 20.933 20.932v11.985h14.18v-14.179h-11.987l-20.932-20.932 10.803-10.803 7.2067 7.2053v11.987h14.18v-14.179h-11.987l-7.2067-7.2066 14.271-14.272 7.2067 7.2066v11.987h14.18v-14.179h-11.985l-7.208-7.208 10.576-10.575 20.932 20.932v11.985h14.18v-14.18h-11.987l-20.932-20.932 10.804-10.803 7.2066 7.2067v11.988h14.179v-14.181h-11.987l-7.2066-7.2067 14.272-14.271 7.2066 7.2054v11.988h14.179v-14.18h-11.987l-7.2066-7.2067 10.576-10.576 20.932 20.932v11.985h14.181v-14.179h-11.987l-20.932-20.932 10.801-10.803 7.208 7.208v11.985h14.18v-14.179h-11.987l-7.208-7.208 14.272-14.272 7.2067 7.2066v11.988h14.18v-14.18h-11.987l-7.2067-7.2066 10.576-10.576 20.932 20.932v11.987h14.179v-14.181h-11.985l-20.932-20.931 10.803-10.803 7.208 7.2066v11.987h14.179v-14.18h-11.987l-7.2066-7.2067 14.271-14.272 7.208 7.2067v11.987h14.179v-14.18h-11.987l-7.2066-7.2067 10.576-10.576 20.931 20.931v11.988h14.181v-14.18h-11.987l-20.932-20.932 10.803-10.803 7.208 7.208v11.985h14.18v-14.179h-11.987l-7.208-7.208 14.271-14.271 7.208 7.208v11.985h14.18v-14.179h-11.987l-7.208-7.208 10.577-10.576 20.931 20.932v11.987h14.18v-14.18h-11.987l-20.931-20.932 10.803-10.803 7.2067 7.2066v11.985h14.18v-14.179h-11.987l-7.208-7.2067z" fill="#568d9f"/>
   <path d="m1885.2 744.87-4.18-4.18 4.18-4.18 4.18 4.18zm0 5.8453 10.025-10.025-8.4746-8.476v-57.892h-3.1014v57.892l-8.4746 8.476z" fill="#568d9f"/>
   <g fill="#bf8b34">
    <path d="m1829.2 928.52 41.175 41.175 15.236-15.236 15.237 15.236 41.173-41.175-56.411-56.411zm71.648 43.124-15.237-15.237-15.236 15.237-43.123-43.124 58.359-58.359 58.36 58.359z"/>
    <path d="m1830.2 928.52 40.199 40.2 15.237-15.236 15.237 15.236 40.2-40.2-55.437-55.436zm70.673 44.097-15.237-15.236-15.237 15.236-44.096-44.097 59.333-59.333 59.335 59.333z"/>
    <path d="m1829.2 1338.6 56.411 56.411 56.411-56.411-41.173-41.175-15.237 15.236-15.237-15.236zm56.411 58.359-58.359-58.359 43.121-43.124 15.237 15.237 15.237-15.237 43.123 43.124z"/>
    <path d="m1830.2 1338.6 55.436 55.436 55.437-55.436-40.2-40.201-15.237 15.237-15.237-15.237zm55.436 59.333-59.333-59.333 44.096-44.097 15.237 15.236 15.237-15.236 44.097 44.097z"/>
    <path d="m2049.5 1148.8 41.175 41.173 56.409-56.412-56.409-56.409-41.175 41.173 15.237 15.236zm41.175 43.123-43.123-43.123 15.236-15.239-15.236-15.236 43.123-43.123 58.359 58.359z"/>
    <path d="m2050.5 1148.8 40.2 40.199 55.435-55.437-55.435-55.436-40.2 40.2 15.237 15.236zm40.2 44.096-44.097-44.096 15.237-15.239-15.237-15.236 44.097-44.097 59.332 59.333z"/>
    <path d="m1624.2 1133.6 56.411 56.412 41.173-41.175-15.236-15.237 15.236-15.237-41.173-41.173zm56.411 58.36-58.359-58.36 58.359-58.359 43.123 43.121-15.237 15.237 15.237 15.237z"/>
    <path d="m1625.2 1133.6 55.436 55.437 40.199-40.2-15.236-15.237 15.236-15.237-40.199-40.199zm55.436 59.335-59.333-59.335 59.333-59.333 44.096 44.096-15.236 15.237 15.236 15.237z"/>
    <path d="m1625.2 1133.6 260.48 260.48 260.48-260.48-260.48-260.48zm260.48 264.38-264.38-264.38 264.38-264.38 264.38 264.38z"/>
    <path d="m1626.1 1133.6 259.51 259.51 259.51-259.51-259.51-259.51zm259.51 261.46-261.46-261.46 261.46-261.46 261.46 261.46zm-263.41-261.46 263.41 263.41 263.41-263.41-263.41-263.41zm263.41 265.36-265.36-265.36 265.36-265.35 265.35 265.35z"/>
    <path d="m1733.8 1067.5c-5.8 5.8-14.536 6.8693-21.423 3.2147 0.8294 1.5626 1.8987 3.0306 3.2147 4.3466 7.116 7.116 18.653 7.116 25.769 0s7.116-18.653 0-25.769c-1.316-1.316-2.784-2.3853-4.3466-3.2147 3.6546 6.8867 2.5853 15.623-3.2147 21.423"/>
    <path d="m1714.2 1072.2c0.5773 0.8187 1.2227 1.5867 1.9333 2.2973 6.8387 6.8347 17.961 6.8334 24.796 0 3.312-3.312 5.136-7.716 5.136-12.399 0-4.6827-1.824-9.0867-5.136-12.397-0.7106-0.7106-1.4786-1.3573-2.296-1.9333 2.6774 6.9253 1.076 14.776-4.2893 20.141-5.3653 5.3654-13.215 6.9667-20.144 4.2907m14.331 8.8013c-4.8414 0-9.684-1.844-13.371-5.5293-1.3307-1.3307-2.452-2.848-3.3347-4.5133l-1.0546-1.984 1.9853 1.0533c6.8467 3.6307 15.129 2.3933 20.613-3.092 5.4827-5.484 6.7254-13.768 3.092-20.613l-1.0533-1.9854 1.9853 1.0534c1.66 0.88 3.1787 2.0026 4.5107 3.336 3.572 3.572 5.5387 8.32 5.5387 13.372s-1.9667 9.8013-5.5387 13.373c-3.6867 3.6853-8.5293 5.5293-13.373 5.5293"/>
    <path d="m1775.1 1026.2c-5.8 5.8-14.536 6.8693-21.423 3.2147 0.8294 1.5626 1.8987 3.0306 3.2147 4.3466 7.116 7.116 18.653 7.116 25.769 0s7.116-18.653 0-25.769c-1.316-1.316-2.784-2.3853-4.3466-3.2147 3.6546 6.8867 2.5853 15.623-3.2147 21.423"/>
    <path d="m1755.4 1031c0.576 0.8173 1.2227 1.5853 1.9333 2.296 3.312 3.312 7.716 5.1347 12.397 5.1347 4.684 0 9.0866-1.8227 12.399-5.1347s5.136-7.716 5.136-12.399c0-4.6813-1.824-9.0853-5.136-12.397-0.7106-0.7107-1.4773-1.356-2.296-1.932 2.676 6.9227 1.0747 14.775-4.2906 20.14-5.368 5.3667-13.219 6.9693-20.143 4.292m14.331 8.8093c-5.0507 0-9.8-1.968-13.371-5.5386-1.3347-1.3334-2.456-2.8507-3.336-4.512l-1.0547-1.984 1.9854 1.0533c6.848 3.632 15.132 2.3867 20.613-3.0933 5.484-5.484 6.7253-13.768 3.0933-20.612l-1.0533-1.9854 1.9853 1.0534c1.6614 0.8813 3.18 2.004 4.5107 3.3346 3.572 3.572 5.5387 8.3214 5.5387 13.372 0 5.052-1.9667 9.8014-5.5387 13.373-3.572 3.5706-8.3213 5.5386-13.373 5.5386"/>
    <path d="m1814.8 986.47c-5.8 5.8-14.536 6.8693-21.423 3.2147 0.8294 1.5627 1.8987 3.0307 3.2147 4.3467 7.116 7.116 18.653 7.116 25.769 0 7.116-7.116 7.116-18.653 0-25.769-1.316-1.316-2.784-2.3853-4.3466-3.2147 3.6546 6.8867 2.5853 15.623-3.2147 21.423"/>
    <path d="m1795.2 991.25c0.576 0.81733 1.2227 1.5853 1.9333 2.296 3.312 3.312 7.716 5.1347 12.397 5.1347 4.684 0 9.0866-1.8227 12.399-5.1347s5.136-7.716 5.136-12.399c0-4.6813-1.824-9.0853-5.136-12.397-0.7106-0.70933-1.4773-1.356-2.296-1.932 2.676 6.924 1.0747 14.775-4.2906 20.14-5.368 5.3667-13.217 6.968-20.143 4.292m14.331 8.8094c-5.0507 0-9.8-1.968-13.371-5.5387-1.3347-1.3333-2.456-2.8507-3.336-4.512l-1.0547-1.984 1.9854 1.0533c6.8466 3.6333 15.132 2.388 20.613-3.0933 5.4827-5.484 6.7253-13.768 3.0933-20.613l-1.0546-1.988 1.9866 1.056c1.6627 0.884 3.1814 2.0067 4.5107 3.336 3.572 3.572 5.5387 8.3213 5.5387 13.372 0 5.052-1.9667 9.8013-5.5387 13.373-3.572 3.5707-8.3213 5.5387-13.373 5.5387"/>
    <path d="m2031.7 1203.4c5.8-5.8 14.536-6.8693 21.423-3.2147-0.8294-1.5626-1.8987-3.0306-3.2147-4.3466-7.116-7.116-18.653-7.116-25.769 0s-7.116 18.653 0 25.769c1.316 1.316 2.784 2.3853 4.3466 3.2147-3.6546-6.8867-2.5853-15.623 3.2147-21.423"/>
    <path d="m2037 1191.2c-4.4907 0-8.98 1.708-12.399 5.1253-3.312 3.312-5.1346 7.716-5.1346 12.399 0 4.684 1.8226 9.0867 5.1346 12.397 0.7107 0.7107 1.4787 1.3587 2.296 1.9347-2.6746-6.924-1.0733-14.777 4.292-20.143 5.364-5.364 13.217-6.9653 20.141-4.2906-0.576-0.8174-1.2227-1.5867-1.9334-2.2974-3.4186-3.416-7.9093-5.1253-12.397-5.1253m-6.8773 35.285-1.984-1.0533c-1.6614-0.88-3.1787-2.0027-4.512-3.336-3.5707-3.572-5.5387-8.32-5.5387-13.372s1.968-9.8013 5.5387-13.372c7.372-7.3693 19.371-7.372 26.745 0 1.332 1.332 2.4547 2.8493 3.336 4.512l1.0533 1.9853-1.9853-1.0546c-6.8453-3.6307-15.129-2.388-20.613 3.0933-5.4827 5.484-6.7267 13.767-3.0934 20.613z"/>
    <path d="m1990.5 1244.6c5.8-5.8 14.536-6.8693 21.423-3.2147-0.8294-1.5626-1.8987-3.0306-3.2147-4.3466-7.116-7.116-18.653-7.116-25.769 0s-7.116 18.653 0 25.769c1.316 1.316 2.784 2.3853 4.3466 3.2147-3.6546-6.8867-2.5853-15.623 3.2147-21.423"/>
    <path d="m1995.8 1232.4c-4.6813 0-9.0853 1.824-12.397 5.136s-5.1347 7.7147-5.1347 12.397c0 4.6827 1.8227 9.0854 5.1347 12.397 0.7106 0.7093 1.4773 1.3573 2.296 1.9333-2.6747-6.924-1.0747-14.776 4.2906-20.141 5.3667-5.3654 13.221-6.9667 20.141-4.292-0.576-0.8174-1.2214-1.5854-1.932-2.2947-3.312-3.312-7.716-5.136-12.399-5.136m-6.8747 35.297-1.9853-1.056c-1.664-0.884-3.1813-2.0066-4.512-3.336-3.5707-3.572-5.5387-8.3213-5.5387-13.372 0-5.052 1.968-9.8 5.5387-13.372 3.572-3.572 8.3213-5.54 13.372-5.54 5.052 0 9.8013 1.968 13.373 5.54 1.3307 1.3307 2.4534 2.8494 3.3347 4.5107l1.0533 1.9853-1.9853-1.0533c-6.8467-3.6347-15.131-2.3893-20.613 3.0933-5.4814 5.4827-6.724 13.767-3.092 20.613z"/>
    <path d="m1950.7 1284.4c5.8-5.8 14.536-6.8693 21.423-3.2147-0.8294-1.5626-1.8987-3.0306-3.2147-4.3466-7.116-7.116-18.653-7.116-25.769 0s-7.116 18.653 0 25.769c1.316 1.316 2.784 2.3853 4.3466 3.2147-3.6546-6.8867-2.5853-15.623 3.2147-21.423"/>
    <path d="m1956.1 1272.1c-4.6827 0-9.0867 1.824-12.399 5.136s-5.136 7.7147-5.136 12.397c0 4.6827 1.824 9.0854 5.136 12.397 0.7107 0.7093 1.4774 1.3573 2.296 1.9333-2.676-6.924-1.0746-14.776 4.2907-20.141 5.3667-5.3667 13.22-6.9667 20.141-4.292-0.576-0.8174-1.2213-1.5854-1.932-2.2947-3.312-3.312-7.716-5.136-12.397-5.136m-6.876 35.299-1.9853-1.0574c-1.664-0.884-3.1814-2.0066-4.512-3.336-3.5707-3.572-5.5387-8.3213-5.5387-13.372 0-5.052 1.968-9.8 5.5387-13.372 3.572-3.572 8.3213-5.54 13.373-5.54 5.0507 0 9.8 1.968 13.372 5.54 1.3307 1.3307 2.4533 2.8494 3.3347 4.5107l1.0533 1.9853-1.9853-1.0533c-6.8454-3.6347-15.131-2.3893-20.613 3.0933-5.4826 5.4827-6.7253 13.767-3.092 20.613z"/>
    <path d="m1817.6 1283c5.8 5.8 6.8693 14.536 3.2147 21.423 1.5626-0.8294 3.0306-1.8987 4.3466-3.2147 7.116-7.116 7.116-18.653 0-25.769s-18.653-7.116-25.769 0c-1.316 1.316-2.3853 2.784-3.2147 4.3466 6.8867-3.6546 15.623-2.5853 21.423 3.2147"/>
    <path d="m1804.7 1276.9c4.884 0 9.6907 1.908 13.345 5.564 5.3667 5.3653 6.968 13.216 4.292 20.14 0.8187-0.576 1.5854-1.2227 2.296-1.932 3.312-3.312 5.136-7.716 5.136-12.397 0-4.684-1.824-9.0867-5.136-12.399s-7.7146-5.136-12.399-5.136c-4.6814 0-9.0854 1.824-12.397 5.136-0.7106 0.7107-1.3573 1.4787-1.9333 2.296 2.208-0.8533 4.5107-1.272 6.796-1.272m14.411 29.139 1.0546-1.988c3.632-6.8454 2.3894-15.129-3.0933-20.613-5.4827-5.4826-13.764-6.7266-20.613-3.0933l-1.9854 1.0533 1.0534-1.9853c0.8813-1.66 2.0026-3.1787 3.3373-4.5107 3.5707-3.572 8.32-5.5386 13.371-5.5386 5.052 0 9.8013 1.9666 13.373 5.5386s5.5387 8.3214 5.5387 13.373c0 5.0506-1.9667 9.8-5.5387 13.371-1.3293 1.3307-2.848 2.452-4.5107 3.3374z"/>
    <path d="m1776.3 1241.7c5.8 5.8 6.8693 14.536 3.2147 21.423 1.5626-0.8294 3.0306-1.8987 4.3466-3.2147 7.116-7.116 7.116-18.653 0-25.769s-18.653-7.116-25.769 0c-1.316 1.316-2.3853 2.784-3.2147 4.3466 6.8867-3.6546 15.623-2.5853 21.423 3.2147"/>
    <path d="m1763.5 1235.7c4.8827 0 9.6893 1.9067 13.344 5.5627 5.3667 5.3653 6.9667 13.217 4.2907 20.141 0.8186-0.576 1.5853-1.2213 2.296-1.932 3.312-3.312 5.136-7.716 5.136-12.399 0-4.684-1.824-9.0866-5.136-12.397-3.3107-3.312-7.7134-5.136-12.397-5.136-4.6826 0-9.0866 1.824-12.399 5.136-0.7107 0.7093-1.356 1.4773-1.9334 2.296 2.208-0.8533 4.512-1.272 6.7987-1.272m14.409 29.135 1.0534-1.9854c3.6333-6.8453 2.3906-15.129-3.092-20.613-5.4827-5.484-13.771-6.7253-20.613-3.092l-1.9853 1.0533 1.0533-1.9853c0.884-1.664 2.0054-3.1827 3.336-4.5107 3.5707-3.572 8.32-5.5386 13.372-5.5386s9.8 1.9666 13.372 5.5386 5.5387 8.32 5.5387 13.372-1.9667 9.8014-5.5387 13.372c-1.3306 1.332-2.8493 2.4534-4.5106 3.3347z"/>
    <path d="m1736.6 1202c5.8 5.8 6.8693 14.536 3.2147 21.423 1.5626-0.8294 3.0306-1.8987 4.3466-3.2147 7.116-7.116 7.116-18.653 0-25.769s-18.653-7.116-25.769 0c-1.316 1.316-2.3853 2.784-3.2147 4.3466 6.8867-3.6546 15.623-2.5853 21.423 3.2147"/>
    <path d="m1723.7 1195.9c4.8827 0 9.6893 1.9067 13.344 5.5627 5.3667 5.3653 6.968 13.216 4.2907 20.141 0.8173-0.576 1.5853-1.2227 2.296-1.9333 3.312-3.3107 5.136-7.7147 5.136-12.397 0-4.684-1.824-9.0866-5.136-12.399-6.8387-6.836-17.961-6.8347-24.796 0-0.7107 0.7106-1.356 1.4786-1.9334 2.2973 2.208-0.8533 4.512-1.272 6.7987-1.272m14.409 29.135 1.0534-1.9854c3.6333-6.8453 2.3906-15.129-3.092-20.613-5.4827-5.4827-13.771-6.7253-20.613-3.092l-1.9853 1.0533 1.0533-1.9853c0.884-1.664 2.0054-3.1827 3.336-4.512 7.372-7.3707 19.372-7.372 26.744 0 3.572 3.572 5.5387 8.3213 5.5387 13.373s-1.9667 9.8-5.5387 13.371c-1.332 1.3347-2.8506 2.456-4.5106 3.336z"/>
    <path d="m1953.5 985.09c-5.8-5.8-6.8693-14.536-3.2147-21.423-1.5626 0.82934-3.0306 1.8987-4.3466 3.2147-7.116 7.116-7.116 18.653 0 25.769s18.653 7.116 25.769 0c1.316-1.316 2.3853-2.784 3.2147-4.3467-6.8867 3.6547-15.623 2.5853-21.423-3.2147"/>
    <path d="m1948.7 965.44c-0.8187 0.576-1.5853 1.2227-2.296 1.932-3.312 3.312-5.1347 7.716-5.1347 12.397 0 4.684 1.8227 9.0867 5.1347 12.399s7.716 5.136 12.399 5.136c4.6813 0 9.0853-1.824 12.397-5.136 0.7107-0.71067 1.356-1.4773 1.932-2.296-6.92 2.676-14.775 1.076-20.141-4.2907-5.3654-5.3667-6.9667-13.217-4.2907-20.141m10.103 33.241c-5.052 0-9.8014-1.9667-13.373-5.5387-3.5706-3.572-5.5386-8.3213-5.5386-13.373 0-5.0507 1.968-9.8 5.5386-13.371 1.3307-1.3307 2.848-2.452 4.512-3.336l1.9854-1.0573-1.0547 1.988c-3.6333 6.8453-2.3907 15.131 3.092 20.613 5.484 5.484 13.764 6.7267 20.613 3.0933l1.9854-1.0533-1.0534 1.9853c-0.8813 1.6613-2.004 3.18-3.3346 4.5107-3.572 3.572-8.3214 5.5387-13.372 5.5387"/>
    <path d="m1994.7 1026.3c-5.8-5.8-6.8693-14.536-3.2147-21.423-1.5626 0.8294-3.0306 1.8987-4.3466 3.2147-7.116 7.116-7.116 18.653 0 25.769s18.653 7.116 25.769 0c1.316-1.316 2.3853-2.784 3.2147-4.3466-6.8867 3.6546-15.623 2.5853-21.423-3.2147"/>
    <path d="m1989.9 1006.7c-0.8173 0.576-1.5853 1.2213-2.296 1.932-3.312 3.312-5.1347 7.716-5.1347 12.399 0 4.684 1.8227 9.0866 5.1347 12.399 6.8373 6.836 17.96 6.8334 24.796 0 0.7107-0.7106 1.3573-1.4786 1.9333-2.2973-6.9253 2.6747-14.777 1.0747-20.141-4.2893-5.3653-5.3667-6.968-13.219-4.292-20.143m10.101 33.233c-4.8426 0-9.6853-1.844-13.372-5.5293-3.5706-3.572-5.5386-8.3213-5.5386-13.373s1.968-9.8014 5.5386-13.372c1.3347-1.3334 2.852-2.4547 4.512-3.3347l1.984-1.0547-1.0533 1.9854c-3.6333 6.8453-2.3907 15.129 3.0933 20.613s13.769 6.7213 20.613 3.092l1.9853-1.0533-1.0533 1.9853c-0.8814 1.6613-2.004 3.18-3.336 4.512-3.6867 3.6853-8.5307 5.5293-13.373 5.5293"/>
    <path d="m2034.5 1066.1c-5.8-5.8-6.8693-14.536-3.2147-21.423-1.5626 0.8294-3.0306 1.8987-4.3466 3.2147-7.116 7.116-7.116 18.653 0 25.769s18.653 7.116 25.769 0c1.316-1.316 2.3853-2.784 3.2147-4.3466-6.8867 3.6546-15.623 2.5853-21.423-3.2147"/>
    <path d="m2029.7 1046.4c-0.8173 0.576-1.5853 1.2227-2.296 1.9333-3.312 3.3107-5.1347 7.7147-5.1347 12.397 0 4.684 1.8227 9.0866 5.1347 12.399 6.8373 6.836 17.96 6.8334 24.796 0 0.7107-0.7106 1.3573-1.4786 1.9333-2.2973-6.924 2.6747-14.777 1.0747-20.141-4.2893-5.3653-5.3667-6.968-13.219-4.292-20.143m10.101 33.233c-4.8426 0-9.6853-1.844-13.372-5.5293-3.5706-3.572-5.5386-8.3213-5.5386-13.373s1.968-9.8 5.5386-13.371c1.3334-1.3347 2.8507-2.456 4.512-3.336l1.984-1.0547-1.0533 1.9854c-3.6333 6.8453-2.3907 15.129 3.0933 20.613 5.4827 5.4827 13.771 6.7213 20.613 3.092l1.9853-1.0533-1.0533 1.9853c-0.8814 1.6613-2.004 3.18-3.336 4.512-3.6867 3.6853-8.5307 5.5293-13.373 5.5293"/>
    <path d="m1833.4 1005.8-12.633-12.631 0.244-0.24533 12.633 12.631z"/>
    <path d="m1833.4 1006.8-13.607-13.605 1.2147-1.2227 13.607 13.607z"/>
    <path d="m1793.9 1045.3-12.632-12.632 0.2427-0.2453 12.633 12.632z"/>
    <path d="m1793.9 1046.3-13.607-13.607 1.2147-1.2226 13.607 13.608z"/>
    <path d="m1751.5 1087.7-12.633-12.633 0.244-0.244 12.633 12.632z"/>
    <path d="m1751.5 1088.7-13.611-13.609 1.2187-1.22 13.603 13.605z"/>
    <path d="m2014.8 1085.3-0.244-0.2453 12.633-12.632 0.2427 0.2453z"/>
    <path d="m2014.8 1086.3-1.2187-1.2187 13.611-13.611 1.2107 1.2253z"/>
    <path d="m1975.3 1045.8-0.244-0.2453 12.632-12.632 0.244 0.2453z"/>
    <path d="m1975.3 1046.8-1.2187-1.2187 13.608-13.609 1.2147 1.2227z"/>
    <path d="m1934.3 1004.8-0.244-0.2453 12.633-12.632 0.2427 0.24533z"/>
    <path d="m1934.3 1005.8-1.2147-1.2213 13.607-13.608 1.2147 1.2227z"/>
    <path d="m1943.1 1278.7-12.632-12.633 0.244-0.244 12.632 12.632z"/>
    <path d="m1943.1 1279.7-13.608-13.608 1.2147-1.2227 13.604 13.607z"/>
    <path d="m1983.3 1238.5-12.632-12.632 0.2427-0.2453 12.633 12.632z"/>
    <path d="m1983.3 1239.5-13.611-13.609 1.2187-1.22 13.603 13.604z"/>
    <path d="m2026.5 1195.4-12.632-12.631 0.2427-0.2453 12.633 12.631z"/>
    <path d="m2026.5 1196.3-13.611-13.608 1.2187-1.22 13.603 13.604z"/>
    <path d="m1824.8 1275.3-0.244-0.2453 12.633-12.632 0.2427 0.2453z"/>
    <path d="m1824.8 1276.3-1.2107-1.2253 13.603-13.604 1.2187 1.22z"/>
    <path d="m1785.3 1235.8-0.244-0.2453 12.633-12.632 0.2427 0.244z"/>
    <path d="m1785.3 1236.8-1.2107-1.224 13.603-13.605 1.2187 1.22z"/>
    <path d="m1742.9 1193.4-0.244-0.2453 12.633-12.632 0.2427 0.2453z"/>
    <path d="m1742.9 1194.4-1.2147-1.2213 13.607-13.608 1.2147 1.2226z"/>
   </g>
   <path d="m2395 1354.3-11.684 11.683-1.7413-13.425zm-89.804 89.804-11.684 11.683-1.7413-13.425zm-89.804 89.804-11.684 11.683-1.7413-13.425zm-89.804 89.804-11.684 11.683-1.7413-13.425zm-471.42 7.636 13.424-1.7413-1.7413 13.424zm-89.804-89.804 13.424-1.7413-1.7413 13.424zm-89.804-89.804 13.424-1.7413-1.7413 13.424zm-89.804-89.804 13.424-1.7413-1.7413 13.424zm-137.72-227.42-10.724 8.2613v-16.523zm130.05-220.6 11.683-11.684 1.7413 13.425zm89.804-89.805 11.684-11.684 1.7414 13.427zm89.804-89.804 11.683-11.684 1.7413 13.425zm89.804-89.804 11.684-11.684 1.7414 13.425zm471.42-7.696-13.424 1.7413 1.7414-13.424zm89.804 89.804-13.425 1.7413 1.7427-13.425zm89.803 89.804-13.423 1.7413 1.7414-13.424zm89.805 89.804-13.425 1.7413 1.7413-13.424zm148.44 219.22v16.52l-10.724-8.26zm-650.14 459.86-451.71-451.71 451.71-451.71 451.71 451.71zm-7.4373 198.51 8.26-10.724 8.2627 10.724zm472.04-647.53h169.13l21.915 16.881v-38.931l-21.915 16.881h-168.92l-98.021-98.021 119.29-119.29 27.433-3.5587-27.531-27.529-3.5587 27.433-119.29 119.29-86.149-86.151 119.29-119.29 27.432-3.5587-27.528-27.529-3.5613 27.433-119.29 119.29-86.149-86.151 119.29-119.29 27.436-3.5587-27.528-27.529-3.5614 27.433-119.29 119.29-86.149-86.151 119.29-119.29 27.433-3.5587-27.529-27.529-3.5613 27.433-119.29 119.29-91.147-91.148v-169.26l15.48-20.097h-36.129l15.481 20.097v169.25l-98.421 98.421-118.86-118.86-3.5586-27.436-27.531 27.531 27.436 3.5587 118.86 118.86-86.149 86.148-118.86-118.86-3.5614-27.435-27.528 27.529 27.432 3.5587 118.86 118.86-86.149 86.149-118.86-118.86-3.5586-27.435-27.531 27.529 27.436 3.5587 118.86 118.86-86.151 86.151-118.86-118.86-3.5614-27.435-27.528 27.529 27.432 3.5587 118.86 118.86-91.575 91.575h-167.27l-21.915-16.881v38.931l21.915-16.881h169.13l97.888 97.887-119.36 119.36-27.436 3.5587 27.528 27.529 3.5613-27.433 119.36-119.36 86.149 86.149-119.36 119.36-27.435 3.5587 27.531 27.529 3.5587-27.433 119.36-119.36 86.151 86.149-119.36 119.36-27.435 3.5587 27.528 27.529 3.5613-27.433 119.36-119.36 86.149 86.151-119.36 119.36-27.433 3.5587 27.529 27.529 3.5587-27.433 119.36-119.36 91.073 91.073v168.28l-16.881 21.915h38.929l-16.881-21.915v-169.92l97.489-97.491 119.79 119.79 3.5613 27.435 27.529-27.528-27.435-3.56-119.79-119.79 86.149-86.151 119.79 119.79 3.5613 27.435 27.528-27.528-27.433-3.56-119.79-119.79 86.151-86.149 119.79 119.79 3.56 27.435 27.528-27.528-27.433-3.56-119.79-119.79 86.149-86.151 119.79 119.79 3.5587 27.433 27.529-27.528-27.432-3.56-119.79-119.79z" fill="#2b324d"/>
   <g fill="#cdd55b">
    <path d="m1885.6 1400.5-266.89-266.89 266.89-266.89 266.89 266.89zm-270.79-266.89 270.79 270.79 270.79-270.79-270.79-270.79z"/>
    <path d="m2204.1 1133-22.479-22.545h-22.313l23.015 23.015-23.015 23.016h22.305l22.401-21.763h37.312v-1.7227z"/>
    <path d="m1591.7 1110.5-23.211 22.545h-38.036v1.7227h39.541l21.699 21.763h22.311l-23.015-23.016 23.015-23.015z"/>
    <path d="m1862.6 1406v22.307l22.153 22.804v37.951h1.7227v-38.66l22.155-22.088v-22.313l-23.016 23.015z"/>
    <path d="m1864.4 845.06 21.287-21.227 20.609 21.213v16.476l-20.948-20.948-20.948 20.948zm44.652 23.116v-24.249l-22.531-23.192v-42.819h-1.7226v42.911l-23.155 23.087v24.263l23.704-23.704z"/>
   </g>
  </g>
 </g>
</svg>