<?xml version="1.0" encoding="UTF-8" standalone="no"?>
<!-- Generator: Adobe Illustrator 22.1.0, SVG Export Plug-In . SVG Version: 6.00 Build 0)  -->
<svg id="Layer_1" xmlns:rdf="http://www.w3.org/1999/02/22-rdf-syntax-ns#" xmlns="http://www.w3.org/2000/svg" xml:space="preserve" viewBox="0 0 1285.8787 1274.9835" height="1275" width="1285.9" version="1.1" y="0px" x="0px" xmlns:cc="http://creativecommons.org/ns#" xmlns:dc="http://purl.org/dc/elements/1.1/"><metadata id="metadata825"><rdf:RDF><cc:Work rdf:about=""><dc:format>image/svg+xml</dc:format><dc:type rdf:resource="http://purl.org/dc/dcmitype/StillImage"/><dc:title/></cc:Work></rdf:RDF></metadata><style id="style3" type="text/css">
	.st0{fill:#D8D8D8;stroke:#9B2020;stroke-width:2;stroke-miterlimit:10;}
	.st1{fill:#01588C;}
	.st2{fill:#3E9AB2;stroke:#279FC9;stroke-width:2;stroke-miterlimit:10;}
	.st3{fill:#E2C938;stroke:#DEE33A;stroke-miterlimit:10;}
	.st4{fill:#CD632E;stroke:#CD632E;stroke-miterlimit:10;}
	.st5{fill:#279FC9;stroke:#279FC9;stroke-width:2;stroke-miterlimit:10;}
	.st6{fill:#E0A037;stroke:#E0A037;stroke-miterlimit:10;}
	.st7{fill:#25336D;stroke:#263675;stroke-width:6;stroke-miterlimit:10;}
	.st8{fill:#25336D;stroke:#263675;stroke-width:3;stroke-miterlimit:10;}
	.st9{fill:#DEE33A;stroke:#DEE33A;stroke-miterlimit:10;}
	.st10{opacity:0.58;stroke:#9B2020;stroke-width:2;stroke-miterlimit:10;enable-background:new    ;}
	.st11{opacity:0.85;fill:#FFFFFF;enable-background:new    ;}
	.st12{opacity:0.85;fill:#FFFFFF;stroke:#FFFFFF;stroke-width:9;stroke-miterlimit:10;enable-background:new    ;}
	.st13{opacity:0.85;fill:#FFFFFF;stroke:#FFFFFF;stroke-miterlimit:10;enable-background:new    ;}
	.st14{font-family:&apos;ArialMT&apos;;}
	.st15{font-size:12px;}
</style><rect id="XMLID_3358_" transform="matrix(.70764 -.70658 .70764 .70658 0 0)" width="630.84" y="585.27" x="-314.64" height="631.38" class="st1" fill="#01588c"/><g stroke-miterlimit="10"><rect id="XMLID_3357_" stroke-width="2.685" transform="matrix(.70764 -.70658 .70764 .70658 0 0)" width="131.83" stroke="#279fc9" y="834.89" x="-65.05" height="131.97" class="st2" fill="#3e9ab2"/><rect id="XMLID_3356_" stroke-width="1.3425" transform="matrix(.70764 -.70658 .70764 .70658 0 0)" width="61.353" stroke="#dee33a" y="871.98" x="-30.847" height="60.279" class="st3" fill="#e2c938"/><path id="XMLID_3353_" d="m638.43 428.08c-3.3588 0-6.1802-2.683-6.1802-6.171s2.687-6.171 6.1802-6.171 6.1802 2.683 6.1802 6.171c0 3.4879-2.8214 6.171-6.1802 6.171zm0-10.866c-2.687 0-4.8367 2.1464-4.8367 4.8294s2.1496 4.8294 4.8367 4.8294c2.687 0 4.8367-2.1464 4.8367-4.8294s-2.1496-4.8294-4.8367-4.8294z" class="st4" stroke="#cd632e" stroke-width="1.3425" fill="#cd632e"/></g><g id="XMLID_2199_" transform="matrix(1.3435 0 0 1.3415 -250.44 -288.02)"><path id="XMLID_2200_" d="m660.6 535.7c-0.3-0.1-0.5-0.3-0.4-0.6 0-0.3 0.3-0.5 0.6-0.4 0.3 0 0.5 0.3 0.4 0.6-0.1 0.2-0.3 0.4-0.6 0.4zm1.6-0.4c-0.1-0.3 0.1-0.5 0.4-0.6s0.5 0.1 0.6 0.4c0 0.3-0.1 0.5-0.4 0.6h-0.1c-0.3 0-0.5-0.2-0.5-0.4zm-3.6-0.3c-0.2-0.1-0.3-0.4-0.2-0.7 0.1-0.2 0.4-0.3 0.7-0.2 0.2 0.1 0.3 0.4 0.2 0.7-0.1 0.2-0.3 0.3-0.4 0.3-0.2 0-0.3-0.1-0.3-0.1zm5.5-0.2c-0.1-0.2 0-0.5 0.2-0.7 0.2-0.1 0.5 0 0.7 0.2 0.1 0.2 0 0.6-0.2 0.7-0.1 0-0.2 0.1-0.2 0.1-0.3-0.1-0.4-0.2-0.5-0.3zm-7.2-1.1c-0.2-0.2-0.2-0.5 0-0.7s0.5-0.2 0.7 0 0.2 0.5 0 0.7c-0.1 0.1-0.2 0.1-0.3 0.1-0.2 0.1-0.3 0-0.4-0.1zm8.8 0c-0.2-0.2-0.2-0.5 0-0.7s0.5-0.2 0.7 0 0.2 0.5 0 0.7c-0.1 0.1-0.2 0.2-0.4 0.2-0.1-0.1-0.2-0.1-0.3-0.2zm-10-1.8c-0.1-0.2 0-0.5 0.3-0.7 0.2-0.1 0.5 0 0.7 0.2 0.1 0.3 0 0.5-0.2 0.7h-0.2c-0.4 0.1-0.5 0-0.6-0.2zm11.2 0.2c-0.2-0.1-0.4-0.4-0.3-0.7s0.4-0.4 0.7-0.3c0.2 0.1 0.4 0.4 0.3 0.7-0.1 0.2-0.3 0.3-0.5 0.3 0 0.1-0.1 0-0.2 0zm-11.7-2.2c0-0.3 0.2-0.5 0.4-0.6 0.3 0 0.5 0.2 0.5 0.5s-0.2 0.5-0.4 0.5h-0.1c-0.2 0-0.4-0.2-0.4-0.4zm12.4 0.3c-0.3 0-0.5-0.3-0.5-0.5 0-0.3 0.3-0.5 0.5-0.5 0.3 0 0.5 0.3 0.5 0.5 0 0.3-0.2 0.5-0.5 0.5zm-11.9-1.9c-0.3-0.1-0.4-0.3-0.4-0.6 0.1-0.3 0.3-0.4 0.6-0.4 0.3 0.1 0.4 0.3 0.4 0.6-0.1 0.2-0.3 0.4-0.6 0.4zm11.3-0.4c-0.1-0.3 0.1-0.5 0.4-0.6s0.5 0.1 0.6 0.4-0.1 0.5-0.4 0.6h-0.1c-0.3 0-0.5-0.2-0.5-0.4zm-10.7-1.5c-0.2-0.1-0.3-0.5-0.2-0.7 0.2-0.2 0.5-0.3 0.7-0.1 0.2 0.1 0.3 0.4 0.2 0.7-0.1 0.1-0.2 0.2-0.4 0.2-0.1 0-0.2 0-0.3-0.1zm9.9-0.2c-0.2-0.2-0.1-0.5 0.1-0.7 0.2-0.1 0.5-0.1 0.7 0.1 0.1 0.2 0.1 0.5-0.1 0.7-0.1 0.1-0.2 0.1-0.3 0.1-0.1 0.1-0.3 0-0.4-0.2zm-8.7-1.3c-0.2-0.2-0.1-0.5 0.1-0.7s0.5-0.1 0.7 0.1 0.1 0.5-0.1 0.7c-0.1 0.1-0.2 0.1-0.3 0.1-0.2 0-0.3-0.1-0.4-0.2zm7.5 0c-0.2-0.2-0.3-0.5-0.1-0.7s0.5-0.2 0.7-0.1c0.2 0.2 0.3 0.5 0.1 0.7-0.1 0.1-0.2 0.2-0.4 0.2-0.1 0-0.2 0-0.3-0.1zm-5.9-1.1c-0.1-0.3 0-0.5 0.3-0.6s0.5 0 0.6 0.3 0 0.5-0.3 0.6h-0.2c-0.1 0-0.3-0.1-0.4-0.3zm4.3 0.2c-0.3-0.1-0.4-0.4-0.3-0.6 0.1-0.3 0.4-0.4 0.6-0.3 0.3 0.1 0.4 0.4 0.3 0.6s-0.3 0.3-0.6 0.3c0.1 0.1 0.1 0.1 0 0z" class="st4" stroke="#cd632e" stroke-miterlimit="10" fill="#cd632e"/></g><rect id="XMLID_2197_" class="st4" height="34.745" width=".26870" stroke="#cd632e" stroke-miterlimit="10" y="381.8" x="638.3" stroke-width="1.3425" fill="#cd632e"/><g id="XMLID_2193_" transform="matrix(1.3435 0 0 1.3415 -250.44 -288.02)"><rect id="XMLID_2194_" transform="matrix(.7071 -.7071 .7071 .7071 -278.75 633.81)" width="182.8" stroke="#cd632e" stroke-miterlimit="10" y="652.9" x="534.3" height="1" class="st4" fill="#cd632e"/></g><g id="XMLID_2191_" transform="matrix(1.3435 0 0 1.3415 -250.44 -288.02)"><rect id="XMLID_2192_" transform="matrix(.7071 -.7071 .7071 .7071 -308.55 705.81)" width="182.8" stroke="#cd632e" stroke-miterlimit="10" y="724.9" x="606.3" height="1" class="st4" fill="#cd632e"/></g><g id="XMLID_2189_" transform="matrix(1.3435 0 0 1.3415 -250.44 -288.02)"><rect id="XMLID_2190_" transform="matrix(.7071 -.7071 .7071 .7071 -257.65 684.71)" width="1" stroke="#cd632e" stroke-miterlimit="10" y="562" x="697.2" height="182.8" class="st4" fill="#cd632e"/></g><g id="XMLID_2187_" transform="matrix(1.3435 0 0 1.3415 -250.44 -288.02)"><rect id="XMLID_2188_" transform="matrix(.7071 -.7071 .7071 .7071 -329.62 654.84)" width="1" stroke="#cd632e" stroke-miterlimit="10" y="633.9" x="625.2" height="182.8" class="st4" fill="#cd632e"/></g><path id="XMLID_2183_" d="m638.43 812.02-175.59-175.34 175.59-175.33 175.6 175.33-175.6 175.34zm-171.7-175.34 171.84 171.58 171.84-171.58-171.98-171.44-171.7 171.44z" class="st4" stroke="#cd632e" stroke-miterlimit="10" stroke-width="1.3425" fill="#cd632e"/><path id="XMLID_2179_" d="m638.43 735.02-98.48-98.333 98.48-98.333 98.48 98.333-98.48 98.333zm-94.718-98.333 94.718 94.577 94.718-94.577-94.718-94.577-94.718 94.577z" class="st4" stroke="#cd632e" stroke-miterlimit="10" stroke-width="1.3425" fill="#cd632e"/><g id="XMLID_2174_" transform="matrix(1.3435 0 0 1.3415 -250.44 -288.02)"><path id="XMLID_2175_" d="m648.4 596.7c-2.5 0-4.6-2-4.6-4.6s2-4.6 4.6-4.6 4.6 2 4.6 4.6-2.1 4.6-4.6 4.6zm0-8.2c-2 0-3.6 1.6-3.6 3.6s1.6 3.6 3.6 3.6 3.6-1.6 3.6-3.6c-0.1-2-1.7-3.6-3.6-3.6z" class="st4" stroke="#cd632e" stroke-miterlimit="10" fill="#cd632e"/></g><g id="XMLID_2170_" transform="matrix(1.3435 0 0 1.3415 -250.44 -288.02)"><path id="XMLID_2171_" d="m661.6 582.3c-2.5 0-4.6-2-4.6-4.6s2-4.6 4.6-4.6 4.6 2 4.6 4.6-2.1 4.6-4.6 4.6zm0-8.1c-2 0-3.6 1.6-3.6 3.6s1.6 3.6 3.6 3.6 3.6-1.6 3.6-3.6-1.6-3.6-3.6-3.6z" class="st4" stroke="#cd632e" stroke-miterlimit="10" fill="#cd632e"/></g><g id="XMLID_2166_" transform="matrix(1.3435 0 0 1.3415 -250.44 -288.02)"><path id="XMLID_2167_" d="m674.9 596.7c-2.5 0-4.6-2-4.6-4.6s2-4.6 4.6-4.6 4.6 2 4.6 4.6-2.1 4.6-4.6 4.6zm0-8.2c-2 0-3.6 1.6-3.6 3.6s1.6 3.6 3.6 3.6 3.6-1.6 3.6-3.6c-0.1-2-1.7-3.6-3.6-3.6z" class="st4" stroke="#cd632e" stroke-miterlimit="10" fill="#cd632e"/></g><g stroke="#cd632e" stroke-width="1.3425" stroke-miterlimit="10" fill="#cd632e"><path id="XMLID_2162_" d="m620.7 447.26c-3.3588 0-6.1802-2.683-6.1802-6.171 0-3.4879 2.687-6.171 6.1802-6.171s6.1802 2.683 6.1802 6.171c0 3.4879-2.8214 6.171-6.1802 6.171zm0-10.866c-2.687 0-4.8367 2.1464-4.8367 4.8294s2.1496 4.8295 4.8367 4.8295c2.687 0 4.8367-2.1464 4.8367-4.8295-0.13435-2.683-2.284-4.8294-4.8367-4.8294z" class="st4"/><path id="XMLID_2158_" d="m656.3 447.26c-3.3588 0-6.1802-2.683-6.1802-6.171 0-3.4879 2.687-6.171 6.1802-6.171s6.1802 2.683 6.1802 6.171c0 3.4879-2.8214 6.171-6.1802 6.171zm0-10.866c-2.6871 0-4.8367 2.1464-4.8367 4.8294s2.1496 4.8295 4.8367 4.8295c2.687 0 4.8367-2.1464 4.8367-4.8295-0.13435-2.683-2.284-4.8294-4.8367-4.8294z" class="st4"/><path id="XMLID_2154_" d="m435.16 649.43c-3.3588 0-6.1802-2.683-6.1802-6.171 0-3.4879 2.687-6.171 6.1802-6.171 3.3588 0 6.1802 2.683 6.1802 6.171 0 3.4879-2.8214 6.171-6.1802 6.171zm0-10.866c-2.687 0-4.8367 2.1464-4.8367 4.8294s2.1496 4.8294 4.8367 4.8294c2.687 0 4.8367-2.1464 4.8367-4.8294s-2.284-4.8294-4.8367-4.8294z" class="st4"/><path id="XMLID_2150_" d="m773.73 644.06c-3.3588 0-6.1802-2.683-6.1802-6.171s2.687-6.171 6.1802-6.171 6.1802 2.683 6.1802 6.171c0 3.4879-2.8214 6.171-6.1802 6.171zm0-10.866c-2.687 0-4.8367 2.1464-4.8367 4.8295 0 2.683 2.1496 4.8294 4.8367 4.8294s4.8367-2.1464 4.8367-4.8294-2.1496-4.8295-4.8367-4.8295z" class="st4"/><path id="XMLID_2146_" d="m842.11 637.35c-3.3588 0-6.1802-2.683-6.1802-6.171 0-3.4879 2.687-6.171 6.1802-6.171s6.1802 2.683 6.1802 6.171c0 3.4879-2.687 6.171-6.1802 6.171zm0-10.866c-2.687 0-4.8367 2.1464-4.8367 4.8294s2.1496 4.8294 4.8367 4.8294c2.687 0 4.8367-2.1464 4.8367-4.8294s-2.1496-4.8294-4.8367-4.8294z" class="st4"/><path id="XMLID_2142_" d="m503.41 642.85c-3.3588 0-6.1802-2.683-6.1802-6.171 0-3.4879 2.687-6.171 6.1802-6.171s6.1802 2.683 6.1802 6.171c0 3.4879-2.8214 6.171-6.1802 6.171zm0-11c-2.687 0-4.8367 2.1464-4.8367 4.8295 0 2.683 2.1496 4.8294 4.8367 4.8294 2.687 0 4.8367-2.1464 4.8367-4.8294-0.13436-2.683-2.284-4.8295-4.8367-4.8295z" class="st4"/><path id="XMLID_2138_" d="m637.9 778.48c-3.3588 0-6.1802-2.683-6.1802-6.171 0-3.4879 2.687-6.171 6.1802-6.171s6.1802 2.683 6.1802 6.171-2.8214 6.171-6.1802 6.171zm0-11c-2.687 0-4.8367 2.1464-4.8367 4.8294s2.1496 4.8294 4.8367 4.8294 4.8367-2.1464 4.8367-4.8294-2.1496-4.8294-4.8367-4.8294z" class="st4"/><path id="XMLID_2134_" d="m645.96 849.04c-3.3588 0-6.1802-2.683-6.1802-6.171 0-3.4879 2.687-6.171 6.1802-6.171s6.1802 2.683 6.1802 6.171c0 3.4879-2.8214 6.171-6.1802 6.171zm0-11c-2.687 0-4.8367 2.1464-4.8367 4.8295 0 2.683 2.1496 4.8294 4.8367 4.8294 2.687 0 4.8367-2.1464 4.8367-4.8294s-2.1496-4.8295-4.8367-4.8295z" class="st4"/></g><g id="XMLID_2120_" transform="matrix(1.3435 0 0 1.3415 -250.44 -288.02)"><g id="XMLID_2129_"><path id="XMLID_2130_" d="m731.6 713.8c-1.2 0-2.3-0.4-3.2-1.3s-1.3-2-1.3-3.2 0.5-2.4 1.3-3.2c1.8-1.8 4.7-1.8 6.5 0 0.9 0.9 1.3 2 1.3 3.2s-0.5 2.4-1.3 3.2c-0.9 0.9-2.1 1.3-3.3 1.3zm0-8.1c-0.9 0-1.8 0.3-2.5 1s-1 1.6-1 2.5c0 1 0.4 1.8 1 2.5 1.4 1.4 3.7 1.4 5 0 0.7-0.7 1-1.6 1-2.5 0-1-0.4-1.8-1-2.5s-1.5-1-2.5-1z" class="st4" stroke="#cd632e" stroke-miterlimit="10" fill="#cd632e"/></g><g id="XMLID_2125_"><path id="XMLID_2126_" d="m732.4 733.3c-1.2 0-2.3-0.4-3.2-1.3-1.8-1.8-1.8-4.7 0-6.5s4.7-1.8 6.5 0 1.8 4.7 0 6.5c-1 0.9-2.1 1.3-3.3 1.3zm0-8.1c-0.9 0-1.8 0.3-2.5 1-1.4 1.4-1.4 3.7 0 5 1.4 1.4 3.7 1.4 5 0 1.4-1.4 1.4-3.7 0-5-0.7-0.7-1.6-1-2.5-1z" class="st4" stroke="#cd632e" stroke-miterlimit="10" fill="#cd632e"/></g><g id="XMLID_2121_"><path id="XMLID_2122_" d="m712.9 732.6c-1.2 0-2.4-0.5-3.2-1.3-1.8-1.8-1.8-4.7 0-6.5 0.9-0.9 2-1.3 3.2-1.3s2.4 0.5 3.2 1.3c1.8 1.8 1.8 4.7 0 6.5-0.8 0.8-2 1.3-3.2 1.3zm0-8.2c-1 0-1.8 0.4-2.5 1-1.4 1.4-1.4 3.7 0 5 1.3 1.3 3.7 1.3 5 0 1.4-1.4 1.4-3.7 0-5-0.7-0.6-1.6-1-2.5-1z" class="st4" stroke="#cd632e" stroke-miterlimit="10" fill="#cd632e"/></g></g><g id="XMLID_2107_" transform="matrix(1.3435 0 0 1.3415 -250.44 -288.02)"><g id="XMLID_2116_"><path id="XMLID_2117_" d="m700.5 744.9c-1.2 0-2.3-0.4-3.2-1.3-1.8-1.8-1.8-4.7 0-6.5s4.7-1.8 6.5 0 1.8 4.7 0 6.5c-0.9 0.9-2.1 1.3-3.3 1.3zm0-8.1c-0.9 0-1.8 0.3-2.5 1-1.4 1.4-1.4 3.7 0 5 1.4 1.4 3.7 1.4 5 0 1.4-1.4 1.4-3.7 0-5-0.6-0.7-1.6-1-2.5-1z" class="st4" stroke="#cd632e" stroke-miterlimit="10" fill="#cd632e"/></g><g id="XMLID_2112_"><path id="XMLID_2113_" d="m701.3 764.4c-1.2 0-2.3-0.4-3.2-1.3-1.8-1.8-1.8-4.7 0-6.5s4.7-1.8 6.5 0 1.8 4.7 0 6.5c-1 0.9-2.1 1.3-3.3 1.3zm0-8.1c-0.9 0-1.8 0.3-2.5 1-1.4 1.4-1.4 3.7 0 5 1.4 1.4 3.7 1.4 5 0 1.4-1.4 1.4-3.7 0-5-0.7-0.7-1.6-1-2.5-1z" class="st4" stroke="#cd632e" stroke-miterlimit="10" fill="#cd632e"/></g><g id="XMLID_2108_"><path id="XMLID_2109_" d="m681.8 763.7c-1.2 0-2.3-0.4-3.2-1.3-1.8-1.8-1.8-4.7 0-6.5s4.7-1.8 6.5 0 1.8 4.7 0 6.5c-1 0.8-2.1 1.3-3.3 1.3zm0-8.2c-0.9 0-1.8 0.3-2.5 1-1.4 1.4-1.4 3.7 0 5 1.4 1.4 3.7 1.4 5 0 1.4-1.4 1.4-3.7 0-5-0.7-0.6-1.6-1-2.5-1z" class="st4" stroke="#cd632e" stroke-miterlimit="10" fill="#cd632e"/></g></g><g id="XMLID_2093_" transform="matrix(1.3435 0 0 1.3415 -250.44 -288.02)"><g id="XMLID_2102_"><path id="XMLID_2103_" d="m681.8 622.5c-1.2 0-2.3-0.4-3.2-1.3-1.8-1.8-1.8-4.7 0-6.5s4.7-1.8 6.5 0 1.8 4.7 0 6.5c-1 0.9-2.1 1.3-3.3 1.3zm0-8.1c-0.9 0-1.8 0.3-2.5 1-1.4 1.4-1.4 3.7 0 5 1.4 1.4 3.7 1.4 5 0 1.4-1.4 1.4-3.7 0-5-0.7-0.7-1.6-1-2.5-1z" class="st4" stroke="#cd632e" stroke-miterlimit="10" fill="#cd632e"/></g><g id="XMLID_2098_"><path id="XMLID_2099_" d="m701.3 621.8c-1.2 0-2.3-0.4-3.2-1.3-1.8-1.8-1.8-4.7 0-6.5s4.7-1.8 6.5 0 1.8 4.7 0 6.5c-1 0.8-2.1 1.3-3.3 1.3zm0-8.2c-0.9 0-1.8 0.3-2.5 1-1.4 1.4-1.4 3.7 0 5 1.4 1.4 3.7 1.4 5 0 1.4-1.4 1.4-3.7 0-5-0.7-0.6-1.6-1-2.5-1z" class="st4" stroke="#cd632e" stroke-miterlimit="10" fill="#cd632e"/></g><g id="XMLID_2094_"><path id="XMLID_2095_" d="m700.5 641.3c-1.2 0-2.3-0.4-3.2-1.3-1.8-1.8-1.8-4.7 0-6.5s4.7-1.8 6.5 0 1.8 4.7 0 6.5c-0.9 0.8-2.1 1.3-3.3 1.3zm0-8.2c-0.9 0-1.8 0.3-2.5 1-1.4 1.4-1.4 3.7 0 5 1.4 1.4 3.7 1.4 5 0 1.4-1.4 1.4-3.7 0-5-0.6-0.6-1.6-1-2.5-1z" class="st4" stroke="#cd632e" stroke-miterlimit="10" fill="#cd632e"/></g></g><g id="XMLID_2080_" transform="matrix(1.3435 0 0 1.3415 -250.44 -288.02)"><g id="XMLID_2089_"><path id="XMLID_2090_" d="m712.9 653.6c-1.2 0-2.4-0.5-3.2-1.3-1.8-1.8-1.8-4.7 0-6.5 0.9-0.9 2-1.3 3.2-1.3s2.4 0.5 3.2 1.3c1.8 1.8 1.8 4.7 0 6.5-0.8 0.9-2 1.3-3.2 1.3zm0-8.1c-1 0-1.8 0.4-2.5 1-1.4 1.4-1.4 3.7 0 5 1.3 1.3 3.7 1.3 5 0 1.4-1.4 1.4-3.7 0-5-0.7-0.6-1.6-1-2.5-1z" class="st4" stroke="#cd632e" stroke-miterlimit="10" fill="#cd632e"/></g><g id="XMLID_2085_"><path id="XMLID_2086_" d="m732.4 652.9c-1.2 0-2.3-0.4-3.2-1.3-1.8-1.8-1.8-4.7 0-6.5s4.7-1.8 6.5 0 1.8 4.7 0 6.5c-1 0.8-2.1 1.3-3.3 1.3zm0-8.1c-0.9 0-1.8 0.3-2.5 1-1.4 1.4-1.4 3.7 0 5 1.4 1.4 3.7 1.4 5 0 1.4-1.4 1.4-3.7 0-5-0.7-0.7-1.6-1-2.5-1z" class="st4" stroke="#cd632e" stroke-miterlimit="10" fill="#cd632e"/></g><g id="XMLID_2081_"><path id="XMLID_2082_" d="m731.6 672.4c-1.2 0-2.3-0.4-3.2-1.3-1.8-1.8-1.8-4.7 0-6.5s4.7-1.8 6.5 0 1.8 4.7 0 6.5c-0.9 0.8-2.1 1.3-3.3 1.3zm0-8.1c-0.9 0-1.8 0.3-2.5 1-1.4 1.4-1.4 3.7 0 5 1.4 1.4 3.7 1.4 5 0 1.4-1.4 1.4-3.7 0-5-0.6-0.7-1.5-1-2.5-1z" class="st4" stroke="#cd632e" stroke-miterlimit="10" fill="#cd632e"/></g></g><g id="XMLID_2066_" transform="matrix(1.3435 0 0 1.3415 -250.44 -288.02)"><g id="XMLID_2075_"><path id="XMLID_2076_" d="m640.3 763.7c-1.2 0-2.3-0.4-3.2-1.3-1.8-1.8-1.8-4.7 0-6.5s4.7-1.8 6.5 0 1.8 4.7 0 6.5c-0.9 0.8-2.1 1.3-3.3 1.3zm-2.5-7.1c-1.4 1.4-1.4 3.7 0 5 1.4 1.4 3.7 1.4 5 0s1.4-3.7 0-5c-1.3-1.4-3.6-1.4-5 0z" class="st4" stroke="#cd632e" stroke-miterlimit="10" fill="#cd632e"/></g><g id="XMLID_2071_"><path id="XMLID_2072_" d="m620.8 764.4c-1.2 0-2.3-0.4-3.2-1.3-1.8-1.8-1.8-4.7 0-6.5s4.7-1.8 6.5 0 1.8 4.7 0 6.5c-0.9 0.9-2.1 1.3-3.3 1.3zm0-8.1c-0.9 0-1.8 0.3-2.5 1-1.4 1.4-1.4 3.7 0 5 1.4 1.4 3.7 1.4 5 0 1.4-1.4 1.4-3.7 0-5-0.6-0.7-1.5-1-2.5-1z" class="st4" stroke="#cd632e" stroke-miterlimit="10" fill="#cd632e"/></g><g id="XMLID_2067_"><path id="XMLID_2068_" d="m621.6 744.9c-1.2 0-2.3-0.4-3.2-1.3-1.8-1.8-1.8-4.7 0-6.5s4.7-1.8 6.5 0 1.8 4.7 0 6.5c-1 0.9-2.1 1.3-3.3 1.3zm0-8.1c-0.9 0-1.8 0.3-2.5 1-1.4 1.4-1.4 3.7 0 5 1.4 1.4 3.7 1.4 5 0 1.4-1.4 1.4-3.7 0-5-0.7-0.7-1.6-1-2.5-1z" class="st4" stroke="#cd632e" stroke-miterlimit="10" fill="#cd632e"/></g></g><g id="XMLID_2053_" transform="matrix(1.3435 0 0 1.3415 -250.44 -288.02)"><g id="XMLID_2062_"><path id="XMLID_2063_" d="m609.2 732.6c-1.2 0-2.3-0.4-3.2-1.3-1.8-1.8-1.8-4.7 0-6.5s4.7-1.8 6.5 0 1.8 4.7 0 6.5c-0.9 0.8-2.1 1.3-3.3 1.3zm0-8.2c-0.9 0-1.8 0.3-2.5 1-1.4 1.4-1.4 3.7 0 5 1.4 1.4 3.7 1.4 5 0 1.4-1.4 1.4-3.7 0-5-0.6-0.6-1.5-1-2.5-1z" class="st4" stroke="#cd632e" stroke-miterlimit="10" fill="#cd632e"/></g><g id="XMLID_2058_"><path id="XMLID_2059_" d="m589.7 733.3c-1.2 0-2.4-0.5-3.2-1.3-1.8-1.8-1.8-4.7 0-6.5 0.9-0.9 2-1.3 3.2-1.3s2.4 0.5 3.2 1.3c1.8 1.8 1.8 4.7 0 6.5-0.8 0.8-1.9 1.3-3.2 1.3zm0-8.1c-1 0-1.8 0.4-2.5 1-1.4 1.4-1.4 3.7 0 5 1.3 1.3 3.7 1.3 5 0 1.4-1.4 1.4-3.7 0-5-0.6-0.6-1.5-1-2.5-1z" class="st4" stroke="#cd632e" stroke-miterlimit="10" fill="#cd632e"/></g><g id="XMLID_2054_"><path id="XMLID_2055_" d="m590.5 713.8c-1.2 0-2.4-0.5-3.2-1.3-0.9-0.9-1.3-2-1.3-3.2s0.5-2.4 1.3-3.2 2-1.3 3.2-1.3 2.4 0.5 3.2 1.3 1.3 2 1.3 3.2-0.5 2.4-1.3 3.2-2 1.3-3.2 1.3zm0-8.1c-1 0-1.8 0.4-2.5 1s-1 1.6-1 2.5c0 1 0.4 1.8 1 2.5 1.3 1.3 3.7 1.3 5 0 0.7-0.7 1-1.6 1-2.5 0-1-0.4-1.8-1-2.5s-1.6-1-2.5-1z" class="st4" stroke="#cd632e" stroke-miterlimit="10" fill="#cd632e"/></g></g><g stroke="#cd632e" stroke-miterlimit="10" fill="#cd632e"><g stroke-width="1.3425"><rect id="XMLID_2051_" class="st4" height="48.16" width=".26870" y="492.47" x="638.3"/><rect id="XMLID_2049_" class="st4" height="33.672" width=".26870" y="733.14" x="638.3"/><rect id="XMLID_2047_" class="st4" height=".26830" width="33.722" y="636.41" x="508.25"/><rect id="XMLID_2045_" class="st4" height=".26830" width="33.722" y="636.41" x="735.03"/></g><polygon id="XMLID_2043_" transform="matrix(1.3435 0 0 1.3415 -250.44 -288.02)" class="st4" points="794.4 663.7 810.6 682.2 810.4 682.3 794.2 663.8"/></g><g id="XMLID_2040_" transform="matrix(1.3435 0 0 1.3415 -250.44 -288.02)"><polygon id="XMLID_2041_" class="st4" stroke="#cd632e" points="698.5 619.8 698.7 620 681.5 637.2 681.3 637" stroke-miterlimit="10" fill="#cd632e"/></g><g id="XMLID_2038_" transform="matrix(1.3435 0 0 1.3415 -250.44 -288.02)"><polygon id="XMLID_2039_" class="st4" stroke="#cd632e" points="678.9 620.9 679.1 621.1 671.9 628.3 671.7 628.1" stroke-miterlimit="10" fill="#cd632e"/></g><g id="XMLID_2036_" transform="matrix(1.3435 0 0 1.3415 -250.44 -288.02)"><polygon id="XMLID_2037_" class="st4" stroke="#cd632e" points="697.6 639.6 697.8 639.8 690.6 647 690.4 646.8" stroke-miterlimit="10" fill="#cd632e"/></g><g id="XMLID_2034_" transform="matrix(1.3435 0 0 1.3415 -250.44 -288.02)"><polygon id="XMLID_2035_" class="st4" stroke="#cd632e" points="710.2 652.2 710.3 652.4 703.2 659.5 703 659.4" stroke-miterlimit="10" fill="#cd632e"/></g><g id="XMLID_2032_" transform="matrix(1.3435 0 0 1.3415 -250.44 -288.02)"><polygon id="XMLID_2033_" class="st4" stroke="#cd632e" points="729 671 729.1 671.2 722 678.3 721.8 678.2" stroke-miterlimit="10" fill="#cd632e"/></g><g id="XMLID_2030_" transform="matrix(1.3435 0 0 1.3415 -250.44 -288.02)"><polygon id="XMLID_2031_" class="st4" stroke="#cd632e" points="730 651.3 730.1 651.5 713 668.7 712.8 668.5" stroke-miterlimit="10" fill="#cd632e"/></g><g id="XMLID_2027_" transform="matrix(1.3435 0 0 1.3415 -250.44 -288.02)"><polygon id="XMLID_2028_" class="st4" stroke="#cd632e" points="640.9 740.5 641.1 740.7 623.9 757.9 623.7 757.7" stroke-miterlimit="10" fill="#cd632e"/></g><g id="XMLID_2025_" transform="matrix(1.3435 0 0 1.3415 -250.44 -288.02)"><polygon id="XMLID_2026_" class="st4" stroke="#cd632e" points="650.5 749.4 650.7 749.6 643.5 756.8 643.3 756.6" stroke-miterlimit="10" fill="#cd632e"/></g><g id="XMLID_2023_" transform="matrix(1.3435 0 0 1.3415 -250.44 -288.02)"><polygon id="XMLID_2024_" class="st4" stroke="#cd632e" points="631.8 730.7 632 730.9 624.8 738.1 624.6 737.9" stroke-miterlimit="10" fill="#cd632e"/></g><g id="XMLID_2021_" transform="matrix(1.3435 0 0 1.3415 -250.44 -288.02)"><polygon id="XMLID_2022_" class="st4" stroke="#cd632e" points="619.2 718.2 619.4 718.4 612.2 725.5 612.1 725.3" stroke-miterlimit="10" fill="#cd632e"/></g><g id="XMLID_2019_" transform="matrix(1.3435 0 0 1.3415 -250.44 -288.02)"><polygon id="XMLID_2020_" class="st4" stroke="#cd632e" points="600.4 699.4 600.6 699.6 593.4 706.7 593.3 706.6" stroke-miterlimit="10" fill="#cd632e"/></g><g id="XMLID_2017_" transform="matrix(1.3435 0 0 1.3415 -250.44 -288.02)"><polygon id="XMLID_2018_" class="st4" stroke="#cd632e" points="609.4 709 609.6 709.2 592.4 726.4 592.3 726.2" stroke-miterlimit="10" fill="#cd632e"/></g><g id="XMLID_2014_" transform="matrix(1.3435 0 0 1.3415 -250.44 -288.02)"><polygon id="XMLID_2015_" class="st4" stroke="#cd632e" points="713 709 730.2 726.1 730 726.3 712.9 709.1" stroke-miterlimit="10" fill="#cd632e"/></g><g id="XMLID_2012_" transform="matrix(1.3435 0 0 1.3415 -250.44 -288.02)"><polygon id="XMLID_2013_" class="st4" stroke="#cd632e" points="722 699.4 729.1 706.6 729 706.7 721.8 699.6" stroke-miterlimit="10" fill="#cd632e"/></g><g id="XMLID_2010_" transform="matrix(1.3435 0 0 1.3415 -250.44 -288.02)"><polygon id="XMLID_2011_" class="st4" stroke="#cd632e" points="703.3 718.1 710.4 725.3 710.3 725.4 703.1 718.3" stroke-miterlimit="10" fill="#cd632e"/></g><g id="XMLID_2008_" transform="matrix(1.3435 0 0 1.3415 -250.44 -288.02)"><polygon id="XMLID_2009_" class="st4" stroke="#cd632e" points="690.7 730.6 697.9 737.8 697.7 738 690.5 730.8" stroke-miterlimit="10" fill="#cd632e"/></g><g id="XMLID_2006_" transform="matrix(1.3435 0 0 1.3415 -250.44 -288.02)"><polygon id="XMLID_2007_" class="st4" stroke="#cd632e" points="671.9 749.4 679.1 756.6 678.9 756.8 671.7 749.6" stroke-miterlimit="10" fill="#cd632e"/></g><g id="XMLID_2004_" transform="matrix(1.3435 0 0 1.3415 -250.44 -288.02)"><polygon id="XMLID_2005_" class="st4" stroke="#cd632e" points="681.6 740.5 698.7 757.6 698.5 757.8 681.4 740.6" stroke-miterlimit="10" fill="#cd632e"/></g><g id="XMLID_1976_" transform="matrix(1.3435 0 0 1.3415 -250.44 -288.02)"><g id="XMLID_1990_"><g id="XMLID_1999_"><path id="XMLID_2000_" d="m590.5 672.4c-1.2 0-2.4-0.5-3.2-1.3-1.8-1.8-1.8-4.7 0-6.5 0.9-0.9 2-1.3 3.2-1.3s2.4 0.5 3.2 1.3c1.8 1.8 1.8 4.7 0 6.5-0.8 0.8-2 1.3-3.2 1.3zm0-8.2c-1 0-1.8 0.4-2.5 1-1.4 1.4-1.4 3.7 0 5 1.3 1.3 3.7 1.3 5 0 1.4-1.4 1.4-3.7 0-5-0.7-0.6-1.6-1-2.5-1z" class="st4" stroke="#cd632e" stroke-miterlimit="10" fill="#cd632e"/></g><g id="XMLID_1995_"><path id="XMLID_1996_" d="m589.7 652.9c-1.2 0-2.3-0.4-3.2-1.3-1.8-1.8-1.8-4.7 0-6.5s4.7-1.8 6.5 0 1.8 4.7 0 6.5c-0.9 0.8-2.1 1.3-3.3 1.3zm0-8.1c-0.9 0-1.8 0.3-2.5 1-1.4 1.4-1.4 3.7 0 5 1.4 1.4 3.7 1.4 5 0 1.4-1.4 1.4-3.7 0-5-0.6-0.7-1.6-1-2.5-1z" class="st4" stroke="#cd632e" stroke-miterlimit="10" fill="#cd632e"/></g><g id="XMLID_1991_"><path id="XMLID_1992_" d="m609.2 653.6c-1.2 0-2.3-0.4-3.2-1.3-1.8-1.8-1.8-4.7 0-6.5s4.7-1.8 6.5 0 1.8 4.7 0 6.5c-0.9 0.9-2.1 1.3-3.3 1.3zm0-8.1c-0.9 0-1.8 0.3-2.5 1-1.4 1.4-1.4 3.7 0 5 1.4 1.4 3.7 1.4 5 0 1.4-1.4 1.4-3.7 0-5-0.6-0.7-1.5-1-2.5-1z" class="st4" stroke="#cd632e" stroke-miterlimit="10" fill="#cd632e"/></g></g><g id="XMLID_1977_"><g id="XMLID_1986_"><path id="XMLID_1987_" d="m621.6 641.3c-1.2 0-2.3-0.4-3.2-1.3-1.8-1.8-1.8-4.7 0-6.5s4.7-1.8 6.5 0 1.8 4.7 0 6.5c-1 0.8-2.1 1.3-3.3 1.3zm0-8.2c-0.9 0-1.8 0.3-2.5 1-1.4 1.4-1.4 3.7 0 5 1.4 1.4 3.7 1.4 5 0 1.4-1.4 1.4-3.7 0-5-0.7-0.6-1.6-1-2.5-1z" class="st4" stroke="#cd632e" stroke-miterlimit="10" fill="#cd632e"/></g><g id="XMLID_1982_"><path id="XMLID_1983_" d="m620.8 621.8c-1.2 0-2.3-0.4-3.2-1.3-1.8-1.8-1.8-4.7 0-6.5s4.7-1.8 6.5 0 1.8 4.7 0 6.5c-0.9 0.8-2.1 1.3-3.3 1.3zm0-8.2c-0.9 0-1.8 0.3-2.5 1-1.4 1.4-1.4 3.7 0 5 1.4 1.4 3.7 1.4 5 0 1.4-1.4 1.4-3.7 0-5-0.6-0.6-1.5-1-2.5-1z" class="st4" stroke="#cd632e" stroke-miterlimit="10" fill="#cd632e"/></g><g id="XMLID_1978_"><path id="XMLID_1979_" d="m640.3 622.5c-1.2 0-2.3-0.4-3.2-1.3-1.8-1.8-1.8-4.7 0-6.5s4.7-1.8 6.5 0 1.8 4.7 0 6.5c-0.9 0.9-2.1 1.3-3.3 1.3zm0-8.1c-0.9 0-1.8 0.3-2.5 1-1.4 1.4-1.4 3.7 0 5 1.4 1.4 3.7 1.4 5 0 1.4-1.4 1.4-3.7 0-5-0.6-0.7-1.5-1-2.5-1z" class="st4" stroke="#cd632e" stroke-miterlimit="10" fill="#cd632e"/></g></g></g><g id="XMLID_1974_" transform="matrix(1.3435 0 0 1.3415 -250.44 -288.02)"><polygon id="XMLID_1975_" class="st4" stroke="#cd632e" points="592.4 651.4 609.5 668.6 609.4 668.8 592.2 651.6" stroke-miterlimit="10" fill="#cd632e"/></g><g id="XMLID_1972_" transform="matrix(1.3435 0 0 1.3415 -250.44 -288.02)"><polygon id="XMLID_1973_" class="st4" stroke="#cd632e" points="593.4 671 600.6 678.2 600.4 678.3 593.3 671.2" stroke-miterlimit="10" fill="#cd632e"/></g><g id="XMLID_1970_" transform="matrix(1.3435 0 0 1.3415 -250.44 -288.02)"><polygon id="XMLID_1971_" class="st4" stroke="#cd632e" points="612.1 652.3 619.3 659.4 619.1 659.6 612 652.5" stroke-miterlimit="10" fill="#cd632e"/></g><g id="XMLID_1968_" transform="matrix(1.3435 0 0 1.3415 -250.44 -288.02)"><polygon id="XMLID_1969_" class="st4" stroke="#cd632e" points="624.7 639.7 631.9 646.9 631.7 647.1 624.5 639.9" stroke-miterlimit="10" fill="#cd632e"/></g><g id="XMLID_1966_" transform="matrix(1.3435 0 0 1.3415 -250.44 -288.02)"><polygon id="XMLID_1967_" class="st4" stroke="#cd632e" points="643.5 620.9 650.7 628.1 650.5 628.3 643.3 621.1" stroke-miterlimit="10" fill="#cd632e"/></g><g id="XMLID_1964_" transform="matrix(1.3435 0 0 1.3415 -250.44 -288.02)"><polygon id="XMLID_1965_" class="st4" stroke="#cd632e" points="623.9 619.9 641 637.1 640.8 637.3 623.7 620.1" stroke-miterlimit="10" fill="#cd632e"/></g><g stroke="#cd632e" stroke-miterlimit="10" fill="#cd632e"><polygon id="XMLID_1962_" transform="matrix(1.3435 0 0 1.3415 -250.44 -288.02)" class="st4" points="513.6 696.6 530.5 713.2 530.4 713.4 513.5 696.7"/><polygon id="XMLID_1960_" transform="matrix(1.3435 0 0 1.3415 -250.44 -288.02)" class="st4" points="650.7 596.1 661.7 617.7 661.5 617.8 650.5 596.2"/><polygon id="XMLID_1958_" transform="matrix(1.3435 0 0 1.3415 -250.44 -288.02)" class="st4" points="673.2 595.8 673.5 595.9 661.7 617.8 661.5 617.7"/><polygon id="XMLID_1956_" transform="matrix(1.3435 0 0 1.3415 -250.44 -288.02)" class="st4" points="674.2 547.6 674.5 547.7 661.7 617.8 661.5 617.8"/><polygon id="XMLID_1954_" transform="matrix(1.3435 0 0 1.3415 -250.44 -288.02)" class="st4" points="648.5 547.6 661.7 617.8 661.5 617.8 648.2 547.7"/><rect id="XMLID_1952_" stroke-width="1.3425" transform="matrix(.74920 -.66235 .66346 .74821 0 0)" width="33.566" y="1059.4" x="-70.427" height=".40272" class="st4"/></g><g stroke="#279fc9" stroke-miterlimit="10" fill="#279fc9"><path id="XMLID_1947_" d="m638.43 984.94-348.77-348.26 348.77-348.25 348.78 348.25-348.78 348.26zm-345.01-348.26 345.01 344.5 345.02-344.5-345.02-344.5-345.01 344.5z" class="st5" stroke-width="2.685"/><polygon id="XMLID_1945_" transform="matrix(1.3435 0 0 1.3415 -250.44 -288.02)" class="st5" points="680.8 436 681 436.1 673.8 443.3 673.6 443.1" stroke-width="2"/><g stroke-width="2.685"><path id="XMLID_1941_" d="m674.84 297.55h-11.151v-11.135h11.151v11.135zm-9.8077-1.3415h8.4642v-8.4515h-8.4642v8.4515z" class="st5"/><rect id="XMLID_1939_" class="st5" height="56.344" width=".26870" y="191.03" x="637.9"/><path id="XMLID_1935_" d="m638.03 262.13-7.9268-7.9149 7.9268-7.9149 7.9268 7.9149-7.9268 7.9149zm-5.9115-7.9149 5.9115 5.9027 5.9115-5.9027-5.9115-5.9027-5.9115 5.9027z" class="st5"/></g><polygon id="XMLID_1933_" transform="matrix(1.3435 0 0 1.3415 -250.44 -288.02)" class="st5" points="699.5 454.6 699.7 454.8 692.5 462 692.3 461.8" stroke-width="2"/><path id="XMLID_1929_" d="m699.97 322.63h-11.151v-11.135h11.151v11.135zm-9.8077-1.3415h8.4642v-8.4516h-8.4642v8.4516z" class="st5" stroke-width="2.685"/><polygon id="XMLID_1927_" transform="matrix(1.3435 0 0 1.3415 -250.44 -288.02)" class="st5" points="700.2 435.4 700.4 435.6 683.5 452.5 683.3 452.3" stroke-width="2"/><path id="XMLID_1923_" d="m700.91 296.88h-11.151v-11.135h11.151v11.135zm-9.8077-1.3415h8.4642v-8.4515h-8.4642v8.4515z" class="st5" stroke-width="2.685"/></g><g id="XMLID_1920_" transform="matrix(1.3435 0 0 1.3415 -250.44 -288.02)"><polygon id="XMLID_1921_" class="st5" stroke="#279fc9" points="711.4 466.6 711.6 466.8 704.4 473.9 704.3 473.8" stroke-miterlimit="10" stroke-width="2" fill="#279fc9"/></g><g id="XMLID_1916_" transform="matrix(1.3435 0 0 1.3415 -250.44 -288.02)"><path id="XMLID_1917_" d="m719.3 467.2h-8.3v-8.3h8.3v8.3zm-7.3-1h6.3v-6.3h-6.3v6.3z" class="st5" stroke="#279fc9" stroke-miterlimit="10" stroke-width="2" fill="#279fc9"/></g><g id="XMLID_1914_" transform="matrix(1.3435 0 0 1.3415 -250.44 -288.02)"><polygon id="XMLID_1915_" class="st5" stroke="#279fc9" points="730.1 485.3 730.3 485.5 723.1 492.6 723 492.5" stroke-miterlimit="10" stroke-width="2" fill="#279fc9"/></g><g id="XMLID_1910_" transform="matrix(1.3435 0 0 1.3415 -250.44 -288.02)"><path id="XMLID_1911_" d="m738 485.9h-8.3v-8.3h8.3v8.3zm-7.3-1h6.3v-6.3h-6.3v6.3z" class="st5" stroke="#279fc9" stroke-miterlimit="10" stroke-width="2" fill="#279fc9"/></g><g id="XMLID_1908_" transform="matrix(1.3435 0 0 1.3415 -250.44 -288.02)"><polygon id="XMLID_1909_" class="st5" stroke="#279fc9" points="730.8 466.1 731 466.2 714.1 483.1 714 482.9" stroke-miterlimit="10" stroke-width="2" fill="#279fc9"/></g><g id="XMLID_1904_" transform="matrix(1.3435 0 0 1.3415 -250.44 -288.02)"><path id="XMLID_1905_" d="m738.7 466.7h-8.3v-8.3h8.3v8.3zm-7.3-1h6.3v-6.3h-6.3v6.3z" class="st5" stroke="#279fc9" stroke-miterlimit="10" stroke-width="2" fill="#279fc9"/></g><g id="XMLID_1901_" transform="matrix(1.3435 0 0 1.3415 -250.44 -288.02)"><polygon id="XMLID_1902_" class="st5" stroke="#279fc9" points="742.1 497.2 742.3 497.4 735.1 504.6 734.9 504.4" stroke-miterlimit="10" stroke-width="2" fill="#279fc9"/></g><g id="XMLID_1897_" transform="matrix(1.3435 0 0 1.3415 -250.44 -288.02)"><path id="XMLID_1898_" d="m750 497.8h-8.3v-8.3h8.3v8.3zm-7.3-1h6.3v-6.3h-6.3v6.3z" class="st5" stroke="#279fc9" stroke-miterlimit="10" stroke-width="2" fill="#279fc9"/></g><g id="XMLID_1895_" transform="matrix(1.3435 0 0 1.3415 -250.44 -288.02)"><polygon id="XMLID_1896_" class="st5" stroke="#279fc9" points="760.8 515.9 761 516.1 753.8 523.3 753.6 523.1" stroke-miterlimit="10" stroke-width="2" fill="#279fc9"/></g><g id="XMLID_1891_" transform="matrix(1.3435 0 0 1.3415 -250.44 -288.02)"><path id="XMLID_1892_" d="m768.7 516.5h-8.3v-8.3h8.3v8.3zm-7.3-1h6.3v-6.3h-6.3v6.3z" class="st5" stroke="#279fc9" stroke-miterlimit="10" stroke-width="2" fill="#279fc9"/></g><g id="XMLID_1889_" transform="matrix(1.3435 0 0 1.3415 -250.44 -288.02)"><polygon id="XMLID_1890_" class="st5" stroke="#279fc9" points="761.5 496.7 761.6 496.9 744.8 513.8 744.6 513.6" stroke-miterlimit="10" stroke-width="2" fill="#279fc9"/></g><g id="XMLID_1885_" transform="matrix(1.3435 0 0 1.3415 -250.44 -288.02)"><path id="XMLID_1886_" d="m769.3 497.3h-8.3v-8.3h8.3v8.3zm-7.2-1h6.3v-6.3h-6.3v6.3z" class="st5" stroke="#279fc9" stroke-miterlimit="10" stroke-width="2" fill="#279fc9"/></g><g id="XMLID_1882_" transform="matrix(1.3435 0 0 1.3415 -250.44 -288.02)"><polygon id="XMLID_1883_" class="st5" stroke="#279fc9" points="772.7 527.9 772.9 528.1 765.7 535.2 765.6 535.1" stroke-miterlimit="10" stroke-width="2" fill="#279fc9"/></g><g id="XMLID_1878_" transform="matrix(1.3435 0 0 1.3415 -250.44 -288.02)"><path id="XMLID_1879_" d="m780.6 528.5h-8.3v-8.3h8.3v8.3zm-7.3-1h6.3v-6.3h-6.3v6.3z" class="st5" stroke="#279fc9" stroke-miterlimit="10" stroke-width="2" fill="#279fc9"/></g><g id="XMLID_1876_" transform="matrix(1.3435 0 0 1.3415 -250.44 -288.02)"><polygon id="XMLID_1877_" class="st5" stroke="#279fc9" points="791.4 546.6 791.6 546.8 784.4 553.9 784.3 553.7" stroke-miterlimit="10" stroke-width="2" fill="#279fc9"/></g><g id="XMLID_1872_" transform="matrix(1.3435 0 0 1.3415 -250.44 -288.02)"><path id="XMLID_1873_" d="m799.3 547.2h-8.3v-8.3h8.3v8.3zm-7.3-1h6.3v-6.3h-6.3v6.3z" class="st5" stroke="#279fc9" stroke-miterlimit="10" stroke-width="2" fill="#279fc9"/></g><g id="XMLID_1870_" transform="matrix(1.3435 0 0 1.3415 -250.44 -288.02)"><polygon id="XMLID_1871_" class="st5" stroke="#279fc9" points="792.1 527.4 792.3 527.5 775.4 544.4 775.2 544.2" stroke-miterlimit="10" stroke-width="2" fill="#279fc9"/></g><g id="XMLID_1866_" transform="matrix(1.3435 0 0 1.3415 -250.44 -288.02)"><path id="XMLID_1867_" d="m800 527.9h-8.3v-8.3h8.3v8.3zm-7.3-1h6.3v-6.3h-6.3v6.3z" class="st5" stroke="#279fc9" stroke-miterlimit="10" stroke-width="2" fill="#279fc9"/></g><g id="XMLID_1863_" transform="matrix(1.3435 0 0 1.3415 -250.44 -288.02)"><polygon id="XMLID_1864_" class="st5" stroke="#279fc9" points="803.4 558.5 803.5 558.7 796.4 565.9 796.2 565.7" stroke-miterlimit="10" stroke-width="2" fill="#279fc9"/></g><g id="XMLID_1859_" transform="matrix(1.3435 0 0 1.3415 -250.44 -288.02)"><path id="XMLID_1860_" d="m811.2 559.1h-8.2v-8.3h8.3l-0.1 8.3zm-7.2-1h6.3v-6.3h-6.3v6.3z" class="st5" stroke="#279fc9" stroke-miterlimit="10" stroke-width="2" fill="#279fc9"/></g><g id="XMLID_1857_" transform="matrix(1.3435 0 0 1.3415 -250.44 -288.02)"><polygon id="XMLID_1858_" class="st5" stroke="#279fc9" points="822.1 577.2 822.2 577.4 815.1 584.6 814.9 584.4" stroke-miterlimit="10" stroke-width="2" fill="#279fc9"/></g><g id="XMLID_1853_" transform="matrix(1.3435 0 0 1.3415 -250.44 -288.02)"><path id="XMLID_1854_" d="m829.9 577.8h-8.3v-8.3h8.3v8.3zm-7.2-1h6.3v-6.3h-6.3v6.3z" class="st5" stroke="#279fc9" stroke-miterlimit="10" stroke-width="2" fill="#279fc9"/></g><g id="XMLID_1851_" transform="matrix(1.3435 0 0 1.3415 -250.44 -288.02)"><polygon id="XMLID_1852_" class="st5" stroke="#279fc9" points="822.8 558 822.9 558.2 806.1 575 805.9 574.9" stroke-miterlimit="10" stroke-width="2" fill="#279fc9"/></g><g id="XMLID_1847_" transform="matrix(1.3435 0 0 1.3415 -250.44 -288.02)"><path id="XMLID_1848_" d="m830.6 558.6h-8.3v-8.3h8.3v8.3zm-7.3-1h6.3v-6.3h-6.3v6.3z" class="st5" stroke="#279fc9" stroke-miterlimit="10" stroke-width="2" fill="#279fc9"/></g><g id="XMLID_1844_" transform="matrix(1.3435 0 0 1.3415 -250.44 -288.02)"><polygon id="XMLID_1845_" class="st5" stroke="#279fc9" points="834 589.2 834.2 589.4 827 596.5 826.8 596.3" stroke-miterlimit="10" stroke-width="2" fill="#279fc9"/></g><g id="XMLID_1840_" transform="matrix(1.3435 0 0 1.3415 -250.44 -288.02)"><path id="XMLID_1841_" d="m841.9 589.8h-8.3v-8.3h8.3v8.3zm-7.3-1h6.3v-6.3h-6.3v6.3z" class="st5" stroke="#279fc9" stroke-miterlimit="10" stroke-width="2" fill="#279fc9"/></g><g id="XMLID_1838_" transform="matrix(1.3435 0 0 1.3415 -250.44 -288.02)"><polygon id="XMLID_1839_" class="st5" stroke="#279fc9" points="852.7 607.9 852.9 608 845.7 615.2 845.5 615" stroke-miterlimit="10" stroke-width="2" fill="#279fc9"/></g><g id="XMLID_1834_" transform="matrix(1.3435 0 0 1.3415 -250.44 -288.02)"><path id="XMLID_1835_" d="m860.6 608.5h-8.3v-8.3h8.3v8.3zm-7.3-1h6.3v-6.3h-6.3v6.3z" class="st5" stroke="#279fc9" stroke-miterlimit="10" stroke-width="2" fill="#279fc9"/></g><g id="XMLID_1832_" transform="matrix(1.3435 0 0 1.3415 -250.44 -288.02)"><polygon id="XMLID_1833_" class="st5" stroke="#279fc9" points="853.4 588.6 853.6 588.8 836.7 605.7 836.5 605.5" stroke-miterlimit="10" stroke-width="2" fill="#279fc9"/></g><g id="XMLID_1828_" transform="matrix(1.3435 0 0 1.3415 -250.44 -288.02)"><path id="XMLID_1829_" d="m861.3 589.2h-8.3v-8.3h8.3v8.3zm-7.3-1h6.3v-6.3h-6.3v6.3z" class="st5" stroke="#279fc9" stroke-miterlimit="10" stroke-width="2" fill="#279fc9"/></g><g id="XMLID_1825_" transform="matrix(1.3435 0 0 1.3415 -250.44 -288.02)"><polygon id="XMLID_1826_" class="st5" stroke="#279fc9" points="864.7 619.8 864.8 620 857.7 627.2 857.5 627" stroke-miterlimit="10" stroke-width="2" fill="#279fc9"/></g><g id="XMLID_1821_" transform="matrix(1.3435 0 0 1.3415 -250.44 -288.02)"><path id="XMLID_1822_" d="m872.5 620.4h-8.3v-8.3h8.3v8.3zm-7.3-1h6.3v-6.3h-6.3v6.3z" class="st5" stroke="#279fc9" stroke-miterlimit="10" stroke-width="2" fill="#279fc9"/></g><g id="XMLID_1819_" transform="matrix(1.3435 0 0 1.3415 -250.44 -288.02)"><polygon id="XMLID_1820_" class="st5" stroke="#279fc9" points="883.4 638.5 883.5 638.7 876.4 645.9 876.2 645.7" stroke-miterlimit="10" stroke-width="2" fill="#279fc9"/></g><g id="XMLID_1815_" transform="matrix(1.3435 0 0 1.3415 -250.44 -288.02)"><path id="XMLID_1816_" d="m891.2 639.1h-8.3v-8.3h8.3v8.3zm-7.3-1h6.3v-6.3h-6.3v6.3z" class="st5" stroke="#279fc9" stroke-miterlimit="10" stroke-width="2" fill="#279fc9"/></g><g id="XMLID_1813_" transform="matrix(1.3435 0 0 1.3415 -250.44 -288.02)"><polygon id="XMLID_1814_" class="st5" stroke="#279fc9" points="884 619.3 884.2 619.5 867.4 636.3 867.2 636.2" stroke-miterlimit="10" stroke-width="2" fill="#279fc9"/></g><g id="XMLID_1809_" transform="matrix(1.3435 0 0 1.3415 -250.44 -288.02)"><path id="XMLID_1810_" d="m891.9 619.9h-8.3v-8.3h8.3v8.3zm-7.3-1h6.3v-6.3h-6.3v6.3z" class="st5" stroke="#279fc9" stroke-miterlimit="10" stroke-width="2" fill="#279fc9"/></g><g id="XMLID_1806_" transform="matrix(1.3435 0 0 1.3415 -250.44 -288.02)"><polygon id="XMLID_1807_" class="st5" stroke="#279fc9" points="895.3 650.5 895.5 650.6 888.3 657.8 888.1 657.6" stroke-miterlimit="10" stroke-width="2" fill="#279fc9"/></g><g id="XMLID_1802_" transform="matrix(1.3435 0 0 1.3415 -250.44 -288.02)"><path id="XMLID_1803_" d="m903.2 651.1h-8.3v-8.3h8.3v8.3zm-7.3-1h6.3v-6.3h-6.3v6.3z" class="st5" stroke="#279fc9" stroke-miterlimit="10" stroke-width="2" fill="#279fc9"/></g><g id="XMLID_1800_" transform="matrix(1.3435 0 0 1.3415 -250.44 -288.02)"><polygon id="XMLID_1801_" class="st5" stroke="#279fc9" points="914 669.2 914.2 669.3 907 676.5 906.8 676.3" stroke-miterlimit="10" stroke-width="2" fill="#279fc9"/></g><g id="XMLID_1796_" transform="matrix(1.3435 0 0 1.3415 -250.44 -288.02)"><path id="XMLID_1797_" d="m921.9 669.7h-8.3v-8.3h8.3v8.3zm-7.3-1h6.3v-6.3h-6.3v6.3z" class="st5" stroke="#279fc9" stroke-miterlimit="10" stroke-width="2" fill="#279fc9"/></g><g id="XMLID_1794_" transform="matrix(1.3435 0 0 1.3415 -250.44 -288.02)"><polygon id="XMLID_1795_" class="st5" stroke="#279fc9" points="914.7 649.9 914.9 650.1 898 667 897.8 666.8" stroke-miterlimit="10" stroke-width="2" fill="#279fc9"/></g><g id="XMLID_1790_" transform="matrix(1.3435 0 0 1.3415 -250.44 -288.02)"><path id="XMLID_1791_" d="m922.6 650.5h-8.3v-8.3h8.3v8.3zm-7.3-1h6.3v-6.3h-6.3v6.3z" class="st5" stroke="#279fc9" stroke-miterlimit="10" stroke-width="2" fill="#279fc9"/></g><g id="XMLID_1770_" transform="matrix(1.3435 0 0 1.3415 -250.44 -288.02)"><g id="XMLID_1787_"><polygon id="XMLID_1788_" class="st5" stroke="#279fc9" points="408.7 669.2 415.9 676.4 415.7 676.6 408.5 669.4" stroke-miterlimit="10" stroke-width="2" fill="#279fc9"/></g><g id="XMLID_1783_"><path id="XMLID_1784_" d="m409.1 669.8h-8.3v-8.3h8.3v8.3zm-7.3-1h6.3v-6.3h-6.3v6.3z" class="st5" stroke="#279fc9" stroke-miterlimit="10" stroke-width="2" fill="#279fc9"/></g><g id="XMLID_1781_"><polygon id="XMLID_1782_" class="st5" stroke="#279fc9" points="427.4 650.5 434.6 657.7 434.4 657.9 427.2 650.7" stroke-miterlimit="10" stroke-width="2" fill="#279fc9"/></g><g id="XMLID_1777_"><path id="XMLID_1778_" d="m427.8 651.1h-8.3v-8.3h8.3v8.3zm-7.3-1h6.3v-6.3h-6.3v6.3z" class="st5" stroke="#279fc9" stroke-miterlimit="10" stroke-width="2" fill="#279fc9"/></g><g id="XMLID_1775_"><polygon id="XMLID_1776_" class="st5" stroke="#279fc9" points="408.2 649.9 425 666.7 424.9 666.9 408 650" stroke-miterlimit="10" stroke-width="2" fill="#279fc9"/></g><g id="XMLID_1771_"><path id="XMLID_1772_" d="m408.6 650.4h-8.3v-8.3h8.3v8.3zm-7.3-1h6.3v-6.3h-6.3v6.3z" class="st5" stroke="#279fc9" stroke-miterlimit="10" stroke-width="2" fill="#279fc9"/></g></g><g id="XMLID_1751_" transform="matrix(1.3435 0 0 1.3415 -250.44 -288.02)"><g id="XMLID_1768_"><polygon id="XMLID_1769_" class="st5" stroke="#279fc9" points="439.4 638.6 446.5 645.8 446.3 645.9 439.2 638.8" stroke-miterlimit="10" stroke-width="2" fill="#279fc9"/></g><g id="XMLID_1764_"><path id="XMLID_1765_" d="m439.8 639.2h-8.3v-8.3h8.3v8.3zm-7.3-1h6.3v-6.3h-6.3v6.3z" class="st5" stroke="#279fc9" stroke-miterlimit="10" stroke-width="2" fill="#279fc9"/></g><g id="XMLID_1762_"><polygon id="XMLID_1763_" class="st5" stroke="#279fc9" points="458.1 619.9 465.2 627.1 465 627.2 457.9 620.1" stroke-miterlimit="10" stroke-width="2" fill="#279fc9"/></g><g id="XMLID_1758_"><path id="XMLID_1759_" d="m458.5 620.5h-8.3v-8.3h8.3v8.3zm-7.3-1h6.3v-6.3h-6.3v6.3z" class="st5" stroke="#279fc9" stroke-miterlimit="10" stroke-width="2" fill="#279fc9"/></g><g id="XMLID_1756_"><polygon id="XMLID_1757_" class="st5" stroke="#279fc9" points="438.8 619.2 455.7 636.1 455.5 636.3 438.7 619.4" stroke-miterlimit="10" stroke-width="2" fill="#279fc9"/></g><g id="XMLID_1752_"><path id="XMLID_1753_" d="m439.2 619.8h-8.2v-8.3h8.3l-0.1 8.3zm-7.2-1h6.3v-6.3h-6.3v6.3z" class="st5" stroke="#279fc9" stroke-miterlimit="10" stroke-width="2" fill="#279fc9"/></g></g><g id="XMLID_1732_" transform="matrix(1.3435 0 0 1.3415 -250.44 -288.02)"><g id="XMLID_1749_"><polygon id="XMLID_1750_" class="st5" stroke="#279fc9" points="470 608 477.2 615.1 477 615.3 469.8 608.1" stroke-miterlimit="10" stroke-width="2" fill="#279fc9"/></g><g id="XMLID_1745_"><path id="XMLID_1746_" d="m470.4 608.5h-8.3v-8.3h8.3v8.3zm-7.3-1h6.3v-6.3h-6.3v6.3z" class="st5" stroke="#279fc9" stroke-miterlimit="10" stroke-width="2" fill="#279fc9"/></g><g id="XMLID_1743_"><polygon id="XMLID_1744_" class="st5" stroke="#279fc9" points="488.7 589.3 495.9 596.4 495.7 596.6 488.5 589.4" stroke-miterlimit="10" stroke-width="2" fill="#279fc9"/></g><g id="XMLID_1739_"><path id="XMLID_1740_" d="m489.1 589.8h-8.3v-8.3h8.3v8.3zm-7.3-1h6.3v-6.3h-6.3v6.3z" class="st5" stroke="#279fc9" stroke-miterlimit="10" stroke-width="2" fill="#279fc9"/></g><g id="XMLID_1737_"><polygon id="XMLID_1738_" class="st5" stroke="#279fc9" points="469.5 588.6 486.3 605.4 486.2 605.6 469.3 588.7" stroke-miterlimit="10" stroke-width="2" fill="#279fc9"/></g><g id="XMLID_1733_"><path id="XMLID_1734_" d="m469.9 589.2h-8.3v-8.3h8.3v8.3zm-7.3-1h6.3v-6.3h-6.3v6.3z" class="st5" stroke="#279fc9" stroke-miterlimit="10" stroke-width="2" fill="#279fc9"/></g></g><g id="XMLID_1713_" transform="matrix(1.3435 0 0 1.3415 -250.44 -288.02)"><g id="XMLID_1730_"><polygon id="XMLID_1731_" class="st5" stroke="#279fc9" points="500.6 577.3 507.8 584.5 507.6 584.7 500.5 577.5" stroke-miterlimit="10" stroke-width="2" fill="#279fc9"/></g><g id="XMLID_1726_"><path id="XMLID_1727_" d="m501.1 577.9h-8.3v-8.3h8.3v8.3zm-7.3-1h6.3v-6.3h-6.3v6.3z" class="st5" stroke="#279fc9" stroke-miterlimit="10" stroke-width="2" fill="#279fc9"/></g><g id="XMLID_1724_"><polygon id="XMLID_1725_" class="st5" stroke="#279fc9" points="519.3 558.6 526.5 565.8 526.3 566 519.2 558.8" stroke-miterlimit="10" stroke-width="2" fill="#279fc9"/></g><g id="XMLID_1720_"><path id="XMLID_1721_" d="m519.8 559.2h-8.3v-8.3h8.3v8.3zm-7.3-1h6.3v-6.3h-6.3v6.3z" class="st5" stroke="#279fc9" stroke-miterlimit="10" stroke-width="2" fill="#279fc9"/></g><g id="XMLID_1718_"><polygon id="XMLID_1719_" class="st5" stroke="#279fc9" points="500.1 557.9 517 574.8 516.8 575 499.9 558.1" stroke-miterlimit="10" stroke-width="2" fill="#279fc9"/></g><g id="XMLID_1714_"><path id="XMLID_1715_" d="m500.5 558.5h-8.3v-8.3h8.3v8.3zm-7.3-1h6.3v-6.3h-6.3v6.3z" class="st5" stroke="#279fc9" stroke-miterlimit="10" stroke-width="2" fill="#279fc9"/></g></g><g id="XMLID_1694_" transform="matrix(1.3435 0 0 1.3415 -250.44 -288.02)"><g id="XMLID_1711_"><polygon id="XMLID_1712_" class="st5" stroke="#279fc9" points="531.3 546.7 538.5 553.8 538.3 554 531.1 546.8" stroke-miterlimit="10" stroke-width="2" fill="#279fc9"/></g><g id="XMLID_1707_"><path id="XMLID_1708_" d="m531.7 547.3h-8.3v-8.3h8.3v8.3zm-7.3-1h6.3v-6.3h-6.3v6.3z" class="st5" stroke="#279fc9" stroke-miterlimit="10" stroke-width="2" fill="#279fc9"/></g><g id="XMLID_1705_"><polygon id="XMLID_1706_" class="st5" stroke="#279fc9" points="550 528 557.2 535.1 557 535.3 549.8 528.1" stroke-miterlimit="10" stroke-width="2" fill="#279fc9"/></g><g id="XMLID_1701_"><path id="XMLID_1702_" d="m550.4 528.6h-8.3v-8.3h8.3v8.3zm-7.3-1h6.3v-6.3h-6.3v6.3z" class="st5" stroke="#279fc9" stroke-miterlimit="10" stroke-width="2" fill="#279fc9"/></g><g id="XMLID_1699_"><polygon id="XMLID_1700_" class="st5" stroke="#279fc9" points="530.8 527.3 547.6 544.1 547.5 544.3 530.6 527.5" stroke-miterlimit="10" stroke-width="2" fill="#279fc9"/></g><g id="XMLID_1695_"><path id="XMLID_1696_" d="m531.2 527.9h-8.3v-8.3h8.3v8.3zm-7.3-1h6.3v-6.3h-6.3v6.3z" class="st5" stroke="#279fc9" stroke-miterlimit="10" stroke-width="2" fill="#279fc9"/></g></g><g id="XMLID_1675_" transform="matrix(1.3435 0 0 1.3415 -250.44 -288.02)"><g id="XMLID_1692_"><polygon id="XMLID_1693_" class="st5" stroke="#279fc9" points="561.9 516 569.1 523.2 568.9 523.4 561.8 516.2" stroke-miterlimit="10" stroke-width="2" fill="#279fc9"/></g><g id="XMLID_1688_"><path id="XMLID_1689_" d="m562.3 516.6h-8.3v-8.3h8.3v8.3zm-7.2-1h6.3v-6.3h-6.3v6.3z" class="st5" stroke="#279fc9" stroke-miterlimit="10" stroke-width="2" fill="#279fc9"/></g><g id="XMLID_1686_"><polygon id="XMLID_1687_" class="st5" stroke="#279fc9" points="580.6 497.3 587.8 504.5 587.6 504.7 580.5 497.5" stroke-miterlimit="10" stroke-width="2" fill="#279fc9"/></g><g id="XMLID_1682_"><path id="XMLID_1683_" d="m581 497.9h-8.3v-8.3h8.3v8.3zm-7.2-1h6.3v-6.3h-6.3v6.3z" class="st5" stroke="#279fc9" stroke-miterlimit="10" stroke-width="2" fill="#279fc9"/></g><g id="XMLID_1680_"><polygon id="XMLID_1681_" class="st5" stroke="#279fc9" points="561.4 496.6 578.3 513.5 578.1 513.7 561.2 496.8" stroke-miterlimit="10" stroke-width="2" fill="#279fc9"/></g><g id="XMLID_1676_"><path id="XMLID_1677_" d="m561.8 497.2h-8.3v-8.3h8.3v8.3zm-7.3-1h6.3v-6.3h-6.3v6.3z" class="st5" stroke="#279fc9" stroke-miterlimit="10" stroke-width="2" fill="#279fc9"/></g></g><g id="XMLID_1656_" transform="matrix(1.3435 0 0 1.3415 -250.44 -288.02)"><g id="XMLID_1673_"><polygon id="XMLID_1674_" class="st5" stroke="#279fc9" points="592.6 485.4 599.7 492.5 599.6 492.7 592.4 485.6" stroke-miterlimit="10" stroke-width="2" fill="#279fc9"/></g><g id="XMLID_1669_"><path id="XMLID_1670_" d="m593 486h-8.3v-8.3h8.3v8.3zm-7.3-1h6.3v-6.3h-6.3v6.3z" class="st5" stroke="#279fc9" stroke-miterlimit="10" stroke-width="2" fill="#279fc9"/></g><g id="XMLID_1667_"><polygon id="XMLID_1668_" class="st5" stroke="#279fc9" points="611.3 466.7 618.4 473.8 618.3 474 611.1 466.9" stroke-miterlimit="10" stroke-width="2" fill="#279fc9"/></g><g id="XMLID_1663_"><path id="XMLID_1664_" d="m611.7 467.3h-8.3v-8.3h8.3v8.3zm-7.3-1h6.3v-6.3h-6.3v6.3z" class="st5" stroke="#279fc9" stroke-miterlimit="10" stroke-width="2" fill="#279fc9"/></g><g id="XMLID_1661_"><polygon id="XMLID_1662_" class="st5" stroke="#279fc9" points="592.1 466 608.9 482.9 608.7 483 591.9 466.2" stroke-miterlimit="10" stroke-width="2" fill="#279fc9"/></g><g id="XMLID_1657_"><path id="XMLID_1658_" d="m592.5 466.6h-8.3v-8.3h8.3v8.3zm-7.3-1h6.3v-6.3h-6.3v6.3z" class="st5" stroke="#279fc9" stroke-miterlimit="10" stroke-width="2" fill="#279fc9"/></g></g><g id="XMLID_1637_" transform="matrix(1.3435 0 0 1.3415 -250.44 -288.02)"><g id="XMLID_1654_"><polygon id="XMLID_1655_" class="st5" stroke="#279fc9" points="623.2 454.7 630.4 461.9 630.2 462.1 623 454.9" stroke-miterlimit="10" stroke-width="2" fill="#279fc9"/></g><g id="XMLID_1650_"><path id="XMLID_1651_" d="m623.6 455.3h-8.3v-8.3h8.3v8.3zm-7.3-1h6.3v-6.3h-6.3v6.3z" class="st5" stroke="#279fc9" stroke-miterlimit="10" stroke-width="2" fill="#279fc9"/></g><g id="XMLID_1648_"><polygon id="XMLID_1649_" class="st5" stroke="#279fc9" points="641.9 436 649.1 443.2 648.9 443.4 641.7 436.2" stroke-miterlimit="10" stroke-width="2" fill="#279fc9"/></g><g id="XMLID_1644_"><path id="XMLID_1645_" d="m642.3 436.6h-8.3v-8.3h8.3v8.3zm-7.3-1h6.3v-6.3h-6.3v6.3z" class="st5" stroke="#279fc9" stroke-miterlimit="10" stroke-width="2" fill="#279fc9"/></g><g id="XMLID_1642_"><polygon id="XMLID_1643_" class="st5" stroke="#279fc9" points="622.7 435.3 639.6 452.2 639.4 452.4 622.5 435.5" stroke-miterlimit="10" stroke-width="2" fill="#279fc9"/></g><g id="XMLID_1638_"><path id="XMLID_1639_" d="m623.1 435.9h-8.3v-8.3h8.3v8.3zm-7.3-1h6.3v-6.3h-6.3v6.3z" class="st5" stroke="#279fc9" stroke-miterlimit="10" stroke-width="2" fill="#279fc9"/></g></g><g id="XMLID_1617_" transform="matrix(1.3435 0 0 1.3415 -250.44 -288.02)"><g id="XMLID_1634_"><polygon id="XMLID_1635_" class="st5" stroke="#279fc9" points="649.1 935.6 649.3 935.8 642.1 943 641.9 942.8" stroke-miterlimit="10" stroke-width="2" fill="#279fc9"/></g><g id="XMLID_1630_"><path id="XMLID_1631_" d="m642.5 950.7h-8.3v-8.3h8.3v8.3zm-7.3-1h6.3v-6.3h-6.3v6.3z" class="st5" stroke="#279fc9" stroke-miterlimit="10" stroke-width="2" fill="#279fc9"/></g><g id="XMLID_1628_"><polygon id="XMLID_1629_" class="st5" stroke="#279fc9" points="630.4 916.9 630.6 917.1 623.4 924.3 623.2 924.1" stroke-miterlimit="10" stroke-width="2" fill="#279fc9"/></g><g id="XMLID_1624_"><path id="XMLID_1625_" d="m623.8 932h-8.3v-8.3h8.3v8.3zm-7.3-1h6.3v-6.3h-6.3v6.3z" class="st5" stroke="#279fc9" stroke-miterlimit="10" stroke-width="2" fill="#279fc9"/></g><g id="XMLID_1622_"><polygon id="XMLID_1623_" class="st5" stroke="#279fc9" points="639.4 926.5 639.6 926.6 622.7 943.5 622.5 943.3" stroke-miterlimit="10" stroke-width="2" fill="#279fc9"/></g><g id="XMLID_1618_"><path id="XMLID_1619_" d="m623.1 951.2h-8.3v-8.3h8.3v8.3zm-7.3-1h6.3v-6.3h-6.3v6.3z" class="st5" stroke="#279fc9" stroke-miterlimit="10" stroke-width="2" fill="#279fc9"/></g></g><g id="XMLID_1598_" transform="matrix(1.3435 0 0 1.3415 -250.44 -288.02)"><g id="XMLID_1615_"><polygon id="XMLID_1616_" class="st5" stroke="#279fc9" points="618.4 905 618.6 905.2 611.4 912.3 611.3 912.2" stroke-miterlimit="10" stroke-width="2" fill="#279fc9"/></g><g id="XMLID_1611_"><path id="XMLID_1612_" d="m611.9 920h-8.3v-8.3h8.3v8.3zm-7.3-1h6.3v-6.3h-6.3v6.3z" class="st5" stroke="#279fc9" stroke-miterlimit="10" stroke-width="2" fill="#279fc9"/></g><g id="XMLID_1609_"><polygon id="XMLID_1610_" class="st5" stroke="#279fc9" points="599.7 886.3 599.9 886.5 592.7 893.6 592.6 893.5" stroke-miterlimit="10" stroke-width="2" fill="#279fc9"/></g><g id="XMLID_1605_"><path id="XMLID_1606_" d="m593.2 901.3h-8.3v-8.3h8.3v8.3zm-7.3-1h6.3v-6.3h-6.3v6.3z" class="st5" stroke="#279fc9" stroke-miterlimit="10" stroke-width="2" fill="#279fc9"/></g><g id="XMLID_1603_"><polygon id="XMLID_1604_" class="st5" stroke="#279fc9" points="608.7 895.8 608.9 896 592.1 912.9 591.9 912.7" stroke-miterlimit="10" stroke-width="2" fill="#279fc9"/></g><g id="XMLID_1599_"><path id="XMLID_1600_" d="m592.5 920.6h-8.3v-8.3h8.3v8.3zm-7.3-1h6.3v-6.3h-6.3v6.3z" class="st5" stroke="#279fc9" stroke-miterlimit="10" stroke-width="2" fill="#279fc9"/></g></g><g id="XMLID_1579_" transform="matrix(1.3435 0 0 1.3415 -250.44 -288.02)"><g id="XMLID_1596_"><polygon id="XMLID_1597_" class="st5" stroke="#279fc9" points="587.8 874.3 588 874.5 580.8 881.7 580.6 881.5" stroke-miterlimit="10" stroke-width="2" fill="#279fc9"/></g><g id="XMLID_1592_"><path id="XMLID_1593_" d="m581.2 889.4h-8.3v-8.3h8.3v8.3zm-7.3-1h6.3v-6.3h-6.3v6.3z" class="st5" stroke="#279fc9" stroke-miterlimit="10" stroke-width="2" fill="#279fc9"/></g><g id="XMLID_1590_"><polygon id="XMLID_1591_" class="st5" stroke="#279fc9" points="569.1 855.6 569.3 855.8 562.1 863 561.9 862.8" stroke-miterlimit="10" stroke-width="2" fill="#279fc9"/></g><g id="XMLID_1586_"><path id="XMLID_1587_" d="m562.5 870.7h-8.3v-8.3h8.3v8.3zm-7.3-1h6.3v-6.3h-6.3v6.3z" class="st5" stroke="#279fc9" stroke-miterlimit="10" stroke-width="2" fill="#279fc9"/></g><g id="XMLID_1584_"><polygon id="XMLID_1585_" class="st5" stroke="#279fc9" points="578.1 865.2 578.3 865.4 561.4 882.2 561.2 882" stroke-miterlimit="10" stroke-width="2" fill="#279fc9"/></g><g id="XMLID_1580_"><path id="XMLID_1581_" d="m561.8 889.9h-8.3v-8.3h8.3v8.3zm-7.3-1h6.3v-6.3h-6.3v6.3z" class="st5" stroke="#279fc9" stroke-miterlimit="10" stroke-width="2" fill="#279fc9"/></g></g><g id="XMLID_1560_" transform="matrix(1.3435 0 0 1.3415 -250.44 -288.02)"><g id="XMLID_1577_"><polygon id="XMLID_1578_" class="st5" stroke="#279fc9" points="557.1 843.7 557.3 843.9 550.2 851 550 850.9" stroke-miterlimit="10" stroke-width="2" fill="#279fc9"/></g><g id="XMLID_1573_"><path id="XMLID_1574_" d="m550.6 858.7h-8.3v-8.3h8.3v8.3zm-7.3-1h6.3v-6.3h-6.3v6.3z" class="st5" stroke="#279fc9" stroke-miterlimit="10" stroke-width="2" fill="#279fc9"/></g><g id="XMLID_1571_"><polygon id="XMLID_1572_" class="st5" stroke="#279fc9" points="538.4 825 538.6 825.2 531.5 832.3 531.3 832.2" stroke-miterlimit="10" stroke-width="2" fill="#279fc9"/></g><g id="XMLID_1567_"><path id="XMLID_1568_" d="m531.9 840h-8.3v-8.3h8.3v8.3zm-7.3-1h6.3v-6.3h-6.3v6.3z" class="st5" stroke="#279fc9" stroke-miterlimit="10" stroke-width="2" fill="#279fc9"/></g><g id="XMLID_1565_"><polygon id="XMLID_1566_" class="st5" stroke="#279fc9" points="547.5 834.5 547.6 834.7 530.8 851.6 530.6 851.4" stroke-miterlimit="10" stroke-width="2" fill="#279fc9"/></g><g id="XMLID_1561_"><path id="XMLID_1562_" d="m531.2 859.3h-8.3v-8.3h8.3v8.3zm-7.3-1h6.3v-6.3h-6.3v6.3z" class="st5" stroke="#279fc9" stroke-miterlimit="10" stroke-width="2" fill="#279fc9"/></g></g><g id="XMLID_1541_" transform="matrix(1.3435 0 0 1.3415 -250.44 -288.02)"><g id="XMLID_1558_"><polygon id="XMLID_1559_" class="st5" stroke="#279fc9" points="526.5 813.1 526.7 813.2 519.5 820.4 519.3 820.2" stroke-miterlimit="10" stroke-width="2" fill="#279fc9"/></g><g id="XMLID_1554_"><path id="XMLID_1555_" d="m519.9 828.1h-8.3v-8.3h8.3v8.3zm-7.3-1h6.3v-6.3h-6.3v6.3z" class="st5" stroke="#279fc9" stroke-miterlimit="10" stroke-width="2" fill="#279fc9"/></g><g id="XMLID_1552_"><polygon id="XMLID_1553_" class="st5" stroke="#279fc9" points="507.8 794.4 508 794.5 500.8 801.7 500.6 801.5" stroke-miterlimit="10" stroke-width="2" fill="#279fc9"/></g><g id="XMLID_1548_"><path id="XMLID_1549_" d="m501.2 809.4h-8.3v-8.3h8.3v8.3zm-7.3-1h6.3v-6.3h-6.3v6.3z" class="st5" stroke="#279fc9" stroke-miterlimit="10" stroke-width="2" fill="#279fc9"/></g><g id="XMLID_1546_"><polygon id="XMLID_1547_" class="st5" stroke="#279fc9" points="516.8 803.9 517 804.1 500.1 820.9 499.9 820.8" stroke-miterlimit="10" stroke-width="2" fill="#279fc9"/></g><g id="XMLID_1542_"><path id="XMLID_1543_" d="m500.5 828.6h-8.3v-8.3h8.3v8.3zm-7.3-1h6.3v-6.3h-6.3v6.3z" class="st5" stroke="#279fc9" stroke-miterlimit="10" stroke-width="2" fill="#279fc9"/></g></g><g id="XMLID_1463_" transform="matrix(1.3435 0 0 1.3415 -250.44 -288.02)"><g id="XMLID_1539_"><polygon id="XMLID_1540_" class="st5" stroke="#279fc9" points="495.9 782.4 496 782.6 488.9 789.8 488.7 789.6" stroke-miterlimit="10" stroke-width="2" fill="#279fc9"/></g><g id="XMLID_1535_"><path id="XMLID_1536_" d="m489.3 797.5h-8.3v-8.3h8.3v8.3zm-7.3-1h6.3v-6.3h-6.3v6.3z" class="st5" stroke="#279fc9" stroke-miterlimit="10" stroke-width="2" fill="#279fc9"/></g><g id="XMLID_1533_"><polygon id="XMLID_1534_" class="st5" stroke="#279fc9" points="477.2 763.7 477.3 763.9 470.2 771.1 470 770.9" stroke-miterlimit="10" stroke-width="2" fill="#279fc9"/></g><g id="XMLID_1529_"><path id="XMLID_1530_" d="m470.6 778.8h-8.3v-8.3h8.3v8.3zm-7.3-1h6.3v-6.3h-6.3v6.3z" class="st5" stroke="#279fc9" stroke-miterlimit="10" stroke-width="2" fill="#279fc9"/></g><g id="XMLID_1527_"><polygon id="XMLID_1528_" class="st5" stroke="#279fc9" points="486.2 773.2 486.3 773.4 469.5 790.3 469.3 790.1" stroke-miterlimit="10" stroke-width="2" fill="#279fc9"/></g><g id="XMLID_1464_"><path id="XMLID_1465_" d="m469.9 798h-8.3v-8.3h8.3v8.3zm-7.3-1h6.3v-6.3h-6.3v6.3z" class="st5" stroke="#279fc9" stroke-miterlimit="10" stroke-width="2" fill="#279fc9"/></g></g><g id="XMLID_1433_" transform="matrix(1.3435 0 0 1.3415 -250.44 -288.02)"><g id="XMLID_1461_"><polygon id="XMLID_1462_" class="st5" stroke="#279fc9" points="465.2 751.8 465.4 751.9 458.2 759.1 458 758.9" stroke-miterlimit="10" stroke-width="2" fill="#279fc9"/></g><g id="XMLID_1452_"><path id="XMLID_1458_" d="m458.6 766.8h-8.3v-8.3h8.3v8.3zm-7.3-1h6.3v-6.3h-6.3v6.3z" class="st5" stroke="#279fc9" stroke-miterlimit="10" stroke-width="2" fill="#279fc9"/></g><g id="XMLID_1444_"><polygon id="XMLID_1445_" class="st5" stroke="#279fc9" points="446.5 733.1 446.7 733.2 439.5 740.4 439.3 740.2" stroke-miterlimit="10" stroke-width="2" fill="#279fc9"/></g><g id="XMLID_1440_"><path id="XMLID_1441_" d="m439.9 748.1h-8.3v-8.3h8.3v8.3zm-7.3-1h6.3v-6.3h-6.3v6.3z" class="st5" stroke="#279fc9" stroke-miterlimit="10" stroke-width="2" fill="#279fc9"/></g><g id="XMLID_1438_"><polygon id="XMLID_1439_" class="st5" stroke="#279fc9" points="455.5 742.6 455.7 742.8 438.8 759.6 438.7 759.5" stroke-miterlimit="10" stroke-width="2" fill="#279fc9"/></g><g id="XMLID_1434_"><path id="XMLID_1435_" d="m439.2 767.3h-8.2v-8.3h8.3l-0.1 8.3zm-7.2-1h6.3v-6.3h-6.3v6.3z" class="st5" stroke="#279fc9" stroke-miterlimit="10" stroke-width="2" fill="#279fc9"/></g></g><g id="XMLID_1414_" transform="matrix(1.3435 0 0 1.3415 -250.44 -288.02)"><g id="XMLID_1431_"><polygon id="XMLID_1432_" class="st5" stroke="#279fc9" points="434.6 721.1 434.7 721.3 427.6 728.5 427.4 728.3" stroke-miterlimit="10" stroke-width="2" fill="#279fc9"/></g><g id="XMLID_1427_"><path id="XMLID_1428_" d="m428 736.2h-8.3v-8.3h8.3v8.3zm-7.3-1h6.3v-6.3h-6.3v6.3z" class="st5" stroke="#279fc9" stroke-miterlimit="10" stroke-width="2" fill="#279fc9"/></g><g id="XMLID_1425_"><polygon id="XMLID_1426_" class="st5" stroke="#279fc9" points="415.9 702.4 416 702.6 408.9 709.8 408.7 709.6" stroke-miterlimit="10" stroke-width="2" fill="#279fc9"/></g><g id="XMLID_1421_"><path id="XMLID_1422_" d="m409.3 717.5h-8.3v-8.3h8.3v8.3zm-7.3-1h6.3v-6.3h-6.3v6.3z" class="st5" stroke="#279fc9" stroke-miterlimit="10" stroke-width="2" fill="#279fc9"/></g><g id="XMLID_1419_"><polygon id="XMLID_1420_" class="st5" stroke="#279fc9" points="424.9 712 425 712.1 408.2 729 408 728.8" stroke-miterlimit="10" stroke-width="2" fill="#279fc9"/></g><g id="XMLID_1415_"><path id="XMLID_1416_" d="m408.6 736.7h-8.3v-8.3h8.3v8.3zm-7.3-1h6.3v-6.3h-6.3v6.3z" class="st5" stroke="#279fc9" stroke-miterlimit="10" stroke-width="2" fill="#279fc9"/></g></g><g id="XMLID_1394_" transform="matrix(1.3435 0 0 1.3415 -250.44 -288.02)"><g id="XMLID_1411_"><polygon id="XMLID_1412_" class="st5" stroke="#279fc9" points="907.2 702.3 914.3 709.5 914.2 709.7 907 702.5" stroke-miterlimit="10" stroke-width="2" fill="#279fc9"/></g><g id="XMLID_1407_"><path id="XMLID_1408_" d="m922 717.4h-8.3v-8.3h8.3v8.3zm-7.2-1h6.3v-6.3h-6.3v6.3z" class="st5" stroke="#279fc9" stroke-miterlimit="10" stroke-width="2" fill="#279fc9"/></g><g id="XMLID_1405_"><polygon id="XMLID_1406_" class="st5" stroke="#279fc9" points="888.5 721 895.6 728.2 895.5 728.4 888.3 721.2" stroke-miterlimit="10" stroke-width="2" fill="#279fc9"/></g><g id="XMLID_1401_"><path id="XMLID_1402_" d="m903.3 736.1h-8.3v-8.3h8.3v8.3zm-7.2-1h6.3v-6.3h-6.3v6.3z" class="st5" stroke="#279fc9" stroke-miterlimit="10" stroke-width="2" fill="#279fc9"/></g><g id="XMLID_1399_"><polygon id="XMLID_1400_" class="st5" stroke="#279fc9" points="898 712 914.9 728.9 914.7 729.1 897.8 712.2" stroke-miterlimit="10" stroke-width="2" fill="#279fc9"/></g><g id="XMLID_1395_"><path id="XMLID_1396_" d="m922.6 736.8h-8.3v-8.3h8.3v8.3zm-7.3-1h6.3v-6.3h-6.3v6.3z" class="st5" stroke="#279fc9" stroke-miterlimit="10" stroke-width="2" fill="#279fc9"/></g></g><g id="XMLID_1375_" transform="matrix(1.3435 0 0 1.3415 -250.44 -288.02)"><g id="XMLID_1392_"><polygon id="XMLID_1393_" class="st5" stroke="#279fc9" points="876.5 733 883.7 740.2 883.5 740.3 876.4 733.2" stroke-miterlimit="10" stroke-width="2" fill="#279fc9"/></g><g id="XMLID_1388_"><path id="XMLID_1389_" d="m891.4 748h-8.3v-8.3h8.3v8.3zm-7.3-1h6.3v-6.3h-6.3v6.3z" class="st5" stroke="#279fc9" stroke-miterlimit="10" stroke-width="2" fill="#279fc9"/></g><g id="XMLID_1386_"><polygon id="XMLID_1387_" class="st5" stroke="#279fc9" points="857.8 751.7 865 758.8 864.8 759 857.7 751.9" stroke-miterlimit="10" stroke-width="2" fill="#279fc9"/></g><g id="XMLID_1382_"><path id="XMLID_1383_" d="m872.7 766.7h-8.3v-8.3h8.3v8.3zm-7.3-1h6.3v-6.3h-6.3v6.3z" class="st5" stroke="#279fc9" stroke-miterlimit="10" stroke-width="2" fill="#279fc9"/></g><g id="XMLID_1380_"><polygon id="XMLID_1381_" class="st5" stroke="#279fc9" points="867.4 742.7 884.2 759.5 884 759.7 867.2 742.9" stroke-miterlimit="10" stroke-width="2" fill="#279fc9"/></g><g id="XMLID_1376_"><path id="XMLID_1377_" d="m891.9 767.4h-8.3v-8.3h8.3v8.3zm-7.3-1h6.3v-6.3h-6.3v6.3z" class="st5" stroke="#279fc9" stroke-miterlimit="10" stroke-width="2" fill="#279fc9"/></g></g><g id="XMLID_1356_" transform="matrix(1.3435 0 0 1.3415 -250.44 -288.02)"><g id="XMLID_1373_"><polygon id="XMLID_1374_" class="st5" stroke="#279fc9" points="845.9 763.6 853.1 770.8 852.9 771 845.7 763.8" stroke-miterlimit="10" stroke-width="2" fill="#279fc9"/></g><g id="XMLID_1369_"><path id="XMLID_1370_" d="m860.8 778.7h-8.3v-8.3h8.3v8.3zm-7.3-1h6.3v-6.3h-6.3v6.3z" class="st5" stroke="#279fc9" stroke-miterlimit="10" stroke-width="2" fill="#279fc9"/></g><g id="XMLID_1367_"><polygon id="XMLID_1368_" class="st5" stroke="#279fc9" points="827.2 782.3 834.4 789.5 834.2 789.7 827 782.5" stroke-miterlimit="10" stroke-width="2" fill="#279fc9"/></g><g id="XMLID_1363_"><path id="XMLID_1364_" d="m842.1 797.4h-8.3v-8.3h8.3v8.3zm-7.3-1h6.3v-6.3h-6.3v6.3z" class="st5" stroke="#279fc9" stroke-miterlimit="10" stroke-width="2" fill="#279fc9"/></g><g id="XMLID_1361_"><polygon id="XMLID_1362_" class="st5" stroke="#279fc9" points="836.7 773.3 853.6 790.2 853.4 790.4 836.5 773.5" stroke-miterlimit="10" stroke-width="2" fill="#279fc9"/></g><g id="XMLID_1357_"><path id="XMLID_1358_" d="m861.3 798.1h-8.3v-8.3h8.3v8.3zm-7.3-1h6.3v-6.3h-6.3v6.3z" class="st5" stroke="#279fc9" stroke-miterlimit="10" stroke-width="2" fill="#279fc9"/></g></g><g id="XMLID_1337_" transform="matrix(1.3435 0 0 1.3415 -250.44 -288.02)"><g id="XMLID_1354_"><polygon id="XMLID_1355_" class="st5" stroke="#279fc9" points="815.2 794.3 822.4 801.4 822.2 801.6 815.1 794.5" stroke-miterlimit="10" stroke-width="2" fill="#279fc9"/></g><g id="XMLID_1350_"><path id="XMLID_1351_" d="m830.1 809.3h-8.3v-8.3h8.3v8.3zm-7.3-1h6.3v-6.3h-6.3v6.3z" class="st5" stroke="#279fc9" stroke-miterlimit="10" stroke-width="2" fill="#279fc9"/></g><g id="XMLID_1348_"><polygon id="XMLID_1349_" class="st5" stroke="#279fc9" points="796.5 813 803.7 820.1 803.5 820.3 796.4 813.1" stroke-miterlimit="10" stroke-width="2" fill="#279fc9"/></g><g id="XMLID_1344_"><path id="XMLID_1345_" d="m811.4 828h-8.3v-8.3h8.3v8.3zm-7.3-1h6.3v-6.3h-6.3v6.3z" class="st5" stroke="#279fc9" stroke-miterlimit="10" stroke-width="2" fill="#279fc9"/></g><g id="XMLID_1342_"><polygon id="XMLID_1343_" class="st5" stroke="#279fc9" points="806.1 804 822.9 820.8 822.8 821 805.9 804.1" stroke-miterlimit="10" stroke-width="2" fill="#279fc9"/></g><g id="XMLID_1338_"><path id="XMLID_1339_" d="m830.6 828.7h-8.3v-8.3h8.3v8.3zm-7.3-1h6.3v-6.3h-6.3v6.3z" class="st5" stroke="#279fc9" stroke-miterlimit="10" stroke-width="2" fill="#279fc9"/></g></g><g id="XMLID_1318_" transform="matrix(1.3435 0 0 1.3415 -250.44 -288.02)"><g id="XMLID_1335_"><polygon id="XMLID_1336_" class="st5" stroke="#279fc9" points="784.6 824.9 791.8 832.1 791.6 832.3 784.4 825.1" stroke-miterlimit="10" stroke-width="2" fill="#279fc9"/></g><g id="XMLID_1331_"><path id="XMLID_1332_" d="m799.5 840h-8.3v-8.3h8.3v8.3zm-7.3-1h6.3v-6.3h-6.3v6.3z" class="st5" stroke="#279fc9" stroke-miterlimit="10" stroke-width="2" fill="#279fc9"/></g><g id="XMLID_1329_"><polygon id="XMLID_1330_" class="st5" stroke="#279fc9" points="765.9 843.6 773.1 850.8 772.9 851 765.7 843.8" stroke-miterlimit="10" stroke-width="2" fill="#279fc9"/></g><g id="XMLID_1325_"><path id="XMLID_1326_" d="m780.8 858.7h-8.3v-8.3h8.3v8.3zm-7.3-1h6.3v-6.3h-6.3v6.3z" class="st5" stroke="#279fc9" stroke-miterlimit="10" stroke-width="2" fill="#279fc9"/></g><g id="XMLID_1323_"><polygon id="XMLID_1324_" class="st5" stroke="#279fc9" points="775.4 834.6 792.3 851.5 792.1 851.7 775.2 834.8" stroke-miterlimit="10" stroke-width="2" fill="#279fc9"/></g><g id="XMLID_1319_"><path id="XMLID_1320_" d="m800 859.4h-8.3v-8.3h8.3v8.3zm-7.3-1h6.3v-6.3h-6.3v6.3z" class="st5" stroke="#279fc9" stroke-miterlimit="10" stroke-width="2" fill="#279fc9"/></g></g><g id="XMLID_1299_" transform="matrix(1.3435 0 0 1.3415 -250.44 -288.02)"><g id="XMLID_1316_"><polygon id="XMLID_1317_" class="st5" stroke="#279fc9" points="754 855.6 761.1 862.7 760.9 862.9 753.8 855.7" stroke-miterlimit="10" stroke-width="2" fill="#279fc9"/></g><g id="XMLID_1312_"><path id="XMLID_1313_" d="m768.8 870.6h-8.3v-8.3h8.3v8.3zm-7.3-1h6.3v-6.3h-6.3v6.3z" class="st5" stroke="#279fc9" stroke-miterlimit="10" stroke-width="2" fill="#279fc9"/></g><g id="XMLID_1310_"><polygon id="XMLID_1311_" class="st5" stroke="#279fc9" points="735.3 874.3 742.4 881.4 742.2 881.6 735.1 874.4" stroke-miterlimit="10" stroke-width="2" fill="#279fc9"/></g><g id="XMLID_1306_"><path id="XMLID_1307_" d="m750.1 889.3h-8.3v-8.3h8.3v8.3zm-7.3-1h6.3v-6.3h-6.3v6.3z" class="st5" stroke="#279fc9" stroke-miterlimit="10" stroke-width="2" fill="#279fc9"/></g><g id="XMLID_1304_"><polygon id="XMLID_1305_" class="st5" stroke="#279fc9" points="744.8 865.3 761.6 882.1 761.5 882.3 744.6 865.4" stroke-miterlimit="10" stroke-width="2" fill="#279fc9"/></g><g id="XMLID_1300_"><path id="XMLID_1301_" d="m769.3 890h-8.3v-8.3h8.3v8.3zm-7.2-1h6.3v-6.3h-6.3v6.3z" class="st5" stroke="#279fc9" stroke-miterlimit="10" stroke-width="2" fill="#279fc9"/></g></g><g id="XMLID_1280_" transform="matrix(1.3435 0 0 1.3415 -250.44 -288.02)"><g id="XMLID_1297_"><polygon id="XMLID_1298_" class="st5" stroke="#279fc9" points="723.3 886.2 730.5 893.4 730.3 893.6 723.1 886.4" stroke-miterlimit="10" stroke-width="2" fill="#279fc9"/></g><g id="XMLID_1293_"><path id="XMLID_1294_" d="m738.2 901.3h-8.3v-8.3h8.3v8.3zm-7.3-1h6.3v-6.3h-6.3v6.3z" class="st5" stroke="#279fc9" stroke-miterlimit="10" stroke-width="2" fill="#279fc9"/></g><g id="XMLID_1291_"><polygon id="XMLID_1292_" class="st5" stroke="#279fc9" points="704.6 904.9 711.8 912.1 711.6 912.2 704.4 905.1" stroke-miterlimit="10" stroke-width="2" fill="#279fc9"/></g><g id="XMLID_1287_"><path id="XMLID_1288_" d="m719.5 920h-8.3v-8.3h8.3v8.3zm-7.3-1h6.3v-6.3h-6.3v6.3z" class="st5" stroke="#279fc9" stroke-miterlimit="10" stroke-width="2" fill="#279fc9"/></g><g id="XMLID_1285_"><polygon id="XMLID_1286_" class="st5" stroke="#279fc9" points="714.1 895.9 731 912.8 730.8 912.9 714 896.1" stroke-miterlimit="10" stroke-width="2" fill="#279fc9"/></g><g id="XMLID_1281_"><path id="XMLID_1282_" d="m738.7 920.6h-8.3v-8.3h8.3v8.3zm-7.3-1h6.3v-6.3h-6.3v6.3z" class="st5" stroke="#279fc9" stroke-miterlimit="10" stroke-width="2" fill="#279fc9"/></g></g><g id="XMLID_1261_" transform="matrix(1.3435 0 0 1.3415 -250.44 -288.02)"><g id="XMLID_1278_"><polygon id="XMLID_1279_" class="st5" stroke="#279fc9" points="692.7 916.9 699.8 924 699.7 924.2 692.5 917" stroke-miterlimit="10" stroke-width="2" fill="#279fc9"/></g><g id="XMLID_1274_"><path id="XMLID_1275_" d="m707.5 931.9h-8.3v-8.3h8.3v8.3zm-7.3-1h6.3v-6.3h-6.3v6.3z" class="st5" stroke="#279fc9" stroke-miterlimit="10" stroke-width="2" fill="#279fc9"/></g><g id="XMLID_1272_"><polygon id="XMLID_1273_" class="st5" stroke="#279fc9" points="674 935.5 681.1 942.7 681 942.9 673.8 935.7" stroke-miterlimit="10" stroke-width="2" fill="#279fc9"/></g><g id="XMLID_1268_"><path id="XMLID_1269_" d="m688.8 950.6h-8.3v-8.3h8.3v8.3zm-7.3-1h6.3v-6.3h-6.3v6.3z" class="st5" stroke="#279fc9" stroke-miterlimit="10" stroke-width="2" fill="#279fc9"/></g><g id="XMLID_1266_"><polygon id="XMLID_1267_" class="st5" stroke="#279fc9" points="683.5 926.5 700.4 943.4 700.2 943.6 683.3 926.7" stroke-miterlimit="10" stroke-width="2" fill="#279fc9"/></g><g id="XMLID_1262_"><path id="XMLID_1263_" d="m708.1 951.3h-8.3v-8.3h8.3v8.3zm-7.3-1h6.3v-6.3h-6.3v6.3z" class="st5" stroke="#279fc9" stroke-miterlimit="10" stroke-width="2" fill="#279fc9"/></g></g><g stroke="#279fc9" stroke-miterlimit="10" fill="#279fc9"><rect id="XMLID_1259_" class="st5" height=".26830" width="32.11" y="636.82" x="260.64" stroke-width="2.685"/><rect id="XMLID_1257_" stroke-width="2.685" transform="matrix(.70764 -.70658 .70764 .70658 0 0)" width="9.8003" y="625.18" x="-276.42" height="9.8003" class="st5"/><rect id="XMLID_1255_" class="st5" height=".26830" width="32.11" y="636.82" x="985.33" stroke-width="2.685"/><rect id="XMLID_1253_" stroke-width="2.685" transform="matrix(.70764 -.70658 .70764 .70658 0 0)" width="9.8003" y="1169.7" x="268.12" height="9.8003" class="st5"/><rect id="XMLID_1251_" class="st5" height="32.062" width=".26870" y="982.53" x="638.3" stroke-width="2.685"/><rect id="XMLID_1249_" stroke-width="2.685" transform="matrix(.70764 -.70658 .70764 .70658 0 0)" width="9.8003" y="1169" x="-276.55" height="9.8003" class="st5"/></g><g stroke="#e0a037" stroke-width="1.3425" stroke-miterlimit="10" fill="#e0a037"><path id="XMLID_1244_" d="m653.35 479.05-14.913-14.891-14.913 14.891-42.052-41.989 56.831-56.746 56.831 56.746-41.784 41.989zm-69.863-41.989 40.171 40.111 14.913-14.891 14.913 14.891 40.171-40.111-54.95-54.868-55.219 54.868z" class="st6"/><path id="XMLID_1240_" d="m638.43 893.18-56.831-56.746 42.052-41.989 14.913 14.891 14.913-14.891 42.052 41.989-57.1 56.746zm-54.95-56.88 54.95 54.868 54.95-54.868-40.171-40.111-14.913 14.891-14.913-14.891-39.903 40.111z" class="st6"/><path id="XMLID_1236_" d="m838.35 693.56-42.052-41.989 14.913-14.891-14.913-14.891 42.052-41.989 56.831 56.746-56.831 57.014zm-40.171-41.989 40.171 40.111 54.95-54.868-54.95-54.868-40.171 40.111 14.913 14.891-14.913 14.623z" class="st6"/><path id="XMLID_1232_" d="m438.52 693.56-56.831-56.746 56.831-56.746 42.052 41.989-14.913 14.891 14.913 14.891-42.052 41.721zm-54.95-56.88 54.95 54.868 40.171-40.111-14.913-14.891 14.913-14.891-40.171-40.111-54.95 55.136z" class="st6"/><path id="XMLID_1228_" d="m638.43 894.12-257.68-257.44 257.82-257.3 257.69 257.3-257.83 257.44zm-253.92-257.44 253.92 253.55 253.93-253.55-253.93-253.54-253.92 253.54z" class="st6"/></g><g id="XMLID_1225_" transform="matrix(1.3435 0 0 1.3415 -250.44 -288.02)"><path id="XMLID_1226_" d="m551.5 641.3c-4.2 4.2-10.5 5-15.5 2.3 0.6 1.1 1.4 2.2 2.3 3.2 5.2 5.2 13.5 5.2 18.7 0s5.2-13.5 0-18.7c-1-1-2-1.7-3.2-2.3 2.6 5 1.9 11.3-2.3 15.5z" class="st6" stroke="#e0a037" stroke-miterlimit="10" fill="#e0a037"/></g><g id="XMLID_1223_" transform="matrix(1.3435 0 0 1.3415 -250.44 -288.02)"><path id="XMLID_1224_" d="m581.4 611.4c-4.2 4.2-10.5 5-15.5 2.3 0.6 1.1 1.4 2.2 2.3 3.2 5.2 5.2 13.5 5.2 18.7 0s5.2-13.5 0-18.7c-1-1-2-1.7-3.2-2.3 2.7 5 1.9 11.3-2.3 15.5z" class="st6" stroke="#e0a037" stroke-miterlimit="10" fill="#e0a037"/></g><g id="XMLID_1221_" transform="matrix(1.3435 0 0 1.3415 -250.44 -288.02)"><path id="XMLID_1222_" d="m610.2 582.6c-4.2 4.2-10.5 5-15.5 2.3 0.6 1.1 1.4 2.2 2.3 3.2 5.2 5.2 13.5 5.2 18.7 0s5.2-13.5 0-18.7c-1-1-2-1.7-3.2-2.3 2.7 4.9 1.9 11.3-2.3 15.5z" class="st6" stroke="#e0a037" stroke-miterlimit="10" fill="#e0a037"/></g><g id="XMLID_1218_" transform="matrix(1.3435 0 0 1.3415 -250.44 -288.02)"><path id="XMLID_1219_" d="m767.6 740c4.2-4.2 10.5-5 15.5-2.3-0.6-1.1-1.4-2.2-2.3-3.2-5.2-5.2-13.5-5.2-18.7 0s-5.2 13.5 0 18.7c1 1 2 1.7 3.2 2.3-2.7-5-1.9-11.3 2.3-15.5z" class="st6" stroke="#e0a037" stroke-miterlimit="10" fill="#e0a037"/></g><g id="XMLID_1216_" transform="matrix(1.3435 0 0 1.3415 -250.44 -288.02)"><path id="XMLID_1217_" d="m737.7 769.9c4.2-4.2 10.5-5 15.5-2.3-0.6-1.1-1.4-2.2-2.3-3.2-5.2-5.2-13.5-5.2-18.7 0s-5.2 13.5 0 18.7c1 1 2 1.7 3.2 2.3-2.7-5-1.9-11.3 2.3-15.5z" class="st6" stroke="#e0a037" stroke-miterlimit="10" fill="#e0a037"/></g><g id="XMLID_1214_" transform="matrix(1.3435 0 0 1.3415 -250.44 -288.02)"><path id="XMLID_1215_" d="m708.9 798.7c4.2-4.2 10.5-5 15.5-2.3-0.6-1.1-1.4-2.2-2.3-3.2-5.2-5.2-13.5-5.2-18.7 0s-5.2 13.5 0 18.7c1 1 2 1.7 3.2 2.3-2.7-4.9-2-11.3 2.3-15.5z" class="st6" stroke="#e0a037" stroke-miterlimit="10" fill="#e0a037"/></g><g id="XMLID_1211_" transform="matrix(1.3435 0 0 1.3415 -250.44 -288.02)"><path id="XMLID_1212_" d="m612.2 797.7c4.2 4.2 5 10.5 2.3 15.5 1.1-0.6 2.2-1.4 3.2-2.3 5.2-5.2 5.2-13.5 0-18.7s-13.5-5.2-18.7 0c-1 1-1.7 2-2.3 3.2 5-2.7 11.3-1.9 15.5 2.3z" class="st6" stroke="#e0a037" stroke-miterlimit="10" fill="#e0a037"/></g><g id="XMLID_1209_" transform="matrix(1.3435 0 0 1.3415 -250.44 -288.02)"><path id="XMLID_1210_" d="m582.3 767.8c4.2 4.2 5 10.5 2.3 15.5 1.1-0.6 2.2-1.4 3.2-2.3 5.2-5.2 5.2-13.5 0-18.7s-13.5-5.2-18.7 0c-1 1-1.7 2-2.3 3.2 5-2.7 11.3-1.9 15.5 2.3z" class="st6" stroke="#e0a037" stroke-miterlimit="10" fill="#e0a037"/></g><g id="XMLID_1207_" transform="matrix(1.3435 0 0 1.3415 -250.44 -288.02)"><path id="XMLID_1208_" d="m553.5 739c4.2 4.2 5 10.5 2.3 15.5 1.1-0.6 2.2-1.4 3.2-2.3 5.2-5.2 5.2-13.5 0-18.7s-13.5-5.2-18.7 0c-1 1-1.7 2-2.3 3.2 4.9-2.7 11.3-1.9 15.5 2.3z" class="st6" stroke="#e0a037" stroke-miterlimit="10" fill="#e0a037"/></g><g id="XMLID_1204_" transform="matrix(1.3435 0 0 1.3415 -250.44 -288.02)"><path id="XMLID_1205_" d="m710.9 581.6c-4.2-4.2-5-10.5-2.3-15.5-1.1 0.6-2.2 1.4-3.2 2.3-5.2 5.2-5.2 13.5 0 18.7s13.5 5.2 18.7 0c1-1 1.7-2 2.3-3.2-5 2.7-11.3 1.9-15.5-2.3z" class="st6" stroke="#e0a037" stroke-miterlimit="10" fill="#e0a037"/></g><g id="XMLID_1202_" transform="matrix(1.3435 0 0 1.3415 -250.44 -288.02)"><path id="XMLID_1203_" d="m740.8 611.5c-4.2-4.2-5-10.5-2.3-15.5-1.1 0.6-2.2 1.4-3.2 2.3-5.2 5.2-5.2 13.5 0 18.7s13.5 5.2 18.7 0c1-1 1.7-2 2.3-3.2-5 2.7-11.3 1.9-15.5-2.3z" class="st6" stroke="#e0a037" stroke-miterlimit="10" fill="#e0a037"/></g><g id="XMLID_1200_" transform="matrix(1.3435 0 0 1.3415 -250.44 -288.02)"><path id="XMLID_1201_" d="m769.6 640.3c-4.2-4.2-5-10.5-2.3-15.5-1.1 0.6-2.2 1.4-3.2 2.3-5.2 5.2-5.2 13.5 0 18.7s13.5 5.2 18.7 0c1-1 1.7-2 2.3-3.2-4.9 2.7-11.3 1.9-15.5-2.3z" class="st6" stroke="#e0a037" stroke-miterlimit="10" fill="#e0a037"/></g><g stroke="#e0a037" stroke-miterlimit="10" fill="#e0a037"><polygon id="XMLID_1198_" transform="matrix(1.3435 0 0 1.3415 -250.44 -288.02)" class="st6" points="614.7 587.3 623.9 596.4 623.7 596.6 614.6 587.4"/><polygon id="XMLID_1196_" transform="matrix(1.3435 0 0 1.3415 -250.44 -288.02)" class="st6" points="586.1 615.9 595.2 625.1 595.1 625.3 585.9 616.1"/><polygon id="XMLID_1194_" transform="matrix(1.3435 0 0 1.3415 -250.44 -288.02)" class="st6" points="555.3 646.7 564.5 655.8 564.3 656 555.1 646.9"/><polygon id="XMLID_1192_" transform="matrix(1.3435 0 0 1.3415 -250.44 -288.02)" class="st6" points="764.3 645 764.5 645.1 755.3 654.3 755.2 654.1"/><polygon id="XMLID_1190_" transform="matrix(1.3435 0 0 1.3415 -250.44 -288.02)" class="st6" points="735.7 616.3 735.8 616.5 726.7 625.7 726.5 625.5"/><polygon id="XMLID_1188_" transform="matrix(1.3435 0 0 1.3415 -250.44 -288.02)" class="st6" points="705.9 586.5 706.1 586.7 696.9 595.9 696.7 595.7"/><polygon id="XMLID_1186_" transform="matrix(1.3435 0 0 1.3415 -250.44 -288.02)" class="st6" points="694.4 785.3 703.5 794.4 703.4 794.6 694.2 785.4"/><polygon id="XMLID_1184_" transform="matrix(1.3435 0 0 1.3415 -250.44 -288.02)" class="st6" points="723.5 756.1 732.7 765.3 732.5 765.4 723.4 756.3"/><polygon id="XMLID_1182_" transform="matrix(1.3435 0 0 1.3415 -250.44 -288.02)" class="st6" points="754.8 724.8 764 734 763.8 734.1 754.7 725"/><polygon id="XMLID_1180_" transform="matrix(1.3435 0 0 1.3415 -250.44 -288.02)" class="st6" points="626.5 782.8 626.7 783 617.5 792.2 617.3 792"/><polygon id="XMLID_1178_" transform="matrix(1.3435 0 0 1.3415 -250.44 -288.02)" class="st6" points="597.8 754.2 598 754.3 588.8 763.5 588.6 763.3"/><polygon id="XMLID_1176_" transform="matrix(1.3435 0 0 1.3415 -250.44 -288.02)" class="st6" points="567.1 723.4 567.2 723.6 558.1 732.7 557.9 732.6"/></g><path id="XMLID_1171_" d="m638.43 1086-449.81-449.32 449.95-449.27 449.93 449.27-450.07 449.32zm-446.05-449.27 446.05 445.38 446.05-445.38-446.05-445.38-446.05 445.38z" class="st7" stroke="#263675" stroke-miterlimit="10" stroke-width="8.0551" fill="#25336d"/><g id="XMLID_1168_" transform="matrix(1.3435 0 0 1.3415 -250.44 -288.02)"><rect id="XMLID_1169_" class="st8" height="129.9" width="0.8" stroke="#263675" stroke-miterlimit="10" y="227.2" x="661.2" stroke-width="3" fill="#25336d"/></g><g id="XMLID_1166_" transform="matrix(1.3435 0 0 1.3415 -250.44 -288.02)"><polygon id="XMLID_1167_" class="st8" stroke="#263675" points="661.6 229.2 651.6 216.2 671.7 216.2" stroke-miterlimit="10" stroke-width="3" fill="#25336d"/></g><g id="XMLID_1159_" transform="matrix(1.3435 0 0 1.3415 -250.44 -288.02)"><g id="XMLID_1164_"><rect id="XMLID_1165_" stroke-width="3" transform="matrix(.7078 -.7065 .7065 .7078 -40.63 656.54)" width="128.5" stroke="#263675" stroke-miterlimit="10" y="377" x="709" height="0.8" class="st8" fill="#25336d"/></g><g id="XMLID_1160_"><path id="XMLID_1161_" d="m817.5 333 2.3-18 15.7 15.7-18 2.3zm3.1-15.9-1.9 14.7 14.7-1.9-12.8-12.8z" class="st8" stroke="#263675" stroke-miterlimit="10" stroke-width="3" fill="#25336d"/></g></g><g id="XMLID_1152_" transform="matrix(1.3435 0 0 1.3415 -250.44 -288.02)"><g id="XMLID_1157_"><rect id="XMLID_1158_" stroke-width="3" transform="matrix(.7078 -.7065 .7065 .7078 -67.608 721.66)" width="128.5" stroke="#263675" stroke-miterlimit="10" y="442.1" x="774.2" height="0.8" class="st8" fill="#25336d"/></g><g id="XMLID_1153_"><path id="XMLID_1154_" d="m882.7 398.1 2.3-18 15.7 15.7-18 2.3zm3.1-15.8-1.9 14.7 14.7-1.9-12.8-12.8z" class="st8" stroke="#263675" stroke-miterlimit="10" stroke-width="3" fill="#25336d"/></g></g><g id="XMLID_1145_" transform="matrix(1.3435 0 0 1.3415 -250.44 -288.02)"><g id="XMLID_1150_"><rect id="XMLID_1151_" stroke-width="3" transform="matrix(.7078 -.7065 .7065 .7078 -94.556 786.71)" width="128.5" stroke="#263675" stroke-miterlimit="10" y="507.2" x="839.3" height="0.8" class="st8" fill="#25336d"/></g><g id="XMLID_1146_"><path id="XMLID_1147_" d="m947.9 463.3 2.3-18 15.7 15.7-18 2.3zm3-15.8-1.9 14.7 14.7-1.9-12.8-12.8z" class="st8" stroke="#263675" stroke-miterlimit="10" stroke-width="3" fill="#25336d"/></g></g><g id="XMLID_1138_" transform="matrix(1.3435 0 0 1.3415 -250.44 -288.02)"><g id="XMLID_1143_"><rect id="XMLID_1144_" stroke-width="3" transform="matrix(.7078 -.7065 .7065 .7078 -121.6 851.8)" width="128.5" stroke="#263675" stroke-miterlimit="10" y="572.5" x="904.5" height="0.8" class="st8" fill="#25336d"/></g><g id="XMLID_1139_"><path id="XMLID_1140_" d="m1013 528.5 2.3-18 15.7 15.7-18 2.3zm3.1-15.9-1.9 14.7 14.7-1.9-12.8-12.8z" class="st8" stroke="#263675" stroke-miterlimit="10" stroke-width="3" fill="#25336d"/></g></g><rect id="XMLID_1136_" class="st8" height="171.58" width="1.0748" stroke="#263675" stroke-miterlimit="10" y="1083.4" x="638.7" stroke-width="4.0276" fill="#25336d"/><path id="XMLID_1132_" d="m654.15 1273h-29.826l14.913-19.318 14.913 19.318zm-27.005-1.3414h24.318l-12.092-15.696-12.226 15.696z" class="st8" stroke="#263675" stroke-miterlimit="10" stroke-width="4.0276" fill="#25336d"/><g id="XMLID_1129_" transform="matrix(1.3435 0 0 1.3415 -250.44 -288.02)"><rect id="XMLID_1130_" stroke-width="3" transform="matrix(.7078 -.7065 .7065 .7078 -546.87 681.95)" width="128.5" stroke="#263675" stroke-miterlimit="10" y="1001.6" x="486.6" height="0.8" class="st8" fill="#25336d"/></g><g id="XMLID_1125_" transform="matrix(1.3435 0 0 1.3415 -250.44 -288.02)"><path id="XMLID_1126_" d="m504 1064.4-15.7-15.7 18-2.3-2.3 18zm-13.6-15 12.8 12.8 1.9-14.7-14.7 1.9z" class="st8" stroke="#263675" stroke-miterlimit="10" stroke-width="3" fill="#25336d"/></g><g id="XMLID_1122_" transform="matrix(1.3435 0 0 1.3415 -250.44 -288.02)"><rect id="XMLID_1123_" stroke-width="3" transform="matrix(.7078 -.7065 .7065 .7078 -519.89 616.83)" width="128.5" stroke="#263675" stroke-miterlimit="10" y="936.4" x="421.3" height="0.8" class="st8" fill="#25336d"/></g><g id="XMLID_1118_" transform="matrix(1.3435 0 0 1.3415 -250.44 -288.02)"><path id="XMLID_1119_" d="m438.8 999.2-15.7-15.7 18-2.3-2.3 18zm-13.5-15 12.8 12.8 1.9-14.7-14.7 1.9z" class="st8" stroke="#263675" stroke-miterlimit="10" stroke-width="3" fill="#25336d"/></g><g id="XMLID_1115_" transform="matrix(1.3435 0 0 1.3415 -250.44 -288.02)"><rect id="XMLID_1116_" stroke-width="3" transform="matrix(.7078 -.7065 .7065 .7078 -492.94 551.78)" width="128.5" stroke="#263675" stroke-miterlimit="10" y="871.3" x="356.2" height="0.8" class="st8" fill="#25336d"/></g><g id="XMLID_1111_" transform="matrix(1.3435 0 0 1.3415 -250.44 -288.02)"><path id="XMLID_1112_" d="m373.6 934-15.6-15.6 18-2.3-2.4 17.9zm-13.5-14.9 12.8 12.8 1.9-14.7-14.7 1.9z" class="st8" stroke="#263675" stroke-miterlimit="10" stroke-width="3" fill="#25336d"/></g><g id="XMLID_1108_" transform="matrix(1.3435 0 0 1.3415 -250.44 -288.02)"><rect id="XMLID_1109_" stroke-width="3" transform="matrix(.7078 -.7065 .7065 .7078 -465.89 486.69)" width="128.5" stroke="#263675" stroke-miterlimit="10" y="806.1" x="291.1" height="0.8" class="st8" fill="#25336d"/></g><g id="XMLID_1104_" transform="matrix(1.3435 0 0 1.3415 -250.44 -288.02)"><path id="XMLID_1105_" d="m308.5 868.8-15.7-15.7 18-2.3-2.3 18zm-13.6-14.9 12.8 12.8 1.9-14.7-14.7 1.9z" class="st8" stroke="#263675" stroke-miterlimit="10" stroke-width="3" fill="#25336d"/></g><rect id="XMLID_1102_" class="st8" height="1.0732" width="173.18" stroke="#263675" stroke-miterlimit="10" y="636.28" x="1085.7" stroke-width="4.0276" fill="#25336d"/><path id="XMLID_1098_" d="m1275.7 651.71-19.347-14.891 19.347-14.891v29.782zm-17.063-14.891 15.719 12.074v-24.281l-15.719 12.208z" class="st8" stroke="#263675" stroke-miterlimit="10" stroke-width="4.0276" fill="#25336d"/><g id="XMLID_1095_" transform="matrix(1.3435 0 0 1.3415 -250.44 -288.02)"><rect id="XMLID_1096_" stroke-width="3" transform="matrix(.7071 -.7071 .7071 .7071 -280.96 923.5)" width="0.8" stroke="#263675" stroke-miterlimit="10" y="736.6" x="973.9" height="128.5" class="st8" fill="#25336d"/></g><g id="XMLID_1091_" transform="matrix(1.3435 0 0 1.3415 -250.44 -288.02)"><path id="XMLID_1092_" d="m1020.9 863.3-2.3-18 18 2.3-15.7 15.7zm-1.1-16.8 1.9 14.7 12.8-12.8-14.7-1.9z" class="st8" stroke="#263675" stroke-miterlimit="10" stroke-width="3" fill="#25336d"/></g><g id="XMLID_1088_" transform="matrix(1.3435 0 0 1.3415 -250.44 -288.02)"><rect id="XMLID_1089_" stroke-width="3" transform="matrix(.7071 -.7071 .7071 .7071 -346.16 896.52)" width="0.8" stroke="#263675" stroke-miterlimit="10" y="801.9" x="908.7" height="128.5" class="st8" fill="#25336d"/></g><g id="XMLID_1084_" transform="matrix(1.3435 0 0 1.3415 -250.44 -288.02)"><path id="XMLID_1085_" d="m955.8 928.5-2.3-18 18 2.3-15.7 15.7zm-1.2-16.9 1.9 14.7 12.8-12.8-14.7-1.9z" class="st8" stroke="#263675" stroke-miterlimit="10" stroke-width="3" fill="#25336d"/></g><g id="XMLID_1081_" transform="matrix(1.3435 0 0 1.3415 -250.44 -288.02)"><rect id="XMLID_1082_" stroke-width="3" transform="matrix(.7071 -.7071 .7071 .7071 -411.33 869.47)" width="0.8" stroke="#263675" stroke-miterlimit="10" y="867" x="843.5" height="128.5" class="st8" fill="#25336d"/></g><g id="XMLID_1037_" transform="matrix(1.3435 0 0 1.3415 -250.44 -288.02)"><path id="XMLID_1038_" d="m890.6 993.6-2.3-18 18 2.3-15.7 15.7zm-1.2-16.8 1.9 14.7 12.8-12.8-14.7-1.9z" class="st8" stroke="#263675" stroke-miterlimit="10" stroke-width="3" fill="#25336d"/></g><g id="XMLID_1031_" transform="matrix(1.3435 0 0 1.3415 -250.44 -288.02)"><rect id="XMLID_1032_" stroke-width="3" transform="matrix(.7071 -.7071 .7071 .7071 -476.53 842.49)" width="0.8" stroke="#263675" stroke-miterlimit="10" y="932.2" x="778.3" height="128.5" class="st8" fill="#25336d"/></g><g id="XMLID_1026_" transform="matrix(1.3435 0 0 1.3415 -250.44 -288.02)"><path id="XMLID_1027_" d="m825.4 1058.8-2.3-18 18 2.3-15.7 15.7zm-1.1-16.8 1.9 14.7 12.8-12.8-14.7-1.9z" class="st8" stroke="#263675" stroke-miterlimit="10" stroke-width="3" fill="#25336d"/></g><rect id="XMLID_1024_" class="st8" height="1.0732" width="171.84" stroke="#263675" stroke-miterlimit="10" y="637.09" x="20.145" stroke-width="4.0276" fill="#25336d"/><path id="XMLID_979_" d="m2.0071 652.51v-29.782l19.347 14.891-19.347 14.891zm1.3435-27.099v24.281l15.719-12.07-15.719-12.21z" class="st8" stroke="#263675" stroke-miterlimit="10" stroke-width="4.0276" fill="#25336d"/><g id="XMLID_976_" transform="matrix(1.3435 0 0 1.3415 -250.44 -288.02)"><rect id="XMLID_977_" stroke-width="3" transform="matrix(.7071 -.7071 .7071 .7071 -306.64 416.63)" width="0.8" stroke="#263675" stroke-miterlimit="10" y="514.2" x="349.2" height="128.5" class="st8" fill="#25336d"/></g><g id="XMLID_972_" transform="matrix(1.3435 0 0 1.3415 -250.44 -288.02)"><path id="XMLID_973_" d="m305.2 534.1-18-2.3 15.7-15.7 2.3 18zm-15.8-3.1 14.7 1.9-1.9-14.7-12.8 12.8z" class="st8" stroke="#263675" stroke-miterlimit="10" stroke-width="3" fill="#25336d"/></g><g id="XMLID_969_" transform="matrix(1.3435 0 0 1.3415 -250.44 -288.02)"><rect id="XMLID_970_" stroke-width="3" transform="matrix(.7071 -.7071 .7071 .7071 -241.47 443.68)" width="0.8" stroke="#263675" stroke-miterlimit="10" y="449.1" x="414.4" height="128.5" class="st8" fill="#25336d"/></g><g id="XMLID_956_" transform="matrix(1.3435 0 0 1.3415 -250.44 -288.02)"><path id="XMLID_957_" d="m370.4 468.9-18-2.3 15.7-15.7 2.3 18zm-15.9-3.1 14.7 1.9-1.9-14.7-12.8 12.8z" class="st8" stroke="#263675" stroke-miterlimit="10" stroke-width="3" fill="#25336d"/></g><g id="XMLID_391_" transform="matrix(1.3435 0 0 1.3415 -250.44 -288.02)"><rect id="XMLID_954_" stroke-width="3" transform="matrix(.7071 -.7071 .7071 .7071 -176.27 470.66)" width="0.8" stroke="#263675" stroke-miterlimit="10" y="383.9" x="479.6" height="128.5" class="st8" fill="#25336d"/></g><g id="XMLID_216_" transform="matrix(1.3435 0 0 1.3415 -250.44 -288.02)"><path id="XMLID_217_" d="m435.6 403.7-18-2.3 15.7-15.7 2.3 18zm-15.9-3 14.7 1.9-1.9-14.7-12.8 12.8z" class="st8" stroke="#263675" stroke-miterlimit="10" stroke-width="3" fill="#25336d"/></g><g id="XMLID_212_" transform="matrix(1.3435 0 0 1.3415 -250.44 -288.02)"><rect id="XMLID_214_" stroke-width="3" transform="matrix(.7071 -.7071 .7071 .7071 -111.14 497.61)" width="0.8" stroke="#263675" stroke-miterlimit="10" y="318.7" x="544.7" height="128.5" class="st8" fill="#25336d"/></g><g id="XMLID_208_" transform="matrix(1.3435 0 0 1.3415 -250.44 -288.02)"><path id="XMLID_209_" d="m500.7 338.6-18-2.3 15.7-15.7 2.3 18zm-15.8-3.1 14.7 1.9-1.9-14.7-12.8 12.8z" class="st8" stroke="#263675" stroke-miterlimit="10" stroke-width="3" fill="#25336d"/></g><g stroke="#dee33a" stroke-miterlimit="10" fill="#dee33a"><g stroke-width="1.3425"><path id="XMLID_203_" d="m638.43 899.35-263.06-262.67 263.06-262.67 263.07 262.67-263.07 262.67zm-261.18-262.67 261.18 260.79 261.19-260.79-261.19-260.79-261.18 260.79z" class="st9"/><rect id="XMLID_201_" class="st9" height="42.794" width=".26870" y="291.11" x="638.3"/><rect id="XMLID_199_" class="st9" height="42.794" width=".26870" y="939.33" x="638.3"/><rect id="XMLID_197_" class="st9" height=".26830" width="42.858" y="636.82" x="292.75"/><rect id="XMLID_195_" class="st9" height=".26830" width="42.858" y="636.82" x="941.8"/></g><polygon id="XMLID_193_" transform="matrix(1.3435 0 0 1.3415 -250.44 -288.02)" class="st9" points="876.2 673 892.6 689.5 876.2 705.4 861.4 705.4 877.6 689.2 861.4 673 868.5 673"/><polygon id="XMLID_191_" transform="matrix(1.3435 0 0 1.3415 -250.44 -288.02)" class="st9" points="448.5 705.4 432.1 689 448.5 673 463.3 673 447.1 689.2 463.3 705.4 456.2 705.4"/><polygon id="XMLID_189_" transform="matrix(1.3435 0 0 1.3415 -250.44 -288.02)" class="st9" points="677.8 903 661.4 919.4 645.4 903 645.4 888.2 661.6 904.4 677.8 888.2 677.8 895.3"/><path id="XMLID_185_" d="m660.6 376.7-22.437-22.403-22.437 22.403v-21.733l22.84-22.672 22.034 22.672v21.733zm-22.437-24.281 21.093 21.062v-17.976l-20.69-21.33-21.496 21.33v17.976l21.093-21.062z" class="st9" stroke-width="1.3425"/></g></svg>
