<svg xmlns="http://www.w3.org/2000/svg" id="Layer_1" x="0px" y="0px" viewBox="0 0 1285.8787 1274.9835">
	<path id="XMLID_3358_" fill="#01588C" d="M-314.64 585.27H316.2v631.38h-630.84z" transform="scale(1.00075 .99926) rotate(-45)"/>
	<g stroke-miterlimit="10">
		<path id="XMLID_3357_" fill="#3E9AB2" stroke="#279FC9" stroke-width="2" d="M-65.05 834.89H66.78v131.97H-65.05z" transform="scale(1.00075 .99926) rotate(-45)"/>
		<path id="XMLID_3356_" fill="#E2C938" stroke="#DEE33A" stroke-width="1.3425" d="M-30.847 871.98h61.353v60.279h-61.353z" transform="scale(1.00075 .99926) rotate(-45)"/>
		<path id="XMLID_3353_" fill="#cd632e" stroke="#cd632e" stroke-width="1.3425" d="M638.43 428.08c-3.359 0-6.18-2.683-6.18-6.171s2.687-6.171 6.18-6.171 6.18 2.683 6.18 6.171c0 3.488-2.821 6.171-6.18 6.171zm0-10.866c-2.687 0-4.837 2.146-4.837 4.83s2.15 4.829 4.837 4.829 4.837-2.147 4.837-4.83-2.15-4.829-4.837-4.829z" class="st4"/>
	</g>
	<g id="XMLID_2199_" transform="matrix(1.3435 0 0 1.3415 -250.44 -288.02)">
		<path id="XMLID_2200_" fill="#cd632e" stroke="#cd632e" stroke-miterlimit="10" d="M660.6 535.7c-.3-.1-.5-.3-.4-.6 0-.3.3-.5.6-.4.3 0 .5.3.4.6-.1.2-.3.4-.6.4zm1.6-.4c-.1-.3.1-.5.4-.6s.5.1.6.4c0 .3-.1.5-.4.6h-.1c-.3 0-.5-.2-.5-.4zm-3.6-.3c-.2-.1-.3-.4-.2-.7.1-.2.4-.3.7-.2.2.1.3.4.2.7-.1.2-.3.3-.4.3-.2 0-.3-.1-.3-.1zm5.5-.2c-.1-.2 0-.5.2-.7.2-.1.5 0 .7.2.1.2 0 .6-.2.7-.1 0-.2.1-.2.1-.3-.1-.4-.2-.5-.3zm-7.2-1.1c-.2-.2-.2-.5 0-.7s.5-.2.7 0 .2.5 0 .7c-.1.1-.2.1-.3.1-.2.1-.3 0-.4-.1zm8.8 0c-.2-.2-.2-.5 0-.7s.5-.2.7 0 .2.5 0 .7c-.1.1-.2.2-.4.2-.1-.1-.2-.1-.3-.2zm-10-1.8c-.1-.2 0-.5.3-.7.2-.1.5 0 .7.2.1.3 0 .5-.2.7h-.2c-.4.1-.5 0-.6-.2zm11.2.2c-.2-.1-.4-.4-.3-.7s.4-.4.7-.3c.2.1.4.4.3.7-.1.2-.3.3-.5.3 0 .1-.1 0-.2 0zm-11.7-2.2c0-.3.2-.5.4-.6.3 0 .5.2.5.5s-.2.5-.4.5h-.1c-.2 0-.4-.2-.4-.4zm12.4.3c-.3 0-.5-.3-.5-.5 0-.3.3-.5.5-.5.3 0 .5.3.5.5 0 .3-.2.5-.5.5zm-11.9-1.9c-.3-.1-.4-.3-.4-.6.1-.3.3-.4.6-.4.3.1.4.3.4.6-.1.2-.3.4-.6.4zm11.3-.4c-.1-.3.1-.5.4-.6s.5.1.6.4-.1.5-.4.6h-.1c-.3 0-.5-.2-.5-.4zm-10.7-1.5c-.2-.1-.3-.5-.2-.7.2-.2.5-.3.7-.1.2.1.3.4.2.7-.1.1-.2.2-.4.2-.1 0-.2 0-.3-.1zm9.9-.2c-.2-.2-.1-.5.1-.7.2-.1.5-.1.7.1.1.2.1.5-.1.7-.1.1-.2.1-.3.1-.1.1-.3 0-.4-.2zm-8.7-1.3c-.2-.2-.1-.5.1-.7s.5-.1.7.1.1.5-.1.7c-.1.1-.2.1-.3.1-.2 0-.3-.1-.4-.2zm7.5 0c-.2-.2-.3-.5-.1-.7s.5-.2.7-.1c.2.2.3.5.1.7-.1.1-.2.2-.4.2-.1 0-.2 0-.3-.1zm-5.9-1.1c-.1-.3 0-.5.3-.6s.5 0 .6.3 0 .5-.3.6h-.2c-.1 0-.3-.1-.4-.3zm4.3.2c-.3-.1-.4-.4-.3-.6.1-.3.4-.4.6-.3.3.1.4.4.3.6s-.3.3-.6.3c.1.1.1.1 0 0z" class="st4"/>
	</g>
	<path id="XMLID_2197_" fill="#cd632e" stroke="#cd632e" stroke-miterlimit="10" stroke-width="1.3425" d="M638.3 381.8h.269v34.745h-.269z" class="st4"/>
	<g id="XMLID_2193_" transform="matrix(1.3435 0 0 1.3415 -250.44 -288.02)">
		<path id="XMLID_2194_" fill="#cd632e" stroke="#cd632e" stroke-miterlimit="10" d="M534.3 652.9h182.8v1H534.3z" class="st4" transform="rotate(-45.001 625.697 653.396)"/>
	</g>
	<g id="XMLID_2191_" transform="matrix(1.3435 0 0 1.3415 -250.44 -288.02)">
		<path id="XMLID_2192_" fill="#cd632e" stroke="#cd632e" stroke-miterlimit="10" d="M606.3 724.9h182.8v1H606.3z" class="st4" transform="rotate(-45.001 697.708 725.37)"/>
	</g>
	<g id="XMLID_2189_" transform="matrix(1.3435 0 0 1.3415 -250.44 -288.02)">
		<path id="XMLID_2190_" fill="#cd632e" stroke="#cd632e" stroke-miterlimit="10" d="M697.2 562h1v182.8h-1z" class="st4" transform="rotate(-45.001 697.689 653.377)"/>
	</g>
	<g id="XMLID_2187_" transform="matrix(1.3435 0 0 1.3415 -250.44 -288.02)">
		<path id="XMLID_2188_" fill="#cd632e" stroke="#cd632e" stroke-miterlimit="10" d="M625.2 633.9h1v182.8h-1z" class="st4" transform="rotate(-45.001 625.646 725.317)"/>
	</g>
	<path id="XMLID_2183_" fill="#cd632e" stroke="#cd632e" stroke-miterlimit="10" stroke-width="1.3425" d="M638.43 812.02L462.84 636.68l175.59-175.33 175.6 175.33-175.6 175.34zm-171.7-175.34l171.84 171.58 171.84-171.58-171.98-171.44-171.7 171.44z" class="st4"/>
	<path id="XMLID_2179_" fill="#cd632e" stroke="#cd632e" stroke-miterlimit="10" stroke-width="1.3425" d="M638.43 735.02l-98.48-98.333 98.48-98.333 98.48 98.333-98.48 98.333zm-94.718-98.333l94.718 94.577 94.718-94.577-94.718-94.577-94.718 94.577z" class="st4"/>
	<g id="XMLID_2174_" transform="matrix(1.3435 0 0 1.3415 -250.44 -288.02)">
		<path id="XMLID_2175_" fill="#cd632e" stroke="#cd632e" stroke-miterlimit="10" d="M648.4 596.7c-2.5 0-4.6-2-4.6-4.6s2-4.6 4.6-4.6 4.6 2 4.6 4.6-2.1 4.6-4.6 4.6zm0-8.2c-2 0-3.6 1.6-3.6 3.6s1.6 3.6 3.6 3.6 3.6-1.6 3.6-3.6c-.1-2-1.7-3.6-3.6-3.6z" class="st4"/>
	</g>
	<g id="XMLID_2170_" transform="matrix(1.3435 0 0 1.3415 -250.44 -288.02)">
		<path id="XMLID_2171_" fill="#cd632e" stroke="#cd632e" stroke-miterlimit="10" d="M661.6 582.3c-2.5 0-4.6-2-4.6-4.6s2-4.6 4.6-4.6 4.6 2 4.6 4.6-2.1 4.6-4.6 4.6zm0-8.1c-2 0-3.6 1.6-3.6 3.6s1.6 3.6 3.6 3.6 3.6-1.6 3.6-3.6-1.6-3.6-3.6-3.6z" class="st4"/>
	</g>
	<g id="XMLID_2166_" transform="matrix(1.3435 0 0 1.3415 -250.44 -288.02)">
		<path id="XMLID_2167_" fill="#cd632e" stroke="#cd632e" stroke-miterlimit="10" d="M674.9 596.7c-2.5 0-4.6-2-4.6-4.6s2-4.6 4.6-4.6 4.6 2 4.6 4.6-2.1 4.6-4.6 4.6zm0-8.2c-2 0-3.6 1.6-3.6 3.6s1.6 3.6 3.6 3.6 3.6-1.6 3.6-3.6c-.1-2-1.7-3.6-3.6-3.6z" class="st4"/>
	</g>
	<g fill="#cd632e" stroke="#cd632e" stroke-miterlimit="10" stroke-width="1.3425">
		<path id="XMLID_2162_" d="M620.7 447.26c-3.359 0-6.18-2.683-6.18-6.171 0-3.488 2.687-6.171 6.18-6.171s6.18 2.683 6.18 6.171c0 3.488-2.821 6.171-6.18 6.171zm0-10.866c-2.687 0-4.837 2.146-4.837 4.83s2.15 4.829 4.837 4.829a4.813 4.813 0 0 0 4.837-4.83c-.135-2.683-2.284-4.829-4.837-4.829z" class="st4"/>
		<path id="XMLID_2158_" d="M656.3 447.26c-3.359 0-6.18-2.683-6.18-6.171 0-3.488 2.687-6.171 6.18-6.171s6.18 2.683 6.18 6.171c0 3.488-2.821 6.171-6.18 6.171zm0-10.866c-2.687 0-4.837 2.146-4.837 4.83s2.15 4.829 4.837 4.829a4.813 4.813 0 0 0 4.837-4.83c-.135-2.683-2.284-4.829-4.837-4.829z" class="st4"/>
		<path id="XMLID_2154_" d="M435.16 649.43c-3.359 0-6.18-2.683-6.18-6.171 0-3.488 2.687-6.171 6.18-6.171 3.359 0 6.18 2.683 6.18 6.171 0 3.488-2.821 6.171-6.18 6.171zm0-10.866c-2.687 0-4.837 2.146-4.837 4.83s2.15 4.829 4.837 4.829 4.837-2.147 4.837-4.83-2.284-4.829-4.837-4.829z" class="st4"/>
		<path id="XMLID_2150_" d="M773.73 644.06c-3.359 0-6.18-2.683-6.18-6.171s2.687-6.171 6.18-6.171 6.18 2.683 6.18 6.171c0 3.488-2.821 6.171-6.18 6.171zm0-10.866a4.813 4.813 0 0 0-4.837 4.83c0 2.683 2.15 4.829 4.837 4.829s4.837-2.146 4.837-4.83-2.15-4.829-4.837-4.829z" class="st4"/>
		<path id="XMLID_2146_" d="M842.11 637.35c-3.359 0-6.18-2.683-6.18-6.171 0-3.488 2.687-6.171 6.18-6.171s6.18 2.683 6.18 6.171c0 3.488-2.687 6.171-6.18 6.171zm0-10.866c-2.687 0-4.837 2.146-4.837 4.83s2.15 4.829 4.837 4.829 4.837-2.147 4.837-4.83-2.15-4.829-4.837-4.829z" class="st4"/>
		<path id="XMLID_2142_" d="M503.41 642.85c-3.359 0-6.18-2.683-6.18-6.171 0-3.488 2.687-6.171 6.18-6.171s6.18 2.683 6.18 6.171c0 3.488-2.821 6.171-6.18 6.171zm0-11a4.813 4.813 0 0 0-4.837 4.83c0 2.683 2.15 4.829 4.837 4.829a4.813 4.813 0 0 0 4.837-4.83c-.135-2.682-2.284-4.829-4.837-4.829z" class="st4"/>
		<path id="XMLID_2138_" d="M637.9 778.48c-3.359 0-6.18-2.683-6.18-6.171 0-3.488 2.687-6.171 6.18-6.171s6.18 2.683 6.18 6.171-2.821 6.171-6.18 6.171zm0-11c-2.687 0-4.837 2.146-4.837 4.83s2.15 4.829 4.837 4.829 4.837-2.147 4.837-4.83-2.15-4.829-4.837-4.829z" class="st4"/>
		<path id="XMLID_2134_" d="M645.96 849.04c-3.359 0-6.18-2.683-6.18-6.171 0-3.488 2.687-6.171 6.18-6.171s6.18 2.683 6.18 6.171c0 3.488-2.821 6.171-6.18 6.171zm0-11a4.813 4.813 0 0 0-4.837 4.83c0 2.683 2.15 4.829 4.837 4.829s4.837-2.146 4.837-4.83-2.15-4.829-4.837-4.829z" class="st4"/>
	</g>
	<g id="XMLID_2120_" transform="matrix(1.3435 0 0 1.3415 -250.44 -288.02)">
		<g id="XMLID_2129_">
			<path id="XMLID_2130_" fill="#cd632e" stroke="#cd632e" stroke-miterlimit="10" d="M731.6 713.8c-1.2 0-2.3-.4-3.2-1.3s-1.3-2-1.3-3.2.5-2.4 1.3-3.2c1.8-1.8 4.7-1.8 6.5 0 .9.9 1.3 2 1.3 3.2s-.5 2.4-1.3 3.2c-.9.9-2.1 1.3-3.3 1.3zm0-8.1c-.9 0-1.8.3-2.5 1s-1 1.6-1 2.5c0 1 .4 1.8 1 2.5 1.4 1.4 3.7 1.4 5 0 .7-.7 1-1.6 1-2.5 0-1-.4-1.8-1-2.5s-1.5-1-2.5-1z" class="st4"/>
		</g>
		<g id="XMLID_2125_">
			<path id="XMLID_2126_" fill="#cd632e" stroke="#cd632e" stroke-miterlimit="10" d="M732.4 733.3c-1.2 0-2.3-.4-3.2-1.3-1.8-1.8-1.8-4.7 0-6.5s4.7-1.8 6.5 0 1.8 4.7 0 6.5c-1 .9-2.1 1.3-3.3 1.3zm0-8.1c-.9 0-1.8.3-2.5 1-1.4 1.4-1.4 3.7 0 5 1.4 1.4 3.7 1.4 5 0 1.4-1.4 1.4-3.7 0-5-.7-.7-1.6-1-2.5-1z" class="st4"/>
		</g>
		<g id="XMLID_2121_">
			<path id="XMLID_2122_" fill="#cd632e" stroke="#cd632e" stroke-miterlimit="10" d="M712.9 732.6c-1.2 0-2.4-.5-3.2-1.3-1.8-1.8-1.8-4.7 0-6.5.9-.9 2-1.3 3.2-1.3s2.4.5 3.2 1.3c1.8 1.8 1.8 4.7 0 6.5-.8.8-2 1.3-3.2 1.3zm0-8.2c-1 0-1.8.4-2.5 1-1.4 1.4-1.4 3.7 0 5 1.3 1.3 3.7 1.3 5 0 1.4-1.4 1.4-3.7 0-5-.7-.6-1.6-1-2.5-1z" class="st4"/>
		</g>
	</g>
	<g id="XMLID_2107_" transform="matrix(1.3435 0 0 1.3415 -250.44 -288.02)">
		<g id="XMLID_2116_">
			<path id="XMLID_2117_" fill="#cd632e" stroke="#cd632e" stroke-miterlimit="10" d="M700.5 744.9c-1.2 0-2.3-.4-3.2-1.3-1.8-1.8-1.8-4.7 0-6.5s4.7-1.8 6.5 0 1.8 4.7 0 6.5c-.9.9-2.1 1.3-3.3 1.3zm0-8.1c-.9 0-1.8.3-2.5 1-1.4 1.4-1.4 3.7 0 5 1.4 1.4 3.7 1.4 5 0 1.4-1.4 1.4-3.7 0-5-.6-.7-1.6-1-2.5-1z" class="st4"/>
		</g>
		<g id="XMLID_2112_">
			<path id="XMLID_2113_" fill="#cd632e" stroke="#cd632e" stroke-miterlimit="10" d="M701.3 764.4c-1.2 0-2.3-.4-3.2-1.3-1.8-1.8-1.8-4.7 0-6.5s4.7-1.8 6.5 0 1.8 4.7 0 6.5c-1 .9-2.1 1.3-3.3 1.3zm0-8.1c-.9 0-1.8.3-2.5 1-1.4 1.4-1.4 3.7 0 5 1.4 1.4 3.7 1.4 5 0 1.4-1.4 1.4-3.7 0-5-.7-.7-1.6-1-2.5-1z" class="st4"/>
		</g>
		<g id="XMLID_2108_">
			<path id="XMLID_2109_" fill="#cd632e" stroke="#cd632e" stroke-miterlimit="10" d="M681.8 763.7c-1.2 0-2.3-.4-3.2-1.3-1.8-1.8-1.8-4.7 0-6.5s4.7-1.8 6.5 0 1.8 4.7 0 6.5c-1 .8-2.1 1.3-3.3 1.3zm0-8.2c-.9 0-1.8.3-2.5 1-1.4 1.4-1.4 3.7 0 5 1.4 1.4 3.7 1.4 5 0 1.4-1.4 1.4-3.7 0-5-.7-.6-1.6-1-2.5-1z" class="st4"/>
		</g>
	</g>
	<g id="XMLID_2093_" transform="matrix(1.3435 0 0 1.3415 -250.44 -288.02)">
		<g id="XMLID_2102_">
			<path id="XMLID_2103_" fill="#cd632e" stroke="#cd632e" stroke-miterlimit="10" d="M681.8 622.5c-1.2 0-2.3-.4-3.2-1.3-1.8-1.8-1.8-4.7 0-6.5s4.7-1.8 6.5 0 1.8 4.7 0 6.5c-1 .9-2.1 1.3-3.3 1.3zm0-8.1c-.9 0-1.8.3-2.5 1-1.4 1.4-1.4 3.7 0 5 1.4 1.4 3.7 1.4 5 0 1.4-1.4 1.4-3.7 0-5-.7-.7-1.6-1-2.5-1z" class="st4"/>
		</g>
		<g id="XMLID_2098_">
			<path id="XMLID_2099_" fill="#cd632e" stroke="#cd632e" stroke-miterlimit="10" d="M701.3 621.8c-1.2 0-2.3-.4-3.2-1.3-1.8-1.8-1.8-4.7 0-6.5s4.7-1.8 6.5 0 1.8 4.7 0 6.5c-1 .8-2.1 1.3-3.3 1.3zm0-8.2c-.9 0-1.8.3-2.5 1-1.4 1.4-1.4 3.7 0 5 1.4 1.4 3.7 1.4 5 0 1.4-1.4 1.4-3.7 0-5-.7-.6-1.6-1-2.5-1z" class="st4"/>
		</g>
		<g id="XMLID_2094_">
			<path id="XMLID_2095_" fill="#cd632e" stroke="#cd632e" stroke-miterlimit="10" d="M700.5 641.3c-1.2 0-2.3-.4-3.2-1.3-1.8-1.8-1.8-4.7 0-6.5s4.7-1.8 6.5 0 1.8 4.7 0 6.5c-.9.8-2.1 1.3-3.3 1.3zm0-8.2c-.9 0-1.8.3-2.5 1-1.4 1.4-1.4 3.7 0 5 1.4 1.4 3.7 1.4 5 0 1.4-1.4 1.4-3.7 0-5-.6-.6-1.6-1-2.5-1z" class="st4"/>
		</g>
	</g>
	<g id="XMLID_2080_" transform="matrix(1.3435 0 0 1.3415 -250.44 -288.02)">
		<g id="XMLID_2089_">
			<path id="XMLID_2090_" fill="#cd632e" stroke="#cd632e" stroke-miterlimit="10" d="M712.9 653.6c-1.2 0-2.4-.5-3.2-1.3-1.8-1.8-1.8-4.7 0-6.5.9-.9 2-1.3 3.2-1.3s2.4.5 3.2 1.3c1.8 1.8 1.8 4.7 0 6.5-.8.9-2 1.3-3.2 1.3zm0-8.1c-1 0-1.8.4-2.5 1-1.4 1.4-1.4 3.7 0 5 1.3 1.3 3.7 1.3 5 0 1.4-1.4 1.4-3.7 0-5-.7-.6-1.6-1-2.5-1z" class="st4"/>
		</g>
		<g id="XMLID_2085_">
			<path id="XMLID_2086_" fill="#cd632e" stroke="#cd632e" stroke-miterlimit="10" d="M732.4 652.9c-1.2 0-2.3-.4-3.2-1.3-1.8-1.8-1.8-4.7 0-6.5s4.7-1.8 6.5 0 1.8 4.7 0 6.5c-1 .8-2.1 1.3-3.3 1.3zm0-8.1c-.9 0-1.8.3-2.5 1-1.4 1.4-1.4 3.7 0 5 1.4 1.4 3.7 1.4 5 0 1.4-1.4 1.4-3.7 0-5-.7-.7-1.6-1-2.5-1z" class="st4"/>
		</g>
		<g id="XMLID_2081_">
			<path id="XMLID_2082_" fill="#cd632e" stroke="#cd632e" stroke-miterlimit="10" d="M731.6 672.4c-1.2 0-2.3-.4-3.2-1.3-1.8-1.8-1.8-4.7 0-6.5s4.7-1.8 6.5 0 1.8 4.7 0 6.5c-.9.8-2.1 1.3-3.3 1.3zm0-8.1c-.9 0-1.8.3-2.5 1-1.4 1.4-1.4 3.7 0 5 1.4 1.4 3.7 1.4 5 0 1.4-1.4 1.4-3.7 0-5-.6-.7-1.5-1-2.5-1z" class="st4"/>
		</g>
	</g>
	<g id="XMLID_2066_" transform="matrix(1.3435 0 0 1.3415 -250.44 -288.02)">
		<g id="XMLID_2075_">
			<path id="XMLID_2076_" fill="#cd632e" stroke="#cd632e" stroke-miterlimit="10" d="M640.3 763.7c-1.2 0-2.3-.4-3.2-1.3-1.8-1.8-1.8-4.7 0-6.5s4.7-1.8 6.5 0 1.8 4.7 0 6.5c-.9.8-2.1 1.3-3.3 1.3zm-2.5-7.1c-1.4 1.4-1.4 3.7 0 5 1.4 1.4 3.7 1.4 5 0s1.4-3.7 0-5c-1.3-1.4-3.6-1.4-5 0z" class="st4"/>
		</g>
		<g id="XMLID_2071_">
			<path id="XMLID_2072_" fill="#cd632e" stroke="#cd632e" stroke-miterlimit="10" d="M620.8 764.4c-1.2 0-2.3-.4-3.2-1.3-1.8-1.8-1.8-4.7 0-6.5s4.7-1.8 6.5 0 1.8 4.7 0 6.5c-.9.9-2.1 1.3-3.3 1.3zm0-8.1c-.9 0-1.8.3-2.5 1-1.4 1.4-1.4 3.7 0 5 1.4 1.4 3.7 1.4 5 0 1.4-1.4 1.4-3.7 0-5-.6-.7-1.5-1-2.5-1z" class="st4"/>
		</g>
		<g id="XMLID_2067_">
			<path id="XMLID_2068_" fill="#cd632e" stroke="#cd632e" stroke-miterlimit="10" d="M621.6 744.9c-1.2 0-2.3-.4-3.2-1.3-1.8-1.8-1.8-4.7 0-6.5s4.7-1.8 6.5 0 1.8 4.7 0 6.5c-1 .9-2.1 1.3-3.3 1.3zm0-8.1c-.9 0-1.8.3-2.5 1-1.4 1.4-1.4 3.7 0 5 1.4 1.4 3.7 1.4 5 0 1.4-1.4 1.4-3.7 0-5-.7-.7-1.6-1-2.5-1z" class="st4"/>
		</g>
	</g>
	<g id="XMLID_2053_" transform="matrix(1.3435 0 0 1.3415 -250.44 -288.02)">
		<g id="XMLID_2062_">
			<path id="XMLID_2063_" fill="#cd632e" stroke="#cd632e" stroke-miterlimit="10" d="M609.2 732.6c-1.2 0-2.3-.4-3.2-1.3-1.8-1.8-1.8-4.7 0-6.5s4.7-1.8 6.5 0 1.8 4.7 0 6.5c-.9.8-2.1 1.3-3.3 1.3zm0-8.2c-.9 0-1.8.3-2.5 1-1.4 1.4-1.4 3.7 0 5 1.4 1.4 3.7 1.4 5 0 1.4-1.4 1.4-3.7 0-5-.6-.6-1.5-1-2.5-1z" class="st4"/>
		</g>
		<g id="XMLID_2058_">
			<path id="XMLID_2059_" fill="#cd632e" stroke="#cd632e" stroke-miterlimit="10" d="M589.7 733.3c-1.2 0-2.4-.5-3.2-1.3-1.8-1.8-1.8-4.7 0-6.5.9-.9 2-1.3 3.2-1.3s2.4.5 3.2 1.3c1.8 1.8 1.8 4.7 0 6.5-.8.8-1.9 1.3-3.2 1.3zm0-8.1c-1 0-1.8.4-2.5 1-1.4 1.4-1.4 3.7 0 5 1.3 1.3 3.7 1.3 5 0 1.4-1.4 1.4-3.7 0-5-.6-.6-1.5-1-2.5-1z" class="st4"/>
		</g>
		<g id="XMLID_2054_">
			<path id="XMLID_2055_" fill="#cd632e" stroke="#cd632e" stroke-miterlimit="10" d="M590.5 713.8c-1.2 0-2.4-.5-3.2-1.3-.9-.9-1.3-2-1.3-3.2s.5-2.4 1.3-3.2 2-1.3 3.2-1.3 2.4.5 3.2 1.3 1.3 2 1.3 3.2-.5 2.4-1.3 3.2-2 1.3-3.2 1.3zm0-8.1c-1 0-1.8.4-2.5 1s-1 1.6-1 2.5c0 1 .4 1.8 1 2.5 1.3 1.3 3.7 1.3 5 0 .7-.7 1-1.6 1-2.5 0-1-.4-1.8-1-2.5s-1.6-1-2.5-1z" class="st4"/>
		</g>
	</g>
	<g fill="#cd632e" stroke="#cd632e" stroke-miterlimit="10">
		<g stroke-width="1.3425">
			<path id="XMLID_2051_" d="M638.3 492.47h.269v48.16h-.269z" class="st4"/>
			<path id="XMLID_2049_" d="M638.3 733.14h.269v33.672h-.269z" class="st4"/>
			<path id="XMLID_2047_" d="M508.25 636.41h33.722v.268H508.25z" class="st4"/>
			<path id="XMLID_2045_" d="M735.03 636.41h33.722v.268H735.03z" class="st4"/>
		</g>
		<path id="XMLID_2043_" d="M794.4 663.7l16.2 18.5-.2.1-16.2-18.5z" class="st4" transform="matrix(1.3435 0 0 1.3415 -250.44 -288.02)"/>
	</g>
	<g id="XMLID_2040_" transform="matrix(1.3435 0 0 1.3415 -250.44 -288.02)">
		<path id="XMLID_2041_" fill="#cd632e" stroke="#cd632e" stroke-miterlimit="10" d="M698.5 619.8l.2.2-17.2 17.2-.2-.2z" class="st4"/>
	</g>
	<g id="XMLID_2038_" transform="matrix(1.3435 0 0 1.3415 -250.44 -288.02)">
		<path id="XMLID_2039_" fill="#cd632e" stroke="#cd632e" stroke-miterlimit="10" d="M678.9 620.9l.2.2-7.2 7.2-.2-.2z" class="st4"/>
	</g>
	<g id="XMLID_2036_" transform="matrix(1.3435 0 0 1.3415 -250.44 -288.02)">
		<path id="XMLID_2037_" fill="#cd632e" stroke="#cd632e" stroke-miterlimit="10" d="M697.6 639.6l.2.2-7.2 7.2-.2-.2z" class="st4"/>
	</g>
	<g id="XMLID_2034_" transform="matrix(1.3435 0 0 1.3415 -250.44 -288.02)">
		<path id="XMLID_2035_" fill="#cd632e" stroke="#cd632e" stroke-miterlimit="10" d="M710.2 652.2l.1.2-7.1 7.1-.2-.1z" class="st4"/>
	</g>
	<g id="XMLID_2032_" transform="matrix(1.3435 0 0 1.3415 -250.44 -288.02)">
		<path id="XMLID_2033_" fill="#cd632e" stroke="#cd632e" stroke-miterlimit="10" d="M729 671l.1.2-7.1 7.1-.2-.1z" class="st4"/>
	</g>
	<g id="XMLID_2030_" transform="matrix(1.3435 0 0 1.3415 -250.44 -288.02)">
		<path id="XMLID_2031_" fill="#cd632e" stroke="#cd632e" stroke-miterlimit="10" d="M730 651.3l.1.2-17.1 17.2-.2-.2z" class="st4"/>
	</g>
	<g id="XMLID_2027_" transform="matrix(1.3435 0 0 1.3415 -250.44 -288.02)">
		<path id="XMLID_2028_" fill="#cd632e" stroke="#cd632e" stroke-miterlimit="10" d="M640.9 740.5l.2.2-17.2 17.2-.2-.2z" class="st4"/>
	</g>
	<g id="XMLID_2025_" transform="matrix(1.3435 0 0 1.3415 -250.44 -288.02)">
		<path id="XMLID_2026_" fill="#cd632e" stroke="#cd632e" stroke-miterlimit="10" d="M650.5 749.4l.2.2-7.2 7.2-.2-.2z" class="st4"/>
	</g>
	<g id="XMLID_2023_" transform="matrix(1.3435 0 0 1.3415 -250.44 -288.02)">
		<path id="XMLID_2024_" fill="#cd632e" stroke="#cd632e" stroke-miterlimit="10" d="M631.8 730.7l.2.2-7.2 7.2-.2-.2z" class="st4"/>
	</g>
	<g id="XMLID_2021_" transform="matrix(1.3435 0 0 1.3415 -250.44 -288.02)">
		<path id="XMLID_2022_" fill="#cd632e" stroke="#cd632e" stroke-miterlimit="10" d="M619.2 718.2l.2.2-7.2 7.1-.1-.2z" class="st4"/>
	</g>
	<g id="XMLID_2019_" transform="matrix(1.3435 0 0 1.3415 -250.44 -288.02)">
		<path id="XMLID_2020_" fill="#cd632e" stroke="#cd632e" stroke-miterlimit="10" d="M600.4 699.4l.2.2-7.2 7.1-.1-.1z" class="st4"/>
	</g>
	<g id="XMLID_2017_" transform="matrix(1.3435 0 0 1.3415 -250.44 -288.02)">
		<path id="XMLID_2018_" fill="#cd632e" stroke="#cd632e" stroke-miterlimit="10" d="M609.4 709l.2.2-17.2 17.2-.1-.2z" class="st4"/>
	</g>
	<g id="XMLID_2014_" transform="matrix(1.3435 0 0 1.3415 -250.44 -288.02)">
		<path id="XMLID_2015_" fill="#cd632e" stroke="#cd632e" stroke-miterlimit="10" d="M713 709l17.2 17.1-.2.2-17.1-17.2z" class="st4"/>
	</g>
	<g id="XMLID_2012_" transform="matrix(1.3435 0 0 1.3415 -250.44 -288.02)">
		<path id="XMLID_2013_" fill="#cd632e" stroke="#cd632e" stroke-miterlimit="10" d="M722 699.4l7.1 7.2-.1.1-7.2-7.1z" class="st4"/>
	</g>
	<g id="XMLID_2010_" transform="matrix(1.3435 0 0 1.3415 -250.44 -288.02)">
		<path id="XMLID_2011_" fill="#cd632e" stroke="#cd632e" stroke-miterlimit="10" d="M703.3 718.1l7.1 7.2-.1.1-7.2-7.1z" class="st4"/>
	</g>
	<g id="XMLID_2008_" transform="matrix(1.3435 0 0 1.3415 -250.44 -288.02)">
		<path id="XMLID_2009_" fill="#cd632e" stroke="#cd632e" stroke-miterlimit="10" d="M690.7 730.6l7.2 7.2-.2.2-7.2-7.2z" class="st4"/>
	</g>
	<g id="XMLID_2006_" transform="matrix(1.3435 0 0 1.3415 -250.44 -288.02)">
		<path id="XMLID_2007_" fill="#cd632e" stroke="#cd632e" stroke-miterlimit="10" d="M671.9 749.4l7.2 7.2-.2.2-7.2-7.2z" class="st4"/>
	</g>
	<g id="XMLID_2004_" transform="matrix(1.3435 0 0 1.3415 -250.44 -288.02)">
		<path id="XMLID_2005_" fill="#cd632e" stroke="#cd632e" stroke-miterlimit="10" d="M681.6 740.5l17.1 17.1-.2.2-17.1-17.2z" class="st4"/>
	</g>
	<g id="XMLID_1976_" transform="matrix(1.3435 0 0 1.3415 -250.44 -288.02)">
		<g id="XMLID_1990_">
			<g id="XMLID_1999_">
				<path id="XMLID_2000_" fill="#cd632e" stroke="#cd632e" stroke-miterlimit="10" d="M590.5 672.4c-1.2 0-2.4-.5-3.2-1.3-1.8-1.8-1.8-4.7 0-6.5.9-.9 2-1.3 3.2-1.3s2.4.5 3.2 1.3c1.8 1.8 1.8 4.7 0 6.5-.8.8-2 1.3-3.2 1.3zm0-8.2c-1 0-1.8.4-2.5 1-1.4 1.4-1.4 3.7 0 5 1.3 1.3 3.7 1.3 5 0 1.4-1.4 1.4-3.7 0-5-.7-.6-1.6-1-2.5-1z" class="st4"/>
			</g>
			<g id="XMLID_1995_">
				<path id="XMLID_1996_" fill="#cd632e" stroke="#cd632e" stroke-miterlimit="10" d="M589.7 652.9c-1.2 0-2.3-.4-3.2-1.3-1.8-1.8-1.8-4.7 0-6.5s4.7-1.8 6.5 0 1.8 4.7 0 6.5c-.9.8-2.1 1.3-3.3 1.3zm0-8.1c-.9 0-1.8.3-2.5 1-1.4 1.4-1.4 3.7 0 5 1.4 1.4 3.7 1.4 5 0 1.4-1.4 1.4-3.7 0-5-.6-.7-1.6-1-2.5-1z" class="st4"/>
			</g>
			<g id="XMLID_1991_">
				<path id="XMLID_1992_" fill="#cd632e" stroke="#cd632e" stroke-miterlimit="10" d="M609.2 653.6c-1.2 0-2.3-.4-3.2-1.3-1.8-1.8-1.8-4.7 0-6.5s4.7-1.8 6.5 0 1.8 4.7 0 6.5c-.9.9-2.1 1.3-3.3 1.3zm0-8.1c-.9 0-1.8.3-2.5 1-1.4 1.4-1.4 3.7 0 5 1.4 1.4 3.7 1.4 5 0 1.4-1.4 1.4-3.7 0-5-.6-.7-1.5-1-2.5-1z" class="st4"/>
			</g>
		</g>
		<g id="XMLID_1977_">
			<g id="XMLID_1986_">
				<path id="XMLID_1987_" fill="#cd632e" stroke="#cd632e" stroke-miterlimit="10" d="M621.6 641.3c-1.2 0-2.3-.4-3.2-1.3-1.8-1.8-1.8-4.7 0-6.5s4.7-1.8 6.5 0 1.8 4.7 0 6.5c-1 .8-2.1 1.3-3.3 1.3zm0-8.2c-.9 0-1.8.3-2.5 1-1.4 1.4-1.4 3.7 0 5 1.4 1.4 3.7 1.4 5 0 1.4-1.4 1.4-3.7 0-5-.7-.6-1.6-1-2.5-1z" class="st4"/>
			</g>
			<g id="XMLID_1982_">
				<path id="XMLID_1983_" fill="#cd632e" stroke="#cd632e" stroke-miterlimit="10" d="M620.8 621.8c-1.2 0-2.3-.4-3.2-1.3-1.8-1.8-1.8-4.7 0-6.5s4.7-1.8 6.5 0 1.8 4.7 0 6.5c-.9.8-2.1 1.3-3.3 1.3zm0-8.2c-.9 0-1.8.3-2.5 1-1.4 1.4-1.4 3.7 0 5 1.4 1.4 3.7 1.4 5 0 1.4-1.4 1.4-3.7 0-5-.6-.6-1.5-1-2.5-1z" class="st4"/>
			</g>
			<g id="XMLID_1978_">
				<path id="XMLID_1979_" fill="#cd632e" stroke="#cd632e" stroke-miterlimit="10" d="M640.3 622.5c-1.2 0-2.3-.4-3.2-1.3-1.8-1.8-1.8-4.7 0-6.5s4.7-1.8 6.5 0 1.8 4.7 0 6.5c-.9.9-2.1 1.3-3.3 1.3zm0-8.1c-.9 0-1.8.3-2.5 1-1.4 1.4-1.4 3.7 0 5 1.4 1.4 3.7 1.4 5 0 1.4-1.4 1.4-3.7 0-5-.6-.7-1.5-1-2.5-1z" class="st4"/>
			</g>
		</g>
	</g>
	<g id="XMLID_1974_" transform="matrix(1.3435 0 0 1.3415 -250.44 -288.02)">
		<path id="XMLID_1975_" fill="#cd632e" stroke="#cd632e" stroke-miterlimit="10" d="M592.4 651.4l17.1 17.2-.1.2-17.2-17.2z" class="st4"/>
	</g>
	<g id="XMLID_1972_" transform="matrix(1.3435 0 0 1.3415 -250.44 -288.02)">
		<path id="XMLID_1973_" fill="#cd632e" stroke="#cd632e" stroke-miterlimit="10" d="M593.4 671l7.2 7.2-.2.1-7.1-7.1z" class="st4"/>
	</g>
	<g id="XMLID_1970_" transform="matrix(1.3435 0 0 1.3415 -250.44 -288.02)">
		<path id="XMLID_1971_" fill="#cd632e" stroke="#cd632e" stroke-miterlimit="10" d="M612.1 652.3l7.2 7.1-.2.2-7.1-7.1z" class="st4"/>
	</g>
	<g id="XMLID_1968_" transform="matrix(1.3435 0 0 1.3415 -250.44 -288.02)">
		<path id="XMLID_1969_" fill="#cd632e" stroke="#cd632e" stroke-miterlimit="10" d="M624.7 639.7l7.2 7.2-.2.2-7.2-7.2z" class="st4"/>
	</g>
	<g id="XMLID_1966_" transform="matrix(1.3435 0 0 1.3415 -250.44 -288.02)">
		<path id="XMLID_1967_" fill="#cd632e" stroke="#cd632e" stroke-miterlimit="10" d="M643.5 620.9l7.2 7.2-.2.2-7.2-7.2z" class="st4"/>
	</g>
	<g id="XMLID_1964_" transform="matrix(1.3435 0 0 1.3415 -250.44 -288.02)">
		<path id="XMLID_1965_" fill="#cd632e" stroke="#cd632e" stroke-miterlimit="10" d="M623.9 619.9l17.1 17.2-.2.2-17.1-17.2z" class="st4"/>
	</g>
	<g fill="#cd632e" stroke="#cd632e" stroke-miterlimit="10">
		<path id="XMLID_1962_" d="M513.6 696.6l16.9 16.6-.1.2-16.9-16.7z" class="st4" transform="matrix(1.3435 0 0 1.3415 -250.44 -288.02)"/>
		<path id="XMLID_1960_" d="M650.7 596.1l11 21.6-.2.1-11-21.6z" class="st4" transform="matrix(1.3435 0 0 1.3415 -250.44 -288.02)"/>
		<path id="XMLID_1958_" d="M673.2 595.8l.3.1-11.8 21.9-.2-.1z" class="st4" transform="matrix(1.3435 0 0 1.3415 -250.44 -288.02)"/>
		<path id="XMLID_1956_" d="M674.2 547.6l.3.1-12.8 70.1h-.2z" class="st4" transform="matrix(1.3435 0 0 1.3415 -250.44 -288.02)"/>
		<path id="XMLID_1954_" d="M648.5 547.6l13.2 70.2h-.2l-13.3-70.1z" class="st4" transform="matrix(1.3435 0 0 1.3415 -250.44 -288.02)"/>
		<path id="XMLID_1952_" stroke-width="1.3425" d="M-70.427 1059.4h33.566v.403h-33.566z" class="st4" transform="rotate(-41.479) skewX(.085)"/>
	</g>
	<g fill="#279fc9" stroke="#279fc9" stroke-miterlimit="10">
		<path id="XMLID_1947_" stroke-width="2.685" d="M638.43 984.94L289.66 636.68l348.77-348.25 348.78 348.25-348.78 348.26zM293.42 636.68l345.01 344.5 345.02-344.5-345.02-344.5-345.01 344.5z" class="st5"/>
		<path id="XMLID_1945_" stroke-width="2" d="M680.8 436l.2.1-7.2 7.2-.2-.2z" class="st5" transform="matrix(1.3435 0 0 1.3415 -250.44 -288.02)"/>
		<g stroke-width="2.685">
			<path id="XMLID_1941_" d="M674.84 297.55h-11.151v-11.135h11.151v11.135zm-9.808-1.341h8.465v-8.452h-8.465v8.451z" class="st5"/>
			<path id="XMLID_1939_" d="M637.9 191.03h.269v56.344h-.269z" class="st5"/>
			<path id="XMLID_1935_" d="M638.03 262.13l-7.927-7.915 7.927-7.915 7.927 7.915-7.927 7.915zm-5.912-7.915l5.912 5.903 5.912-5.903-5.912-5.903-5.912 5.903z" class="st5"/>
		</g>
		<path id="XMLID_1933_" stroke-width="2" d="M699.5 454.6l.2.2-7.2 7.2-.2-.2z" class="st5" transform="matrix(1.3435 0 0 1.3415 -250.44 -288.02)"/>
		<path id="XMLID_1929_" stroke-width="2.685" d="M699.97 322.63h-11.151v-11.135h11.151v11.135zm-9.808-1.341h8.465v-8.452h-8.465v8.452z" class="st5"/>
		<path id="XMLID_1927_" stroke-width="2" d="M700.2 435.4l.2.2-16.9 16.9-.2-.2z" class="st5" transform="matrix(1.3435 0 0 1.3415 -250.44 -288.02)"/>
		<path id="XMLID_1923_" stroke-width="2.685" d="M700.91 296.88h-11.151v-11.135h11.151v11.135zm-9.808-1.341h8.465v-8.452h-8.465v8.451z" class="st5"/>
	</g>
	<g id="XMLID_1920_" transform="matrix(1.3435 0 0 1.3415 -250.44 -288.02)">
		<path id="XMLID_1921_" fill="#279fc9" stroke="#279fc9" stroke-miterlimit="10" stroke-width="2" d="M711.4 466.6l.2.2-7.2 7.1-.1-.1z" class="st5"/>
	</g>
	<g id="XMLID_1916_" transform="matrix(1.3435 0 0 1.3415 -250.44 -288.02)">
		<path id="XMLID_1917_" fill="#279fc9" stroke="#279fc9" stroke-miterlimit="10" stroke-width="2" d="M719.3 467.2H711v-8.3h8.3v8.3zm-7.3-1h6.3v-6.3H712v6.3z" class="st5"/>
	</g>
	<g id="XMLID_1914_" transform="matrix(1.3435 0 0 1.3415 -250.44 -288.02)">
		<path id="XMLID_1915_" fill="#279fc9" stroke="#279fc9" stroke-miterlimit="10" stroke-width="2" d="M730.1 485.3l.2.2-7.2 7.1-.1-.1z" class="st5"/>
	</g>
	<g id="XMLID_1910_" transform="matrix(1.3435 0 0 1.3415 -250.44 -288.02)">
		<path id="XMLID_1911_" fill="#279fc9" stroke="#279fc9" stroke-miterlimit="10" stroke-width="2" d="M738 485.9h-8.3v-8.3h8.3v8.3zm-7.3-1h6.3v-6.3h-6.3v6.3z" class="st5"/>
	</g>
	<g id="XMLID_1908_" transform="matrix(1.3435 0 0 1.3415 -250.44 -288.02)">
		<path id="XMLID_1909_" fill="#279fc9" stroke="#279fc9" stroke-miterlimit="10" stroke-width="2" d="M730.8 466.1l.2.1-16.9 16.9-.1-.2z" class="st5"/>
	</g>
	<g id="XMLID_1904_" transform="matrix(1.3435 0 0 1.3415 -250.44 -288.02)">
		<path id="XMLID_1905_" fill="#279fc9" stroke="#279fc9" stroke-miterlimit="10" stroke-width="2" d="M738.7 466.7h-8.3v-8.3h8.3v8.3zm-7.3-1h6.3v-6.3h-6.3v6.3z" class="st5"/>
	</g>
	<g id="XMLID_1901_" transform="matrix(1.3435 0 0 1.3415 -250.44 -288.02)">
		<path id="XMLID_1902_" fill="#279fc9" stroke="#279fc9" stroke-miterlimit="10" stroke-width="2" d="M742.1 497.2l.2.2-7.2 7.2-.2-.2z" class="st5"/>
	</g>
	<g id="XMLID_1897_" transform="matrix(1.3435 0 0 1.3415 -250.44 -288.02)">
		<path id="XMLID_1898_" fill="#279fc9" stroke="#279fc9" stroke-miterlimit="10" stroke-width="2" d="M750 497.8h-8.3v-8.3h8.3v8.3zm-7.3-1h6.3v-6.3h-6.3v6.3z" class="st5"/>
	</g>
	<g id="XMLID_1895_" transform="matrix(1.3435 0 0 1.3415 -250.44 -288.02)">
		<path id="XMLID_1896_" fill="#279fc9" stroke="#279fc9" stroke-miterlimit="10" stroke-width="2" d="M760.8 515.9l.2.2-7.2 7.2-.2-.2z" class="st5"/>
	</g>
	<g id="XMLID_1891_" transform="matrix(1.3435 0 0 1.3415 -250.44 -288.02)">
		<path id="XMLID_1892_" fill="#279fc9" stroke="#279fc9" stroke-miterlimit="10" stroke-width="2" d="M768.7 516.5h-8.3v-8.3h8.3v8.3zm-7.3-1h6.3v-6.3h-6.3v6.3z" class="st5"/>
	</g>
	<g id="XMLID_1889_" transform="matrix(1.3435 0 0 1.3415 -250.44 -288.02)">
		<path id="XMLID_1890_" fill="#279fc9" stroke="#279fc9" stroke-miterlimit="10" stroke-width="2" d="M761.5 496.7l.1.2-16.8 16.9-.2-.2z" class="st5"/>
	</g>
	<g id="XMLID_1885_" transform="matrix(1.3435 0 0 1.3415 -250.44 -288.02)">
		<path id="XMLID_1886_" fill="#279fc9" stroke="#279fc9" stroke-miterlimit="10" stroke-width="2" d="M769.3 497.3H761V489h8.3v8.3zm-7.2-1h6.3V490h-6.3v6.3z" class="st5"/>
	</g>
	<g id="XMLID_1882_" transform="matrix(1.3435 0 0 1.3415 -250.44 -288.02)">
		<path id="XMLID_1883_" fill="#279fc9" stroke="#279fc9" stroke-miterlimit="10" stroke-width="2" d="M772.7 527.9l.2.2-7.2 7.1-.1-.1z" class="st5"/>
	</g>
	<g id="XMLID_1878_" transform="matrix(1.3435 0 0 1.3415 -250.44 -288.02)">
		<path id="XMLID_1879_" fill="#279fc9" stroke="#279fc9" stroke-miterlimit="10" stroke-width="2" d="M780.6 528.5h-8.3v-8.3h8.3v8.3zm-7.3-1h6.3v-6.3h-6.3v6.3z" class="st5"/>
	</g>
	<g id="XMLID_1876_" transform="matrix(1.3435 0 0 1.3415 -250.44 -288.02)">
		<path id="XMLID_1877_" fill="#279fc9" stroke="#279fc9" stroke-miterlimit="10" stroke-width="2" d="M791.4 546.6l.2.2-7.2 7.1-.1-.2z" class="st5"/>
	</g>
	<g id="XMLID_1872_" transform="matrix(1.3435 0 0 1.3415 -250.44 -288.02)">
		<path id="XMLID_1873_" fill="#279fc9" stroke="#279fc9" stroke-miterlimit="10" stroke-width="2" d="M799.3 547.2H791v-8.3h8.3v8.3zm-7.3-1h6.3v-6.3H792v6.3z" class="st5"/>
	</g>
	<g id="XMLID_1870_" transform="matrix(1.3435 0 0 1.3415 -250.44 -288.02)">
		<path id="XMLID_1871_" fill="#279fc9" stroke="#279fc9" stroke-miterlimit="10" stroke-width="2" d="M792.1 527.4l.2.1-16.9 16.9-.2-.2z" class="st5"/>
	</g>
	<g id="XMLID_1866_" transform="matrix(1.3435 0 0 1.3415 -250.44 -288.02)">
		<path id="XMLID_1867_" fill="#279fc9" stroke="#279fc9" stroke-miterlimit="10" stroke-width="2" d="M800 527.9h-8.3v-8.3h8.3v8.3zm-7.3-1h6.3v-6.3h-6.3v6.3z" class="st5"/>
	</g>
	<g id="XMLID_1863_" transform="matrix(1.3435 0 0 1.3415 -250.44 -288.02)">
		<path id="XMLID_1864_" fill="#279fc9" stroke="#279fc9" stroke-miterlimit="10" stroke-width="2" d="M803.4 558.5l.1.2-7.1 7.2-.2-.2z" class="st5"/>
	</g>
	<g id="XMLID_1859_" transform="matrix(1.3435 0 0 1.3415 -250.44 -288.02)">
		<path id="XMLID_1860_" fill="#279fc9" stroke="#279fc9" stroke-miterlimit="10" stroke-width="2" d="M811.2 559.1H803v-8.3h8.3l-.1 8.3zm-7.2-1h6.3v-6.3H804v6.3z" class="st5"/>
	</g>
	<g id="XMLID_1857_" transform="matrix(1.3435 0 0 1.3415 -250.44 -288.02)">
		<path id="XMLID_1858_" fill="#279fc9" stroke="#279fc9" stroke-miterlimit="10" stroke-width="2" d="M822.1 577.2l.1.2-7.1 7.2-.2-.2z" class="st5"/>
	</g>
	<g id="XMLID_1853_" transform="matrix(1.3435 0 0 1.3415 -250.44 -288.02)">
		<path id="XMLID_1854_" fill="#279fc9" stroke="#279fc9" stroke-miterlimit="10" stroke-width="2" d="M829.9 577.8h-8.3v-8.3h8.3v8.3zm-7.2-1h6.3v-6.3h-6.3v6.3z" class="st5"/>
	</g>
	<g id="XMLID_1851_" transform="matrix(1.3435 0 0 1.3415 -250.44 -288.02)">
		<path id="XMLID_1852_" fill="#279fc9" stroke="#279fc9" stroke-miterlimit="10" stroke-width="2" d="M822.8 558l.1.2-16.8 16.8-.2-.1z" class="st5"/>
	</g>
	<g id="XMLID_1847_" transform="matrix(1.3435 0 0 1.3415 -250.44 -288.02)">
		<path id="XMLID_1848_" fill="#279fc9" stroke="#279fc9" stroke-miterlimit="10" stroke-width="2" d="M830.6 558.6h-8.3v-8.3h8.3v8.3zm-7.3-1h6.3v-6.3h-6.3v6.3z" class="st5"/>
	</g>
	<g id="XMLID_1844_" transform="matrix(1.3435 0 0 1.3415 -250.44 -288.02)">
		<path id="XMLID_1845_" fill="#279fc9" stroke="#279fc9" stroke-miterlimit="10" stroke-width="2" d="M834 589.2l.2.2-7.2 7.1-.2-.2z" class="st5"/>
	</g>
	<g id="XMLID_1840_" transform="matrix(1.3435 0 0 1.3415 -250.44 -288.02)">
		<path id="XMLID_1841_" fill="#279fc9" stroke="#279fc9" stroke-miterlimit="10" stroke-width="2" d="M841.9 589.8h-8.3v-8.3h8.3v8.3zm-7.3-1h6.3v-6.3h-6.3v6.3z" class="st5"/>
	</g>
	<g id="XMLID_1838_" transform="matrix(1.3435 0 0 1.3415 -250.44 -288.02)">
		<path id="XMLID_1839_" fill="#279fc9" stroke="#279fc9" stroke-miterlimit="10" stroke-width="2" d="M852.7 607.9l.2.1-7.2 7.2-.2-.2z" class="st5"/>
	</g>
	<g id="XMLID_1834_" transform="matrix(1.3435 0 0 1.3415 -250.44 -288.02)">
		<path id="XMLID_1835_" fill="#279fc9" stroke="#279fc9" stroke-miterlimit="10" stroke-width="2" d="M860.6 608.5h-8.3v-8.3h8.3v8.3zm-7.3-1h6.3v-6.3h-6.3v6.3z" class="st5"/>
	</g>
	<g id="XMLID_1832_" transform="matrix(1.3435 0 0 1.3415 -250.44 -288.02)">
		<path id="XMLID_1833_" fill="#279fc9" stroke="#279fc9" stroke-miterlimit="10" stroke-width="2" d="M853.4 588.6l.2.2-16.9 16.9-.2-.2z" class="st5"/>
	</g>
	<g id="XMLID_1828_" transform="matrix(1.3435 0 0 1.3415 -250.44 -288.02)">
		<path id="XMLID_1829_" fill="#279fc9" stroke="#279fc9" stroke-miterlimit="10" stroke-width="2" d="M861.3 589.2H853v-8.3h8.3v8.3zm-7.3-1h6.3v-6.3H854v6.3z" class="st5"/>
	</g>
	<g id="XMLID_1825_" transform="matrix(1.3435 0 0 1.3415 -250.44 -288.02)">
		<path id="XMLID_1826_" fill="#279fc9" stroke="#279fc9" stroke-miterlimit="10" stroke-width="2" d="M864.7 619.8l.1.2-7.1 7.2-.2-.2z" class="st5"/>
	</g>
	<g id="XMLID_1821_" transform="matrix(1.3435 0 0 1.3415 -250.44 -288.02)">
		<path id="XMLID_1822_" fill="#279fc9" stroke="#279fc9" stroke-miterlimit="10" stroke-width="2" d="M872.5 620.4h-8.3v-8.3h8.3v8.3zm-7.3-1h6.3v-6.3h-6.3v6.3z" class="st5"/>
	</g>
	<g id="XMLID_1819_" transform="matrix(1.3435 0 0 1.3415 -250.44 -288.02)">
		<path id="XMLID_1820_" fill="#279fc9" stroke="#279fc9" stroke-miterlimit="10" stroke-width="2" d="M883.4 638.5l.1.2-7.1 7.2-.2-.2z" class="st5"/>
	</g>
	<g id="XMLID_1815_" transform="matrix(1.3435 0 0 1.3415 -250.44 -288.02)">
		<path id="XMLID_1816_" fill="#279fc9" stroke="#279fc9" stroke-miterlimit="10" stroke-width="2" d="M891.2 639.1h-8.3v-8.3h8.3v8.3zm-7.3-1h6.3v-6.3h-6.3v6.3z" class="st5"/>
	</g>
	<g id="XMLID_1813_" transform="matrix(1.3435 0 0 1.3415 -250.44 -288.02)">
		<path id="XMLID_1814_" fill="#279fc9" stroke="#279fc9" stroke-miterlimit="10" stroke-width="2" d="M884 619.3l.2.2-16.8 16.8-.2-.1z" class="st5"/>
	</g>
	<g id="XMLID_1809_" transform="matrix(1.3435 0 0 1.3415 -250.44 -288.02)">
		<path id="XMLID_1810_" fill="#279fc9" stroke="#279fc9" stroke-miterlimit="10" stroke-width="2" d="M891.9 619.9h-8.3v-8.3h8.3v8.3zm-7.3-1h6.3v-6.3h-6.3v6.3z" class="st5"/>
	</g>
	<g id="XMLID_1806_" transform="matrix(1.3435 0 0 1.3415 -250.44 -288.02)">
		<path id="XMLID_1807_" fill="#279fc9" stroke="#279fc9" stroke-miterlimit="10" stroke-width="2" d="M895.3 650.5l.2.1-7.2 7.2-.2-.2z" class="st5"/>
	</g>
	<g id="XMLID_1802_" transform="matrix(1.3435 0 0 1.3415 -250.44 -288.02)">
		<path id="XMLID_1803_" fill="#279fc9" stroke="#279fc9" stroke-miterlimit="10" stroke-width="2" d="M903.2 651.1h-8.3v-8.3h8.3v8.3zm-7.3-1h6.3v-6.3h-6.3v6.3z" class="st5"/>
	</g>
	<g id="XMLID_1800_" transform="matrix(1.3435 0 0 1.3415 -250.44 -288.02)">
		<path id="XMLID_1801_" fill="#279fc9" stroke="#279fc9" stroke-miterlimit="10" stroke-width="2" d="M914 669.2l.2.1-7.2 7.2-.2-.2z" class="st5"/>
	</g>
	<g id="XMLID_1796_" transform="matrix(1.3435 0 0 1.3415 -250.44 -288.02)">
		<path id="XMLID_1797_" fill="#279fc9" stroke="#279fc9" stroke-miterlimit="10" stroke-width="2" d="M921.9 669.7h-8.3v-8.3h8.3v8.3zm-7.3-1h6.3v-6.3h-6.3v6.3z" class="st5"/>
	</g>
	<g id="XMLID_1794_" transform="matrix(1.3435 0 0 1.3415 -250.44 -288.02)">
		<path id="XMLID_1795_" fill="#279fc9" stroke="#279fc9" stroke-miterlimit="10" stroke-width="2" d="M914.7 649.9l.2.2L898 667l-.2-.2z" class="st5"/>
	</g>
	<g id="XMLID_1790_" transform="matrix(1.3435 0 0 1.3415 -250.44 -288.02)">
		<path id="XMLID_1791_" fill="#279fc9" stroke="#279fc9" stroke-miterlimit="10" stroke-width="2" d="M922.6 650.5h-8.3v-8.3h8.3v8.3zm-7.3-1h6.3v-6.3h-6.3v6.3z" class="st5"/>
	</g>
	<g id="XMLID_1770_" transform="matrix(1.3435 0 0 1.3415 -250.44 -288.02)">
		<g id="XMLID_1787_">
			<path id="XMLID_1788_" fill="#279fc9" stroke="#279fc9" stroke-miterlimit="10" stroke-width="2" d="M408.7 669.2l7.2 7.2-.2.2-7.2-7.2z" class="st5"/>
		</g>
		<g id="XMLID_1783_">
			<path id="XMLID_1784_" fill="#279fc9" stroke="#279fc9" stroke-miterlimit="10" stroke-width="2" d="M409.1 669.8h-8.3v-8.3h8.3v8.3zm-7.3-1h6.3v-6.3h-6.3v6.3z" class="st5"/>
		</g>
		<g id="XMLID_1781_">
			<path id="XMLID_1782_" fill="#279fc9" stroke="#279fc9" stroke-miterlimit="10" stroke-width="2" d="M427.4 650.5l7.2 7.2-.2.2-7.2-7.2z" class="st5"/>
		</g>
		<g id="XMLID_1777_">
			<path id="XMLID_1778_" fill="#279fc9" stroke="#279fc9" stroke-miterlimit="10" stroke-width="2" d="M427.8 651.1h-8.3v-8.3h8.3v8.3zm-7.3-1h6.3v-6.3h-6.3v6.3z" class="st5"/>
		</g>
		<g id="XMLID_1775_">
			<path id="XMLID_1776_" fill="#279fc9" stroke="#279fc9" stroke-miterlimit="10" stroke-width="2" d="M408.2 649.9l16.8 16.8-.1.2L408 650z" class="st5"/>
		</g>
		<g id="XMLID_1771_">
			<path id="XMLID_1772_" fill="#279fc9" stroke="#279fc9" stroke-miterlimit="10" stroke-width="2" d="M408.6 650.4h-8.3v-8.3h8.3v8.3zm-7.3-1h6.3v-6.3h-6.3v6.3z" class="st5"/>
		</g>
	</g>
	<g id="XMLID_1751_" transform="matrix(1.3435 0 0 1.3415 -250.44 -288.02)">
		<g id="XMLID_1768_">
			<path id="XMLID_1769_" fill="#279fc9" stroke="#279fc9" stroke-miterlimit="10" stroke-width="2" d="M439.4 638.6l7.1 7.2-.2.1-7.1-7.1z" class="st5"/>
		</g>
		<g id="XMLID_1764_">
			<path id="XMLID_1765_" fill="#279fc9" stroke="#279fc9" stroke-miterlimit="10" stroke-width="2" d="M439.8 639.2h-8.3v-8.3h8.3v8.3zm-7.3-1h6.3v-6.3h-6.3v6.3z" class="st5"/>
		</g>
		<g id="XMLID_1762_">
			<path id="XMLID_1763_" fill="#279fc9" stroke="#279fc9" stroke-miterlimit="10" stroke-width="2" d="M458.1 619.9l7.1 7.2-.2.1-7.1-7.1z" class="st5"/>
		</g>
		<g id="XMLID_1758_">
			<path id="XMLID_1759_" fill="#279fc9" stroke="#279fc9" stroke-miterlimit="10" stroke-width="2" d="M458.5 620.5h-8.3v-8.3h8.3v8.3zm-7.3-1h6.3v-6.3h-6.3v6.3z" class="st5"/>
		</g>
		<g id="XMLID_1756_">
			<path id="XMLID_1757_" fill="#279fc9" stroke="#279fc9" stroke-miterlimit="10" stroke-width="2" d="M438.8 619.2l16.9 16.9-.2.2-16.8-16.9z" class="st5"/>
		</g>
		<g id="XMLID_1752_">
			<path id="XMLID_1753_" fill="#279fc9" stroke="#279fc9" stroke-miterlimit="10" stroke-width="2" d="M439.2 619.8H431v-8.3h8.3l-.1 8.3zm-7.2-1h6.3v-6.3H432v6.3z" class="st5"/>
		</g>
	</g>
	<g id="XMLID_1732_" transform="matrix(1.3435 0 0 1.3415 -250.44 -288.02)">
		<g id="XMLID_1749_">
			<path id="XMLID_1750_" fill="#279fc9" stroke="#279fc9" stroke-miterlimit="10" stroke-width="2" d="M470 608l7.2 7.1-.2.2-7.2-7.2z" class="st5"/>
		</g>
		<g id="XMLID_1745_">
			<path id="XMLID_1746_" fill="#279fc9" stroke="#279fc9" stroke-miterlimit="10" stroke-width="2" d="M470.4 608.5h-8.3v-8.3h8.3v8.3zm-7.3-1h6.3v-6.3h-6.3v6.3z" class="st5"/>
		</g>
		<g id="XMLID_1743_">
			<path id="XMLID_1744_" fill="#279fc9" stroke="#279fc9" stroke-miterlimit="10" stroke-width="2" d="M488.7 589.3l7.2 7.1-.2.2-7.2-7.2z" class="st5"/>
		</g>
		<g id="XMLID_1739_">
			<path id="XMLID_1740_" fill="#279fc9" stroke="#279fc9" stroke-miterlimit="10" stroke-width="2" d="M489.1 589.8h-8.3v-8.3h8.3v8.3zm-7.3-1h6.3v-6.3h-6.3v6.3z" class="st5"/>
		</g>
		<g id="XMLID_1737_">
			<path id="XMLID_1738_" fill="#279fc9" stroke="#279fc9" stroke-miterlimit="10" stroke-width="2" d="M469.5 588.6l16.8 16.8-.1.2-16.9-16.9z" class="st5"/>
		</g>
		<g id="XMLID_1733_">
			<path id="XMLID_1734_" fill="#279fc9" stroke="#279fc9" stroke-miterlimit="10" stroke-width="2" d="M469.9 589.2h-8.3v-8.3h8.3v8.3zm-7.3-1h6.3v-6.3h-6.3v6.3z" class="st5"/>
		</g>
	</g>
	<g id="XMLID_1713_" transform="matrix(1.3435 0 0 1.3415 -250.44 -288.02)">
		<g id="XMLID_1730_">
			<path id="XMLID_1731_" fill="#279fc9" stroke="#279fc9" stroke-miterlimit="10" stroke-width="2" d="M500.6 577.3l7.2 7.2-.2.2-7.1-7.2z" class="st5"/>
		</g>
		<g id="XMLID_1726_">
			<path id="XMLID_1727_" fill="#279fc9" stroke="#279fc9" stroke-miterlimit="10" stroke-width="2" d="M501.1 577.9h-8.3v-8.3h8.3v8.3zm-7.3-1h6.3v-6.3h-6.3v6.3z" class="st5"/>
		</g>
		<g id="XMLID_1724_">
			<path id="XMLID_1725_" fill="#279fc9" stroke="#279fc9" stroke-miterlimit="10" stroke-width="2" d="M519.3 558.6l7.2 7.2-.2.2-7.1-7.2z" class="st5"/>
		</g>
		<g id="XMLID_1720_">
			<path id="XMLID_1721_" fill="#279fc9" stroke="#279fc9" stroke-miterlimit="10" stroke-width="2" d="M519.8 559.2h-8.3v-8.3h8.3v8.3zm-7.3-1h6.3v-6.3h-6.3v6.3z" class="st5"/>
		</g>
		<g id="XMLID_1718_">
			<path id="XMLID_1719_" fill="#279fc9" stroke="#279fc9" stroke-miterlimit="10" stroke-width="2" d="M500.1 557.9l16.9 16.9-.2.2-16.9-16.9z" class="st5"/>
		</g>
		<g id="XMLID_1714_">
			<path id="XMLID_1715_" fill="#279fc9" stroke="#279fc9" stroke-miterlimit="10" stroke-width="2" d="M500.5 558.5h-8.3v-8.3h8.3v8.3zm-7.3-1h6.3v-6.3h-6.3v6.3z" class="st5"/>
		</g>
	</g>
	<g id="XMLID_1694_" transform="matrix(1.3435 0 0 1.3415 -250.44 -288.02)">
		<g id="XMLID_1711_">
			<path id="XMLID_1712_" fill="#279fc9" stroke="#279fc9" stroke-miterlimit="10" stroke-width="2" d="M531.3 546.7l7.2 7.1-.2.2-7.2-7.2z" class="st5"/>
		</g>
		<g id="XMLID_1707_">
			<path id="XMLID_1708_" fill="#279fc9" stroke="#279fc9" stroke-miterlimit="10" stroke-width="2" d="M531.7 547.3h-8.3V539h8.3v8.3zm-7.3-1h6.3V540h-6.3v6.3z" class="st5"/>
		</g>
		<g id="XMLID_1705_">
			<path id="XMLID_1706_" fill="#279fc9" stroke="#279fc9" stroke-miterlimit="10" stroke-width="2" d="M550 528l7.2 7.1-.2.2-7.2-7.2z" class="st5"/>
		</g>
		<g id="XMLID_1701_">
			<path id="XMLID_1702_" fill="#279fc9" stroke="#279fc9" stroke-miterlimit="10" stroke-width="2" d="M550.4 528.6h-8.3v-8.3h8.3v8.3zm-7.3-1h6.3v-6.3h-6.3v6.3z" class="st5"/>
		</g>
		<g id="XMLID_1699_">
			<path id="XMLID_1700_" fill="#279fc9" stroke="#279fc9" stroke-miterlimit="10" stroke-width="2" d="M530.8 527.3l16.8 16.8-.1.2-16.9-16.8z" class="st5"/>
		</g>
		<g id="XMLID_1695_">
			<path id="XMLID_1696_" fill="#279fc9" stroke="#279fc9" stroke-miterlimit="10" stroke-width="2" d="M531.2 527.9h-8.3v-8.3h8.3v8.3zm-7.3-1h6.3v-6.3h-6.3v6.3z" class="st5"/>
		</g>
	</g>
	<g id="XMLID_1675_" transform="matrix(1.3435 0 0 1.3415 -250.44 -288.02)">
		<g id="XMLID_1692_">
			<path id="XMLID_1693_" fill="#279fc9" stroke="#279fc9" stroke-miterlimit="10" stroke-width="2" d="M561.9 516l7.2 7.2-.2.2-7.1-7.2z" class="st5"/>
		</g>
		<g id="XMLID_1688_">
			<path id="XMLID_1689_" fill="#279fc9" stroke="#279fc9" stroke-miterlimit="10" stroke-width="2" d="M562.3 516.6H554v-8.3h8.3v8.3zm-7.2-1h6.3v-6.3h-6.3v6.3z" class="st5"/>
		</g>
		<g id="XMLID_1686_">
			<path id="XMLID_1687_" fill="#279fc9" stroke="#279fc9" stroke-miterlimit="10" stroke-width="2" d="M580.6 497.3l7.2 7.2-.2.2-7.1-7.2z" class="st5"/>
		</g>
		<g id="XMLID_1682_">
			<path id="XMLID_1683_" fill="#279fc9" stroke="#279fc9" stroke-miterlimit="10" stroke-width="2" d="M581 497.9h-8.3v-8.3h8.3v8.3zm-7.2-1h6.3v-6.3h-6.3v6.3z" class="st5"/>
		</g>
		<g id="XMLID_1680_">
			<path id="XMLID_1681_" fill="#279fc9" stroke="#279fc9" stroke-miterlimit="10" stroke-width="2" d="M561.4 496.6l16.9 16.9-.2.2-16.9-16.9z" class="st5"/>
		</g>
		<g id="XMLID_1676_">
			<path id="XMLID_1677_" fill="#279fc9" stroke="#279fc9" stroke-miterlimit="10" stroke-width="2" d="M561.8 497.2h-8.3v-8.3h8.3v8.3zm-7.3-1h6.3v-6.3h-6.3v6.3z" class="st5"/>
		</g>
	</g>
	<g id="XMLID_1656_" transform="matrix(1.3435 0 0 1.3415 -250.44 -288.02)">
		<g id="XMLID_1673_">
			<path id="XMLID_1674_" fill="#279fc9" stroke="#279fc9" stroke-miterlimit="10" stroke-width="2" d="M592.6 485.4l7.1 7.1-.1.2-7.2-7.1z" class="st5"/>
		</g>
		<g id="XMLID_1669_">
			<path id="XMLID_1670_" fill="#279fc9" stroke="#279fc9" stroke-miterlimit="10" stroke-width="2" d="M593 486h-8.3v-8.3h8.3v8.3zm-7.3-1h6.3v-6.3h-6.3v6.3z" class="st5"/>
		</g>
		<g id="XMLID_1667_">
			<path id="XMLID_1668_" fill="#279fc9" stroke="#279fc9" stroke-miterlimit="10" stroke-width="2" d="M611.3 466.7l7.1 7.1-.1.2-7.2-7.1z" class="st5"/>
		</g>
		<g id="XMLID_1663_">
			<path id="XMLID_1664_" fill="#279fc9" stroke="#279fc9" stroke-miterlimit="10" stroke-width="2" d="M611.7 467.3h-8.3V459h8.3v8.3zm-7.3-1h6.3V460h-6.3v6.3z" class="st5"/>
		</g>
		<g id="XMLID_1661_">
			<path id="XMLID_1662_" fill="#279fc9" stroke="#279fc9" stroke-miterlimit="10" stroke-width="2" d="M592.1 466l16.8 16.9-.2.1-16.8-16.8z" class="st5"/>
		</g>
		<g id="XMLID_1657_">
			<path id="XMLID_1658_" fill="#279fc9" stroke="#279fc9" stroke-miterlimit="10" stroke-width="2" d="M592.5 466.6h-8.3v-8.3h8.3v8.3zm-7.3-1h6.3v-6.3h-6.3v6.3z" class="st5"/>
		</g>
	</g>
	<g id="XMLID_1637_" transform="matrix(1.3435 0 0 1.3415 -250.44 -288.02)">
		<g id="XMLID_1654_">
			<path id="XMLID_1655_" fill="#279fc9" stroke="#279fc9" stroke-miterlimit="10" stroke-width="2" d="M623.2 454.7l7.2 7.2-.2.2-7.2-7.2z" class="st5"/>
		</g>
		<g id="XMLID_1650_">
			<path id="XMLID_1651_" fill="#279fc9" stroke="#279fc9" stroke-miterlimit="10" stroke-width="2" d="M623.6 455.3h-8.3V447h8.3v8.3zm-7.3-1h6.3V448h-6.3v6.3z" class="st5"/>
		</g>
		<g id="XMLID_1648_">
			<path id="XMLID_1649_" fill="#279fc9" stroke="#279fc9" stroke-miterlimit="10" stroke-width="2" d="M641.9 436l7.2 7.2-.2.2-7.2-7.2z" class="st5"/>
		</g>
		<g id="XMLID_1644_">
			<path id="XMLID_1645_" fill="#279fc9" stroke="#279fc9" stroke-miterlimit="10" stroke-width="2" d="M642.3 436.6H634v-8.3h8.3v8.3zm-7.3-1h6.3v-6.3H635v6.3z" class="st5"/>
		</g>
		<g id="XMLID_1642_">
			<path id="XMLID_1643_" fill="#279fc9" stroke="#279fc9" stroke-miterlimit="10" stroke-width="2" d="M622.7 435.3l16.9 16.9-.2.2-16.9-16.9z" class="st5"/>
		</g>
		<g id="XMLID_1638_">
			<path id="XMLID_1639_" fill="#279fc9" stroke="#279fc9" stroke-miterlimit="10" stroke-width="2" d="M623.1 435.9h-8.3v-8.3h8.3v8.3zm-7.3-1h6.3v-6.3h-6.3v6.3z" class="st5"/>
		</g>
	</g>
	<g id="XMLID_1617_" transform="matrix(1.3435 0 0 1.3415 -250.44 -288.02)">
		<g id="XMLID_1634_">
			<path id="XMLID_1635_" fill="#279fc9" stroke="#279fc9" stroke-miterlimit="10" stroke-width="2" d="M649.1 935.6l.2.2-7.2 7.2-.2-.2z" class="st5"/>
		</g>
		<g id="XMLID_1630_">
			<path id="XMLID_1631_" fill="#279fc9" stroke="#279fc9" stroke-miterlimit="10" stroke-width="2" d="M642.5 950.7h-8.3v-8.3h8.3v8.3zm-7.3-1h6.3v-6.3h-6.3v6.3z" class="st5"/>
		</g>
		<g id="XMLID_1628_">
			<path id="XMLID_1629_" fill="#279fc9" stroke="#279fc9" stroke-miterlimit="10" stroke-width="2" d="M630.4 916.9l.2.2-7.2 7.2-.2-.2z" class="st5"/>
		</g>
		<g id="XMLID_1624_">
			<path id="XMLID_1625_" fill="#279fc9" stroke="#279fc9" stroke-miterlimit="10" stroke-width="2" d="M623.8 932h-8.3v-8.3h8.3v8.3zm-7.3-1h6.3v-6.3h-6.3v6.3z" class="st5"/>
		</g>
		<g id="XMLID_1622_">
			<path id="XMLID_1623_" fill="#279fc9" stroke="#279fc9" stroke-miterlimit="10" stroke-width="2" d="M639.4 926.5l.2.1-16.9 16.9-.2-.2z" class="st5"/>
		</g>
		<g id="XMLID_1618_">
			<path id="XMLID_1619_" fill="#279fc9" stroke="#279fc9" stroke-miterlimit="10" stroke-width="2" d="M623.1 951.2h-8.3v-8.3h8.3v8.3zm-7.3-1h6.3v-6.3h-6.3v6.3z" class="st5"/>
		</g>
	</g>
	<g id="XMLID_1598_" transform="matrix(1.3435 0 0 1.3415 -250.44 -288.02)">
		<g id="XMLID_1615_">
			<path id="XMLID_1616_" fill="#279fc9" stroke="#279fc9" stroke-miterlimit="10" stroke-width="2" d="M618.4 905l.2.2-7.2 7.1-.1-.1z" class="st5"/>
		</g>
		<g id="XMLID_1611_">
			<path id="XMLID_1612_" fill="#279fc9" stroke="#279fc9" stroke-miterlimit="10" stroke-width="2" d="M611.9 920h-8.3v-8.3h8.3v8.3zm-7.3-1h6.3v-6.3h-6.3v6.3z" class="st5"/>
		</g>
		<g id="XMLID_1609_">
			<path id="XMLID_1610_" fill="#279fc9" stroke="#279fc9" stroke-miterlimit="10" stroke-width="2" d="M599.7 886.3l.2.2-7.2 7.1-.1-.1z" class="st5"/>
		</g>
		<g id="XMLID_1605_">
			<path id="XMLID_1606_" fill="#279fc9" stroke="#279fc9" stroke-miterlimit="10" stroke-width="2" d="M593.2 901.3h-8.3V893h8.3v8.3zm-7.3-1h6.3V894h-6.3v6.3z" class="st5"/>
		</g>
		<g id="XMLID_1603_">
			<path id="XMLID_1604_" fill="#279fc9" stroke="#279fc9" stroke-miterlimit="10" stroke-width="2" d="M608.7 895.8l.2.2-16.8 16.9-.2-.2z" class="st5"/>
		</g>
		<g id="XMLID_1599_">
			<path id="XMLID_1600_" fill="#279fc9" stroke="#279fc9" stroke-miterlimit="10" stroke-width="2" d="M592.5 920.6h-8.3v-8.3h8.3v8.3zm-7.3-1h6.3v-6.3h-6.3v6.3z" class="st5"/>
		</g>
	</g>
	<g id="XMLID_1579_" transform="matrix(1.3435 0 0 1.3415 -250.44 -288.02)">
		<g id="XMLID_1596_">
			<path id="XMLID_1597_" fill="#279fc9" stroke="#279fc9" stroke-miterlimit="10" stroke-width="2" d="M587.8 874.3l.2.2-7.2 7.2-.2-.2z" class="st5"/>
		</g>
		<g id="XMLID_1592_">
			<path id="XMLID_1593_" fill="#279fc9" stroke="#279fc9" stroke-miterlimit="10" stroke-width="2" d="M581.2 889.4h-8.3v-8.3h8.3v8.3zm-7.3-1h6.3v-6.3h-6.3v6.3z" class="st5"/>
		</g>
		<g id="XMLID_1590_">
			<path id="XMLID_1591_" fill="#279fc9" stroke="#279fc9" stroke-miterlimit="10" stroke-width="2" d="M569.1 855.6l.2.2-7.2 7.2-.2-.2z" class="st5"/>
		</g>
		<g id="XMLID_1586_">
			<path id="XMLID_1587_" fill="#279fc9" stroke="#279fc9" stroke-miterlimit="10" stroke-width="2" d="M562.5 870.7h-8.3v-8.3h8.3v8.3zm-7.3-1h6.3v-6.3h-6.3v6.3z" class="st5"/>
		</g>
		<g id="XMLID_1584_">
			<path id="XMLID_1585_" fill="#279fc9" stroke="#279fc9" stroke-miterlimit="10" stroke-width="2" d="M578.1 865.2l.2.2-16.9 16.8-.2-.2z" class="st5"/>
		</g>
		<g id="XMLID_1580_">
			<path id="XMLID_1581_" fill="#279fc9" stroke="#279fc9" stroke-miterlimit="10" stroke-width="2" d="M561.8 889.9h-8.3v-8.3h8.3v8.3zm-7.3-1h6.3v-6.3h-6.3v6.3z" class="st5"/>
		</g>
	</g>
	<g id="XMLID_1560_" transform="matrix(1.3435 0 0 1.3415 -250.44 -288.02)">
		<g id="XMLID_1577_">
			<path id="XMLID_1578_" fill="#279fc9" stroke="#279fc9" stroke-miterlimit="10" stroke-width="2" d="M557.1 843.7l.2.2-7.1 7.1-.2-.1z" class="st5"/>
		</g>
		<g id="XMLID_1573_">
			<path id="XMLID_1574_" fill="#279fc9" stroke="#279fc9" stroke-miterlimit="10" stroke-width="2" d="M550.6 858.7h-8.3v-8.3h8.3v8.3zm-7.3-1h6.3v-6.3h-6.3v6.3z" class="st5"/>
		</g>
		<g id="XMLID_1571_">
			<path id="XMLID_1572_" fill="#279fc9" stroke="#279fc9" stroke-miterlimit="10" stroke-width="2" d="M538.4 825l.2.2-7.1 7.1-.2-.1z" class="st5"/>
		</g>
		<g id="XMLID_1567_">
			<path id="XMLID_1568_" fill="#279fc9" stroke="#279fc9" stroke-miterlimit="10" stroke-width="2" d="M531.9 840h-8.3v-8.3h8.3v8.3zm-7.3-1h6.3v-6.3h-6.3v6.3z" class="st5"/>
		</g>
		<g id="XMLID_1565_">
			<path id="XMLID_1566_" fill="#279fc9" stroke="#279fc9" stroke-miterlimit="10" stroke-width="2" d="M547.5 834.5l.1.2-16.8 16.9-.2-.2z" class="st5"/>
		</g>
		<g id="XMLID_1561_">
			<path id="XMLID_1562_" fill="#279fc9" stroke="#279fc9" stroke-miterlimit="10" stroke-width="2" d="M531.2 859.3h-8.3V851h8.3v8.3zm-7.3-1h6.3V852h-6.3v6.3z" class="st5"/>
		</g>
	</g>
	<g id="XMLID_1541_" transform="matrix(1.3435 0 0 1.3415 -250.44 -288.02)">
		<g id="XMLID_1558_">
			<path id="XMLID_1559_" fill="#279fc9" stroke="#279fc9" stroke-miterlimit="10" stroke-width="2" d="M526.5 813.1l.2.1-7.2 7.2-.2-.2z" class="st5"/>
		</g>
		<g id="XMLID_1554_">
			<path id="XMLID_1555_" fill="#279fc9" stroke="#279fc9" stroke-miterlimit="10" stroke-width="2" d="M519.9 828.1h-8.3v-8.3h8.3v8.3zm-7.3-1h6.3v-6.3h-6.3v6.3z" class="st5"/>
		</g>
		<g id="XMLID_1552_">
			<path id="XMLID_1553_" fill="#279fc9" stroke="#279fc9" stroke-miterlimit="10" stroke-width="2" d="M507.8 794.4l.2.1-7.2 7.2-.2-.2z" class="st5"/>
		</g>
		<g id="XMLID_1548_">
			<path id="XMLID_1549_" fill="#279fc9" stroke="#279fc9" stroke-miterlimit="10" stroke-width="2" d="M501.2 809.4h-8.3v-8.3h8.3v8.3zm-7.3-1h6.3v-6.3h-6.3v6.3z" class="st5"/>
		</g>
		<g id="XMLID_1546_">
			<path id="XMLID_1547_" fill="#279fc9" stroke="#279fc9" stroke-miterlimit="10" stroke-width="2" d="M516.8 803.9l.2.2-16.9 16.8-.2-.1z" class="st5"/>
		</g>
		<g id="XMLID_1542_">
			<path id="XMLID_1543_" fill="#279fc9" stroke="#279fc9" stroke-miterlimit="10" stroke-width="2" d="M500.5 828.6h-8.3v-8.3h8.3v8.3zm-7.3-1h6.3v-6.3h-6.3v6.3z" class="st5"/>
		</g>
	</g>
	<g id="XMLID_1463_" transform="matrix(1.3435 0 0 1.3415 -250.44 -288.02)">
		<g id="XMLID_1539_">
			<path id="XMLID_1540_" fill="#279fc9" stroke="#279fc9" stroke-miterlimit="10" stroke-width="2" d="M495.9 782.4l.1.2-7.1 7.2-.2-.2z" class="st5"/>
		</g>
		<g id="XMLID_1535_">
			<path id="XMLID_1536_" fill="#279fc9" stroke="#279fc9" stroke-miterlimit="10" stroke-width="2" d="M489.3 797.5H481v-8.3h8.3v8.3zm-7.3-1h6.3v-6.3H482v6.3z" class="st5"/>
		</g>
		<g id="XMLID_1533_">
			<path id="XMLID_1534_" fill="#279fc9" stroke="#279fc9" stroke-miterlimit="10" stroke-width="2" d="M477.2 763.7l.1.2-7.1 7.2-.2-.2z" class="st5"/>
		</g>
		<g id="XMLID_1529_">
			<path id="XMLID_1530_" fill="#279fc9" stroke="#279fc9" stroke-miterlimit="10" stroke-width="2" d="M470.6 778.8h-8.3v-8.3h8.3v8.3zm-7.3-1h6.3v-6.3h-6.3v6.3z" class="st5"/>
		</g>
		<g id="XMLID_1527_">
			<path id="XMLID_1528_" fill="#279fc9" stroke="#279fc9" stroke-miterlimit="10" stroke-width="2" d="M486.2 773.2l.1.2-16.8 16.9-.2-.2z" class="st5"/>
		</g>
		<g id="XMLID_1464_">
			<path id="XMLID_1465_" fill="#279fc9" stroke="#279fc9" stroke-miterlimit="10" stroke-width="2" d="M469.9 798h-8.3v-8.3h8.3v8.3zm-7.3-1h6.3v-6.3h-6.3v6.3z" class="st5"/>
		</g>
	</g>
	<g id="XMLID_1433_" transform="matrix(1.3435 0 0 1.3415 -250.44 -288.02)">
		<g id="XMLID_1461_">
			<path id="XMLID_1462_" fill="#279fc9" stroke="#279fc9" stroke-miterlimit="10" stroke-width="2" d="M465.2 751.8l.2.1-7.2 7.2-.2-.2z" class="st5"/>
		</g>
		<g id="XMLID_1452_">
			<path id="XMLID_1458_" fill="#279fc9" stroke="#279fc9" stroke-miterlimit="10" stroke-width="2" d="M458.6 766.8h-8.3v-8.3h8.3v8.3zm-7.3-1h6.3v-6.3h-6.3v6.3z" class="st5"/>
		</g>
		<g id="XMLID_1444_">
			<path id="XMLID_1445_" fill="#279fc9" stroke="#279fc9" stroke-miterlimit="10" stroke-width="2" d="M446.5 733.1l.2.1-7.2 7.2-.2-.2z" class="st5"/>
		</g>
		<g id="XMLID_1440_">
			<path id="XMLID_1441_" fill="#279fc9" stroke="#279fc9" stroke-miterlimit="10" stroke-width="2" d="M439.9 748.1h-8.3v-8.3h8.3v8.3zm-7.3-1h6.3v-6.3h-6.3v6.3z" class="st5"/>
		</g>
		<g id="XMLID_1438_">
			<path id="XMLID_1439_" fill="#279fc9" stroke="#279fc9" stroke-miterlimit="10" stroke-width="2" d="M455.5 742.6l.2.2-16.9 16.8-.1-.1z" class="st5"/>
		</g>
		<g id="XMLID_1434_">
			<path id="XMLID_1435_" fill="#279fc9" stroke="#279fc9" stroke-miterlimit="10" stroke-width="2" d="M439.2 767.3H431V759h8.3l-.1 8.3zm-7.2-1h6.3V760H432v6.3z" class="st5"/>
		</g>
	</g>
	<g id="XMLID_1414_" transform="matrix(1.3435 0 0 1.3415 -250.44 -288.02)">
		<g id="XMLID_1431_">
			<path id="XMLID_1432_" fill="#279fc9" stroke="#279fc9" stroke-miterlimit="10" stroke-width="2" d="M434.6 721.1l.1.2-7.1 7.2-.2-.2z" class="st5"/>
		</g>
		<g id="XMLID_1427_">
			<path id="XMLID_1428_" fill="#279fc9" stroke="#279fc9" stroke-miterlimit="10" stroke-width="2" d="M428 736.2h-8.3v-8.3h8.3v8.3zm-7.3-1h6.3v-6.3h-6.3v6.3z" class="st5"/>
		</g>
		<g id="XMLID_1425_">
			<path id="XMLID_1426_" fill="#279fc9" stroke="#279fc9" stroke-miterlimit="10" stroke-width="2" d="M415.9 702.4l.1.2-7.1 7.2-.2-.2z" class="st5"/>
		</g>
		<g id="XMLID_1421_">
			<path id="XMLID_1422_" fill="#279fc9" stroke="#279fc9" stroke-miterlimit="10" stroke-width="2" d="M409.3 717.5H401v-8.3h8.3v8.3zm-7.3-1h6.3v-6.3H402v6.3z" class="st5"/>
		</g>
		<g id="XMLID_1419_">
			<path id="XMLID_1420_" fill="#279fc9" stroke="#279fc9" stroke-miterlimit="10" stroke-width="2" d="M424.9 712l.1.1-16.8 16.9-.2-.2z" class="st5"/>
		</g>
		<g id="XMLID_1415_">
			<path id="XMLID_1416_" fill="#279fc9" stroke="#279fc9" stroke-miterlimit="10" stroke-width="2" d="M408.6 736.7h-8.3v-8.3h8.3v8.3zm-7.3-1h6.3v-6.3h-6.3v6.3z" class="st5"/>
		</g>
	</g>
	<g id="XMLID_1394_" transform="matrix(1.3435 0 0 1.3415 -250.44 -288.02)">
		<g id="XMLID_1411_">
			<path id="XMLID_1412_" fill="#279fc9" stroke="#279fc9" stroke-miterlimit="10" stroke-width="2" d="M907.2 702.3l7.1 7.2-.1.2-7.2-7.2z" class="st5"/>
		</g>
		<g id="XMLID_1407_">
			<path id="XMLID_1408_" fill="#279fc9" stroke="#279fc9" stroke-miterlimit="10" stroke-width="2" d="M922 717.4h-8.3v-8.3h8.3v8.3zm-7.2-1h6.3v-6.3h-6.3v6.3z" class="st5"/>
		</g>
		<g id="XMLID_1405_">
			<path id="XMLID_1406_" fill="#279fc9" stroke="#279fc9" stroke-miterlimit="10" stroke-width="2" d="M888.5 721l7.1 7.2-.1.2-7.2-7.2z" class="st5"/>
		</g>
		<g id="XMLID_1401_">
			<path id="XMLID_1402_" fill="#279fc9" stroke="#279fc9" stroke-miterlimit="10" stroke-width="2" d="M903.3 736.1H895v-8.3h8.3v8.3zm-7.2-1h6.3v-6.3h-6.3v6.3z" class="st5"/>
		</g>
		<g id="XMLID_1399_">
			<path id="XMLID_1400_" fill="#279fc9" stroke="#279fc9" stroke-miterlimit="10" stroke-width="2" d="M898 712l16.9 16.9-.2.2-16.9-16.9z" class="st5"/>
		</g>
		<g id="XMLID_1395_">
			<path id="XMLID_1396_" fill="#279fc9" stroke="#279fc9" stroke-miterlimit="10" stroke-width="2" d="M922.6 736.8h-8.3v-8.3h8.3v8.3zm-7.3-1h6.3v-6.3h-6.3v6.3z" class="st5"/>
		</g>
	</g>
	<g id="XMLID_1375_" transform="matrix(1.3435 0 0 1.3415 -250.44 -288.02)">
		<g id="XMLID_1392_">
			<path id="XMLID_1393_" fill="#279fc9" stroke="#279fc9" stroke-miterlimit="10" stroke-width="2" d="M876.5 733l7.2 7.2-.2.1-7.1-7.1z" class="st5"/>
		</g>
		<g id="XMLID_1388_">
			<path id="XMLID_1389_" fill="#279fc9" stroke="#279fc9" stroke-miterlimit="10" stroke-width="2" d="M891.4 748h-8.3v-8.3h8.3v8.3zm-7.3-1h6.3v-6.3h-6.3v6.3z" class="st5"/>
		</g>
		<g id="XMLID_1386_">
			<path id="XMLID_1387_" fill="#279fc9" stroke="#279fc9" stroke-miterlimit="10" stroke-width="2" d="M857.8 751.7l7.2 7.1-.2.2-7.1-7.1z" class="st5"/>
		</g>
		<g id="XMLID_1382_">
			<path id="XMLID_1383_" fill="#279fc9" stroke="#279fc9" stroke-miterlimit="10" stroke-width="2" d="M872.7 766.7h-8.3v-8.3h8.3v8.3zm-7.3-1h6.3v-6.3h-6.3v6.3z" class="st5"/>
		</g>
		<g id="XMLID_1380_">
			<path id="XMLID_1381_" fill="#279fc9" stroke="#279fc9" stroke-miterlimit="10" stroke-width="2" d="M867.4 742.7l16.8 16.8-.2.2-16.8-16.8z" class="st5"/>
		</g>
		<g id="XMLID_1376_">
			<path id="XMLID_1377_" fill="#279fc9" stroke="#279fc9" stroke-miterlimit="10" stroke-width="2" d="M891.9 767.4h-8.3v-8.3h8.3v8.3zm-7.3-1h6.3v-6.3h-6.3v6.3z" class="st5"/>
		</g>
	</g>
	<g id="XMLID_1356_" transform="matrix(1.3435 0 0 1.3415 -250.44 -288.02)">
		<g id="XMLID_1373_">
			<path id="XMLID_1374_" fill="#279fc9" stroke="#279fc9" stroke-miterlimit="10" stroke-width="2" d="M845.9 763.6l7.2 7.2-.2.2-7.2-7.2z" class="st5"/>
		</g>
		<g id="XMLID_1369_">
			<path id="XMLID_1370_" fill="#279fc9" stroke="#279fc9" stroke-miterlimit="10" stroke-width="2" d="M860.8 778.7h-8.3v-8.3h8.3v8.3zm-7.3-1h6.3v-6.3h-6.3v6.3z" class="st5"/>
		</g>
		<g id="XMLID_1367_">
			<path id="XMLID_1368_" fill="#279fc9" stroke="#279fc9" stroke-miterlimit="10" stroke-width="2" d="M827.2 782.3l7.2 7.2-.2.2-7.2-7.2z" class="st5"/>
		</g>
		<g id="XMLID_1363_">
			<path id="XMLID_1364_" fill="#279fc9" stroke="#279fc9" stroke-miterlimit="10" stroke-width="2" d="M842.1 797.4h-8.3v-8.3h8.3v8.3zm-7.3-1h6.3v-6.3h-6.3v6.3z" class="st5"/>
		</g>
		<g id="XMLID_1361_">
			<path id="XMLID_1362_" fill="#279fc9" stroke="#279fc9" stroke-miterlimit="10" stroke-width="2" d="M836.7 773.3l16.9 16.9-.2.2-16.9-16.9z" class="st5"/>
		</g>
		<g id="XMLID_1357_">
			<path id="XMLID_1358_" fill="#279fc9" stroke="#279fc9" stroke-miterlimit="10" stroke-width="2" d="M861.3 798.1H853v-8.3h8.3v8.3zm-7.3-1h6.3v-6.3H854v6.3z" class="st5"/>
		</g>
	</g>
	<g id="XMLID_1337_" transform="matrix(1.3435 0 0 1.3415 -250.44 -288.02)">
		<g id="XMLID_1354_">
			<path id="XMLID_1355_" fill="#279fc9" stroke="#279fc9" stroke-miterlimit="10" stroke-width="2" d="M815.2 794.3l7.2 7.1-.2.2-7.1-7.1z" class="st5"/>
		</g>
		<g id="XMLID_1350_">
			<path id="XMLID_1351_" fill="#279fc9" stroke="#279fc9" stroke-miterlimit="10" stroke-width="2" d="M830.1 809.3h-8.3V801h8.3v8.3zm-7.3-1h6.3V802h-6.3v6.3z" class="st5"/>
		</g>
		<g id="XMLID_1348_">
			<path id="XMLID_1349_" fill="#279fc9" stroke="#279fc9" stroke-miterlimit="10" stroke-width="2" d="M796.5 813l7.2 7.1-.2.2-7.1-7.2z" class="st5"/>
		</g>
		<g id="XMLID_1344_">
			<path id="XMLID_1345_" fill="#279fc9" stroke="#279fc9" stroke-miterlimit="10" stroke-width="2" d="M811.4 828h-8.3v-8.3h8.3v8.3zm-7.3-1h6.3v-6.3h-6.3v6.3z" class="st5"/>
		</g>
		<g id="XMLID_1342_">
			<path id="XMLID_1343_" fill="#279fc9" stroke="#279fc9" stroke-miterlimit="10" stroke-width="2" d="M806.1 804l16.8 16.8-.1.2-16.9-16.9z" class="st5"/>
		</g>
		<g id="XMLID_1338_">
			<path id="XMLID_1339_" fill="#279fc9" stroke="#279fc9" stroke-miterlimit="10" stroke-width="2" d="M830.6 828.7h-8.3v-8.3h8.3v8.3zm-7.3-1h6.3v-6.3h-6.3v6.3z" class="st5"/>
		</g>
	</g>
	<g id="XMLID_1318_" transform="matrix(1.3435 0 0 1.3415 -250.44 -288.02)">
		<g id="XMLID_1335_">
			<path id="XMLID_1336_" fill="#279fc9" stroke="#279fc9" stroke-miterlimit="10" stroke-width="2" d="M784.6 824.9l7.2 7.2-.2.2-7.2-7.2z" class="st5"/>
		</g>
		<g id="XMLID_1331_">
			<path id="XMLID_1332_" fill="#279fc9" stroke="#279fc9" stroke-miterlimit="10" stroke-width="2" d="M799.5 840h-8.3v-8.3h8.3v8.3zm-7.3-1h6.3v-6.3h-6.3v6.3z" class="st5"/>
		</g>
		<g id="XMLID_1329_">
			<path id="XMLID_1330_" fill="#279fc9" stroke="#279fc9" stroke-miterlimit="10" stroke-width="2" d="M765.9 843.6l7.2 7.2-.2.2-7.2-7.2z" class="st5"/>
		</g>
		<g id="XMLID_1325_">
			<path id="XMLID_1326_" fill="#279fc9" stroke="#279fc9" stroke-miterlimit="10" stroke-width="2" d="M780.8 858.7h-8.3v-8.3h8.3v8.3zm-7.3-1h6.3v-6.3h-6.3v6.3z" class="st5"/>
		</g>
		<g id="XMLID_1323_">
			<path id="XMLID_1324_" fill="#279fc9" stroke="#279fc9" stroke-miterlimit="10" stroke-width="2" d="M775.4 834.6l16.9 16.9-.2.2-16.9-16.9z" class="st5"/>
		</g>
		<g id="XMLID_1319_">
			<path id="XMLID_1320_" fill="#279fc9" stroke="#279fc9" stroke-miterlimit="10" stroke-width="2" d="M800 859.4h-8.3v-8.3h8.3v8.3zm-7.3-1h6.3v-6.3h-6.3v6.3z" class="st5"/>
		</g>
	</g>
	<g id="XMLID_1299_" transform="matrix(1.3435 0 0 1.3415 -250.44 -288.02)">
		<g id="XMLID_1316_">
			<path id="XMLID_1317_" fill="#279fc9" stroke="#279fc9" stroke-miterlimit="10" stroke-width="2" d="M754 855.6l7.1 7.1-.2.2-7.1-7.2z" class="st5"/>
		</g>
		<g id="XMLID_1312_">
			<path id="XMLID_1313_" fill="#279fc9" stroke="#279fc9" stroke-miterlimit="10" stroke-width="2" d="M768.8 870.6h-8.3v-8.3h8.3v8.3zm-7.3-1h6.3v-6.3h-6.3v6.3z" class="st5"/>
		</g>
		<g id="XMLID_1310_">
			<path id="XMLID_1311_" fill="#279fc9" stroke="#279fc9" stroke-miterlimit="10" stroke-width="2" d="M735.3 874.3l7.1 7.1-.2.2-7.1-7.2z" class="st5"/>
		</g>
		<g id="XMLID_1306_">
			<path id="XMLID_1307_" fill="#279fc9" stroke="#279fc9" stroke-miterlimit="10" stroke-width="2" d="M750.1 889.3h-8.3V881h8.3v8.3zm-7.3-1h6.3V882h-6.3v6.3z" class="st5"/>
		</g>
		<g id="XMLID_1304_">
			<path id="XMLID_1305_" fill="#279fc9" stroke="#279fc9" stroke-miterlimit="10" stroke-width="2" d="M744.8 865.3l16.8 16.8-.1.2-16.9-16.9z" class="st5"/>
		</g>
		<g id="XMLID_1300_">
			<path id="XMLID_1301_" fill="#279fc9" stroke="#279fc9" stroke-miterlimit="10" stroke-width="2" d="M769.3 890H761v-8.3h8.3v8.3zm-7.2-1h6.3v-6.3h-6.3v6.3z" class="st5"/>
		</g>
	</g>
	<g id="XMLID_1280_" transform="matrix(1.3435 0 0 1.3415 -250.44 -288.02)">
		<g id="XMLID_1297_">
			<path id="XMLID_1298_" fill="#279fc9" stroke="#279fc9" stroke-miterlimit="10" stroke-width="2" d="M723.3 886.2l7.2 7.2-.2.2-7.2-7.2z" class="st5"/>
		</g>
		<g id="XMLID_1293_">
			<path id="XMLID_1294_" fill="#279fc9" stroke="#279fc9" stroke-miterlimit="10" stroke-width="2" d="M738.2 901.3h-8.3V893h8.3v8.3zm-7.3-1h6.3V894h-6.3v6.3z" class="st5"/>
		</g>
		<g id="XMLID_1291_">
			<path id="XMLID_1292_" fill="#279fc9" stroke="#279fc9" stroke-miterlimit="10" stroke-width="2" d="M704.6 904.9l7.2 7.2-.2.1-7.2-7.1z" class="st5"/>
		</g>
		<g id="XMLID_1287_">
			<path id="XMLID_1288_" fill="#279fc9" stroke="#279fc9" stroke-miterlimit="10" stroke-width="2" d="M719.5 920h-8.3v-8.3h8.3v8.3zm-7.3-1h6.3v-6.3h-6.3v6.3z" class="st5"/>
		</g>
		<g id="XMLID_1285_">
			<path id="XMLID_1286_" fill="#279fc9" stroke="#279fc9" stroke-miterlimit="10" stroke-width="2" d="M714.1 895.9l16.9 16.9-.2.1-16.8-16.8z" class="st5"/>
		</g>
		<g id="XMLID_1281_">
			<path id="XMLID_1282_" fill="#279fc9" stroke="#279fc9" stroke-miterlimit="10" stroke-width="2" d="M738.7 920.6h-8.3v-8.3h8.3v8.3zm-7.3-1h6.3v-6.3h-6.3v6.3z" class="st5"/>
		</g>
	</g>
	<g id="XMLID_1261_" transform="matrix(1.3435 0 0 1.3415 -250.44 -288.02)">
		<g id="XMLID_1278_">
			<path id="XMLID_1279_" fill="#279fc9" stroke="#279fc9" stroke-miterlimit="10" stroke-width="2" d="M692.7 916.9l7.1 7.1-.1.2-7.2-7.2z" class="st5"/>
		</g>
		<g id="XMLID_1274_">
			<path id="XMLID_1275_" fill="#279fc9" stroke="#279fc9" stroke-miterlimit="10" stroke-width="2" d="M707.5 931.9h-8.3v-8.3h8.3v8.3zm-7.3-1h6.3v-6.3h-6.3v6.3z" class="st5"/>
		</g>
		<g id="XMLID_1272_">
			<path id="XMLID_1273_" fill="#279fc9" stroke="#279fc9" stroke-miterlimit="10" stroke-width="2" d="M674 935.5l7.1 7.2-.1.2-7.2-7.2z" class="st5"/>
		</g>
		<g id="XMLID_1268_">
			<path id="XMLID_1269_" fill="#279fc9" stroke="#279fc9" stroke-miterlimit="10" stroke-width="2" d="M688.8 950.6h-8.3v-8.3h8.3v8.3zm-7.3-1h6.3v-6.3h-6.3v6.3z" class="st5"/>
		</g>
		<g id="XMLID_1266_">
			<path id="XMLID_1267_" fill="#279fc9" stroke="#279fc9" stroke-miterlimit="10" stroke-width="2" d="M683.5 926.5l16.9 16.9-.2.2-16.9-16.9z" class="st5"/>
		</g>
		<g id="XMLID_1262_">
			<path id="XMLID_1263_" fill="#279fc9" stroke="#279fc9" stroke-miterlimit="10" stroke-width="2" d="M708.1 951.3h-8.3V943h8.3v8.3zm-7.3-1h6.3V944h-6.3v6.3z" class="st5"/>
		</g>
	</g>
	<g fill="#279fc9" stroke="#279fc9" stroke-miterlimit="10">
		<path id="XMLID_1259_" stroke-width="2.685" d="M260.64 636.82h32.11v.268h-32.11z" class="st5"/>
		<path id="XMLID_1257_" stroke-width="2.685" d="M-276.42 625.18h9.8v9.8h-9.8z" class="st5" transform="scale(1.00075 .99926) rotate(-45)"/>
		<path id="XMLID_1255_" stroke-width="2.685" d="M985.33 636.82h32.11v.268h-32.11z" class="st5"/>
		<path id="XMLID_1253_" stroke-width="2.685" d="M268.12 1169.7h9.8v9.8h-9.8z" class="st5" transform="scale(1.00075 .99926) rotate(-45)"/>
		<path id="XMLID_1251_" stroke-width="2.685" d="M638.3 982.53h.269v32.062h-.269z" class="st5"/>
		<path id="XMLID_1249_" stroke-width="2.685" d="M-276.55 1169h9.8v9.8h-9.8z" class="st5" transform="scale(1.00075 .99926) rotate(-45)"/>
	</g>
	<g fill="#e0a037" stroke="#e0a037" stroke-miterlimit="10" stroke-width="1.3425">
		<path id="XMLID_1244_" d="M653.35 479.05l-14.913-14.891-14.913 14.891-42.052-41.989 56.831-56.746 56.831 56.746-41.784 41.989zm-69.863-41.989l40.171 40.111 14.913-14.891 14.913 14.891 40.171-40.111-54.95-54.868-55.219 54.868z" class="st6"/>
		<path id="XMLID_1240_" d="M638.43 893.18l-56.831-56.746 42.052-41.989 14.913 14.891 14.913-14.891 42.052 41.989-57.1 56.746zm-54.95-56.88l54.95 54.868 54.95-54.868-40.171-40.111-14.913 14.891-14.913-14.891L583.48 836.3z" class="st6"/>
		<path id="XMLID_1236_" d="M838.35 693.56l-42.052-41.989 14.913-14.891-14.913-14.891L838.35 579.8l56.831 56.746-56.831 57.014zm-40.171-41.989l40.171 40.111 54.95-54.868-54.95-54.868-40.171 40.111 14.913 14.891-14.913 14.623z" class="st6"/>
		<path id="XMLID_1232_" d="M438.52 693.56l-56.831-56.746 56.831-56.746 42.052 41.989-14.913 14.891 14.913 14.891-42.052 41.721zm-54.95-56.88l54.95 54.868 40.171-40.111-14.913-14.891 14.913-14.891-40.171-40.111-54.95 55.136z" class="st6"/>
		<path id="XMLID_1228_" d="M638.43 894.12L380.75 636.68l257.82-257.3 257.69 257.3-257.83 257.44zM384.51 636.68l253.92 253.55 253.93-253.55-253.93-253.54-253.92 253.54z" class="st6"/>
	</g>
	<g id="XMLID_1225_" transform="matrix(1.3435 0 0 1.3415 -250.44 -288.02)">
		<path id="XMLID_1226_" fill="#e0a037" stroke="#e0a037" stroke-miterlimit="10" d="M551.5 641.3c-4.2 4.2-10.5 5-15.5 2.3.6 1.1 1.4 2.2 2.3 3.2 5.2 5.2 13.5 5.2 18.7 0s5.2-13.5 0-18.7c-1-1-2-1.7-3.2-2.3 2.6 5 1.9 11.3-2.3 15.5z" class="st6"/>
	</g>
	<g id="XMLID_1223_" transform="matrix(1.3435 0 0 1.3415 -250.44 -288.02)">
		<path id="XMLID_1224_" fill="#e0a037" stroke="#e0a037" stroke-miterlimit="10" d="M581.4 611.4c-4.2 4.2-10.5 5-15.5 2.3.6 1.1 1.4 2.2 2.3 3.2 5.2 5.2 13.5 5.2 18.7 0s5.2-13.5 0-18.7c-1-1-2-1.7-3.2-2.3 2.7 5 1.9 11.3-2.3 15.5z" class="st6"/>
	</g>
	<g id="XMLID_1221_" transform="matrix(1.3435 0 0 1.3415 -250.44 -288.02)">
		<path id="XMLID_1222_" fill="#e0a037" stroke="#e0a037" stroke-miterlimit="10" d="M610.2 582.6c-4.2 4.2-10.5 5-15.5 2.3.6 1.1 1.4 2.2 2.3 3.2 5.2 5.2 13.5 5.2 18.7 0s5.2-13.5 0-18.7c-1-1-2-1.7-3.2-2.3 2.7 4.9 1.9 11.3-2.3 15.5z" class="st6"/>
	</g>
	<g id="XMLID_1218_" transform="matrix(1.3435 0 0 1.3415 -250.44 -288.02)">
		<path id="XMLID_1219_" fill="#e0a037" stroke="#e0a037" stroke-miterlimit="10" d="M767.6 740c4.2-4.2 10.5-5 15.5-2.3-.6-1.1-1.4-2.2-2.3-3.2-5.2-5.2-13.5-5.2-18.7 0s-5.2 13.5 0 18.7c1 1 2 1.7 3.2 2.3-2.7-5-1.9-11.3 2.3-15.5z" class="st6"/>
	</g>
	<g id="XMLID_1216_" transform="matrix(1.3435 0 0 1.3415 -250.44 -288.02)">
		<path id="XMLID_1217_" fill="#e0a037" stroke="#e0a037" stroke-miterlimit="10" d="M737.7 769.9c4.2-4.2 10.5-5 15.5-2.3-.6-1.1-1.4-2.2-2.3-3.2-5.2-5.2-13.5-5.2-18.7 0s-5.2 13.5 0 18.7c1 1 2 1.7 3.2 2.3-2.7-5-1.9-11.3 2.3-15.5z" class="st6"/>
	</g>
	<g id="XMLID_1214_" transform="matrix(1.3435 0 0 1.3415 -250.44 -288.02)">
		<path id="XMLID_1215_" fill="#e0a037" stroke="#e0a037" stroke-miterlimit="10" d="M708.9 798.7c4.2-4.2 10.5-5 15.5-2.3-.6-1.1-1.4-2.2-2.3-3.2-5.2-5.2-13.5-5.2-18.7 0s-5.2 13.5 0 18.7c1 1 2 1.7 3.2 2.3-2.7-4.9-2-11.3 2.3-15.5z" class="st6"/>
	</g>
	<g id="XMLID_1211_" transform="matrix(1.3435 0 0 1.3415 -250.44 -288.02)">
		<path id="XMLID_1212_" fill="#e0a037" stroke="#e0a037" stroke-miterlimit="10" d="M612.2 797.7c4.2 4.2 5 10.5 2.3 15.5 1.1-.6 2.2-1.4 3.2-2.3 5.2-5.2 5.2-13.5 0-18.7s-13.5-5.2-18.7 0c-1 1-1.7 2-2.3 3.2 5-2.7 11.3-1.9 15.5 2.3z" class="st6"/>
	</g>
	<g id="XMLID_1209_" transform="matrix(1.3435 0 0 1.3415 -250.44 -288.02)">
		<path id="XMLID_1210_" fill="#e0a037" stroke="#e0a037" stroke-miterlimit="10" d="M582.3 767.8c4.2 4.2 5 10.5 2.3 15.5 1.1-.6 2.2-1.4 3.2-2.3 5.2-5.2 5.2-13.5 0-18.7s-13.5-5.2-18.7 0c-1 1-1.7 2-2.3 3.2 5-2.7 11.3-1.9 15.5 2.3z" class="st6"/>
	</g>
	<g id="XMLID_1207_" transform="matrix(1.3435 0 0 1.3415 -250.44 -288.02)">
		<path id="XMLID_1208_" fill="#e0a037" stroke="#e0a037" stroke-miterlimit="10" d="M553.5 739c4.2 4.2 5 10.5 2.3 15.5 1.1-.6 2.2-1.4 3.2-2.3 5.2-5.2 5.2-13.5 0-18.7s-13.5-5.2-18.7 0c-1 1-1.7 2-2.3 3.2 4.9-2.7 11.3-1.9 15.5 2.3z" class="st6"/>
	</g>
	<g id="XMLID_1204_" transform="matrix(1.3435 0 0 1.3415 -250.44 -288.02)">
		<path id="XMLID_1205_" fill="#e0a037" stroke="#e0a037" stroke-miterlimit="10" d="M710.9 581.6c-4.2-4.2-5-10.5-2.3-15.5-1.1.6-2.2 1.4-3.2 2.3-5.2 5.2-5.2 13.5 0 18.7s13.5 5.2 18.7 0c1-1 1.7-2 2.3-3.2-5 2.7-11.3 1.9-15.5-2.3z" class="st6"/>
	</g>
	<g id="XMLID_1202_" transform="matrix(1.3435 0 0 1.3415 -250.44 -288.02)">
		<path id="XMLID_1203_" fill="#e0a037" stroke="#e0a037" stroke-miterlimit="10" d="M740.8 611.5c-4.2-4.2-5-10.5-2.3-15.5-1.1.6-2.2 1.4-3.2 2.3-5.2 5.2-5.2 13.5 0 18.7s13.5 5.2 18.7 0c1-1 1.7-2 2.3-3.2-5 2.7-11.3 1.9-15.5-2.3z" class="st6"/>
	</g>
	<g id="XMLID_1200_" transform="matrix(1.3435 0 0 1.3415 -250.44 -288.02)">
		<path id="XMLID_1201_" fill="#e0a037" stroke="#e0a037" stroke-miterlimit="10" d="M769.6 640.3c-4.2-4.2-5-10.5-2.3-15.5-1.1.6-2.2 1.4-3.2 2.3-5.2 5.2-5.2 13.5 0 18.7s13.5 5.2 18.7 0c1-1 1.7-2 2.3-3.2-4.9 2.7-11.3 1.9-15.5-2.3z" class="st6"/>
	</g>
	<g fill="#e0a037" stroke="#e0a037" stroke-miterlimit="10">
		<path id="XMLID_1198_" d="M614.7 587.3l9.2 9.1-.2.2-9.1-9.2z" class="st6" transform="matrix(1.3435 0 0 1.3415 -250.44 -288.02)"/>
		<path id="XMLID_1196_" d="M586.1 615.9l9.1 9.2-.1.2-9.2-9.2z" class="st6" transform="matrix(1.3435 0 0 1.3415 -250.44 -288.02)"/>
		<path id="XMLID_1194_" d="M555.3 646.7l9.2 9.1-.2.2-9.2-9.1z" class="st6" transform="matrix(1.3435 0 0 1.3415 -250.44 -288.02)"/>
		<path id="XMLID_1192_" d="M764.3 645l.2.1-9.2 9.2-.1-.2z" class="st6" transform="matrix(1.3435 0 0 1.3415 -250.44 -288.02)"/>
		<path id="XMLID_1190_" d="M735.7 616.3l.1.2-9.1 9.2-.2-.2z" class="st6" transform="matrix(1.3435 0 0 1.3415 -250.44 -288.02)"/>
		<path id="XMLID_1188_" d="M705.9 586.5l.2.2-9.2 9.2-.2-.2z" class="st6" transform="matrix(1.3435 0 0 1.3415 -250.44 -288.02)"/>
		<path id="XMLID_1186_" d="M694.4 785.3l9.1 9.1-.1.2-9.2-9.2z" class="st6" transform="matrix(1.3435 0 0 1.3415 -250.44 -288.02)"/>
		<path id="XMLID_1184_" d="M723.5 756.1l9.2 9.2-.2.1-9.1-9.1z" class="st6" transform="matrix(1.3435 0 0 1.3415 -250.44 -288.02)"/>
		<path id="XMLID_1182_" d="M754.8 724.8l9.2 9.2-.2.1-9.1-9.1z" class="st6" transform="matrix(1.3435 0 0 1.3415 -250.44 -288.02)"/>
		<path id="XMLID_1180_" d="M626.5 782.8l.2.2-9.2 9.2-.2-.2z" class="st6" transform="matrix(1.3435 0 0 1.3415 -250.44 -288.02)"/>
		<path id="XMLID_1178_" d="M597.8 754.2l.2.1-9.2 9.2-.2-.2z" class="st6" transform="matrix(1.3435 0 0 1.3415 -250.44 -288.02)"/>
		<path id="XMLID_1176_" d="M567.1 723.4l.1.2-9.1 9.1-.2-.1z" class="st6" transform="matrix(1.3435 0 0 1.3415 -250.44 -288.02)"/>
	</g>
	<path id="XMLID_1171_" fill="#25336D" stroke="#263675" stroke-miterlimit="10" stroke-width="6" d="M638.43 1086L188.62 636.68l449.95-449.27 449.93 449.27L638.43 1086zM192.38 636.73l446.05 445.38 446.05-445.38-446.05-445.38-446.05 445.38z"/>
	<g id="XMLID_1168_" transform="matrix(1.3435 0 0 1.3415 -250.44 -288.02)">
		<path id="XMLID_1169_" fill="#25336d" stroke="#263675" stroke-miterlimit="10" stroke-width="3" d="M661.2 227.2h.8v129.9h-.8z" class="st8"/>
	</g>
	<g id="XMLID_1166_" transform="matrix(1.3435 0 0 1.3415 -250.44 -288.02)">
		<path id="XMLID_1167_" fill="#25336d" stroke="#263675" stroke-miterlimit="10" stroke-width="3" d="M661.6 229.2l-10-13h20.1z" class="st8"/>
	</g>
	<g id="XMLID_1159_" transform="matrix(1.3435 0 0 1.3415 -250.44 -288.02)">
		<g id="XMLID_1164_">
			<path id="XMLID_1165_" fill="#25336d" stroke="#263675" stroke-miterlimit="10" stroke-width="3.00018" d="M727.55 422.472l90.953-90.785.565.566-90.952 90.785z" class="st8"/>
		</g>
		<g id="XMLID_1160_">
			<path id="XMLID_1161_" fill="#25336d" stroke="#263675" stroke-miterlimit="10" stroke-width="3" d="M817.5 333l2.3-18 15.7 15.7-18 2.3zm3.1-15.9l-1.9 14.7 14.7-1.9-12.8-12.8z" class="st8"/>
		</g>
	</g>
	<g id="XMLID_1152_" transform="matrix(1.3435 0 0 1.3415 -250.44 -288.02)">
		<g id="XMLID_1157_">
			<path id="XMLID_1158_" fill="#25336d" stroke="#263675" stroke-miterlimit="10" stroke-width="3.00018" d="M792.714 487.606l90.953-90.785.565.566-90.952 90.785z" class="st8"/>
		</g>
		<g id="XMLID_1153_">
			<path id="XMLID_1154_" fill="#25336d" stroke="#263675" stroke-miterlimit="10" stroke-width="3" d="M882.7 398.1l2.3-18 15.7 15.7-18 2.3zm3.1-15.8l-1.9 14.7 14.7-1.9-12.8-12.8z" class="st8"/>
		</g>
	</g>
	<g id="XMLID_1145_" transform="matrix(1.3435 0 0 1.3415 -250.44 -288.02)">
		<g id="XMLID_1150_">
			<path id="XMLID_1151_" fill="#25336d" stroke="#263675" stroke-miterlimit="10" stroke-width="3.00018" d="M857.837 552.74l90.953-90.785.565.567-90.952 90.785z" class="st8"/>
		</g>
		<g id="XMLID_1146_">
			<path id="XMLID_1147_" fill="#25336d" stroke="#263675" stroke-miterlimit="10" stroke-width="3" d="M947.9 463.3l2.3-18 15.7 15.7-18 2.3zm3-15.8l-1.9 14.7 14.7-1.9-12.8-12.8z" class="st8"/>
		</g>
	</g>
	<g id="XMLID_1138_" transform="matrix(1.3435 0 0 1.3415 -250.44 -288.02)">
		<g id="XMLID_1143_">
			<path id="XMLID_1144_" fill="#25336d" stroke="#263675" stroke-miterlimit="10" stroke-width="3.00018" d="M923.076 617.986l90.953-90.785.565.566-90.952 90.785z" class="st8"/>
		</g>
		<g id="XMLID_1139_">
			<path id="XMLID_1140_" fill="#25336d" stroke="#263675" stroke-miterlimit="10" stroke-width="3" d="M1013 528.5l2.3-18 15.7 15.7-18 2.3zm3.1-15.9l-1.9 14.7 14.7-1.9-12.8-12.8z" class="st8"/>
		</g>
	</g>
	<path id="XMLID_1136_" fill="#25336d" stroke="#263675" stroke-miterlimit="10" stroke-width="4.0276" d="M638.7 1083.4h1.075v171.58H638.7z" class="st8"/>
	<path id="XMLID_1132_" fill="#25336d" stroke="#263675" stroke-miterlimit="10" stroke-width="4.0276" d="M654.15 1273h-29.826l14.913-19.318L654.15 1273zm-27.005-1.341h24.318l-12.092-15.696-12.226 15.696z" class="st8"/>
	<g id="XMLID_1129_" transform="matrix(1.3435 0 0 1.3415 -250.44 -288.02)">
		<path id="XMLID_1130_" fill="#25336d" stroke="#263675" stroke-miterlimit="10" stroke-width="3.00018" d="M505.176 1047.1l90.952-90.786.565.567-90.952 90.785z" class="st8"/>
	</g>
	<g id="XMLID_1125_" transform="matrix(1.3435 0 0 1.3415 -250.44 -288.02)">
		<path id="XMLID_1126_" fill="#25336d" stroke="#263675" stroke-miterlimit="10" stroke-width="3" d="M504 1064.4l-15.7-15.7 18-2.3-2.3 18zm-13.6-15l12.8 12.8 1.9-14.7-14.7 1.9z" class="st8"/>
	</g>
	<g id="XMLID_1122_" transform="matrix(1.3435 0 0 1.3415 -250.44 -288.02)">
		<path id="XMLID_1123_" fill="#25336d" stroke="#263675" stroke-miterlimit="10" stroke-width="3.00018" d="M439.873 981.965l90.952-90.785.565.566-90.952 90.786z" class="st8"/>
	</g>
	<g id="XMLID_1118_" transform="matrix(1.3435 0 0 1.3415 -250.44 -288.02)">
		<path id="XMLID_1119_" fill="#25336d" stroke="#263675" stroke-miterlimit="10" stroke-width="3" d="M438.8 999.2l-15.7-15.7 18-2.3-2.3 18zm-13.5-15l12.8 12.8 1.9-14.7-14.7 1.9z" class="st8"/>
	</g>
	<g id="XMLID_1115_" transform="matrix(1.3435 0 0 1.3415 -250.44 -288.02)">
		<path id="XMLID_1116_" fill="#25336d" stroke="#263675" stroke-miterlimit="10" stroke-width="3.00018" d="M374.752 916.83l90.952-90.784.565.566-90.952 90.785z" class="st8"/>
	</g>
	<g id="XMLID_1111_" transform="matrix(1.3435 0 0 1.3415 -250.44 -288.02)">
		<path id="XMLID_1112_" fill="#25336d" stroke="#263675" stroke-miterlimit="10" stroke-width="3" d="M373.6 934L358 918.4l18-2.3-2.4 17.9zm-13.5-14.9l12.8 12.8 1.9-14.7-14.7 1.9z" class="st8"/>
	</g>
	<g id="XMLID_1108_" transform="matrix(1.3435 0 0 1.3415 -250.44 -288.02)">
		<path id="XMLID_1109_" fill="#25336d" stroke="#263675" stroke-miterlimit="10" stroke-width="3.00018" d="M309.66 851.585l90.953-90.785.565.566-90.953 90.786z" class="st8"/>
	</g>
	<g id="XMLID_1104_" transform="matrix(1.3435 0 0 1.3415 -250.44 -288.02)">
		<path id="XMLID_1105_" fill="#25336d" stroke="#263675" stroke-miterlimit="10" stroke-width="3" d="M308.5 868.8l-15.7-15.7 18-2.3-2.3 18zm-13.6-14.9l12.8 12.8 1.9-14.7-14.7 1.9z" class="st8"/>
	</g>
	<path id="XMLID_1102_" fill="#25336d" stroke="#263675" stroke-miterlimit="10" stroke-width="4.0276" d="M1085.7 636.28h173.18v1.073H1085.7z" class="st8"/>
	<path id="XMLID_1098_" fill="#25336d" stroke="#263675" stroke-miterlimit="10" stroke-width="4.0276" d="M1275.7 651.71l-19.347-14.891 19.347-14.891v29.782zm-17.063-14.891l15.719 12.074v-24.281l-15.719 12.208z" class="st8"/>
	<g id="XMLID_1095_" transform="matrix(1.3435 0 0 1.3415 -250.44 -288.02)">
		<path id="XMLID_1096_" fill="#25336d" stroke="#263675" stroke-miterlimit="10" stroke-width="2.9999700000000002" d="M928.535 755.705l.565-.566 90.863 90.863-.566.566z" class="st8"/>
	</g>
	<g id="XMLID_1091_" transform="matrix(1.3435 0 0 1.3415 -250.44 -288.02)">
		<path id="XMLID_1092_" fill="#25336d" stroke="#263675" stroke-miterlimit="10" stroke-width="3" d="M1020.9 863.3l-2.3-18 18 2.3-15.7 15.7zm-1.1-16.8l1.9 14.7 12.8-12.8-14.7-1.9z" class="st8"/>
	</g>
	<g id="XMLID_1088_" transform="matrix(1.3435 0 0 1.3415 -250.44 -288.02)">
		<path id="XMLID_1089_" fill="#25336d" stroke="#263675" stroke-miterlimit="10" stroke-width="2.9999700000000002" d="M863.405 821.002l.566-.566 90.862 90.862-.565.566z" class="st8"/>
	</g>
	<g id="XMLID_1084_" transform="matrix(1.3435 0 0 1.3415 -250.44 -288.02)">
		<path id="XMLID_1085_" fill="#25336d" stroke="#263675" stroke-miterlimit="10" stroke-width="3" d="M955.8 928.5l-2.3-18 18 2.3-15.7 15.7zm-1.2-16.9l1.9 14.7 12.8-12.8-14.7-1.9z" class="st8"/>
	</g>
	<g id="XMLID_1081_" transform="matrix(1.3435 0 0 1.3415 -250.44 -288.02)">
		<path id="XMLID_1082_" fill="#25336d" stroke="#263675" stroke-miterlimit="10" stroke-width="2.9999700000000002" d="M798.165 886.087l.565-.566 90.863 90.863-.566.565z" class="st8"/>
	</g>
	<g id="XMLID_1037_" transform="matrix(1.3435 0 0 1.3415 -250.44 -288.02)">
		<path id="XMLID_1038_" fill="#25336d" stroke="#263675" stroke-miterlimit="10" stroke-width="3" d="M890.6 993.6l-2.3-18 18 2.3-15.7 15.7zm-1.2-16.8l1.9 14.7 12.8-12.8-14.7-1.9z" class="st8"/>
	</g>
	<g id="XMLID_1031_" transform="matrix(1.3435 0 0 1.3415 -250.44 -288.02)">
		<path id="XMLID_1032_" fill="#25336d" stroke="#263675" stroke-miterlimit="10" stroke-width="2.9999700000000002" d="M732.965 951.313l.565-.566 90.863 90.862-.566.566z" class="st8"/>
	</g>
	<g id="XMLID_1026_" transform="matrix(1.3435 0 0 1.3415 -250.44 -288.02)">
		<path id="XMLID_1027_" fill="#25336d" stroke="#263675" stroke-miterlimit="10" stroke-width="3" d="M825.4 1058.8l-2.3-18 18 2.3-15.7 15.7zm-1.1-16.8l1.9 14.7 12.8-12.8-14.7-1.9z" class="st8"/>
	</g>
	<path id="XMLID_1024_" fill="#25336d" stroke="#263675" stroke-miterlimit="10" stroke-width="4.0276" d="M20.145 637.09h171.84v1.073H20.145z" class="st8"/>
	<path id="XMLID_979_" fill="#25336d" stroke="#263675" stroke-miterlimit="10" stroke-width="4.0276" d="M2.007 652.51v-29.782l19.347 14.891L2.007 652.51zm1.344-27.099v24.281l15.719-12.07-15.72-12.21z" class="st8"/>
	<g id="XMLID_976_" transform="matrix(1.3435 0 0 1.3415 -250.44 -288.02)">
		<path id="XMLID_977_" fill="#25336d" stroke="#263675" stroke-miterlimit="10" stroke-width="2.9999700000000002" d="M303.87 533.302l.566-.566 90.862 90.862-.566.566z" class="st8"/>
	</g>
	<g id="XMLID_972_" transform="matrix(1.3435 0 0 1.3415 -250.44 -288.02)">
		<path id="XMLID_973_" fill="#25336d" stroke="#263675" stroke-miterlimit="10" stroke-width="3" d="M305.2 534.1l-18-2.3 15.7-15.7 2.3 18zm-15.8-3.1l14.7 1.9-1.9-14.7-12.8 12.8z" class="st8"/>
	</g>
	<g id="XMLID_969_" transform="matrix(1.3435 0 0 1.3415 -250.44 -288.02)">
		<path id="XMLID_970_" fill="#25336d" stroke="#263675" stroke-miterlimit="10" stroke-width="2.9999700000000002" d="M369.11 468.216l.567-.565 90.862 90.862-.566.566z" class="st8"/>
	</g>
	<g id="XMLID_956_" transform="matrix(1.3435 0 0 1.3415 -250.44 -288.02)">
		<path id="XMLID_957_" fill="#25336d" stroke="#263675" stroke-miterlimit="10" stroke-width="3" d="M370.4 468.9l-18-2.3 15.7-15.7 2.3 18zm-15.9-3.1l14.7 1.9-1.9-14.7-12.8 12.8z" class="st8"/>
	</g>
	<g id="XMLID_391_" transform="matrix(1.3435 0 0 1.3415 -250.44 -288.02)">
		<path id="XMLID_954_" fill="#25336d" stroke="#263675" stroke-miterlimit="10" stroke-width="2.9999700000000002" d="M434.31 402.99l.567-.565 90.862 90.862-.566.566z" class="st8"/>
	</g>
	<g id="XMLID_216_" transform="matrix(1.3435 0 0 1.3415 -250.44 -288.02)">
		<path id="XMLID_217_" fill="#25336d" stroke="#263675" stroke-miterlimit="10" stroke-width="3" d="M435.6 403.7l-18-2.3 15.7-15.7 2.3 18zm-15.9-3l14.7 1.9-1.9-14.7-12.8 12.8z" class="st8"/>
	</g>
	<g id="XMLID_212_" transform="matrix(1.3435 0 0 1.3415 -250.44 -288.02)">
		<path id="XMLID_214_" fill="#25336d" stroke="#263675" stroke-miterlimit="10" stroke-width="2.9999700000000002" d="M499.37 337.805l.566-.565 90.862 90.862-.566.566z" class="st8"/>
	</g>
	<g id="XMLID_208_" transform="matrix(1.3435 0 0 1.3415 -250.44 -288.02)">
		<path id="XMLID_209_" fill="#25336d" stroke="#263675" stroke-miterlimit="10" stroke-width="3" d="M500.7 338.6l-18-2.3 15.7-15.7 2.3 18zm-15.8-3.1l14.7 1.9-1.9-14.7-12.8 12.8z" class="st8"/>
	</g>
	<g fill="#dee33a" stroke="#dee33a" stroke-miterlimit="10">
		<g stroke-width="1.3425">
			<path id="XMLID_203_" d="M638.43 899.35L375.37 636.68l263.06-262.67L901.5 636.68 638.43 899.35zM377.25 636.68l261.18 260.79 261.19-260.79-261.19-260.79-261.18 260.79z" class="st9"/>
			<path id="XMLID_201_" d="M638.3 291.11h.269v42.794h-.269z" class="st9"/>
			<path id="XMLID_199_" d="M638.3 939.33h.269v42.794h-.269z" class="st9"/>
			<path id="XMLID_197_" d="M292.75 636.82h42.858v.268H292.75z" class="st9"/>
			<path id="XMLID_195_" d="M941.8 636.82h42.858v.268H941.8z" class="st9"/>
		</g>
		<path id="XMLID_193_" d="M876.2 673l16.4 16.5-16.4 15.9h-14.8l16.2-16.2-16.2-16.2h7.1z" class="st9" transform="matrix(1.3435 0 0 1.3415 -250.44 -288.02)"/>
		<path id="XMLID_191_" d="M448.5 705.4L432.1 689l16.4-16h14.8l-16.2 16.2 16.2 16.2h-7.1z" class="st9" transform="matrix(1.3435 0 0 1.3415 -250.44 -288.02)"/>
		<path id="XMLID_189_" d="M677.8 903l-16.4 16.4-16-16.4v-14.8l16.2 16.2 16.2-16.2v7.1z" class="st9" transform="matrix(1.3435 0 0 1.3415 -250.44 -288.02)"/>
		<path id="XMLID_185_" stroke-width="1.3425" d="M660.6 376.7l-22.437-22.403-22.437 22.403v-21.733l22.84-22.672 22.034 22.672V376.7zm-22.437-24.281l21.093 21.062v-17.976l-20.69-21.33-21.496 21.33v17.976l21.093-21.062z" class="st9"/>
	</g>
</svg>
