<svg xmlns="http://www.w3.org/2000/svg" id="Layer_1" x="0px" y="0px" viewBox="0 0 1285.8787 1274.9835">
	<g id="layer1" fill="#fff">
		<path class="wufoo-letter" d="M1108.4 689.4l35.1-28.1v56.3z"/>
		<path id="XMLID_948_" d="M701.82 323.1h16.536v16.659H701.82z" class="st11" opacity=".85"/>
		<g stroke="#fff" stroke-miterlimit="10">
			<path id="XMLID_996_" fill="#FFFFFF" stroke="#FFFFFF" stroke-width="9" d="M661.4 904.3l16.4-16.1v16.1l-16.6 16.6-16.6-16.6v-18z" opacity="0.85" transform="matrix(1.3335 0 0 1.3434 -244.05 -290.45)"/>
			<path id="XMLID_3_" stroke-width="1.3385" d="M532.73 497.07c.267 1.478.4 2.956.4 4.568 0 15.047-12.135 27.138-26.937 27.138-3.734 0-7.2-.806-10.402-2.15 2.934 11.151 12.935 19.346 24.937 19.346 14.27 0 25.737-11.688 25.737-25.929 0-9.941-5.6-18.674-13.735-22.973z" class="st13" opacity=".85"/>
			<ellipse id="XMLID_1_" cx="656.21" cy="505.27" stroke-width="1.3385" class="st13" opacity=".85" rx="8.8013" ry="8.8667"/>
		</g>
	</g>
</svg>
