<svg width="1327.3" height="1327.3" version="1.1" viewBox="0 0 1327.3 1327.3" xmlns="http://www.w3.org/2000/svg">
    <g transform="translate(.045524 .015524)" fill="#fff" stroke-width="1.333">
        <path d="m602.92 496a19.597 19.597 0 0 0-4.67-3.453l-3.908-2.079 2.076 3.91c3.494 6.586 2.298 14.555-2.976 19.83-5.274 5.273-13.244 6.472-19.83 2.977l-3.905-2.074 2.074 3.906c0.91 1.72 2.073 3.29 3.452 4.67a19.449 19.449 0 0 0 13.844 5.734c5.229 0 10.146-2.036 13.844-5.735 3.697-3.697 5.734-8.614 5.734-13.844s-2.037-10.145-5.734-13.842"/>
        <path d="m563.2 535.72a19.597 19.597 0 0 0-4.67-3.453l-3.908-2.079 2.076 3.91c3.494 6.586 2.298 14.555-2.976 19.83-5.274 5.273-13.244 6.472-19.83 2.977l-3.905-2.075 2.074 3.907c0.91 1.72 2.073 3.29 3.452 4.67a19.449 19.449 0 0 0 13.844 5.734c5.229 0 10.146-2.036 13.844-5.735 3.697-3.697 5.734-8.614 5.734-13.844s-2.037-10.145-5.734-13.842"/>
        <path d="m521.8 577.12a19.597 19.597 0 0 0-4.67-3.453l-3.908-2.079 2.076 3.91c3.494 6.586 2.298 14.555-2.976 19.83-5.274 5.273-13.244 6.472-19.83 2.977l-3.905-2.075 2.074 3.907c0.91 1.72 2.073 3.29 3.452 4.67a19.449 19.449 0 0 0 13.844 5.734c5.229 0 10.146-2.036 13.844-5.735 3.697-3.697 5.734-8.614 5.734-13.844s-2.037-10.145-5.734-13.842"/>
        <path d="m833.09 603.62a19.597 19.597 0 0 0 3.453-4.67l2.079-3.908-3.91 2.076c-6.586 3.494-14.555 2.298-19.83-2.976-5.273-5.274-6.472-13.244-2.977-19.83l2.075-3.905-3.907 2.074c-1.72 0.91-3.29 2.073-4.67 3.452a19.449 19.449 0 0 0-5.734 13.844c0 5.229 2.036 10.146 5.735 13.844 3.697 3.697 8.614 5.734 13.844 5.734s10.145-2.037 13.842-5.734"/>
        <path d="m793.39 563.9a19.597 19.597 0 0 0 3.453-4.67l2.079-3.908-3.91 2.076c-6.586 3.494-14.555 2.298-19.83-2.976-5.273-5.274-6.472-13.244-2.977-19.83l2.075-3.905-3.907 2.074c-1.72 0.91-3.29 2.073-4.67 3.452a19.449 19.449 0 0 0-5.734 13.844c0 5.229 2.036 10.146 5.735 13.844 3.697 3.697 8.614 5.734 13.844 5.734s10.145-2.037 13.842-5.734"/>
        <path d="m751.99 522.5a19.597 19.597 0 0 0 3.453-4.67l2.079-3.908-3.91 2.076c-6.586 3.494-14.555 2.298-19.83-2.976-5.273-5.274-6.472-13.244-2.977-19.83l2.075-3.905-3.907 2.074c-1.72 0.91-3.29 2.073-4.67 3.452a19.449 19.449 0 0 0-5.734 13.844c0 5.229 2.036 10.146 5.735 13.844 3.697 3.697 8.614 5.734 13.844 5.734s10.145-2.037 13.842-5.734"/>
        <path d="m721.79 832.45a19.597 19.597 0 0 0 4.67 3.453l3.908 2.079-2.076-3.91c-3.494-6.586-2.298-14.555 2.976-19.83 5.274-5.273 13.244-6.472 19.83-2.977l3.905 2.075-2.074-3.907a19.511 19.511 0 0 0-3.452-4.67 19.449 19.449 0 0 0-13.844-5.734 19.449 19.449 0 0 0-13.844 5.735c-3.697 3.697-5.734 8.614-5.734 13.844s2.037 10.145 5.734 13.842"/>
        <path d="m761.59 792.73a19.597 19.597 0 0 0 4.67 3.453l3.908 2.079-2.076-3.91c-3.494-6.586-2.298-14.555 2.976-19.83 5.274-5.273 13.244-6.472 19.83-2.977l3.905 2.075-2.074-3.907a19.511 19.511 0 0 0-3.452-4.67 19.449 19.449 0 0 0-13.844-5.734 19.449 19.449 0 0 0-13.844 5.735c-3.697 3.697-5.734 8.614-5.734 13.844s2.037 10.145 5.734 13.842"/>
        <path d="m802.99 751.32a19.597 19.597 0 0 0 4.67 3.453l3.908 2.079-2.076-3.91c-3.494-6.586-2.298-14.555 2.976-19.83 5.274-5.273 13.244-6.472 19.83-2.977l3.905 2.075-2.074-3.907a19.511 19.511 0 0 0-3.452-4.67 19.449 19.449 0 0 0-13.844-5.734 19.449 19.449 0 0 0-13.844 5.735c-3.697 3.697-5.734 8.614-5.734 13.844s2.037 10.145 5.734 13.842"/>
        <path d="m496.78 722.28a19.597 19.597 0 0 0-3.453 4.67l-2.079 3.908 3.91-2.076c6.586-3.494 14.555-2.298 19.83 2.976 5.273 5.274 6.472 13.244 2.977 19.83l-2.075 3.905 3.907-2.074c1.72-0.91 3.29-2.073 4.67-3.452a19.449 19.449 0 0 0 5.734-13.844c0-5.229-2.036-10.146-5.735-13.844-3.697-3.697-8.614-5.734-13.844-5.734s-10.145 2.037-13.842 5.734"/>
        <path d="m536.5 762a19.597 19.597 0 0 0-3.453 4.67l-2.079 3.908 3.91-2.076c6.586-3.494 14.555-2.298 19.83 2.976 5.273 5.274 6.472 13.244 2.977 19.83l-2.075 3.905 3.907-2.074c1.72-0.91 3.29-2.073 4.67-3.452a19.449 19.449 0 0 0 5.734-13.844c0-5.229-2.036-10.146-5.735-13.844-3.697-3.697-8.614-5.734-13.844-5.734s-10.145 2.037-13.842 5.734"/>
        <path d="m577.9 803.4a19.597 19.597 0 0 0-3.453 4.67l-2.079 3.908 3.91-2.076c6.586-3.494 14.555-2.298 19.83 2.976 5.273 5.274 6.472 13.244 2.977 19.83l-2.075 3.905 3.907-2.074c1.72-0.91 3.29-2.073 4.67-3.452a19.449 19.449 0 0 0 5.734-13.844c0-5.229-2.036-10.146-5.735-13.844-3.697-3.697-8.614-5.734-13.844-5.734s-10.145 2.037-13.842 5.734"/>
    </g>
</svg>