<svg viewBox="0 0 1327.3 1327.3">
 <g fill="#fff">
  <path d="M1327.2 702.8l-48.403-38.787 48.403-38.787z"/>
  <path d="M1149.8 928.61l-6.8-61.653 61.653 6.8z"/>
  <path d="M1060 1017.8l-6.8-61.653 61.653 6.8z"/>
  <path d="M970.03 1107.8l-6.8-61.653 61.653 6.8z"/>
  <path d="M880.04 1197.8l-6.8-61.653 61.653 6.8z"/>
  <path d="M625.01 1327.3l38.787-48.403 38.787 48.403z"/>
  <path d="M399.2 1149.8l61.653-6.8-6.8 61.653z"/>
  <path d="M310 1060l61.653-6.8-6.8 61.653z"/>
  <path d="M220.02 970.06l61.653-6.8-6.8 61.653z"/>
  <path d="M130.03 880.07l61.653-6.8-6.8 61.653z"/>
  <path d="M0 626.11l48.403 38.78L0 703.68z"/>
  <path d="M177.43 400.29l6.8 61.653-61.653-6.8z"/>
  <path d="M267.23 311.1l6.8 61.653-61.653-6.8z"/>
  <path d="M357.21 221.11l6.8 61.653-61.653-6.8z"/>
  <path d="M447.2 131.12l6.8 61.653-61.653-6.8z"/>
  <path d="M702.32 0l-38.78 48.403L624.75 0z"/>
  <path d="M928.14 177.44l-61.653 6.8 6.8-61.653z"/>
  <path d="M1017.3 267.23l-61.653 6.8 6.8-61.653z"/>
  <path d="M1107.3 357.22l-61.655 6.8 6.8-61.655z"/>
  <path d="M1197.3 447.21l-61.653 6.8 6.8-61.653z"/>
 </g>
</svg>