<svg width="1327.3" height="1327.3" version="1.1" viewBox="0 0 1327.3 1327.3" xmlns="http://www.w3.org/2000/svg">
 <g>
  <g transform="translate(14.204 27.806)">
   <g transform="matrix(1.3333 0 0 -1.3333 1313 674.99)">
    <path d="M 0,0 -36.303,29.091 0,58.182 Z" fill="#fff"/>
   </g>
   <g transform="matrix(1.3333 0 0 -1.3333 1135.6 900.8)">
    <path d="m0 0-5.1 46.241 46.241-5.1z" fill="#fff"/>
   </g>
   <g transform="matrix(1.3333 0 0 -1.3333 1045.8 990)">
    <path d="m0 0-5.1 46.241 46.241-5.1z" fill="#fff"/>
   </g>
   <g transform="matrix(1.3333 0 0 -1.3333 955.83 1080)">
    <path d="m0 0-5.1 46.241 46.241-5.1z" fill="#fff"/>
   </g>
   <g transform="matrix(1.3333 0 0 -1.3333 865.84 1170)">
    <path d="m0 0-5.1 46.241 46.241-5.1z" fill="#fff"/>
   </g>
   <g transform="matrix(1.3333 0 0 -1.3333 610.81 1299.5)">
    <path d="M 0,0 29.091,36.303 58.182,0 Z" fill="#fff"/>
   </g>
   <g transform="matrix(1.3333 0 0 -1.3333 385 1122)">
    <path d="m0 0 46.241 5.1-5.1-46.241z" fill="#fff"/>
   </g>
   <g transform="matrix(1.3333 0 0 -1.3333 295.8 1032.2)">
    <path d="m0 0 46.241 5.1-5.1-46.241z" fill="#fff"/>
   </g>
   <g transform="matrix(1.3333 0 0 -1.3333 205.82 942.25)">
    <path d="m0 0 46.241 5.1-5.1-46.241z" fill="#fff"/>
   </g>
   <g transform="matrix(1.3333 0 0 -1.3333 115.83 852.26)">
    <path d="m0 0 46.241 5.1-5.1-46.241z" fill="#fff"/>
   </g>
   <g transform="matrix(1.3333 0 0 -1.3333 -14.204 598.3)">
    <path d="M 0,0 36.303,-29.091 0,-58.182 Z" fill="#fff"/>
   </g>
   <g transform="matrix(1.3333 0 0 -1.3333 163.23 372.48)">
    <path d="m0 0 5.1-46.241-46.241 5.1z" fill="#fff"/>
   </g>
   <g transform="matrix(1.3333 0 0 -1.3333 253.03 283.29)">
    <path d="m0 0 5.1-46.241-46.241 5.1z" fill="#fff"/>
   </g>
   <g transform="matrix(1.3333 0 0 -1.3333 343.01 193.3)">
    <path d="m0 0 5.1-46.241-46.241 5.1z" fill="#fff"/>
   </g>
   <g transform="matrix(1.3333 0 0 -1.3333 433 103.31)">
    <path d="m0 0 5.1-46.241-46.241 5.1z" fill="#fff"/>
   </g>
   <g transform="matrix(1.3333 0 0 -1.3333 688.12 -27.806)">
    <path d="m0 0-29.091-36.303-29.091 36.303z" fill="#fff"/>
   </g>
   <g transform="matrix(1.3333 0 0 -1.3333 913.94 149.63)">
    <path d="m0 0-46.241-5.1 5.1 46.241z" fill="#fff"/>
   </g>
   <g transform="matrix(1.3333 0 0 -1.3333 1003.1 239.42)">
    <path d="m0 0-46.241-5.1 5.1 46.241z" fill="#fff"/>
   </g>
   <path d="m1093.1 329.41-61.655 6.8 6.8-61.655z" fill="#fff"/>
   <g transform="matrix(1.3333 0 0 -1.3333 1183.1 419.4)">
    <path d="m0 0-46.241-5.1 5.1 46.241z" fill="#fff"/>
   </g>
  </g>
 </g>
</svg>