<svg width="1327.3" height="1327.3" version="1.1" viewBox="0 0 1327.3 1327.3" xmlns="http://www.w3.org/2000/svg">
 <g>
  <g transform="translate(-724.99 -180.39)">
   <g transform="matrix(1.3333 0 0 -1.3333 1127.5 813.74)">
    <path d="m0 0h-27.467l-20.99-20.393 20.948-21.009h27.509l-20.701 20.701z" fill="#fff"/>
   </g>
   <path d="m1361.1 1102.5v36.623l27.191 27.987 28.012-27.931v-36.679l-27.601 27.601z" fill="#fff"/>
   <g transform="matrix(1.3333 0 0 -1.3333 1649.7 869.16)">
    <path d="m0 0h27.467l20.99 20.393-20.948 21.009h-27.509l20.701-20.701z" fill="#fff"/>
   </g>
   <g transform="matrix(1.3333 0 0 -1.3333 1415.7 585.52)">
    <path d="m0 0v27.467l-20.393 20.99-21.009-20.948v-27.509l20.701 20.701z" fill="#fff"/>
   </g>
  </g>
 </g>
</svg>