<svg width="1327.3" height="1327.3" version="1.1" viewBox="0 0 1327.3 1327.3" xmlns="http://www.w3.org/2000/svg">
 <g>
  <g transform="translate(36.926 99.701)">
   <g fill="#fff">
    <path d="m691.31 242.35h-15.753v-15.753h15.753z"/>
    <path d="m665.55 216.58h-15.753v-15.753h15.753z"/>
    <path d="m692.27 215.85h-15.753v-15.753h15.753z"/>
    <path d="m733.59 284.62h-15.753v-15.753h15.753z"/>
    <path d="m707.82 258.85h-15.753v-15.753h15.753z"/>
    <path d="m734.54 258.13h-15.753v-15.753h15.753z"/>
    <path d="m775.77 326.8h-15.753v-15.753h15.753z"/>
    <path d="m750 301.03h-15.753v-15.753h15.753z"/>
    <path d="m776.72 300.31h-15.753v-15.753h15.753z"/>
    <path d="m817.89 368.92h-15.753v-15.753h15.753z"/>
    <path d="m792.12 343.16h-15.753v-15.753h15.753z"/>
    <path d="m818.85 342.43h-15.753v-15.753h15.753z"/>
    <path d="m860.25 411.28h-15.753v-15.753h15.753z"/>
    <path d="m834.49 385.52h-15.753v-15.753h15.753z"/>
    <path d="m861.21 384.79h-15.753v-15.753h15.753z"/>
    <path d="m902.61 453.65h-15.753v-15.753h15.753z"/>
    <path d="m876.85 427.88h-15.753v-15.753h15.753z"/>
    <path d="m903.57 427.15h-15.753v-15.753h15.753z"/>
    <path d="m944.68 495.71h-15.753v-15.753h15.753z"/>
    <path d="m918.92 469.95h-15.753v-15.753h15.753z"/>
    <path d="m945.64 469.22h-15.753v-15.753h15.753z"/>
    <path d="m986.9 537.93h-15.753v-15.753h15.753z"/>
   </g>
   <g transform="matrix(1.3333 0 0 -1.3333 1021.9 573.8)">
    <path d="M 0,0 -8.355,8.355 0,16.71 8.355,8.355 Z" fill="#fff"/>
   </g>
   <g fill="#fff">
    <path d="m961.14 512.17h-15.753v-15.753h15.753z"/>
    <path d="m987.86 511.44h-15.755v-15.753h15.755z"/>
    <path d="m560.41 883.74h15.753v15.753h-15.753z"/>
    <path d="m586.18 909.5h15.753v15.753h-15.753z"/>
    <path d="m559.46 910.23h15.753v15.753h-15.753z"/>
    <path d="m518.14 841.46h15.753v15.753h-15.753z"/>
    <path d="m543.91 867.23h15.753v15.753h-15.753z"/>
    <path d="m517.19 867.96h15.753v15.753h-15.753z"/>
    <path d="m475.96 799.28h15.753v15.753h-15.753z"/>
    <path d="m501.73 825.05h15.753v15.753h-15.753z"/>
    <path d="m475.01 825.78h15.753v15.753h-15.753z"/>
    <path d="m433.84 757.16h15.753v15.753h-15.753z"/>
    <path d="m459.6 782.93h15.753v15.753h-15.753z"/>
    <path d="m432.88 783.65h15.753v15.753h-15.753z"/>
    <path d="m391.48 714.8h15.753v15.753h-15.753z"/>
    <path d="m417.24 740.56h15.753v15.753h-15.753z"/>
    <path d="m390.52 741.29h15.753v15.753h-15.753z"/>
    <path d="m349.12 672.44h15.753v15.753h-15.753z"/>
    <path d="m374.88 698.2h15.753v15.753h-15.753z"/>
    <path d="m348.16 698.93h15.753v15.753h-15.753z"/>
    <path d="m307.05 630.37h15.753v15.753h-15.753z"/>
    <path d="m332.81 656.13h15.753v15.753h-15.753z"/>
    <path d="m306.09 656.86h15.753v15.753h-15.753z"/>
    <path d="m264.83 588.15h15.753v15.753h-15.753z"/>
   </g>
   <g transform="matrix(1.3333 0 0 -1.3333 231.54 552.12)">
    <path d="m0 0 8.355-8.355-8.355-8.355-8.355 8.355z" fill="#fff"/>
   </g>
   <g fill="#fff">
    <path d="m290.59 613.91h15.753v15.753h-15.753z"/>
    <path d="m263.87 614.64h15.753v15.753h-15.753z"/>
    <path d="m305.97 512.19h-15.753v-15.753h15.753z"/>
    <path d="m280.21 537.96h-15.753v-15.753h15.753z"/>
    <path d="m279.48 511.23h-15.753v-15.753h15.753z"/>
    <path d="m348.25 469.92h-15.753v-15.753h15.753z"/>
    <path d="m322.48 495.68h-15.753v-15.753h15.753z"/>
    <path d="m321.75 468.96h-15.753v-15.753h15.753z"/>
    <path d="m390.43 427.74h-15.753v-15.753h15.753z"/>
    <path d="m364.66 453.5h-15.753v-15.753h15.753z"/>
    <path d="m363.93 426.78h-15.753v-15.753h15.753z"/>
    <path d="m432.55 385.61h-15.753v-15.753h15.753z"/>
    <path d="m406.78 411.38h-15.753v-15.753h15.753z"/>
    <path d="m406.06 384.66h-15.753v-15.753h15.753z"/>
    <path d="m474.91 343.25h-15.753v-15.753h15.753z"/>
    <path d="m449.15 369.02h-15.753v-15.753h15.753z"/>
    <path d="m448.42 342.3h-15.753v-15.753h15.753z"/>
    <path d="m517.27 300.89h-15.753v-15.753h15.753z"/>
    <path d="m491.51 326.66h-15.753v-15.753h15.753z"/>
    <path d="m490.78 299.93h-15.753v-15.753h15.753z"/>
    <path d="m559.34 258.82h-15.753v-15.753h15.753z"/>
    <path d="m533.58 284.59h-15.753v-15.753h15.753z"/>
    <path d="m532.85 257.87h-15.753v-15.753h15.753z"/>
    <path d="m601.56 216.6h-15.753v-15.753h15.753z"/>
   </g>
   <g transform="matrix(1.3333 0 0 -1.3333 636.82 169.87)">
    <path d="m0 0-8.355-8.355-8.355 8.355 8.355 8.355z" fill="#fff"/>
   </g>
   <g fill="#fff">
    <path d="m575.8 242.37h-15.753v-15.753h15.753z"/>
    <path d="m575.07 215.65h-15.753v-15.753h15.753z"/>
    <path d="m945.53 613.69h15.753v15.753h-15.753z"/>
    <path d="m971.29 587.92h15.753v15.753h-15.753z"/>
    <path d="m972.02 614.64h15.753v15.753h-15.753z"/>
    <path d="m903.26 655.96h15.753v15.753h-15.753z"/>
    <path d="m929.02 630.19h15.753v15.753h-15.753z"/>
    <path d="m929.75 656.91h15.753v15.753h-15.753z"/>
    <path d="m861.08 698.14h15.753v15.753h-15.753z"/>
    <path d="m886.84 672.37h15.753v15.753h-15.753z"/>
    <path d="m887.57 699.09h15.753v15.753h-15.753z"/>
    <path d="m818.95 740.26h15.753v15.753h-15.753z"/>
    <path d="m844.72 714.5h15.753v15.753h-15.753z"/>
    <path d="m845.45 741.22h15.753v15.753h-15.753z"/>
    <path d="m776.59 782.62h15.753v15.753h-15.753z"/>
    <path d="m802.36 756.86h15.753v15.753h-15.753z"/>
    <path d="m803.08 783.58h15.753v15.753h-15.753z"/>
    <path d="m734.23 824.99h15.753v15.753h-15.753z"/>
    <path d="m759.99 799.22h15.753v15.753h-15.753z"/>
    <path d="m760.72 825.94h15.753v15.753h-15.753z"/>
    <path d="m692.16 867.05h15.753v15.753h-15.753z"/>
    <path d="m717.93 841.29h15.753v15.753h-15.753z"/>
    <path d="m718.65 868.01h15.753v15.753h-15.753z"/>
    <path d="m649.94 909.27h15.753v15.753h-15.753z"/>
   </g>
   <g transform="matrix(1.3333 0 0 -1.3333 614.97 958)">
    <path d="M 0,0 8.355,8.355 16.71,0 8.355,-8.355 Z" fill="#fff"/>
   </g>
   <path d="m675.71 883.51h15.753v15.753h-15.753z" fill="#fff"/>
   <path d="m676.43 910.23h15.753v15.753h-15.753z" fill="#fff"/>
  </g>
 </g>
</svg>