<?xml version="1.0" encoding="UTF-8" standalone="no"?>
<svg id="svg2" xmlns:rdf="http://www.w3.org/1999/02/22-rdf-syntax-ns#" xmlns="http://www.w3.org/2000/svg" height="1327.3" width="1327.3" version="1.1" xmlns:cc="http://creativecommons.org/ns#" xmlns:dc="http://purl.org/dc/elements/1.1/" viewBox="0 0 1327.3 1327.3">
 <metadata id="metadata228">
  <rdf:RDF>
   <cc:Work rdf:about="">
    <dc:format>image/svg+xml</dc:format>
    <dc:type rdf:resource="http://purl.org/dc/dcmitype/StillImage"/>
    <dc:title/>
   </cc:Work>
  </rdf:RDF>
 </metadata>
 <g fill="#fff">
  <path id="path10" d="m728.24 342.05h-15.753v-15.753h15.753z"/>
  <path id="path12" d="m702.48 316.28h-15.753v-15.753h15.753z"/>
  <path id="path14" d="m729.2 315.55h-15.753v-15.753h15.753z"/>
  <path id="path16" d="m770.52 384.32h-15.753v-15.753h15.753z"/>
  <path id="path18" d="m744.75 358.55h-15.753v-15.753h15.753z"/>
  <path id="path20" d="m771.47 357.83h-15.753v-15.753h15.753z"/>
  <path id="path22" d="m812.7 426.5h-15.753v-15.753h15.753z"/>
  <path id="path24" d="m786.93 400.73h-15.753v-15.753h15.753z"/>
  <path id="path26" d="m813.65 400.01h-15.753v-15.753h15.753z"/>
  <path id="path28" d="m854.82 468.62h-15.753v-15.753h15.753z"/>
  <path id="path30" d="m829.05 442.86h-15.753v-15.753h15.753z"/>
  <path id="path32" d="m855.78 442.13h-15.753v-15.753h15.753z"/>
  <path id="path34" d="m897.18 510.98h-15.753v-15.753h15.753z"/>
  <path id="path36" d="m871.42 485.22h-15.753v-15.753h15.753z"/>
  <path id="path38" d="m898.14 484.49h-15.753v-15.753h15.753z"/>
  <path id="path40" d="m939.54 553.35h-15.753v-15.753h15.753z"/>
  <path id="path42" d="m913.78 527.58h-15.753v-15.753h15.753z"/>
  <path id="path44" d="m940.5 526.85h-15.753v-15.753h15.753z"/>
  <path id="path46" d="m981.61 595.41h-15.753v-15.753h15.753z"/>
  <path id="path48" d="m955.85 569.65h-15.753v-15.753h15.753z"/>
  <path id="path50" d="m982.57 568.92h-15.753v-15.753h15.753z"/>
  <path id="path52" d="m1023.8 637.63h-15.753v-15.753h15.753z"/>
  <path id="path56" d="m1058.8 673.5-11.14-11.14 11.14-11.14 11.14 11.14z"/>
  <path id="path60" d="m998.07 611.87h-15.753v-15.753h15.753z"/>
  <path id="path62" d="m1024.8 611.14h-15.755v-15.753h15.755z"/>
  <path id="path64" d="m597.34 983.44h15.753v15.753h-15.753z"/>
  <path id="path66" d="m623.11 1009.2h15.753v15.753h-15.753z"/>
  <path id="path68" d="m596.39 1009.9h15.753v15.753h-15.753z"/>
  <path id="path70" d="m555.07 941.16h15.753v15.753h-15.753z"/>
  <path id="path72" d="m580.84 966.93h15.753v15.753h-15.753z"/>
  <path id="path74" d="m554.12 967.66h15.753v15.753h-15.753z"/>
  <path id="path76" d="m512.89 898.98h15.753v15.753h-15.753z"/>
  <path id="path78" d="m538.66 924.75h15.753v15.753h-15.753z"/>
  <path id="path80" d="m511.94 925.48h15.753v15.753h-15.753z"/>
  <path id="path82" d="m470.77 856.86h15.753v15.753h-15.753z"/>
  <path id="path84" d="m496.53 882.63h15.753v15.753h-15.753z"/>
  <path id="path86" d="m469.81 883.35h15.753v15.753h-15.753z"/>
  <path id="path88" d="m428.41 814.5h15.753v15.753h-15.753z"/>
  <path id="path90" d="m454.17 840.26h15.753v15.753h-15.753z"/>
  <path id="path92" d="m427.45 840.99h15.753v15.753h-15.753z"/>
  <path id="path94" d="m386.05 772.14h15.753v15.753h-15.753z"/>
  <path id="path96" d="m411.81 797.9h15.753v15.753h-15.753z"/>
  <path id="path98" d="m385.09 798.63h15.753v15.753h-15.753z"/>
  <path id="path100" d="m343.98 730.07h15.753v15.753h-15.753z"/>
  <path id="path102" d="m369.74 755.83h15.753v15.753h-15.753z"/>
  <path id="path104" d="m343.02 756.56h15.753v15.753h-15.753z"/>
  <path id="path106" d="m301.76 687.85h15.753v15.753h-15.753z"/>
  <path id="path110" d="m268.47 651.82 11.14 11.14-11.14 11.14-11.14-11.14z"/>
  <path id="path114" d="m327.52 713.61h15.753v15.753h-15.753z"/>
  <path id="path116" d="m300.8 714.34h15.753v15.753h-15.753z"/>
  <path id="path118" d="m342.9 611.89h-15.753v-15.753h15.753z"/>
  <path id="path120" d="m317.14 637.66h-15.753v-15.753h15.753z"/>
  <path id="path122" d="m316.41 610.93h-15.753v-15.753h15.753z"/>
  <path id="path124" d="m385.18 569.62h-15.753v-15.753h15.753z"/>
  <path id="path126" d="m359.41 595.38h-15.753v-15.753h15.753z"/>
  <path id="path128" d="m358.68 568.66h-15.753v-15.753h15.753z"/>
  <path id="path130" d="m427.36 527.44h-15.753v-15.753h15.753z"/>
  <path id="path132" d="m401.59 553.2h-15.753v-15.753h15.753z"/>
  <path id="path134" d="m400.86 526.48h-15.753v-15.753h15.753z"/>
  <path id="path136" d="m469.48 485.31h-15.753v-15.753h15.753z"/>
  <path id="path138" d="m443.71 511.08h-15.753v-15.753h15.753z"/>
  <path id="path140" d="m442.99 484.36h-15.753v-15.753h15.753z"/>
  <path id="path142" d="m511.84 442.95h-15.753v-15.753h15.753z"/>
  <path id="path144" d="m486.08 468.72h-15.753v-15.753h15.753z"/>
  <path id="path146" d="m485.35 442h-15.753v-15.753h15.753z"/>
  <path id="path148" d="m554.2 400.59h-15.753v-15.753h15.753z"/>
  <path id="path150" d="m528.44 426.36h-15.753v-15.753h15.753z"/>
  <path id="path152" d="m527.71 399.63h-15.753v-15.753h15.753z"/>
  <path id="path154" d="m596.27 358.52h-15.753v-15.753h15.753z"/>
  <path id="path156" d="m570.51 384.29h-15.753v-15.753h15.753z"/>
  <path id="path158" d="m569.78 357.57h-15.753v-15.753h15.753z"/>
  <path id="path160" d="m638.49 316.3h-15.753v-15.753h15.753z"/>
  <path id="path164" d="m673.75 269.57-11.14 11.14-11.14-11.14 11.14-11.14z"/>
  <path id="path168" d="m612.73 342.07h-15.753v-15.753h15.753z"/>
  <path id="path170" d="m612 315.35h-15.753v-15.753h15.753z"/>
  <path id="path172" d="m982.46 713.39h15.753v15.753h-15.753z"/>
  <path id="path174" d="m1008.2 687.62h15.753v15.753h-15.753z"/>
  <path id="path176" d="m1008.9 714.34h15.753v15.753h-15.753z"/>
  <path id="path178" d="m940.19 755.66h15.753v15.753h-15.753z"/>
  <path id="path180" d="m965.95 729.89h15.753v15.753h-15.753z"/>
  <path id="path182" d="m966.68 756.61h15.753v15.753h-15.753z"/>
  <path id="path184" d="m898.01 797.84h15.753v15.753h-15.753z"/>
  <path id="path186" d="m923.77 772.07h15.753v15.753h-15.753z"/>
  <path id="path188" d="m924.5 798.79h15.753v15.753h-15.753z"/>
  <path id="path190" d="m855.88 839.96h15.753v15.753h-15.753z"/>
  <path id="path192" d="m881.65 814.2h15.753v15.753h-15.753z"/>
  <path id="path194" d="m882.38 840.92h15.753v15.753h-15.753z"/>
  <path id="path196" d="m813.52 882.32h15.753v15.753h-15.753z"/>
  <path id="path198" d="m839.29 856.56h15.753v15.753h-15.753z"/>
  <path id="path200" d="m840.01 883.28h15.753v15.753h-15.753z"/>
  <path id="path202" d="m771.16 924.69h15.753v15.753h-15.753z"/>
  <path id="path204" d="m796.92 898.92h15.753v15.753h-15.753z"/>
  <path id="path206" d="m797.65 925.64h15.753v15.753h-15.753z"/>
  <path id="path208" d="m729.09 966.75h15.753v15.753h-15.753z"/>
  <path id="path210" d="m754.86 940.99h15.753v15.753h-15.753z"/>
  <path id="path212" d="m755.58 967.71h15.753v15.753h-15.753z"/>
  <path id="path214" d="m686.87 1009h15.753v15.753h-15.753z"/>
  <path id="path218" d="m651.9 1057.7 11.14-11.14 11.14 11.14-11.14 11.14z"/>
  <path id="path220" d="m712.64 983.21h15.753v15.753h-15.753z"/>
  <path id="path222" d="m713.36 1009.9h15.753v15.753h-15.753z"/>
 </g>
</svg>
